%
M48
M72
T01C0.0197
T02C0.0236
T03C0.0354
T04C0.0433
T05C0.0472
T06C0.0512
T07C0.1299
%
T01
X3487Y4511
X2897Y4708
X2503Y5101
X2503Y5889
X5456Y7936
X8298Y9629
X9314Y11026
X10180Y11597
X11164Y12385
X11479Y11597
X11479Y11046
X12936Y13566
X12649Y14066
X12739Y15141
X13330Y16007
X14314Y16007
X14905Y16715
X15298Y16519
X15692Y16715
X16086Y16519
X16597Y18605
X16479Y19471
X18448Y19629
X19432Y20456
X20023Y22326
X22385Y17700
X18645Y15337
X16775Y10613
X13723Y7463
X12739Y7070
X10574Y6873
X7119Y11591
X6619Y11591
X7700Y12070
X7700Y12582
X7700Y13566
X7700Y14058
X9196Y14156
X9196Y14747
X9196Y15534
X9196Y16519
X8802Y17503
X10377Y17306
X11361Y16322
X10377Y14550
X10377Y13960
X7700Y16066
X6440Y16066
X6046Y13172
X21991Y7070
T02
X20810Y6479
X20810Y8767
X19550Y8645
X18054Y11991
X17464Y11991
X18054Y12975
X17464Y15830
X18054Y18131
X20023Y20652
X18054Y21440
X15298Y20259
X9747Y21440
X8212Y18290
X6243Y19078
X13723Y13172
X12739Y10810
X9747Y8841
X8723Y7424
X7385Y8841
X6637Y10023
X5456Y9629
X10180Y3330
T03
X10223Y8066
X9223Y8066
X8223Y8066
X11223Y8066
X12223Y8066
X13223Y8066
X14223Y8066
X15223Y8066
X16223Y8066
X17223Y8066
X16554Y12853
X16554Y13853
X16554Y14853
X16554Y15853
X19554Y15853
X19554Y14853
X19554Y13853
X19554Y12853
T04
X23747Y9767
X23747Y8767
X23747Y7767
X23747Y6767
X23747Y5767
X23747Y4767
X21273Y3904
X21273Y5904
X18773Y5904
X18773Y3904
X16548Y3904
X16548Y5904
X14048Y5904
X14048Y3904
X13936Y2149
X12936Y2149
X11936Y2149
X10936Y2149
X11824Y3904
X11824Y5904
X9324Y5904
X9324Y3904
X7099Y3904
X7099Y5904
X4599Y5904
X4599Y3904
X6531Y1361
X7531Y1361
X14936Y2149
X14436Y22621
X15436Y22621
X16436Y22621
X17436Y22621
X13436Y22621
X12436Y22621
X11436Y22621
X10436Y22621
X9436Y22621
X8436Y22621
T05
X4125Y20074
X4125Y19074
X2125Y19074
X2125Y20074
X2109Y17074
X2125Y16074
X2125Y15074
X2125Y14074
X2125Y13074
X2125Y12074
X4125Y12074
X4125Y13074
X4125Y14074
X4125Y15074
X4125Y16074
X4125Y17074
X21625Y18074
X21625Y19074
X23625Y19074
X23625Y18074
X23625Y16074
X23625Y15074
X21625Y15074
X21625Y16074
X21625Y13074
X21625Y12074
X23625Y12074
X23625Y13074
T06
X3968Y7215
X1968Y7215
T07
X2700Y1755
X12936Y19865
X23172Y22227
X2700Y22227
X23172Y1755
M30
