G75*
G70*
%OFA0B0*%
%FSLAX24Y24*%
%IPPOS*%
%LPD*%
%AMOC8*
5,1,8,0,0,1.08239X$1,22.5*
%
%ADD10C,0.0315*%
%ADD11R,0.0650X0.0650*%
%ADD12C,0.0650*%
%ADD13C,0.0531*%
%ADD14R,0.0531X0.0531*%
%ADD15C,0.0709*%
%ADD16C,0.2540*%
%ADD17C,0.0768*%
%ADD18C,0.0354*%
D10*
X003487Y004511D03*
X002897Y004708D03*
X002503Y005101D03*
X002503Y005889D03*
X005456Y007936D03*
X008298Y009629D03*
X009314Y011026D03*
X010180Y011597D03*
X011164Y012385D03*
X011479Y011597D03*
X011479Y011046D03*
X012936Y013566D03*
X012649Y014066D03*
X012739Y015141D03*
X013330Y016007D03*
X014314Y016007D03*
X014905Y016715D03*
X015298Y016519D03*
X015692Y016715D03*
X016086Y016519D03*
X016597Y018605D03*
X016479Y019471D03*
X018448Y019629D03*
X019432Y020456D03*
X020023Y022326D03*
X022385Y017700D03*
X018645Y015337D03*
X016775Y010613D03*
X013723Y007463D03*
X012739Y007070D03*
X010574Y006873D03*
X007119Y011591D03*
X006619Y011591D03*
X007700Y012070D03*
X007700Y012582D03*
X007700Y013566D03*
X007700Y014058D03*
X009196Y014156D03*
X009196Y014747D03*
X009196Y015534D03*
X009196Y016519D03*
X008802Y017503D03*
X010377Y017306D03*
X011361Y016322D03*
X010377Y014550D03*
X010377Y013960D03*
X007700Y016066D03*
X006440Y016066D03*
X006046Y013172D03*
X021991Y007070D03*
D11*
X023747Y009767D03*
X014936Y002149D03*
X007531Y001361D03*
D12*
X006531Y001361D03*
X007099Y003904D03*
X007099Y005904D03*
X009324Y005904D03*
X009324Y003904D03*
X010936Y002149D03*
X011936Y002149D03*
X012936Y002149D03*
X013936Y002149D03*
X014048Y003904D03*
X014048Y005904D03*
X011824Y005904D03*
X011824Y003904D03*
X016548Y003904D03*
X016548Y005904D03*
X018773Y005904D03*
X018773Y003904D03*
X021273Y003904D03*
X021273Y005904D03*
X023747Y005767D03*
X023747Y006767D03*
X023747Y007767D03*
X023747Y008767D03*
X023747Y004767D03*
X017436Y022621D03*
X016436Y022621D03*
X015436Y022621D03*
X014436Y022621D03*
X013436Y022621D03*
X012436Y022621D03*
X011436Y022621D03*
X010436Y022621D03*
X009436Y022621D03*
X008436Y022621D03*
X004599Y005904D03*
X004599Y003904D03*
D13*
X008223Y008066D03*
X009223Y008066D03*
X010223Y008066D03*
X011223Y008066D03*
X012223Y008066D03*
X013223Y008066D03*
X014223Y008066D03*
X015223Y008066D03*
X016223Y008066D03*
X017223Y008066D03*
X016554Y012853D03*
X016554Y013853D03*
X016554Y014853D03*
X019554Y014853D03*
X019554Y013853D03*
X019554Y012853D03*
X019554Y015853D03*
D14*
X016554Y015853D03*
D15*
X021625Y016074D03*
X021625Y015074D03*
X023625Y015074D03*
X023625Y016074D03*
X023625Y018074D03*
X023625Y019074D03*
X021625Y019074D03*
X021625Y018074D03*
X021625Y013074D03*
X021625Y012074D03*
X023625Y012074D03*
X023625Y013074D03*
X004125Y013074D03*
X004125Y014074D03*
X004125Y015074D03*
X004125Y016074D03*
X004125Y017074D03*
X004125Y019074D03*
X004125Y020074D03*
X002125Y020074D03*
X002125Y019074D03*
X002109Y017074D03*
X002125Y016074D03*
X002125Y015074D03*
X002125Y014074D03*
X002125Y013074D03*
X002125Y012074D03*
X004125Y012074D03*
D16*
X002700Y001755D03*
X023172Y001755D03*
X023172Y022227D03*
X002700Y022227D03*
D17*
X001968Y007215D03*
X003968Y007215D03*
D18*
X005456Y009629D03*
X006637Y010023D03*
X007385Y008841D03*
X008723Y007424D03*
X009747Y008841D03*
X012739Y010810D03*
X013723Y013172D03*
X017464Y011991D03*
X018054Y011991D03*
X018054Y012975D03*
X017464Y015830D03*
X018054Y018131D03*
X020023Y020652D03*
X018054Y021440D03*
X015298Y020259D03*
X009747Y021440D03*
X008212Y018290D03*
X006243Y019078D03*
X019550Y008645D03*
X020810Y008767D03*
X020810Y006479D03*
X010180Y003330D03*
M02*
