G75*
G70*
%OFA0B0*%
%FSLAX24Y24*%
%IPPOS*%
%LPD*%
%AMOC8*
5,1,8,0,0,1.08239X$1,22.5*
%
%ADD10R,0.0394X0.0354*%
%ADD11C,0.0315*%
%ADD12R,0.0650X0.0650*%
%ADD13C,0.0650*%
%ADD14R,0.0669X0.0472*%
%ADD15C,0.0531*%
%ADD16R,0.0394X0.0138*%
%ADD17R,0.0354X0.0394*%
%ADD18R,0.0531X0.0531*%
%ADD19C,0.0709*%
%ADD20R,0.0638X0.0236*%
%ADD21R,0.0472X0.0669*%
%ADD22R,0.0197X0.0315*%
%ADD23C,0.2540*%
%ADD24C,0.0768*%
%ADD25C,0.0100*%
%ADD26C,0.0120*%
%ADD27C,0.0320*%
%ADD28C,0.0160*%
%ADD29C,0.0240*%
%ADD30C,0.0354*%
%ADD31C,0.0050*%
D10*
X007109Y006873D03*
X007739Y006873D03*
X008684Y006873D03*
X009314Y006873D03*
X011440Y006873D03*
X012070Y006873D03*
X013212Y010810D03*
X013842Y010810D03*
X014393Y010810D03*
X015023Y010810D03*
X015574Y010810D03*
X016204Y010810D03*
X006861Y012086D03*
X006231Y012086D03*
X006503Y011066D03*
X005873Y011066D03*
D11*
X006619Y011591D03*
X007119Y011591D03*
X007700Y012070D03*
X007700Y012582D03*
X007700Y013566D03*
X007700Y014058D03*
X009196Y014156D03*
X009196Y014747D03*
X009196Y015534D03*
X009196Y016519D03*
X008802Y017503D03*
X010377Y017306D03*
X011361Y016322D03*
X012739Y015141D03*
X013330Y016007D03*
X014314Y016007D03*
X014905Y016715D03*
X015298Y016519D03*
X015692Y016715D03*
X016086Y016519D03*
X016597Y018605D03*
X016479Y019471D03*
X018448Y019629D03*
X019432Y020456D03*
X020023Y022326D03*
X022385Y017700D03*
X018645Y015337D03*
X016775Y010613D03*
X013723Y007463D03*
X012739Y007070D03*
X010574Y006873D03*
X008298Y009629D03*
X009314Y011026D03*
X010180Y011597D03*
X011164Y012385D03*
X011479Y011597D03*
X011479Y011046D03*
X012936Y013566D03*
X012649Y014066D03*
X010377Y013960D03*
X010377Y014550D03*
X007700Y016066D03*
X006440Y016066D03*
X006046Y013172D03*
X005456Y007936D03*
X002503Y005889D03*
X002503Y005101D03*
X002897Y004708D03*
X003487Y004511D03*
X021991Y007070D03*
D12*
X023747Y009767D03*
X014936Y002149D03*
X007531Y001361D03*
D13*
X006531Y001361D03*
X007099Y003904D03*
X007099Y005904D03*
X009324Y005904D03*
X009324Y003904D03*
X010936Y002149D03*
X011936Y002149D03*
X012936Y002149D03*
X013936Y002149D03*
X014048Y003904D03*
X014048Y005904D03*
X011824Y005904D03*
X011824Y003904D03*
X016548Y003904D03*
X016548Y005904D03*
X018773Y005904D03*
X018773Y003904D03*
X021273Y003904D03*
X021273Y005904D03*
X023747Y005767D03*
X023747Y006767D03*
X023747Y007767D03*
X023747Y008767D03*
X023747Y004767D03*
X017436Y022621D03*
X016436Y022621D03*
X015436Y022621D03*
X014436Y022621D03*
X013436Y022621D03*
X012436Y022621D03*
X011436Y022621D03*
X010436Y022621D03*
X009436Y022621D03*
X008436Y022621D03*
X004599Y005904D03*
X004599Y003904D03*
D14*
X018842Y021440D03*
X018842Y022621D03*
D15*
X019554Y015853D03*
X019554Y014853D03*
X019554Y013853D03*
X019554Y012853D03*
X016554Y012853D03*
X016554Y013853D03*
X016554Y014853D03*
X016223Y008066D03*
X017223Y008066D03*
X015223Y008066D03*
X014223Y008066D03*
X013223Y008066D03*
X012223Y008066D03*
X011223Y008066D03*
X010223Y008066D03*
X009223Y008066D03*
X008223Y008066D03*
D16*
X017286Y009639D03*
X017286Y009895D03*
X017286Y010150D03*
X017286Y010406D03*
X018822Y010406D03*
X018822Y010150D03*
X018822Y009895D03*
X018822Y009639D03*
D17*
X016204Y009708D03*
X016204Y010337D03*
X015574Y011282D03*
X015023Y011282D03*
X015023Y011912D03*
X015574Y011912D03*
X014393Y010337D03*
X014393Y009708D03*
X014905Y006400D03*
X014905Y005771D03*
X010180Y005771D03*
X010180Y006400D03*
X005456Y006400D03*
X005456Y005771D03*
X005456Y008526D03*
X005456Y009156D03*
X002700Y009708D03*
X002700Y010337D03*
X017503Y013015D03*
X017503Y013645D03*
X020889Y018251D03*
X020889Y018881D03*
X020023Y021125D03*
X020023Y021755D03*
X019629Y006400D03*
X019629Y005771D03*
D18*
X016554Y015853D03*
D19*
X021625Y016074D03*
X021625Y015074D03*
X023625Y015074D03*
X023625Y016074D03*
X023625Y018074D03*
X023625Y019074D03*
X021625Y019074D03*
X021625Y018074D03*
X021625Y013074D03*
X021625Y012074D03*
X023625Y012074D03*
X023625Y013074D03*
X004125Y013074D03*
X004125Y014074D03*
X004125Y015074D03*
X004125Y016074D03*
X004125Y017074D03*
X004125Y019074D03*
X004125Y020074D03*
X002125Y020074D03*
X002125Y019074D03*
X002109Y017074D03*
X002125Y016074D03*
X002125Y015074D03*
X002125Y014074D03*
X002125Y013074D03*
X002125Y012074D03*
X004125Y012074D03*
D20*
X017094Y018131D03*
X017094Y018631D03*
X017094Y019131D03*
X017094Y019631D03*
X019015Y019631D03*
X019015Y019131D03*
X019015Y018631D03*
X019015Y018131D03*
D21*
X018645Y011400D03*
X017464Y011400D03*
D22*
X004255Y010456D03*
X003507Y010456D03*
X003881Y009589D03*
D23*
X002700Y001755D03*
X023172Y001755D03*
X023172Y022227D03*
X002700Y022227D03*
D24*
X001968Y007215D03*
X003968Y007215D03*
D25*
X004284Y005889D02*
X002503Y005889D01*
X002503Y005101D02*
X008560Y005101D01*
X009324Y005904D01*
X010574Y006873D02*
X010574Y007660D01*
X010180Y008054D01*
X012739Y007070D02*
X021991Y007070D01*
X022444Y007070D01*
X023747Y005767D01*
X023747Y006767D02*
X023050Y007463D01*
X013723Y007463D01*
X014015Y005904D02*
X012975Y004904D01*
X003094Y004904D01*
X002897Y004708D01*
X003487Y004511D02*
X003684Y004708D01*
X017503Y004708D01*
X018700Y005904D01*
X018822Y009639D02*
X018822Y009895D01*
X018251Y009895D01*
X018251Y009826D01*
X018822Y010150D02*
X018822Y010406D01*
X017286Y010406D02*
X017277Y010416D01*
X017267Y010416D01*
X014511Y014353D02*
X013723Y014353D01*
X012936Y013566D01*
X012649Y014066D02*
X013330Y014747D01*
X014511Y014747D01*
X016086Y016322D01*
X016086Y016519D01*
X015692Y016322D02*
X015692Y016715D01*
X015692Y016322D02*
X014511Y015141D01*
X012739Y015141D01*
X011361Y016322D02*
X014511Y016322D01*
X014905Y016715D01*
X015298Y016519D02*
X015298Y016322D01*
X014511Y015534D01*
X009196Y015534D01*
X009196Y014747D02*
X009393Y014550D01*
X010377Y014550D01*
X010180Y014156D02*
X010377Y013960D01*
X010180Y014156D02*
X009196Y014156D01*
X007700Y014058D02*
X006676Y015074D01*
X004125Y015074D01*
X004125Y014074D02*
X007188Y014074D01*
X007700Y013566D01*
X007424Y012778D02*
X007582Y012582D01*
X007700Y012582D01*
X007424Y012778D02*
X005180Y012778D01*
X004865Y013074D01*
X004125Y013074D01*
X004633Y012582D02*
X004125Y012074D01*
X004633Y012582D02*
X007188Y012582D01*
X007700Y012070D01*
X009314Y011026D02*
X011479Y011046D01*
X011479Y011597D02*
X010180Y011597D01*
X014511Y014353D02*
X015495Y015337D01*
X018645Y015337D01*
X021991Y017109D02*
X022385Y016715D01*
X022385Y010023D01*
X022582Y009826D01*
X023688Y009826D01*
X023747Y009767D01*
X021991Y017109D02*
X011164Y017109D01*
X010574Y016519D01*
X009196Y016519D01*
X008802Y017503D02*
X010180Y017503D01*
X010377Y017306D01*
X021991Y017306D01*
X022385Y017700D01*
X019015Y019631D02*
X018682Y019631D01*
X018448Y019629D01*
X017094Y019631D02*
X017056Y019668D01*
X016676Y019668D01*
X016479Y019471D01*
X004599Y005904D02*
X004284Y005889D01*
D26*
X007424Y008881D02*
X007424Y010219D01*
X007031Y010613D01*
X006046Y010613D01*
X005849Y010810D01*
X005849Y011066D01*
X005849Y011089D02*
X005873Y011066D01*
X005849Y011089D02*
X005849Y011794D01*
X006141Y012086D01*
X006231Y012086D01*
X006619Y011591D02*
X006619Y011182D01*
X007119Y011591D02*
X007119Y011991D01*
X006861Y012086D01*
X004129Y012070D02*
X004125Y012074D01*
X006440Y016066D02*
X007700Y016066D01*
X011164Y012385D02*
X020936Y012385D01*
X021625Y013074D01*
X017286Y010150D02*
X017286Y009895D01*
X017237Y010023D01*
X017070Y010023D01*
X016775Y010318D01*
X016775Y010613D01*
X016775Y011105D01*
X015968Y011912D01*
X015574Y011912D01*
X015023Y011912D01*
X015023Y011282D02*
X015023Y010810D01*
X015574Y010810D02*
X015574Y011282D01*
X016204Y010810D02*
X016204Y010337D01*
X016361Y010337D01*
X017070Y009629D01*
X017277Y009629D01*
X017286Y009639D01*
X014393Y010337D02*
X014393Y010810D01*
X013842Y010810D01*
X014015Y005904D02*
X014048Y005904D01*
X018700Y005904D02*
X018773Y005904D01*
X014314Y016007D02*
X013330Y016007D01*
D27*
X012444Y021440D02*
X009747Y021440D01*
X005259Y021440D01*
X004156Y020337D01*
X004156Y020062D01*
X003290Y020062D01*
X003290Y016125D01*
X004125Y016125D01*
X004125Y016074D01*
X012444Y021440D02*
X015298Y021440D01*
X018054Y021440D01*
D28*
X018842Y021440D01*
X019432Y022030D02*
X018842Y022621D01*
X018251Y023211D01*
X014625Y023211D01*
X014511Y023211D01*
X014452Y023074D01*
X014452Y022660D01*
X014452Y023074D02*
X014452Y023211D01*
X014511Y023211D01*
X012436Y022621D02*
X012444Y022582D01*
X017267Y016519D02*
X021180Y016519D01*
X021625Y016074D01*
X021625Y015074D02*
X020940Y015074D01*
X020719Y014853D01*
X019554Y014853D01*
X017464Y013763D02*
X017503Y013645D01*
X017503Y013015D02*
X017464Y012975D01*
X018645Y011991D02*
X018645Y011400D01*
X018251Y011007D01*
X018251Y009826D01*
X018251Y009629D01*
X017956Y009334D01*
X016775Y009334D01*
X016479Y009629D01*
X016282Y009629D01*
X016204Y009708D01*
X016125Y009629D01*
X014511Y009629D01*
X014432Y009708D01*
X014393Y009708D01*
X014393Y009668D01*
X015023Y010810D02*
X015574Y010810D01*
X016204Y009708D02*
X016204Y009629D01*
X017267Y010416D02*
X017267Y010810D01*
X017464Y011007D01*
X017464Y011400D01*
X019550Y008645D02*
X011164Y008645D01*
X010180Y009629D01*
X008298Y009629D01*
X007424Y008881D02*
X007385Y008841D01*
X009786Y008841D01*
X009393Y008054D02*
X009223Y008066D01*
X009393Y008054D02*
X009393Y006873D01*
X009314Y006873D01*
X008684Y006873D02*
X008684Y007385D01*
X008723Y007424D01*
X008684Y006873D02*
X008605Y006873D01*
X008605Y006479D01*
X010180Y006479D01*
X010180Y006400D01*
X010180Y006361D01*
X010180Y006479D02*
X012149Y006479D01*
X012149Y006873D01*
X012149Y008054D01*
X012223Y008066D01*
X012149Y006873D02*
X012070Y006873D01*
X012149Y006479D02*
X014905Y006479D01*
X014905Y006400D01*
X014905Y006479D02*
X019629Y006479D01*
X019629Y006400D01*
X019629Y006479D02*
X020810Y006479D01*
X019629Y005771D02*
X019182Y005771D01*
X018773Y005904D01*
X016548Y003904D02*
X016578Y003822D01*
X016578Y003330D01*
X021302Y003330D01*
X021302Y003920D01*
X024353Y003920D01*
X024353Y007739D01*
X024314Y007778D01*
X023759Y007778D01*
X023747Y007767D01*
X023747Y008767D02*
X020810Y008767D01*
X021597Y011991D02*
X021625Y012074D01*
X017267Y016519D02*
X016601Y015853D01*
X016554Y015853D01*
X013723Y013172D02*
X006046Y013172D01*
X006619Y011182D02*
X006503Y011066D01*
X005873Y011066D02*
X005849Y011066D01*
X006637Y010023D02*
X004471Y010023D01*
X004038Y009589D01*
X003881Y009589D01*
X002818Y009589D01*
X002700Y009708D01*
X002700Y010337D02*
X002621Y010416D01*
X001991Y010416D01*
X001968Y010361D01*
X001968Y007215D01*
X003960Y007223D02*
X003960Y007936D01*
X005456Y007936D01*
X005456Y008526D01*
X005456Y009156D02*
X005456Y009629D01*
X003507Y010456D02*
X002818Y010456D01*
X002700Y010337D01*
X003960Y007223D02*
X003968Y007215D01*
X004599Y005904D02*
X005009Y005771D01*
X005456Y005771D01*
X005456Y006400D02*
X005456Y006479D01*
X007031Y006479D01*
X007031Y006873D01*
X007109Y006873D01*
X007031Y006479D02*
X008605Y006479D01*
X007818Y006873D02*
X007739Y006873D01*
X007818Y006873D02*
X007818Y008054D01*
X008212Y008054D01*
X008223Y008066D01*
X010180Y008054D02*
X010223Y008066D01*
X010574Y006873D02*
X011440Y006873D01*
X010180Y005771D02*
X009733Y005771D01*
X009324Y005904D01*
X007099Y003904D02*
X007129Y003822D01*
X007129Y003330D01*
X010180Y003330D01*
X011853Y003330D01*
X011853Y003822D01*
X011824Y003904D01*
X011853Y003330D02*
X016578Y003330D01*
X014905Y005771D02*
X014458Y005771D01*
X014048Y005904D01*
X013212Y010810D02*
X012739Y010810D01*
X021273Y003904D02*
X021302Y003920D01*
X004156Y020062D02*
X004125Y020074D01*
X019432Y020456D02*
X019432Y022030D01*
X020023Y021755D02*
X020023Y022326D01*
X020023Y021243D02*
X020023Y021125D01*
X020023Y020652D01*
D29*
X020023Y020062D01*
X016479Y020062D01*
X014708Y018290D01*
X008212Y018290D01*
X006243Y017897D02*
X015101Y017897D01*
X015810Y018605D01*
X016597Y018605D01*
X017070Y018605D01*
X017070Y018607D01*
X017094Y018631D01*
X017094Y019131D01*
X019015Y019131D01*
X019015Y018631D02*
X019432Y018631D01*
X019826Y019078D01*
X021007Y019075D01*
X020889Y018881D01*
X021007Y019075D02*
X021625Y019074D01*
X020889Y018251D02*
X020810Y018093D01*
X020023Y018093D01*
X019629Y017700D01*
X017464Y017700D01*
X017094Y018131D01*
X018054Y018131D02*
X019015Y018131D01*
X020810Y018093D02*
X021401Y018093D01*
X021625Y018074D01*
X019554Y015853D02*
X019432Y015830D01*
X017464Y015830D01*
X017464Y013763D02*
X016676Y013763D01*
X016554Y013853D01*
X016676Y012975D02*
X016554Y012853D01*
X016676Y012975D02*
X017464Y012975D01*
X018054Y012975D01*
X018054Y011991D02*
X018645Y011991D01*
X021597Y011991D01*
X017464Y011991D02*
X017464Y011400D01*
X015298Y020259D02*
X015298Y021440D01*
X012444Y021440D02*
X012444Y022582D01*
X006243Y019078D02*
X006243Y017897D01*
D30*
X006243Y019078D03*
X008212Y018290D03*
X009747Y021440D03*
X015298Y020259D03*
X018054Y021440D03*
X020023Y020652D03*
X018054Y018131D03*
X017464Y015830D03*
X018054Y012975D03*
X018054Y011991D03*
X017464Y011991D03*
X019550Y008645D03*
X020810Y008767D03*
X020810Y006479D03*
X013723Y013172D03*
X012739Y010810D03*
X009747Y008841D03*
X008723Y007424D03*
X007385Y008841D03*
X006637Y010023D03*
X005456Y009629D03*
X010180Y003330D03*
D31*
X014436Y022621D02*
X014625Y022680D01*
X014625Y023211D01*
M02*
