G75*
G70*
%OFA0B0*%
%FSLAX24Y24*%
%IPPOS*%
%LPD*%
%AMOC8*
5,1,8,0,0,1.08239X$1,22.5*
%
%ADD10C,0.1379*%
%ADD11R,0.0749X0.0336*%
%ADD12R,0.0434X0.0474*%
%ADD13R,0.0474X0.0434*%
%ADD14C,0.0315*%
%ADD15C,0.0395*%
%ADD16R,0.0650X0.0650*%
%ADD17R,0.0730X0.0730*%
%ADD18C,0.0650*%
%ADD19C,0.0730*%
%ADD20C,0.0531*%
%ADD21C,0.0611*%
%ADD22R,0.0552X0.0749*%
%ADD23R,0.0531X0.0531*%
%ADD24R,0.0611X0.0611*%
%ADD25C,0.0709*%
%ADD26C,0.0789*%
%ADD27R,0.0316X0.0474*%
%ADD28R,0.0749X0.0552*%
%ADD29R,0.0277X0.0395*%
%ADD30C,0.2540*%
%ADD31C,0.2620*%
%ADD32C,0.0768*%
%ADD33C,0.0848*%
%ADD34C,0.0354*%
%ADD35C,0.0434*%
D10*
X012936Y019865D03*
D11*
X012062Y016566D03*
X012062Y016066D03*
X012062Y015566D03*
X012062Y015066D03*
X012062Y014566D03*
X012062Y014066D03*
X012062Y013566D03*
X012062Y013066D03*
X012062Y012566D03*
X012062Y012066D03*
X012062Y011566D03*
X012062Y011066D03*
X012062Y010566D03*
X012062Y010066D03*
X008298Y010066D03*
X008298Y010566D03*
X008298Y011066D03*
X008298Y011566D03*
X008298Y012066D03*
X008298Y012566D03*
X008298Y013066D03*
X008298Y013566D03*
X008298Y014066D03*
X008298Y014566D03*
X008298Y015066D03*
X008298Y015566D03*
X008298Y016066D03*
X008298Y016566D03*
D12*
X008802Y018960D03*
X008802Y019589D03*
X012739Y016637D03*
X012739Y016007D03*
X015889Y014865D03*
X015889Y014235D03*
X021007Y021125D03*
X021597Y021125D03*
X021597Y021755D03*
X021007Y021755D03*
X007385Y010495D03*
X007385Y009865D03*
X004471Y009156D03*
X004471Y008526D03*
D13*
X005200Y007503D03*
X005830Y007503D03*
X007897Y009038D03*
X008527Y009038D03*
X007660Y011066D03*
X007031Y011066D03*
X006932Y015554D03*
X007562Y015554D03*
X007542Y016558D03*
X007542Y017109D03*
X007542Y017700D03*
X006912Y017700D03*
X006912Y017109D03*
X006912Y016558D03*
X006558Y019668D03*
X005928Y019668D03*
X013015Y017306D03*
X013645Y017306D03*
X013645Y014550D03*
X013015Y014550D03*
X017149Y018605D03*
X017779Y018605D03*
X019708Y022818D03*
X020338Y022818D03*
X021282Y007660D03*
X021912Y007660D03*
D14*
X021991Y007070D03*
X016775Y010613D03*
X013723Y007463D03*
X012739Y007070D03*
X010574Y006873D03*
X008298Y009629D03*
X009314Y011026D03*
X010180Y011597D03*
X011164Y012385D03*
X011479Y011597D03*
X011479Y011046D03*
X012936Y013566D03*
X012649Y014066D03*
X012739Y015141D03*
X013330Y016007D03*
X014314Y016007D03*
X014905Y016715D03*
X015298Y016519D03*
X015692Y016715D03*
X016086Y016519D03*
X016597Y018605D03*
X016479Y019471D03*
X018448Y019629D03*
X019432Y020456D03*
X020023Y022326D03*
X022385Y017700D03*
X018645Y015337D03*
X011361Y016322D03*
X010377Y017306D03*
X009196Y016519D03*
X009196Y015534D03*
X009196Y014747D03*
X009196Y014156D03*
X010377Y013960D03*
X010377Y014550D03*
X007700Y014058D03*
X007700Y013566D03*
X007700Y012582D03*
X007700Y012070D03*
X007119Y011591D03*
X006619Y011591D03*
X006046Y013172D03*
X006440Y016066D03*
X007700Y016066D03*
X008802Y017503D03*
X005456Y007936D03*
X002503Y005889D03*
X002503Y005101D03*
X002897Y004708D03*
X003487Y004511D03*
D15*
X003487Y004511D03*
X002897Y004708D03*
X002503Y005101D03*
X002503Y005889D03*
X005456Y007936D03*
X008298Y009629D03*
X009314Y011026D03*
X010180Y011597D03*
X011164Y012385D03*
X011479Y011597D03*
X011479Y011046D03*
X012936Y013566D03*
X012649Y014066D03*
X012739Y015141D03*
X013330Y016007D03*
X014314Y016007D03*
X014905Y016715D03*
X015298Y016519D03*
X015692Y016715D03*
X016086Y016519D03*
X016597Y018605D03*
X016479Y019471D03*
X018448Y019629D03*
X019432Y020456D03*
X020023Y022326D03*
X022385Y017700D03*
X018645Y015337D03*
X016775Y010613D03*
X013723Y007463D03*
X012739Y007070D03*
X010574Y006873D03*
X007119Y011591D03*
X006619Y011591D03*
X007700Y012070D03*
X007700Y012582D03*
X007700Y013566D03*
X007700Y014058D03*
X009196Y014156D03*
X009196Y014747D03*
X009196Y015534D03*
X009196Y016519D03*
X008802Y017503D03*
X010377Y017306D03*
X011361Y016322D03*
X010377Y014550D03*
X010377Y013960D03*
X007700Y016066D03*
X006440Y016066D03*
X006046Y013172D03*
X021991Y007070D03*
D16*
X023747Y009767D03*
X014936Y002149D03*
X007531Y001361D03*
D17*
X007531Y001361D03*
X014936Y002149D03*
X023747Y009767D03*
D18*
X023747Y008767D03*
X023747Y007767D03*
X023747Y006767D03*
X023747Y005767D03*
X023747Y004767D03*
X021273Y003904D03*
X021273Y005904D03*
X018773Y005904D03*
X018773Y003904D03*
X016548Y003904D03*
X016548Y005904D03*
X014048Y005904D03*
X014048Y003904D03*
X013936Y002149D03*
X012936Y002149D03*
X011936Y002149D03*
X010936Y002149D03*
X011824Y003904D03*
X011824Y005904D03*
X009324Y005904D03*
X009324Y003904D03*
X007099Y003904D03*
X007099Y005904D03*
X004599Y005904D03*
X004599Y003904D03*
X006531Y001361D03*
X008436Y022621D03*
X009436Y022621D03*
X010436Y022621D03*
X011436Y022621D03*
X012436Y022621D03*
X013436Y022621D03*
X014436Y022621D03*
X015436Y022621D03*
X016436Y022621D03*
X017436Y022621D03*
D19*
X017436Y022621D03*
X016436Y022621D03*
X015436Y022621D03*
X014436Y022621D03*
X013436Y022621D03*
X012436Y022621D03*
X011436Y022621D03*
X010436Y022621D03*
X009436Y022621D03*
X008436Y022621D03*
X023747Y008767D03*
X023747Y007767D03*
X023747Y006767D03*
X023747Y005767D03*
X023747Y004767D03*
X021273Y003904D03*
X021273Y005904D03*
X018773Y005904D03*
X018773Y003904D03*
X016548Y003904D03*
X016548Y005904D03*
X014048Y005904D03*
X014048Y003904D03*
X013936Y002149D03*
X012936Y002149D03*
X011936Y002149D03*
X010936Y002149D03*
X011824Y003904D03*
X011824Y005904D03*
X009324Y005904D03*
X009324Y003904D03*
X007099Y003904D03*
X007099Y005904D03*
X004599Y005904D03*
X004599Y003904D03*
X006531Y001361D03*
D20*
X008223Y008066D03*
X009223Y008066D03*
X010223Y008066D03*
X011223Y008066D03*
X012223Y008066D03*
X013223Y008066D03*
X014223Y008066D03*
X015223Y008066D03*
X016223Y008066D03*
X017223Y008066D03*
X016554Y012853D03*
X016554Y013853D03*
X016554Y014853D03*
X019554Y014853D03*
X019554Y013853D03*
X019554Y012853D03*
X019554Y015853D03*
D21*
X019554Y015853D03*
X019554Y014853D03*
X019554Y013853D03*
X019554Y012853D03*
X016554Y012853D03*
X016554Y013853D03*
X016554Y014853D03*
X016223Y008066D03*
X017223Y008066D03*
X015223Y008066D03*
X014223Y008066D03*
X013223Y008066D03*
X012223Y008066D03*
X011223Y008066D03*
X010223Y008066D03*
X009223Y008066D03*
X008223Y008066D03*
D22*
X013133Y012621D03*
X014314Y012621D03*
X018054Y017030D03*
X019235Y017030D03*
D23*
X016554Y015853D03*
D24*
X016554Y015853D03*
D25*
X021625Y016074D03*
X021625Y015074D03*
X023625Y015074D03*
X023625Y016074D03*
X023625Y018074D03*
X023625Y019074D03*
X021625Y019074D03*
X021625Y018074D03*
X021625Y013074D03*
X021625Y012074D03*
X023625Y012074D03*
X023625Y013074D03*
X004125Y013074D03*
X004125Y014074D03*
X004125Y015074D03*
X004125Y016074D03*
X004125Y017074D03*
X004125Y019074D03*
X004125Y020074D03*
X002125Y020074D03*
X002125Y019074D03*
X002109Y017074D03*
X002125Y016074D03*
X002125Y015074D03*
X002125Y014074D03*
X002125Y013074D03*
X002125Y012074D03*
X004125Y012074D03*
D26*
X004125Y012074D03*
X004125Y013074D03*
X004125Y014074D03*
X004125Y015074D03*
X004125Y016074D03*
X004125Y017074D03*
X004125Y019074D03*
X004125Y020074D03*
X002125Y020074D03*
X002125Y019074D03*
X002109Y017074D03*
X002125Y016074D03*
X002125Y015074D03*
X002125Y014074D03*
X002125Y013074D03*
X002125Y012074D03*
X021625Y012074D03*
X021625Y013074D03*
X021625Y015074D03*
X021625Y016074D03*
X021625Y018074D03*
X021625Y019074D03*
X023625Y019074D03*
X023625Y018074D03*
X023625Y016074D03*
X023625Y015074D03*
X023625Y013074D03*
X023625Y012074D03*
D27*
X020397Y020967D03*
X019649Y020967D03*
X019649Y021912D03*
X020023Y021912D03*
X020397Y021912D03*
X005830Y009314D03*
X005082Y009314D03*
X005082Y008369D03*
X005456Y008369D03*
X005830Y008369D03*
D28*
X006637Y008251D03*
X006637Y009432D03*
X018842Y020849D03*
X018842Y022030D03*
D29*
X007995Y020495D03*
X007247Y020495D03*
X007621Y019629D03*
X007601Y019117D03*
X006853Y019117D03*
X007227Y018251D03*
D30*
X002700Y022227D03*
X023172Y022227D03*
X023172Y001755D03*
X002700Y001755D03*
D31*
X002700Y001755D03*
X023172Y001755D03*
X023172Y022227D03*
X002700Y022227D03*
D32*
X001968Y007215D03*
X003968Y007215D03*
D33*
X003968Y007215D03*
X001968Y007215D03*
D34*
X005456Y009629D03*
X006637Y010023D03*
X007385Y008841D03*
X008723Y007424D03*
X009747Y008841D03*
X012739Y010810D03*
X013723Y013172D03*
X017464Y011991D03*
X018054Y011991D03*
X018054Y012975D03*
X017464Y015830D03*
X018054Y018131D03*
X020023Y020652D03*
X018054Y021440D03*
X015298Y020259D03*
X009747Y021440D03*
X008212Y018290D03*
X006243Y019078D03*
X019550Y008645D03*
X020810Y008767D03*
X020810Y006479D03*
X010180Y003330D03*
D35*
X010180Y003330D03*
X008723Y007424D03*
X009747Y008841D03*
X007385Y008841D03*
X006637Y010023D03*
X005456Y009629D03*
X012739Y010810D03*
X013723Y013172D03*
X017464Y011991D03*
X018054Y011991D03*
X018054Y012975D03*
X017464Y015830D03*
X018054Y018131D03*
X020023Y020652D03*
X018054Y021440D03*
X015298Y020259D03*
X009747Y021440D03*
X008212Y018290D03*
X006243Y019078D03*
X019550Y008645D03*
X020810Y008767D03*
X020810Y006479D03*
M02*
