G75*
G70*
%OFA0B0*%
%FSLAX24Y24*%
%IPPOS*%
%LPD*%
%AMOC8*
5,1,8,0,0,1.08239X$1,22.5*
%
%ADD10C,0.0039*%
%ADD11C,0.0030*%
%ADD12C,0.0050*%
D10*
X005259Y005771D02*
X005247Y005745D01*
X005237Y005717D01*
X005231Y005689D01*
X005229Y005661D01*
X005230Y005632D01*
X005235Y005603D01*
X005244Y005576D01*
X005256Y005550D01*
X005271Y005525D01*
X005289Y005503D01*
X005310Y005483D01*
X005333Y005466D01*
X005358Y005452D01*
X005385Y005441D01*
X005413Y005434D01*
X005442Y005430D01*
X005470Y005430D01*
X005499Y005434D01*
X005527Y005441D01*
X005554Y005452D01*
X005579Y005466D01*
X005602Y005483D01*
X005623Y005503D01*
X005641Y005525D01*
X005656Y005550D01*
X005668Y005576D01*
X005677Y005603D01*
X005682Y005632D01*
X005683Y005661D01*
X005681Y005689D01*
X005675Y005717D01*
X005665Y005745D01*
X005653Y005771D01*
X005653Y006400D01*
X005259Y006400D02*
X005259Y005771D01*
X007109Y006676D02*
X007739Y006676D01*
X007740Y006676D02*
X007765Y006664D01*
X007793Y006654D01*
X007821Y006648D01*
X007849Y006646D01*
X007878Y006647D01*
X007907Y006652D01*
X007934Y006661D01*
X007960Y006673D01*
X007985Y006688D01*
X008007Y006706D01*
X008027Y006727D01*
X008044Y006750D01*
X008058Y006775D01*
X008069Y006802D01*
X008076Y006830D01*
X008080Y006859D01*
X008080Y006887D01*
X008076Y006916D01*
X008069Y006944D01*
X008058Y006971D01*
X008044Y006996D01*
X008027Y007019D01*
X008007Y007040D01*
X007985Y007058D01*
X007960Y007073D01*
X007934Y007085D01*
X007907Y007094D01*
X007878Y007099D01*
X007849Y007100D01*
X007821Y007098D01*
X007793Y007092D01*
X007765Y007082D01*
X007739Y007070D01*
X007109Y007070D01*
X008684Y007070D02*
X009314Y007070D01*
X009340Y007082D01*
X009368Y007092D01*
X009396Y007098D01*
X009424Y007100D01*
X009453Y007099D01*
X009482Y007094D01*
X009509Y007085D01*
X009535Y007073D01*
X009560Y007058D01*
X009582Y007040D01*
X009602Y007019D01*
X009619Y006996D01*
X009633Y006971D01*
X009644Y006944D01*
X009651Y006916D01*
X009655Y006887D01*
X009655Y006859D01*
X009651Y006830D01*
X009644Y006802D01*
X009633Y006775D01*
X009619Y006750D01*
X009602Y006727D01*
X009582Y006706D01*
X009560Y006688D01*
X009535Y006673D01*
X009509Y006661D01*
X009482Y006652D01*
X009453Y006647D01*
X009424Y006646D01*
X009396Y006648D01*
X009368Y006654D01*
X009340Y006664D01*
X009315Y006676D01*
X008684Y006676D01*
X009983Y006400D02*
X009983Y005771D01*
X009971Y005745D01*
X009961Y005717D01*
X009955Y005689D01*
X009953Y005661D01*
X009954Y005632D01*
X009959Y005603D01*
X009968Y005576D01*
X009980Y005550D01*
X009995Y005525D01*
X010013Y005503D01*
X010034Y005483D01*
X010057Y005466D01*
X010082Y005452D01*
X010109Y005441D01*
X010137Y005434D01*
X010166Y005430D01*
X010194Y005430D01*
X010223Y005434D01*
X010251Y005441D01*
X010278Y005452D01*
X010303Y005466D01*
X010326Y005483D01*
X010347Y005503D01*
X010365Y005525D01*
X010380Y005550D01*
X010392Y005576D01*
X010401Y005603D01*
X010406Y005632D01*
X010407Y005661D01*
X010405Y005689D01*
X010399Y005717D01*
X010389Y005745D01*
X010377Y005771D01*
X010377Y006400D01*
X011440Y006676D02*
X011414Y006664D01*
X011386Y006654D01*
X011358Y006648D01*
X011330Y006646D01*
X011301Y006647D01*
X011272Y006652D01*
X011245Y006661D01*
X011219Y006673D01*
X011194Y006688D01*
X011172Y006706D01*
X011152Y006727D01*
X011135Y006750D01*
X011121Y006775D01*
X011110Y006802D01*
X011103Y006830D01*
X011099Y006859D01*
X011099Y006887D01*
X011103Y006916D01*
X011110Y006944D01*
X011121Y006971D01*
X011135Y006996D01*
X011152Y007019D01*
X011172Y007040D01*
X011194Y007058D01*
X011219Y007073D01*
X011245Y007085D01*
X011272Y007094D01*
X011301Y007099D01*
X011330Y007100D01*
X011358Y007098D01*
X011386Y007092D01*
X011414Y007082D01*
X011440Y007070D01*
X012070Y007070D01*
X012070Y006676D02*
X011440Y006676D01*
X014708Y006400D02*
X014708Y005771D01*
X014696Y005745D01*
X014686Y005717D01*
X014680Y005689D01*
X014678Y005661D01*
X014679Y005632D01*
X014684Y005603D01*
X014693Y005576D01*
X014705Y005550D01*
X014720Y005525D01*
X014738Y005503D01*
X014759Y005483D01*
X014782Y005466D01*
X014807Y005452D01*
X014834Y005441D01*
X014862Y005434D01*
X014891Y005430D01*
X014919Y005430D01*
X014948Y005434D01*
X014976Y005441D01*
X015003Y005452D01*
X015028Y005466D01*
X015051Y005483D01*
X015072Y005503D01*
X015090Y005525D01*
X015105Y005550D01*
X015117Y005576D01*
X015126Y005603D01*
X015131Y005632D01*
X015132Y005661D01*
X015130Y005689D01*
X015124Y005717D01*
X015114Y005745D01*
X015102Y005771D01*
X015101Y005771D02*
X015101Y006400D01*
X014590Y009708D02*
X014590Y010337D01*
X014590Y010338D02*
X014602Y010363D01*
X014612Y010391D01*
X014618Y010419D01*
X014620Y010447D01*
X014619Y010476D01*
X014614Y010505D01*
X014605Y010532D01*
X014593Y010558D01*
X014578Y010583D01*
X014560Y010605D01*
X014539Y010625D01*
X014516Y010642D01*
X014491Y010656D01*
X014464Y010667D01*
X014436Y010674D01*
X014407Y010678D01*
X014379Y010678D01*
X014350Y010674D01*
X014322Y010667D01*
X014295Y010656D01*
X014270Y010642D01*
X014247Y010625D01*
X014226Y010605D01*
X014208Y010583D01*
X014193Y010558D01*
X014181Y010532D01*
X014172Y010505D01*
X014167Y010476D01*
X014166Y010447D01*
X014168Y010419D01*
X014174Y010391D01*
X014184Y010363D01*
X014196Y010338D01*
X014196Y009708D01*
X014393Y010613D02*
X015023Y010613D01*
X015023Y011007D02*
X014393Y011007D01*
X014367Y011019D01*
X014339Y011029D01*
X014311Y011035D01*
X014283Y011037D01*
X014254Y011036D01*
X014225Y011031D01*
X014198Y011022D01*
X014172Y011010D01*
X014147Y010995D01*
X014125Y010977D01*
X014105Y010956D01*
X014088Y010933D01*
X014074Y010908D01*
X014063Y010881D01*
X014056Y010853D01*
X014052Y010824D01*
X014052Y010796D01*
X014056Y010767D01*
X014063Y010739D01*
X014074Y010712D01*
X014088Y010687D01*
X014105Y010664D01*
X014125Y010643D01*
X014147Y010625D01*
X014172Y010610D01*
X014198Y010598D01*
X014225Y010589D01*
X014254Y010584D01*
X014283Y010583D01*
X014311Y010585D01*
X014339Y010591D01*
X014367Y010601D01*
X014393Y010613D01*
X013842Y010613D02*
X013212Y010613D01*
X013186Y010601D01*
X013158Y010591D01*
X013130Y010585D01*
X013102Y010583D01*
X013073Y010584D01*
X013044Y010589D01*
X013017Y010598D01*
X012991Y010610D01*
X012966Y010625D01*
X012944Y010643D01*
X012924Y010664D01*
X012907Y010687D01*
X012893Y010712D01*
X012882Y010739D01*
X012875Y010767D01*
X012871Y010796D01*
X012871Y010824D01*
X012875Y010853D01*
X012882Y010881D01*
X012893Y010908D01*
X012907Y010933D01*
X012924Y010956D01*
X012944Y010977D01*
X012966Y010995D01*
X012991Y011010D01*
X013017Y011022D01*
X013044Y011031D01*
X013073Y011036D01*
X013102Y011037D01*
X013130Y011035D01*
X013158Y011029D01*
X013186Y011019D01*
X013212Y011007D01*
X013842Y011007D01*
X014826Y011282D02*
X014826Y011912D01*
X014826Y011913D02*
X014814Y011938D01*
X014804Y011966D01*
X014798Y011994D01*
X014796Y012022D01*
X014797Y012051D01*
X014802Y012080D01*
X014811Y012107D01*
X014823Y012133D01*
X014838Y012158D01*
X014856Y012180D01*
X014877Y012200D01*
X014900Y012217D01*
X014925Y012231D01*
X014952Y012242D01*
X014980Y012249D01*
X015009Y012253D01*
X015037Y012253D01*
X015066Y012249D01*
X015094Y012242D01*
X015121Y012231D01*
X015146Y012217D01*
X015169Y012200D01*
X015190Y012180D01*
X015208Y012158D01*
X015223Y012133D01*
X015235Y012107D01*
X015244Y012080D01*
X015249Y012051D01*
X015250Y012022D01*
X015248Y011994D01*
X015242Y011966D01*
X015232Y011938D01*
X015220Y011913D01*
X015219Y011912D02*
X015219Y011282D01*
X015377Y011282D02*
X015377Y011912D01*
X015377Y011913D02*
X015365Y011938D01*
X015355Y011966D01*
X015349Y011994D01*
X015347Y012022D01*
X015348Y012051D01*
X015353Y012080D01*
X015362Y012107D01*
X015374Y012133D01*
X015389Y012158D01*
X015407Y012180D01*
X015428Y012200D01*
X015451Y012217D01*
X015476Y012231D01*
X015503Y012242D01*
X015531Y012249D01*
X015560Y012253D01*
X015588Y012253D01*
X015617Y012249D01*
X015645Y012242D01*
X015672Y012231D01*
X015697Y012217D01*
X015720Y012200D01*
X015741Y012180D01*
X015759Y012158D01*
X015774Y012133D01*
X015786Y012107D01*
X015795Y012080D01*
X015800Y012051D01*
X015801Y012022D01*
X015799Y011994D01*
X015793Y011966D01*
X015783Y011938D01*
X015771Y011913D01*
X015771Y011282D01*
X015574Y011007D02*
X016204Y011007D01*
X016204Y010613D02*
X015574Y010613D01*
X015548Y010601D01*
X015520Y010591D01*
X015492Y010585D01*
X015464Y010583D01*
X015435Y010584D01*
X015406Y010589D01*
X015379Y010598D01*
X015353Y010610D01*
X015328Y010625D01*
X015306Y010643D01*
X015286Y010664D01*
X015269Y010687D01*
X015255Y010712D01*
X015244Y010739D01*
X015237Y010767D01*
X015233Y010796D01*
X015233Y010824D01*
X015237Y010853D01*
X015244Y010881D01*
X015255Y010908D01*
X015269Y010933D01*
X015286Y010956D01*
X015306Y010977D01*
X015328Y010995D01*
X015353Y011010D01*
X015379Y011022D01*
X015406Y011031D01*
X015435Y011036D01*
X015464Y011037D01*
X015492Y011035D01*
X015520Y011029D01*
X015548Y011019D01*
X015574Y011007D01*
X016007Y010337D02*
X016007Y009708D01*
X016401Y009708D02*
X016401Y010337D01*
X016401Y010338D02*
X016413Y010363D01*
X016423Y010391D01*
X016429Y010419D01*
X016431Y010447D01*
X016430Y010476D01*
X016425Y010505D01*
X016416Y010532D01*
X016404Y010558D01*
X016389Y010583D01*
X016371Y010605D01*
X016350Y010625D01*
X016327Y010642D01*
X016302Y010656D01*
X016275Y010667D01*
X016247Y010674D01*
X016218Y010678D01*
X016190Y010678D01*
X016161Y010674D01*
X016133Y010667D01*
X016106Y010656D01*
X016081Y010642D01*
X016058Y010625D01*
X016037Y010605D01*
X016019Y010583D01*
X016004Y010558D01*
X015992Y010532D01*
X015983Y010505D01*
X015978Y010476D01*
X015977Y010447D01*
X015979Y010419D01*
X015985Y010391D01*
X015995Y010363D01*
X016007Y010338D01*
X017424Y011046D02*
X018684Y011046D01*
X018684Y011755D02*
X017424Y011755D01*
X017424Y011754D02*
X017388Y011765D01*
X017350Y011773D01*
X017312Y011777D01*
X017274Y011776D01*
X017236Y011772D01*
X017199Y011765D01*
X017163Y011753D01*
X017128Y011738D01*
X017095Y011719D01*
X017063Y011698D01*
X017035Y011673D01*
X017008Y011645D01*
X016985Y011615D01*
X016965Y011582D01*
X016948Y011548D01*
X016935Y011513D01*
X016926Y011476D01*
X016920Y011438D01*
X016918Y011400D01*
X016920Y011362D01*
X016926Y011324D01*
X016935Y011287D01*
X016948Y011252D01*
X016965Y011218D01*
X016985Y011185D01*
X017008Y011155D01*
X017035Y011127D01*
X017063Y011102D01*
X017095Y011081D01*
X017128Y011062D01*
X017163Y011047D01*
X017199Y011035D01*
X017236Y011028D01*
X017274Y011024D01*
X017312Y011023D01*
X017350Y011027D01*
X017388Y011035D01*
X017424Y011046D01*
X017306Y013015D02*
X017306Y013645D01*
X017306Y013644D02*
X017306Y013645D02*
X017294Y013670D01*
X017284Y013698D01*
X017278Y013726D01*
X017276Y013754D01*
X017277Y013783D01*
X017282Y013812D01*
X017291Y013839D01*
X017303Y013865D01*
X017318Y013890D01*
X017336Y013912D01*
X017357Y013932D01*
X017380Y013949D01*
X017405Y013963D01*
X017432Y013974D01*
X017460Y013981D01*
X017489Y013985D01*
X017517Y013985D01*
X017546Y013981D01*
X017574Y013974D01*
X017601Y013963D01*
X017626Y013949D01*
X017649Y013932D01*
X017670Y013912D01*
X017688Y013890D01*
X017703Y013865D01*
X017715Y013839D01*
X017724Y013812D01*
X017729Y013783D01*
X017730Y013754D01*
X017728Y013726D01*
X017722Y013698D01*
X017712Y013670D01*
X017700Y013645D01*
X017700Y013645D02*
X017700Y013015D01*
X020692Y018251D02*
X020680Y018225D01*
X020670Y018197D01*
X020664Y018169D01*
X020662Y018141D01*
X020663Y018112D01*
X020668Y018083D01*
X020677Y018056D01*
X020689Y018030D01*
X020704Y018005D01*
X020722Y017983D01*
X020743Y017963D01*
X020766Y017946D01*
X020791Y017932D01*
X020818Y017921D01*
X020846Y017914D01*
X020875Y017910D01*
X020903Y017910D01*
X020932Y017914D01*
X020960Y017921D01*
X020987Y017932D01*
X021012Y017946D01*
X021035Y017963D01*
X021056Y017983D01*
X021074Y018005D01*
X021089Y018030D01*
X021101Y018056D01*
X021110Y018083D01*
X021115Y018112D01*
X021116Y018141D01*
X021114Y018169D01*
X021108Y018197D01*
X021098Y018225D01*
X021086Y018251D01*
X021086Y018881D01*
X020692Y018881D02*
X020692Y018251D01*
X020220Y021124D02*
X020220Y021125D02*
X020233Y021098D01*
X020242Y021070D01*
X020248Y021041D01*
X020250Y021011D01*
X020248Y020981D01*
X020242Y020952D01*
X020233Y020924D01*
X020220Y020898D01*
X020203Y020873D01*
X020184Y020850D01*
X020161Y020831D01*
X020137Y020814D01*
X020110Y020801D01*
X020082Y020792D01*
X020053Y020786D01*
X020023Y020784D01*
X019993Y020786D01*
X019964Y020792D01*
X019936Y020801D01*
X019910Y020814D01*
X019885Y020831D01*
X019862Y020850D01*
X019843Y020873D01*
X019826Y020898D01*
X019813Y020924D01*
X019804Y020952D01*
X019798Y020981D01*
X019796Y021011D01*
X019798Y021041D01*
X019804Y021070D01*
X019813Y021098D01*
X019826Y021125D01*
X019826Y021125D02*
X019826Y021755D01*
X020219Y021755D02*
X020219Y021125D01*
X019196Y021400D02*
X019196Y022660D01*
X019207Y022696D01*
X019215Y022734D01*
X019219Y022772D01*
X019218Y022810D01*
X019214Y022848D01*
X019207Y022885D01*
X019195Y022921D01*
X019180Y022956D01*
X019161Y022989D01*
X019140Y023021D01*
X019115Y023049D01*
X019087Y023076D01*
X019057Y023099D01*
X019024Y023119D01*
X018990Y023136D01*
X018955Y023149D01*
X018918Y023158D01*
X018880Y023164D01*
X018842Y023166D01*
X018804Y023164D01*
X018766Y023158D01*
X018729Y023149D01*
X018694Y023136D01*
X018660Y023119D01*
X018627Y023099D01*
X018597Y023076D01*
X018569Y023049D01*
X018544Y023021D01*
X018523Y022989D01*
X018504Y022956D01*
X018489Y022921D01*
X018477Y022885D01*
X018470Y022848D01*
X018466Y022810D01*
X018465Y022772D01*
X018469Y022734D01*
X018477Y022696D01*
X018488Y022660D01*
X018487Y022660D02*
X018487Y021400D01*
X006861Y012283D02*
X006887Y012295D01*
X006915Y012305D01*
X006943Y012311D01*
X006971Y012313D01*
X007000Y012312D01*
X007029Y012307D01*
X007056Y012298D01*
X007082Y012286D01*
X007107Y012271D01*
X007129Y012253D01*
X007149Y012232D01*
X007166Y012209D01*
X007180Y012184D01*
X007191Y012157D01*
X007198Y012129D01*
X007202Y012100D01*
X007202Y012072D01*
X007198Y012043D01*
X007191Y012015D01*
X007180Y011988D01*
X007166Y011963D01*
X007149Y011940D01*
X007129Y011919D01*
X007107Y011901D01*
X007082Y011886D01*
X007056Y011874D01*
X007029Y011865D01*
X007000Y011860D01*
X006971Y011859D01*
X006943Y011861D01*
X006915Y011867D01*
X006887Y011877D01*
X006862Y011889D01*
X006231Y011889D01*
X006231Y012282D02*
X006861Y012282D01*
X006503Y011263D02*
X005873Y011263D01*
X005873Y010869D02*
X006503Y010869D01*
X006504Y010869D02*
X006529Y010857D01*
X006557Y010847D01*
X006585Y010841D01*
X006613Y010839D01*
X006642Y010840D01*
X006671Y010845D01*
X006698Y010854D01*
X006724Y010866D01*
X006749Y010881D01*
X006771Y010899D01*
X006791Y010920D01*
X006808Y010943D01*
X006822Y010968D01*
X006833Y010995D01*
X006840Y011023D01*
X006844Y011052D01*
X006844Y011080D01*
X006840Y011109D01*
X006833Y011137D01*
X006822Y011164D01*
X006808Y011189D01*
X006791Y011212D01*
X006771Y011233D01*
X006749Y011251D01*
X006724Y011266D01*
X006698Y011278D01*
X006671Y011287D01*
X006642Y011292D01*
X006613Y011293D01*
X006585Y011291D01*
X006557Y011285D01*
X006529Y011275D01*
X006503Y011263D01*
X005653Y009156D02*
X005653Y009157D02*
X005665Y009182D01*
X005675Y009210D01*
X005681Y009238D01*
X005683Y009266D01*
X005682Y009295D01*
X005677Y009324D01*
X005668Y009351D01*
X005656Y009377D01*
X005641Y009402D01*
X005623Y009424D01*
X005602Y009444D01*
X005579Y009461D01*
X005554Y009475D01*
X005527Y009486D01*
X005499Y009493D01*
X005470Y009497D01*
X005442Y009497D01*
X005413Y009493D01*
X005385Y009486D01*
X005358Y009475D01*
X005333Y009461D01*
X005310Y009444D01*
X005289Y009424D01*
X005271Y009402D01*
X005256Y009377D01*
X005244Y009351D01*
X005235Y009324D01*
X005230Y009295D01*
X005229Y009266D01*
X005231Y009238D01*
X005237Y009210D01*
X005247Y009182D01*
X005259Y009157D01*
X005259Y008526D01*
X005653Y008526D02*
X005653Y009156D01*
X004452Y009727D02*
X004452Y010023D01*
X004452Y010318D01*
X003310Y010318D01*
X003310Y010317D02*
X003287Y010328D01*
X003263Y010336D01*
X003238Y010340D01*
X003212Y010340D01*
X003187Y010336D01*
X003163Y010328D01*
X003140Y010317D01*
X003119Y010303D01*
X003100Y010286D01*
X003085Y010266D01*
X003072Y010244D01*
X003063Y010220D01*
X003057Y010195D01*
X003055Y010170D01*
X003057Y010145D01*
X003063Y010120D01*
X003072Y010096D01*
X003085Y010074D01*
X003100Y010054D01*
X003119Y010037D01*
X003140Y010023D01*
X003163Y010012D01*
X003187Y010004D01*
X003212Y010000D01*
X003238Y010000D01*
X003263Y010004D01*
X003287Y010012D01*
X003310Y010023D01*
X003310Y009727D01*
X004452Y009727D01*
X004530Y009983D02*
X004519Y009998D01*
X004504Y010009D01*
X004488Y010017D01*
X004470Y010022D01*
X004452Y010023D01*
X002897Y010337D02*
X002897Y009708D01*
X002503Y009708D02*
X002503Y010337D01*
X002503Y010338D02*
X002491Y010363D01*
X002481Y010391D01*
X002475Y010419D01*
X002473Y010447D01*
X002474Y010476D01*
X002479Y010505D01*
X002488Y010532D01*
X002500Y010558D01*
X002515Y010583D01*
X002533Y010605D01*
X002554Y010625D01*
X002577Y010642D01*
X002602Y010656D01*
X002629Y010667D01*
X002657Y010674D01*
X002686Y010678D01*
X002714Y010678D01*
X002743Y010674D01*
X002771Y010667D01*
X002798Y010656D01*
X002823Y010642D01*
X002846Y010625D01*
X002867Y010605D01*
X002885Y010583D01*
X002900Y010558D01*
X002912Y010532D01*
X002921Y010505D01*
X002926Y010476D01*
X002927Y010447D01*
X002925Y010419D01*
X002919Y010391D01*
X002909Y010363D01*
X002897Y010338D01*
X019432Y006400D02*
X019432Y005771D01*
X019420Y005745D01*
X019410Y005717D01*
X019404Y005689D01*
X019402Y005661D01*
X019403Y005632D01*
X019408Y005603D01*
X019417Y005576D01*
X019429Y005550D01*
X019444Y005525D01*
X019462Y005503D01*
X019483Y005483D01*
X019506Y005466D01*
X019531Y005452D01*
X019558Y005441D01*
X019586Y005434D01*
X019615Y005430D01*
X019643Y005430D01*
X019672Y005434D01*
X019700Y005441D01*
X019727Y005452D01*
X019752Y005466D01*
X019775Y005483D01*
X019796Y005503D01*
X019814Y005525D01*
X019829Y005550D01*
X019841Y005576D01*
X019850Y005603D01*
X019855Y005632D01*
X019856Y005661D01*
X019854Y005689D01*
X019848Y005717D01*
X019838Y005745D01*
X019826Y005771D01*
X019826Y006400D01*
D11*
X019959Y006414D02*
X019959Y006535D01*
X020020Y006596D01*
X020080Y006596D01*
X020141Y006535D01*
X020141Y006474D01*
X020141Y006535D02*
X020202Y006596D01*
X020262Y006596D01*
X020323Y006535D01*
X020323Y006414D01*
X020262Y006353D01*
X020020Y006353D02*
X019959Y006414D01*
X019959Y006233D02*
X019959Y005991D01*
X019959Y005871D02*
X020080Y005749D01*
X020080Y005810D02*
X020080Y005628D01*
X019959Y005628D02*
X020323Y005628D01*
X020323Y005810D01*
X020262Y005871D01*
X020141Y005871D01*
X020080Y005810D01*
X020202Y005991D02*
X020323Y006112D01*
X019959Y006112D01*
X018465Y009835D02*
X018342Y009835D01*
X018404Y009835D02*
X018404Y010205D01*
X018465Y010205D02*
X018342Y010205D01*
X018220Y010143D02*
X018220Y009896D01*
X018158Y009835D01*
X018035Y009835D01*
X017973Y009896D01*
X017851Y009896D02*
X017790Y009835D01*
X017666Y009835D01*
X017605Y009896D01*
X017605Y009958D01*
X017666Y010020D01*
X017728Y010020D01*
X017666Y010020D02*
X017605Y010082D01*
X017605Y010143D01*
X017666Y010205D01*
X017790Y010205D01*
X017851Y010143D01*
X017973Y010143D02*
X018035Y010205D01*
X018158Y010205D01*
X018220Y010143D01*
X019086Y011140D02*
X019025Y011201D01*
X019025Y011322D01*
X019086Y011383D01*
X019146Y011383D01*
X019268Y011322D01*
X019268Y011504D01*
X019025Y011504D01*
X019086Y011140D02*
X019207Y011140D01*
X019268Y011201D01*
X019388Y011140D02*
X019630Y011140D01*
X019509Y011140D02*
X019509Y011504D01*
X019630Y011383D01*
X019750Y011443D02*
X019811Y011504D01*
X019932Y011504D01*
X019993Y011443D01*
X019993Y011201D01*
X019932Y011140D01*
X019811Y011140D01*
X019750Y011201D01*
X018136Y013266D02*
X017894Y013266D01*
X017833Y013327D01*
X017833Y013448D01*
X017894Y013509D01*
X017833Y013628D02*
X017833Y013871D01*
X017833Y013991D02*
X017894Y013991D01*
X018136Y014234D01*
X018197Y014234D01*
X018197Y013991D01*
X018197Y013750D02*
X017833Y013750D01*
X018076Y013628D02*
X018197Y013750D01*
X018136Y013509D02*
X018197Y013448D01*
X018197Y013327D01*
X018136Y013266D01*
X016819Y011425D02*
X016637Y011425D01*
X016576Y011364D01*
X016576Y011243D01*
X016637Y011182D01*
X016819Y011182D01*
X016819Y011061D02*
X016819Y011425D01*
X016697Y011182D02*
X016576Y011061D01*
X016456Y011061D02*
X016213Y011061D01*
X016335Y011061D02*
X016335Y011425D01*
X016456Y011304D01*
X016094Y011304D02*
X016033Y011243D01*
X015912Y011243D01*
X015851Y011182D01*
X015851Y011122D01*
X015912Y011061D01*
X016033Y011061D01*
X016094Y011122D01*
X016094Y011182D01*
X016033Y011243D01*
X016094Y011304D02*
X016094Y011364D01*
X016033Y011425D01*
X015912Y011425D01*
X015851Y011364D01*
X015851Y011304D01*
X015912Y011243D01*
X015731Y010233D02*
X015731Y009990D01*
X015913Y010172D01*
X015549Y010172D01*
X015549Y009870D02*
X015549Y009627D01*
X015549Y009749D02*
X015913Y009749D01*
X015792Y009627D01*
X015853Y009508D02*
X015913Y009447D01*
X015913Y009326D01*
X015853Y009265D01*
X015610Y009265D01*
X015549Y009326D01*
X015549Y009447D01*
X015610Y009508D01*
X014142Y009609D02*
X014081Y009549D01*
X013838Y009549D01*
X013778Y009609D01*
X013778Y009731D01*
X013838Y009791D01*
X013838Y009911D02*
X013899Y009911D01*
X013960Y009972D01*
X013960Y010093D01*
X013899Y010154D01*
X013838Y010154D01*
X013778Y010093D01*
X013778Y009972D01*
X013838Y009911D01*
X013960Y009972D02*
X014020Y009911D01*
X014081Y009911D01*
X014142Y009972D01*
X014142Y010093D01*
X014081Y010154D01*
X014020Y010154D01*
X013960Y010093D01*
X014081Y009791D02*
X014142Y009731D01*
X014142Y009609D01*
X014166Y011101D02*
X014409Y011101D01*
X014529Y011101D02*
X014650Y011222D01*
X014589Y011222D02*
X014771Y011222D01*
X014771Y011101D02*
X014771Y011465D01*
X014589Y011465D01*
X014529Y011404D01*
X014529Y011283D01*
X014589Y011222D01*
X014409Y011343D02*
X014288Y011465D01*
X014288Y011101D01*
X014046Y011161D02*
X013986Y011101D01*
X013864Y011101D01*
X013804Y011161D01*
X013804Y011283D01*
X013864Y011343D01*
X013925Y011343D01*
X014046Y011283D01*
X014046Y011465D01*
X013804Y011465D01*
X013433Y011465D02*
X013433Y011101D01*
X013433Y011222D02*
X013251Y011222D01*
X013190Y011283D01*
X013190Y011404D01*
X013251Y011465D01*
X013433Y011465D01*
X013311Y011222D02*
X013190Y011101D01*
X013070Y011101D02*
X012828Y011101D01*
X012949Y011101D02*
X012949Y011465D01*
X013070Y011343D01*
X012708Y011283D02*
X012465Y011283D01*
X012526Y011465D02*
X012708Y011283D01*
X012526Y011101D02*
X012526Y011465D01*
X014841Y012421D02*
X014841Y012542D01*
X014901Y012603D01*
X014841Y012723D02*
X014841Y012966D01*
X014841Y013085D02*
X014841Y013328D01*
X014841Y013207D02*
X015205Y013207D01*
X015083Y013085D01*
X015205Y012844D02*
X014841Y012844D01*
X015083Y012723D02*
X015205Y012844D01*
X015392Y012844D02*
X015756Y012844D01*
X015635Y012723D01*
X015695Y012603D02*
X015756Y012542D01*
X015756Y012421D01*
X015695Y012360D01*
X015453Y012360D01*
X015392Y012421D01*
X015392Y012542D01*
X015453Y012603D01*
X015392Y012723D02*
X015392Y012966D01*
X015453Y013085D02*
X015392Y013146D01*
X015392Y013267D01*
X015453Y013328D01*
X015513Y013328D01*
X015574Y013267D01*
X015574Y013207D01*
X015574Y013267D02*
X015635Y013328D01*
X015695Y013328D01*
X015756Y013267D01*
X015756Y013146D01*
X015695Y013085D01*
X015205Y012542D02*
X015144Y012603D01*
X015205Y012542D02*
X015205Y012421D01*
X015144Y012360D01*
X014901Y012360D01*
X014841Y012421D01*
X012212Y007567D02*
X012030Y007567D01*
X011970Y007506D01*
X011970Y007385D01*
X012030Y007324D01*
X012212Y007324D01*
X012091Y007324D02*
X011970Y007203D01*
X011850Y007203D02*
X011607Y007446D01*
X011607Y007506D01*
X011668Y007567D01*
X011789Y007567D01*
X011850Y007506D01*
X011850Y007203D02*
X011607Y007203D01*
X011487Y007203D02*
X011245Y007446D01*
X011245Y007506D01*
X011305Y007567D01*
X011427Y007567D01*
X011487Y007506D01*
X011487Y007203D02*
X011245Y007203D01*
X012212Y007203D02*
X012212Y007567D01*
X010874Y006233D02*
X010874Y005991D01*
X010692Y005991D01*
X010753Y006112D01*
X010753Y006173D01*
X010692Y006233D01*
X010571Y006233D01*
X010510Y006173D01*
X010510Y006051D01*
X010571Y005991D01*
X010510Y005871D02*
X010631Y005749D01*
X010631Y005810D02*
X010631Y005628D01*
X010510Y005628D02*
X010874Y005628D01*
X010874Y005810D01*
X010813Y005871D01*
X010692Y005871D01*
X010631Y005810D01*
X009890Y007203D02*
X009890Y007567D01*
X009708Y007567D01*
X009647Y007506D01*
X009647Y007385D01*
X009708Y007324D01*
X009890Y007324D01*
X009768Y007324D02*
X009647Y007203D01*
X009527Y007203D02*
X009284Y007446D01*
X009284Y007506D01*
X009345Y007567D01*
X009466Y007567D01*
X009527Y007506D01*
X009527Y007203D02*
X009284Y007203D01*
X009165Y007385D02*
X008922Y007385D01*
X008982Y007203D02*
X008982Y007567D01*
X009165Y007385D01*
X007921Y007324D02*
X007739Y007324D01*
X007678Y007385D01*
X007678Y007506D01*
X007739Y007567D01*
X007921Y007567D01*
X007921Y007203D01*
X007800Y007324D02*
X007678Y007203D01*
X007559Y007203D02*
X007316Y007446D01*
X007316Y007506D01*
X007377Y007567D01*
X007498Y007567D01*
X007559Y007506D01*
X007559Y007203D02*
X007316Y007203D01*
X007196Y007264D02*
X007135Y007203D01*
X007014Y007203D01*
X006953Y007264D01*
X006953Y007385D01*
X007014Y007446D01*
X007075Y007446D01*
X007196Y007385D01*
X007196Y007567D01*
X006953Y007567D01*
X006089Y006312D02*
X006150Y006251D01*
X006150Y006130D01*
X006089Y006069D01*
X006089Y005949D02*
X005968Y005949D01*
X005907Y005889D01*
X005907Y005707D01*
X005907Y005828D02*
X005786Y005949D01*
X005786Y006069D02*
X006028Y006312D01*
X006089Y006312D01*
X005786Y006312D02*
X005786Y006069D01*
X006089Y005949D02*
X006150Y005889D01*
X006150Y005707D01*
X005786Y005707D01*
X005026Y008486D02*
X004783Y008486D01*
X004723Y008546D01*
X004723Y008668D01*
X004783Y008728D01*
X004723Y008848D02*
X004965Y009091D01*
X005026Y009091D01*
X005087Y009030D01*
X005087Y008909D01*
X005026Y008848D01*
X005026Y008728D02*
X005087Y008668D01*
X005087Y008546D01*
X005026Y008486D01*
X004723Y008848D02*
X004723Y009091D01*
X004197Y009841D02*
X004015Y009841D01*
X003955Y009901D01*
X003955Y010144D01*
X004015Y010205D01*
X004197Y010205D01*
X004197Y009841D01*
X003835Y009841D02*
X003592Y009841D01*
X003713Y009841D02*
X003713Y010205D01*
X003835Y010083D01*
X004675Y010884D02*
X004615Y010945D01*
X004615Y011187D01*
X004857Y010945D01*
X004797Y010884D01*
X004675Y010884D01*
X004857Y010945D02*
X004857Y011187D01*
X004797Y011248D01*
X004675Y011248D01*
X004615Y011187D01*
X004977Y010884D02*
X005220Y010884D01*
X005099Y010884D02*
X005099Y011248D01*
X005220Y011127D01*
X005340Y011187D02*
X005400Y011248D01*
X005522Y011248D01*
X005582Y011187D01*
X005582Y010945D01*
X005522Y010884D01*
X005400Y010884D01*
X005340Y010945D01*
X005357Y011904D02*
X005296Y011964D01*
X005296Y012207D01*
X005357Y012268D01*
X005478Y012268D01*
X005539Y012207D01*
X005539Y012146D01*
X005478Y012086D01*
X005296Y012086D01*
X005357Y011904D02*
X005478Y011904D01*
X005539Y011964D01*
X005659Y011964D02*
X005719Y011904D01*
X005841Y011904D01*
X005901Y011964D01*
X005901Y012207D01*
X005841Y012268D01*
X005719Y012268D01*
X005659Y012207D01*
X002370Y010251D02*
X002370Y010129D01*
X002309Y010069D01*
X002370Y010251D02*
X002309Y010311D01*
X002249Y010311D01*
X002006Y010069D01*
X002006Y010311D01*
X002006Y009949D02*
X002006Y009706D01*
X002006Y009586D02*
X002127Y009465D01*
X002127Y009526D02*
X002127Y009344D01*
X002006Y009344D02*
X002370Y009344D01*
X002370Y009526D01*
X002309Y009586D01*
X002188Y009586D01*
X002127Y009526D01*
X002249Y009706D02*
X002370Y009828D01*
X002006Y009828D01*
X015234Y006251D02*
X015234Y006130D01*
X015295Y006069D01*
X015356Y006069D01*
X015416Y006130D01*
X015416Y006251D01*
X015356Y006312D01*
X015295Y006312D01*
X015234Y006251D01*
X015416Y006251D02*
X015477Y006312D01*
X015538Y006312D01*
X015598Y006251D01*
X015598Y006130D01*
X015538Y006069D01*
X015477Y006069D01*
X015416Y006130D01*
X015416Y005949D02*
X015356Y005889D01*
X015356Y005707D01*
X015356Y005828D02*
X015234Y005949D01*
X015416Y005949D02*
X015538Y005949D01*
X015598Y005889D01*
X015598Y005707D01*
X015234Y005707D01*
X020256Y017887D02*
X020195Y017948D01*
X020195Y018069D01*
X020256Y018130D01*
X020195Y018249D02*
X020438Y018492D01*
X020498Y018492D01*
X020559Y018432D01*
X020559Y018310D01*
X020498Y018249D01*
X020498Y018130D02*
X020559Y018069D01*
X020559Y017948D01*
X020498Y017887D01*
X020256Y017887D01*
X020195Y018249D02*
X020195Y018492D01*
X020195Y018612D02*
X020195Y018855D01*
X020195Y018733D02*
X020559Y018733D01*
X020438Y018612D01*
X018539Y018561D02*
X018418Y018561D01*
X018478Y018561D02*
X018478Y018925D01*
X018418Y018925D02*
X018539Y018925D01*
X018297Y018864D02*
X018297Y018622D01*
X018237Y018561D01*
X018115Y018561D01*
X018055Y018622D01*
X017935Y018622D02*
X017935Y018743D01*
X017753Y018743D01*
X017692Y018682D01*
X017692Y018622D01*
X017753Y018561D01*
X017874Y018561D01*
X017935Y018622D01*
X017935Y018743D02*
X017814Y018864D01*
X017692Y018925D01*
X018055Y018864D02*
X018115Y018925D01*
X018237Y018925D01*
X018297Y018864D01*
X020413Y020982D02*
X020353Y021043D01*
X020353Y021164D01*
X020413Y021225D01*
X020353Y021345D02*
X020353Y021588D01*
X020353Y021466D02*
X020717Y021466D01*
X020595Y021345D01*
X020656Y021225D02*
X020717Y021164D01*
X020717Y021043D01*
X020656Y020982D01*
X020413Y020982D01*
X018354Y021648D02*
X018294Y021588D01*
X018051Y021588D01*
X017990Y021648D01*
X017990Y021770D01*
X018051Y021830D01*
X017990Y021950D02*
X017990Y022193D01*
X017990Y022313D02*
X018233Y022555D01*
X018294Y022555D01*
X018354Y022495D01*
X018354Y022373D01*
X018294Y022313D01*
X018294Y022193D02*
X018233Y022193D01*
X017990Y021950D01*
X018294Y021950D02*
X018354Y022011D01*
X018354Y022132D01*
X018294Y022193D01*
X018294Y021830D02*
X018354Y021770D01*
X018354Y021648D01*
X017990Y022313D02*
X017990Y022555D01*
D12*
X017286Y019845D02*
X018822Y019845D01*
X018822Y017916D01*
X017680Y017916D01*
X017680Y017917D02*
X017692Y017891D01*
X017702Y017863D01*
X017708Y017835D01*
X017710Y017807D01*
X017709Y017778D01*
X017704Y017749D01*
X017695Y017722D01*
X017683Y017696D01*
X017668Y017671D01*
X017650Y017649D01*
X017629Y017629D01*
X017606Y017612D01*
X017581Y017598D01*
X017554Y017587D01*
X017526Y017580D01*
X017497Y017576D01*
X017469Y017576D01*
X017440Y017580D01*
X017412Y017587D01*
X017385Y017598D01*
X017360Y017612D01*
X017337Y017629D01*
X017316Y017649D01*
X017298Y017671D01*
X017283Y017696D01*
X017271Y017722D01*
X017262Y017749D01*
X017257Y017778D01*
X017256Y017807D01*
X017258Y017835D01*
X017264Y017863D01*
X017274Y017891D01*
X017286Y017917D01*
X017286Y017916D02*
X017286Y019845D01*
X018027Y010613D02*
X018012Y010643D01*
X018000Y010674D01*
X017992Y010707D01*
X017988Y010740D01*
X017988Y010774D01*
X017992Y010807D01*
X018000Y010840D01*
X018012Y010871D01*
X018027Y010902D01*
X018045Y010930D01*
X018067Y010955D01*
X018091Y010978D01*
X018118Y010998D01*
X018147Y011015D01*
X018178Y011029D01*
X018210Y011038D01*
X018243Y011044D01*
X018277Y011046D01*
X018311Y011044D01*
X018344Y011038D01*
X018376Y011029D01*
X018407Y011015D01*
X018436Y010998D01*
X018463Y010978D01*
X018487Y010955D01*
X018509Y010930D01*
X018527Y010902D01*
X018542Y010871D01*
X018554Y010840D01*
X018562Y010807D01*
X018566Y010774D01*
X018566Y010740D01*
X018562Y010707D01*
X018554Y010674D01*
X018542Y010643D01*
X018527Y010613D01*
X018527Y009432D01*
X017582Y009432D01*
X017582Y010613D01*
X018027Y010613D01*
M02*
