G75*
G70*
%OFA0B0*%
%FSLAX24Y24*%
%IPPOS*%
%LPD*%
%AMOC8*
5,1,8,0,0,1.08239X$1,22.5*
%
%ADD10C,0.0079*%
%ADD11C,0.0000*%
D10*
X001125Y000180D02*
X001125Y023802D01*
X024747Y023802D01*
X024747Y000180D01*
X001125Y000180D01*
D11*
X012286Y019865D02*
X012288Y019915D01*
X012294Y019965D01*
X012304Y020015D01*
X012317Y020063D01*
X012334Y020111D01*
X012355Y020157D01*
X012379Y020201D01*
X012407Y020243D01*
X012438Y020283D01*
X012472Y020320D01*
X012509Y020355D01*
X012548Y020386D01*
X012589Y020415D01*
X012633Y020440D01*
X012679Y020462D01*
X012726Y020480D01*
X012774Y020494D01*
X012823Y020505D01*
X012873Y020512D01*
X012923Y020515D01*
X012974Y020514D01*
X013024Y020509D01*
X013074Y020500D01*
X013122Y020488D01*
X013170Y020471D01*
X013216Y020451D01*
X013261Y020428D01*
X013304Y020401D01*
X013344Y020371D01*
X013382Y020338D01*
X013417Y020302D01*
X013450Y020263D01*
X013479Y020222D01*
X013505Y020179D01*
X013528Y020134D01*
X013547Y020087D01*
X013562Y020039D01*
X013574Y019990D01*
X013582Y019940D01*
X013586Y019890D01*
X013586Y019840D01*
X013582Y019790D01*
X013574Y019740D01*
X013562Y019691D01*
X013547Y019643D01*
X013528Y019596D01*
X013505Y019551D01*
X013479Y019508D01*
X013450Y019467D01*
X013417Y019428D01*
X013382Y019392D01*
X013344Y019359D01*
X013304Y019329D01*
X013261Y019302D01*
X013216Y019279D01*
X013170Y019259D01*
X013122Y019242D01*
X013074Y019230D01*
X013024Y019221D01*
X012974Y019216D01*
X012923Y019215D01*
X012873Y019218D01*
X012823Y019225D01*
X012774Y019236D01*
X012726Y019250D01*
X012679Y019268D01*
X012633Y019290D01*
X012589Y019315D01*
X012548Y019344D01*
X012509Y019375D01*
X012472Y019410D01*
X012438Y019447D01*
X012407Y019487D01*
X012379Y019529D01*
X012355Y019573D01*
X012334Y019619D01*
X012317Y019667D01*
X012304Y019715D01*
X012294Y019765D01*
X012288Y019815D01*
X012286Y019865D01*
M02*
