G75*
G70*
%OFA0B0*%
%FSLAX24Y24*%
%IPPOS*%
%LPD*%
%AMOC8*
5,1,8,0,0,1.08239X$1,22.5*
%
%ADD10R,0.0669X0.0256*%
%ADD11R,0.0354X0.0394*%
%ADD12R,0.0394X0.0354*%
%ADD13C,0.0315*%
%ADD14R,0.0650X0.0650*%
%ADD15C,0.0650*%
%ADD16C,0.0531*%
%ADD17R,0.0472X0.0669*%
%ADD18R,0.0531X0.0531*%
%ADD19C,0.0709*%
%ADD20R,0.0236X0.0394*%
%ADD21R,0.0669X0.0472*%
%ADD22R,0.0197X0.0315*%
%ADD23C,0.2540*%
%ADD24C,0.0768*%
%ADD25C,0.0120*%
%ADD26C,0.0100*%
%ADD27C,0.0240*%
%ADD28C,0.0160*%
%ADD29C,0.0354*%
%ADD30C,0.0320*%
D10*
X008298Y010066D03*
X008298Y010566D03*
X008298Y011066D03*
X008298Y011566D03*
X008298Y012066D03*
X008298Y012566D03*
X008298Y013066D03*
X008298Y013566D03*
X008298Y014066D03*
X008298Y014566D03*
X008298Y015066D03*
X008298Y015566D03*
X008298Y016066D03*
X008298Y016566D03*
X012062Y016566D03*
X012062Y016066D03*
X012062Y015566D03*
X012062Y015066D03*
X012062Y014566D03*
X012062Y014066D03*
X012062Y013566D03*
X012062Y013066D03*
X012062Y012566D03*
X012062Y012066D03*
X012062Y011566D03*
X012062Y011066D03*
X012062Y010566D03*
X012062Y010066D03*
D11*
X007385Y009865D03*
X007385Y010495D03*
X004471Y009156D03*
X004471Y008526D03*
X012739Y016007D03*
X012739Y016637D03*
X015889Y014865D03*
X015889Y014235D03*
X008802Y018960D03*
X008802Y019589D03*
X021007Y021125D03*
X021597Y021125D03*
X021597Y021755D03*
X021007Y021755D03*
D12*
X020338Y022818D03*
X019708Y022818D03*
X017779Y018605D03*
X017149Y018605D03*
X013645Y017306D03*
X013015Y017306D03*
X013015Y014550D03*
X013645Y014550D03*
X007562Y015554D03*
X006932Y015554D03*
X006912Y016558D03*
X006912Y017109D03*
X006912Y017700D03*
X007542Y017700D03*
X007542Y017109D03*
X007542Y016558D03*
X006558Y019668D03*
X005928Y019668D03*
X007031Y011066D03*
X007660Y011066D03*
X007897Y009038D03*
X008527Y009038D03*
X005830Y007503D03*
X005200Y007503D03*
X021282Y007660D03*
X021912Y007660D03*
D13*
X021991Y007070D03*
X016775Y010613D03*
X013723Y007463D03*
X012739Y007070D03*
X010574Y006873D03*
X008298Y009629D03*
X009314Y011026D03*
X010180Y011597D03*
X011164Y012385D03*
X011479Y011597D03*
X011479Y011046D03*
X012936Y013566D03*
X012649Y014066D03*
X012739Y015141D03*
X013330Y016007D03*
X014314Y016007D03*
X014905Y016715D03*
X015298Y016519D03*
X015692Y016715D03*
X016086Y016519D03*
X016597Y018605D03*
X016479Y019471D03*
X018448Y019629D03*
X019432Y020456D03*
X020023Y022326D03*
X022385Y017700D03*
X018645Y015337D03*
X011361Y016322D03*
X010377Y017306D03*
X009196Y016519D03*
X009196Y015534D03*
X009196Y014747D03*
X009196Y014156D03*
X010377Y013960D03*
X010377Y014550D03*
X007700Y014058D03*
X007700Y013566D03*
X007700Y012582D03*
X007700Y012070D03*
X007119Y011591D03*
X006619Y011591D03*
X006046Y013172D03*
X006440Y016066D03*
X007700Y016066D03*
X008802Y017503D03*
X005456Y007936D03*
X002503Y005889D03*
X002503Y005101D03*
X002897Y004708D03*
X003487Y004511D03*
D14*
X007531Y001361D03*
X014936Y002149D03*
X023747Y009767D03*
D15*
X023747Y008767D03*
X023747Y007767D03*
X023747Y006767D03*
X023747Y005767D03*
X023747Y004767D03*
X021273Y003904D03*
X021273Y005904D03*
X018773Y005904D03*
X018773Y003904D03*
X016548Y003904D03*
X016548Y005904D03*
X014048Y005904D03*
X014048Y003904D03*
X013936Y002149D03*
X012936Y002149D03*
X011936Y002149D03*
X010936Y002149D03*
X011824Y003904D03*
X011824Y005904D03*
X009324Y005904D03*
X009324Y003904D03*
X007099Y003904D03*
X007099Y005904D03*
X004599Y005904D03*
X004599Y003904D03*
X006531Y001361D03*
X008436Y022621D03*
X009436Y022621D03*
X010436Y022621D03*
X011436Y022621D03*
X012436Y022621D03*
X013436Y022621D03*
X014436Y022621D03*
X015436Y022621D03*
X016436Y022621D03*
X017436Y022621D03*
D16*
X019554Y015853D03*
X019554Y014853D03*
X019554Y013853D03*
X019554Y012853D03*
X016554Y012853D03*
X016554Y013853D03*
X016554Y014853D03*
X016223Y008066D03*
X017223Y008066D03*
X015223Y008066D03*
X014223Y008066D03*
X013223Y008066D03*
X012223Y008066D03*
X011223Y008066D03*
X010223Y008066D03*
X009223Y008066D03*
X008223Y008066D03*
D17*
X013133Y012621D03*
X014314Y012621D03*
X018054Y017030D03*
X019235Y017030D03*
D18*
X016554Y015853D03*
D19*
X021625Y016074D03*
X021625Y015074D03*
X023625Y015074D03*
X023625Y016074D03*
X023625Y018074D03*
X023625Y019074D03*
X021625Y019074D03*
X021625Y018074D03*
X021625Y013074D03*
X021625Y012074D03*
X023625Y012074D03*
X023625Y013074D03*
X004125Y013074D03*
X004125Y014074D03*
X004125Y015074D03*
X004125Y016074D03*
X004125Y017074D03*
X004125Y019074D03*
X004125Y020074D03*
X002125Y020074D03*
X002125Y019074D03*
X002109Y017074D03*
X002125Y016074D03*
X002125Y015074D03*
X002125Y014074D03*
X002125Y013074D03*
X002125Y012074D03*
X004125Y012074D03*
D20*
X005082Y009314D03*
X005830Y009314D03*
X005830Y008369D03*
X005456Y008369D03*
X005082Y008369D03*
X019649Y020967D03*
X020397Y020967D03*
X020397Y021912D03*
X020023Y021912D03*
X019649Y021912D03*
D21*
X018842Y022030D03*
X018842Y020849D03*
X006637Y009432D03*
X006637Y008251D03*
D22*
X007227Y018251D03*
X006853Y019117D03*
X007601Y019117D03*
X007621Y019629D03*
X007247Y020495D03*
X007995Y020495D03*
D23*
X002700Y022227D03*
X023172Y022227D03*
X023172Y001755D03*
X002700Y001755D03*
D24*
X001968Y007215D03*
X003968Y007215D03*
D25*
X006775Y011066D02*
X006637Y011204D01*
X006637Y011574D01*
X007119Y011591D02*
X007188Y011597D01*
X008290Y011597D01*
X008298Y012066D02*
X007743Y012066D01*
X007700Y012070D01*
X007700Y012582D02*
X008282Y012582D01*
X008298Y012566D01*
X008298Y013566D02*
X007700Y013566D01*
X007700Y014058D02*
X008290Y014058D01*
X008298Y014066D01*
X008286Y015554D02*
X007562Y015554D01*
X007700Y016066D02*
X008298Y016066D01*
X008298Y015566D02*
X009164Y015566D01*
X009196Y015534D01*
X008298Y015566D02*
X008286Y015554D01*
X008290Y016558D02*
X007542Y016558D01*
X007542Y017109D02*
X009747Y017109D01*
X008298Y016566D02*
X008290Y016558D01*
X007542Y017700D02*
X007542Y018251D01*
X007227Y018251D01*
X006912Y017700D02*
X006912Y017109D01*
X006696Y017109D01*
X006440Y016912D01*
X006440Y016066D01*
X005849Y019074D02*
X005928Y019152D01*
X005928Y019668D01*
X006558Y019668D02*
X007582Y019668D01*
X007621Y019629D01*
X007621Y019137D01*
X007601Y019117D01*
X008802Y019589D02*
X008802Y020495D01*
X007995Y020495D01*
X007247Y020495D02*
X007247Y020849D01*
X009747Y020849D01*
X012936Y017306D02*
X012739Y017109D01*
X012739Y016637D01*
X012660Y016566D02*
X012062Y016566D01*
X012062Y016066D02*
X012680Y016066D01*
X012739Y016007D01*
X013330Y016007D01*
X012739Y015141D02*
X012664Y015066D01*
X012062Y015066D01*
X012062Y015566D02*
X011723Y015534D01*
X011558Y014550D02*
X011952Y014550D01*
X012062Y014566D01*
X013015Y014566D01*
X013015Y014550D01*
X013527Y014550D02*
X013645Y014550D01*
X012062Y013066D02*
X012054Y013074D01*
X012936Y017306D02*
X013015Y017306D01*
X013723Y022424D02*
X013527Y022621D01*
X013436Y022621D01*
X015436Y022621D02*
X015495Y022562D01*
X007031Y011066D02*
X006775Y011066D01*
D26*
X009314Y011026D02*
X009314Y008310D01*
X009235Y008231D01*
X009235Y008093D01*
X009235Y007267D01*
X008212Y006086D01*
X008212Y003330D01*
X006558Y001676D01*
X006531Y001361D01*
X007531Y001361D02*
X008999Y001361D01*
X010574Y002936D01*
X010574Y006873D01*
X010180Y008054D02*
X010180Y011597D01*
X011164Y012385D02*
X011164Y010219D01*
X011318Y010066D01*
X012062Y010066D01*
X011755Y009038D02*
X013133Y009038D01*
X013723Y008448D01*
X013723Y007463D01*
X012739Y007070D02*
X012739Y008645D01*
X012542Y008841D01*
X011558Y008841D01*
X010574Y009826D01*
X010574Y013763D01*
X010377Y013960D01*
X010771Y014156D02*
X010771Y010023D01*
X011755Y009038D01*
X012070Y011046D02*
X012062Y011054D01*
X012062Y011066D01*
X012054Y013074D02*
X011361Y013074D01*
X011361Y014156D01*
X010377Y015141D01*
X010377Y017306D01*
X011361Y016322D02*
X011361Y015534D01*
X011723Y015534D01*
X010771Y015337D02*
X011558Y014550D01*
X012062Y014066D02*
X012649Y014066D01*
X012936Y013566D02*
X012062Y013566D01*
X010771Y014156D02*
X010377Y014550D01*
X010771Y015337D02*
X010771Y021956D01*
X011436Y022621D01*
X013723Y022424D02*
X015692Y020456D01*
X015692Y018290D01*
X014905Y017503D01*
X014905Y016715D01*
X015298Y016519D02*
X015298Y017503D01*
X015889Y018093D01*
X015889Y020652D01*
X015495Y021046D01*
X015495Y022562D01*
X016086Y022271D02*
X016436Y022621D01*
X016086Y022271D02*
X016086Y017897D01*
X015692Y017503D01*
X015692Y016715D01*
X016086Y016519D02*
X016086Y017503D01*
X016282Y017700D01*
X016282Y019274D01*
X016479Y019471D01*
X018448Y019629D02*
X018645Y019432D01*
X018645Y015337D01*
X022385Y017700D02*
X022385Y020259D01*
X021597Y021046D01*
X021597Y021125D01*
X009196Y016519D02*
X009149Y016566D01*
X008298Y016566D01*
X008802Y017503D02*
X008802Y018960D01*
X006912Y015574D02*
X006932Y015554D01*
X008298Y015066D02*
X008877Y015066D01*
X009196Y014747D01*
X008786Y014566D02*
X009196Y014156D01*
X008786Y014566D02*
X008298Y014566D01*
X004125Y014074D02*
X003290Y013251D01*
X003290Y010023D01*
X002897Y009629D01*
X002897Y005495D01*
X002503Y005101D01*
X002897Y004708D02*
X003094Y004904D01*
X003094Y009432D01*
X003487Y009826D01*
X003487Y012444D01*
X004125Y013074D01*
X004125Y012074D02*
X003684Y011637D01*
X003684Y009629D01*
X003290Y009235D01*
X003290Y004708D01*
X003487Y004511D01*
X002503Y005889D02*
X002700Y006086D01*
X002700Y009826D01*
X003094Y010219D01*
X003094Y014038D01*
X004125Y015074D01*
X020810Y007660D02*
X021282Y007660D01*
X021912Y007660D02*
X021991Y007660D01*
X021991Y007070D01*
D27*
X018054Y011991D02*
X018054Y012975D01*
X018054Y017030D01*
X018054Y018131D01*
X018054Y018487D01*
X018054Y021440D01*
X020023Y020652D02*
X020023Y017897D01*
X019235Y017030D01*
X019235Y016322D01*
X019554Y016003D01*
X019554Y015853D01*
X017464Y015830D02*
X017464Y011991D01*
X014314Y012621D02*
X014314Y016007D01*
X014314Y017503D01*
X015298Y018526D01*
X015298Y020259D01*
X009747Y020849D02*
X009747Y017109D01*
X009747Y013054D01*
X009747Y008841D01*
X009747Y007424D01*
X010180Y007424D01*
X011204Y007424D01*
X011204Y008054D01*
X005456Y009688D02*
X005456Y019078D01*
X005771Y019078D02*
X005771Y019074D01*
X006243Y019074D02*
X006243Y019078D01*
X006243Y019074D02*
X006810Y019074D01*
X007227Y018290D02*
X007227Y018251D01*
X007227Y018290D02*
X008172Y018290D01*
X009747Y020849D02*
X009747Y021440D01*
X013645Y014550D02*
X013723Y014550D01*
D28*
X001441Y007038D02*
X001441Y002455D01*
X001547Y002639D01*
X001816Y002907D01*
X002144Y003097D01*
X002510Y003195D01*
X002889Y003195D01*
X003256Y003097D01*
X003584Y002907D01*
X003852Y002639D01*
X004042Y002311D01*
X004140Y001944D01*
X004140Y001565D01*
X004042Y001199D01*
X003852Y000871D01*
X003584Y000602D01*
X003400Y000496D01*
X022472Y000496D01*
X022288Y000602D01*
X022020Y000871D01*
X021830Y001199D01*
X021732Y001565D01*
X021732Y001944D01*
X021830Y002311D01*
X022020Y002639D01*
X022288Y002907D01*
X022616Y003097D01*
X022983Y003195D01*
X023362Y003195D01*
X023728Y003097D01*
X024057Y002907D01*
X024325Y002639D01*
X024431Y002455D01*
X024431Y021527D01*
X024325Y021343D01*
X024057Y021075D01*
X023728Y020885D01*
X023362Y020787D01*
X022983Y020787D01*
X022616Y020885D01*
X022288Y021075D01*
X022020Y021343D01*
X021939Y021482D01*
X021897Y021440D01*
X021945Y021392D01*
X021945Y021010D01*
X022605Y020350D01*
X022605Y017943D01*
X022663Y017885D01*
X022712Y017765D01*
X022712Y017635D01*
X022663Y017514D01*
X022570Y017422D01*
X022450Y017372D01*
X022320Y017372D01*
X022199Y017422D01*
X022107Y017514D01*
X022057Y017635D01*
X022057Y017764D01*
X021922Y017629D01*
X021729Y017549D01*
X021521Y017549D01*
X021328Y017629D01*
X021180Y017777D01*
X021101Y017969D01*
X021101Y018178D01*
X021180Y018371D01*
X021328Y018518D01*
X021462Y018574D01*
X021328Y018629D01*
X021180Y018777D01*
X021101Y018969D01*
X021101Y019178D01*
X021180Y019371D01*
X021328Y019518D01*
X021521Y019598D01*
X021729Y019598D01*
X021922Y019518D01*
X022070Y019371D01*
X022149Y019178D01*
X022149Y018969D01*
X022070Y018777D01*
X021922Y018629D01*
X021788Y018574D01*
X021922Y018518D01*
X022070Y018371D01*
X022149Y018178D01*
X022149Y017969D01*
X022120Y017898D01*
X022165Y017943D01*
X022165Y020168D01*
X021574Y020758D01*
X021350Y020758D01*
X021302Y020806D01*
X021255Y020758D01*
X020759Y020758D01*
X020685Y020832D01*
X020685Y020700D01*
X020585Y020600D01*
X020521Y020600D01*
X020361Y020440D01*
X020313Y020420D01*
X020313Y017903D01*
X020315Y017853D01*
X020313Y017846D01*
X020313Y017839D01*
X020293Y017792D01*
X020276Y017744D01*
X020271Y017739D01*
X020269Y017732D01*
X020233Y017696D01*
X019642Y017046D01*
X019642Y016625D01*
X019542Y016526D01*
X019525Y016526D01*
X019525Y016442D01*
X019705Y016263D01*
X019801Y016223D01*
X019924Y016100D01*
X019990Y015940D01*
X019990Y015767D01*
X019924Y015606D01*
X019801Y015484D01*
X019641Y015417D01*
X019467Y015417D01*
X019307Y015484D01*
X019185Y015606D01*
X019118Y015767D01*
X019118Y015940D01*
X019144Y016002D01*
X018989Y016157D01*
X018945Y016264D01*
X018945Y016526D01*
X018929Y016526D01*
X018865Y016589D01*
X018865Y015581D01*
X018922Y015523D01*
X018972Y015403D01*
X018972Y015272D01*
X018922Y015152D01*
X018830Y015060D01*
X018710Y015010D01*
X018580Y015010D01*
X018459Y015060D01*
X018367Y015152D01*
X018317Y015272D01*
X018317Y015403D01*
X018367Y015523D01*
X018425Y015581D01*
X018425Y016575D01*
X018401Y016552D01*
X018360Y016528D01*
X018314Y016516D01*
X018092Y016516D01*
X018092Y016992D01*
X018016Y016992D01*
X018016Y016516D01*
X017794Y016516D01*
X017748Y016528D01*
X017707Y016552D01*
X017674Y016585D01*
X017650Y016626D01*
X017638Y016672D01*
X017638Y016992D01*
X018016Y016992D01*
X018016Y017069D01*
X018016Y017545D01*
X017794Y017545D01*
X017748Y017533D01*
X017707Y017509D01*
X017674Y017476D01*
X017650Y017435D01*
X017638Y017389D01*
X017638Y017069D01*
X018016Y017069D01*
X018092Y017069D01*
X018092Y017545D01*
X018314Y017545D01*
X018360Y017533D01*
X018401Y017509D01*
X018425Y017485D01*
X018425Y019301D01*
X018383Y019301D01*
X018262Y019351D01*
X018170Y019443D01*
X018120Y019564D01*
X018120Y019694D01*
X018170Y019814D01*
X018262Y019907D01*
X018383Y019956D01*
X018513Y019956D01*
X018633Y019907D01*
X018726Y019814D01*
X018775Y019694D01*
X018775Y019613D01*
X018865Y019523D01*
X018865Y017472D01*
X018929Y017535D01*
X019302Y017535D01*
X019732Y018009D01*
X019732Y020325D01*
X019710Y020270D01*
X019618Y020178D01*
X019497Y020128D01*
X019367Y020128D01*
X019246Y020178D01*
X019154Y020270D01*
X019104Y020390D01*
X019104Y020443D01*
X018436Y020443D01*
X018337Y020543D01*
X018337Y021156D01*
X018436Y021256D01*
X019247Y021256D01*
X019346Y021156D01*
X019346Y021099D01*
X019360Y021099D01*
X019360Y021235D01*
X019460Y021334D01*
X019725Y021334D01*
X019753Y021362D01*
X020292Y021362D01*
X020320Y021334D01*
X020410Y021334D01*
X020412Y021337D01*
X020504Y021375D01*
X020598Y021375D01*
X020621Y021414D01*
X020685Y021462D01*
X020660Y021487D01*
X020660Y021505D01*
X020504Y021505D01*
X020412Y021543D01*
X020410Y021545D01*
X020208Y021545D01*
X020207Y021547D01*
X020164Y021535D01*
X020023Y021535D01*
X020023Y021912D01*
X020023Y021912D01*
X020023Y021535D01*
X019881Y021535D01*
X019839Y021547D01*
X019837Y021545D01*
X019460Y021545D01*
X019360Y021645D01*
X019360Y022180D01*
X019379Y022198D01*
X019379Y022532D01*
X019341Y022570D01*
X019341Y023065D01*
X019440Y023165D01*
X019975Y023165D01*
X020006Y023134D01*
X020025Y023134D01*
X020030Y023139D01*
X020071Y023163D01*
X020117Y023175D01*
X020329Y023175D01*
X020329Y022826D01*
X020329Y022809D01*
X020346Y022809D01*
X020346Y022461D01*
X020558Y022461D01*
X020604Y022473D01*
X020645Y022497D01*
X020678Y022530D01*
X020702Y022571D01*
X020714Y022617D01*
X020714Y022809D01*
X020346Y022809D01*
X020346Y022826D01*
X020714Y022826D01*
X020714Y023019D01*
X020702Y023064D01*
X020678Y023105D01*
X020645Y023139D01*
X020604Y023163D01*
X020558Y023175D01*
X020346Y023175D01*
X020346Y022826D01*
X020329Y022826D01*
X020181Y022826D01*
X020181Y022809D01*
X020329Y022809D01*
X020329Y022461D01*
X020117Y022461D01*
X020071Y022473D01*
X020030Y022497D01*
X020025Y022502D01*
X020006Y022502D01*
X019975Y022470D01*
X019879Y022470D01*
X019879Y022289D01*
X019881Y022289D01*
X020023Y022289D01*
X020023Y021912D01*
X020023Y022306D01*
X020023Y022289D02*
X020023Y021912D01*
X020023Y021912D01*
X020023Y021895D02*
X020023Y021895D01*
X020023Y021834D02*
X020023Y021440D01*
X018842Y021440D01*
X018842Y022030D01*
X018880Y022053D02*
X019360Y022053D01*
X019356Y022069D02*
X019356Y022290D01*
X019344Y022336D01*
X019320Y022377D01*
X019287Y022411D01*
X019246Y022434D01*
X019200Y022447D01*
X018880Y022447D01*
X018880Y022069D01*
X018803Y022069D01*
X018803Y022447D01*
X018483Y022447D01*
X018437Y022434D01*
X018396Y022411D01*
X018363Y022377D01*
X018339Y022336D01*
X018327Y022290D01*
X018327Y022069D01*
X018803Y022069D01*
X018803Y021992D01*
X018327Y021992D01*
X018327Y021770D01*
X018339Y021725D01*
X018363Y021684D01*
X018396Y021650D01*
X018437Y021626D01*
X018483Y021614D01*
X018803Y021614D01*
X018803Y021992D01*
X018880Y021992D01*
X018880Y022069D01*
X019356Y022069D01*
X019356Y021992D02*
X018880Y021992D01*
X018880Y021614D01*
X019200Y021614D01*
X019246Y021626D01*
X019287Y021650D01*
X019320Y021684D01*
X019344Y021725D01*
X019356Y021770D01*
X019356Y021992D01*
X019356Y021895D02*
X019360Y021895D01*
X019347Y021736D02*
X019360Y021736D01*
X019428Y021578D02*
X016306Y021578D01*
X016306Y021736D02*
X018336Y021736D01*
X018327Y021895D02*
X016306Y021895D01*
X016306Y022053D02*
X018803Y022053D01*
X018803Y021895D02*
X018880Y021895D01*
X018880Y021736D02*
X018803Y021736D01*
X018842Y021440D02*
X018054Y021440D01*
X018337Y021102D02*
X016306Y021102D01*
X016306Y020944D02*
X018337Y020944D01*
X018337Y020785D02*
X016306Y020785D01*
X016306Y020627D02*
X018337Y020627D01*
X018411Y020468D02*
X016306Y020468D01*
X016306Y020310D02*
X019138Y020310D01*
X019311Y020151D02*
X016306Y020151D01*
X016306Y019993D02*
X019732Y019993D01*
X019732Y020151D02*
X019553Y020151D01*
X019726Y020310D02*
X019732Y020310D01*
X019432Y020456D02*
X019432Y020849D01*
X018842Y020849D01*
X019629Y020849D01*
X019649Y020967D01*
X019360Y021102D02*
X019346Y021102D01*
X019386Y021261D02*
X016306Y021261D01*
X016306Y021419D02*
X020627Y021419D01*
X020810Y021243D02*
X021007Y021125D01*
X020554Y021125D01*
X020397Y020967D01*
X020416Y020849D01*
X020219Y020652D01*
X020023Y020652D01*
X020389Y020468D02*
X021864Y020468D01*
X021706Y020627D02*
X020611Y020627D01*
X020685Y020785D02*
X020732Y020785D01*
X021282Y020785D02*
X021323Y020785D01*
X021945Y021102D02*
X022261Y021102D01*
X022102Y021261D02*
X021945Y021261D01*
X021918Y021419D02*
X021976Y021419D01*
X022011Y020944D02*
X022515Y020944D01*
X022328Y020627D02*
X024431Y020627D01*
X024431Y020785D02*
X022170Y020785D01*
X022487Y020468D02*
X024431Y020468D01*
X024431Y020310D02*
X022605Y020310D01*
X022605Y020151D02*
X024431Y020151D01*
X024431Y019993D02*
X022605Y019993D01*
X022605Y019834D02*
X024431Y019834D01*
X024431Y019676D02*
X022605Y019676D01*
X022605Y019517D02*
X023327Y019517D01*
X023328Y019518D02*
X023180Y019371D01*
X023101Y019178D01*
X023101Y018969D01*
X023180Y018777D01*
X023328Y018629D01*
X023462Y018574D01*
X023328Y018518D01*
X023180Y018371D01*
X023101Y018178D01*
X023101Y017969D01*
X023180Y017777D01*
X023328Y017629D01*
X023521Y017549D01*
X023729Y017549D01*
X023922Y017629D01*
X024070Y017777D01*
X024149Y017969D01*
X024149Y018178D01*
X024070Y018371D01*
X023922Y018518D01*
X023788Y018574D01*
X023922Y018629D01*
X024070Y018777D01*
X024149Y018969D01*
X024149Y019178D01*
X024070Y019371D01*
X023922Y019518D01*
X023729Y019598D01*
X023521Y019598D01*
X023328Y019518D01*
X023175Y019359D02*
X022605Y019359D01*
X022605Y019200D02*
X023110Y019200D01*
X023101Y019042D02*
X022605Y019042D01*
X022605Y018883D02*
X023136Y018883D01*
X023232Y018725D02*
X022605Y018725D01*
X022605Y018566D02*
X023443Y018566D01*
X023217Y018408D02*
X022605Y018408D01*
X022605Y018249D02*
X023130Y018249D01*
X023101Y018091D02*
X022605Y018091D01*
X022616Y017932D02*
X023116Y017932D01*
X023183Y017774D02*
X022709Y017774D01*
X022704Y017615D02*
X023362Y017615D01*
X023888Y017615D02*
X024431Y017615D01*
X024431Y017457D02*
X022605Y017457D01*
X022165Y017457D02*
X020015Y017457D01*
X020159Y017615D02*
X021362Y017615D01*
X021183Y017774D02*
X020287Y017774D01*
X020313Y017932D02*
X021116Y017932D01*
X021101Y018091D02*
X020313Y018091D01*
X020313Y018249D02*
X021130Y018249D01*
X021217Y018408D02*
X020313Y018408D01*
X020313Y018566D02*
X021443Y018566D01*
X021232Y018725D02*
X020313Y018725D01*
X020313Y018883D02*
X021136Y018883D01*
X021101Y019042D02*
X020313Y019042D01*
X020313Y019200D02*
X021110Y019200D01*
X021175Y019359D02*
X020313Y019359D01*
X020313Y019517D02*
X021327Y019517D01*
X021923Y019517D02*
X022165Y019517D01*
X022165Y019359D02*
X022075Y019359D01*
X022140Y019200D02*
X022165Y019200D01*
X022149Y019042D02*
X022165Y019042D01*
X022165Y018883D02*
X022114Y018883D01*
X022165Y018725D02*
X022018Y018725D01*
X022165Y018566D02*
X021807Y018566D01*
X022033Y018408D02*
X022165Y018408D01*
X022165Y018249D02*
X022120Y018249D01*
X022149Y018091D02*
X022165Y018091D01*
X022154Y017932D02*
X022134Y017932D01*
X022065Y017615D02*
X021888Y017615D01*
X021729Y016598D02*
X021521Y016598D01*
X021328Y016518D01*
X021180Y016371D01*
X021101Y016178D01*
X021101Y015969D01*
X021180Y015777D01*
X021328Y015629D01*
X021462Y015574D01*
X021328Y015518D01*
X021180Y015371D01*
X021101Y015178D01*
X021101Y014969D01*
X021180Y014777D01*
X021328Y014629D01*
X021521Y014549D01*
X021729Y014549D01*
X021922Y014629D01*
X022070Y014777D01*
X022149Y014969D01*
X022149Y015178D01*
X022070Y015371D01*
X021922Y015518D01*
X021788Y015574D01*
X021922Y015629D01*
X022070Y015777D01*
X022149Y015969D01*
X022149Y016178D01*
X022070Y016371D01*
X021922Y016518D01*
X021729Y016598D01*
X021935Y016506D02*
X023315Y016506D01*
X023328Y016518D02*
X023180Y016371D01*
X023101Y016178D01*
X023101Y015969D01*
X023180Y015777D01*
X023328Y015629D01*
X023462Y015574D01*
X023328Y015518D01*
X023180Y015371D01*
X023101Y015178D01*
X023101Y014969D01*
X023180Y014777D01*
X023328Y014629D01*
X023521Y014549D01*
X023729Y014549D01*
X023922Y014629D01*
X024070Y014777D01*
X024149Y014969D01*
X024149Y015178D01*
X024070Y015371D01*
X023922Y015518D01*
X023788Y015574D01*
X023922Y015629D01*
X024070Y015777D01*
X024149Y015969D01*
X024149Y016178D01*
X024070Y016371D01*
X023922Y016518D01*
X023729Y016598D01*
X023521Y016598D01*
X023328Y016518D01*
X023171Y016347D02*
X022079Y016347D01*
X022145Y016189D02*
X023105Y016189D01*
X023101Y016030D02*
X022149Y016030D01*
X022109Y015872D02*
X023141Y015872D01*
X023244Y015713D02*
X022006Y015713D01*
X021835Y015555D02*
X023415Y015555D01*
X023206Y015396D02*
X022044Y015396D01*
X022125Y015238D02*
X023125Y015238D01*
X023101Y015079D02*
X022149Y015079D01*
X022129Y014921D02*
X023121Y014921D01*
X023195Y014762D02*
X022055Y014762D01*
X021860Y014604D02*
X023390Y014604D01*
X023860Y014604D02*
X024431Y014604D01*
X024431Y014762D02*
X024055Y014762D01*
X024129Y014921D02*
X024431Y014921D01*
X024431Y015079D02*
X024149Y015079D01*
X024125Y015238D02*
X024431Y015238D01*
X024431Y015396D02*
X024044Y015396D01*
X023835Y015555D02*
X024431Y015555D01*
X024431Y015713D02*
X024006Y015713D01*
X024109Y015872D02*
X024431Y015872D01*
X024431Y016030D02*
X024149Y016030D01*
X024145Y016189D02*
X024431Y016189D01*
X024431Y016347D02*
X024079Y016347D01*
X023935Y016506D02*
X024431Y016506D01*
X024431Y016664D02*
X019642Y016664D01*
X019642Y016823D02*
X024431Y016823D01*
X024431Y016981D02*
X019642Y016981D01*
X019727Y017140D02*
X024431Y017140D01*
X024431Y017298D02*
X019871Y017298D01*
X019375Y017615D02*
X018865Y017615D01*
X018865Y017774D02*
X019519Y017774D01*
X019663Y017932D02*
X018865Y017932D01*
X018865Y018091D02*
X019732Y018091D01*
X019732Y018249D02*
X018865Y018249D01*
X018865Y018408D02*
X019732Y018408D01*
X019732Y018566D02*
X018865Y018566D01*
X018865Y018725D02*
X019732Y018725D01*
X019732Y018883D02*
X018865Y018883D01*
X018865Y019042D02*
X019732Y019042D01*
X019732Y019200D02*
X018865Y019200D01*
X018865Y019359D02*
X019732Y019359D01*
X019732Y019517D02*
X018865Y019517D01*
X018775Y019676D02*
X019732Y019676D01*
X019732Y019834D02*
X018706Y019834D01*
X018190Y019834D02*
X016306Y019834D01*
X016306Y019754D02*
X016306Y022139D01*
X016338Y022126D01*
X016534Y022126D01*
X016716Y022201D01*
X016856Y022341D01*
X016931Y022522D01*
X016931Y022719D01*
X016856Y022901D01*
X016716Y023041D01*
X016534Y023116D01*
X016338Y023116D01*
X016156Y023041D01*
X016016Y022901D01*
X015941Y022719D01*
X015941Y022522D01*
X015966Y022462D01*
X015865Y022362D01*
X015865Y020987D01*
X015715Y021137D01*
X015715Y022201D01*
X015716Y022201D01*
X015856Y022341D01*
X015931Y022522D01*
X015931Y022719D01*
X015856Y022901D01*
X015716Y023041D01*
X015534Y023116D01*
X015338Y023116D01*
X015156Y023041D01*
X015016Y022901D01*
X014941Y022719D01*
X014941Y022522D01*
X015016Y022341D01*
X015156Y022201D01*
X015275Y022152D01*
X015275Y021184D01*
X014330Y022129D01*
X014338Y022126D01*
X014534Y022126D01*
X014716Y022201D01*
X014856Y022341D01*
X014931Y022522D01*
X014931Y022719D01*
X014856Y022901D01*
X014716Y023041D01*
X014534Y023116D01*
X014338Y023116D01*
X014156Y023041D01*
X014016Y022901D01*
X013941Y022719D01*
X013941Y022532D01*
X013931Y022542D01*
X013931Y022719D01*
X013856Y022901D01*
X013716Y023041D01*
X013534Y023116D01*
X013338Y023116D01*
X013156Y023041D01*
X013016Y022901D01*
X012941Y022719D01*
X012941Y022522D01*
X013016Y022341D01*
X013156Y022201D01*
X013338Y022126D01*
X013534Y022126D01*
X013659Y022177D01*
X014710Y021126D01*
X010991Y021126D01*
X010991Y021864D01*
X011277Y022151D01*
X011338Y022126D01*
X011534Y022126D01*
X011716Y022201D01*
X011856Y022341D01*
X011931Y022522D01*
X011931Y022719D01*
X011856Y022901D01*
X011716Y023041D01*
X011534Y023116D01*
X011338Y023116D01*
X011156Y023041D01*
X011016Y022901D01*
X010941Y022719D01*
X010941Y022522D01*
X010966Y022462D01*
X010864Y022360D01*
X010931Y022522D01*
X010931Y022719D01*
X010856Y022901D01*
X010716Y023041D01*
X010534Y023116D01*
X010338Y023116D01*
X010156Y023041D01*
X010016Y022901D01*
X009941Y022719D01*
X009941Y022522D01*
X010016Y022341D01*
X010156Y022201D01*
X010338Y022126D01*
X010534Y022126D01*
X010697Y022193D01*
X010551Y022047D01*
X010551Y017589D01*
X010442Y017634D01*
X010312Y017634D01*
X010191Y017584D01*
X010099Y017492D01*
X010049Y017371D01*
X010049Y017241D01*
X010099Y017120D01*
X010157Y017063D01*
X010157Y015049D01*
X010329Y014878D01*
X010312Y014878D01*
X010191Y014828D01*
X010099Y014736D01*
X010049Y014615D01*
X010049Y014485D01*
X010099Y014364D01*
X010191Y014272D01*
X010234Y014255D01*
X010191Y014237D01*
X010099Y014145D01*
X010049Y014025D01*
X010049Y013894D01*
X010099Y013774D01*
X010191Y013682D01*
X010312Y013632D01*
X010354Y013632D01*
X010354Y011880D01*
X010245Y011925D01*
X010115Y011925D01*
X009995Y011875D01*
X009902Y011783D01*
X009852Y011662D01*
X009852Y011532D01*
X009902Y011412D01*
X009960Y011354D01*
X009960Y008419D01*
X009854Y008313D01*
X009788Y008153D01*
X009788Y007979D01*
X009854Y007819D01*
X009977Y007696D01*
X010137Y007630D01*
X010310Y007630D01*
X010470Y007696D01*
X010593Y007819D01*
X010659Y007979D01*
X010659Y008153D01*
X010593Y008313D01*
X010470Y008435D01*
X010400Y008464D01*
X010400Y009688D01*
X011338Y008750D01*
X011467Y008621D01*
X012451Y008621D01*
X012519Y008553D01*
X012519Y008387D01*
X012470Y008435D01*
X012310Y008502D01*
X012137Y008502D01*
X011977Y008435D01*
X011854Y008313D01*
X011788Y008153D01*
X011788Y007979D01*
X011854Y007819D01*
X011977Y007696D01*
X012137Y007630D01*
X012310Y007630D01*
X012470Y007696D01*
X012519Y007745D01*
X012519Y007313D01*
X012461Y007255D01*
X012412Y007135D01*
X012412Y007005D01*
X012461Y006884D01*
X012554Y006792D01*
X012674Y006742D01*
X012804Y006742D01*
X012925Y006792D01*
X013017Y006884D01*
X013067Y007005D01*
X013067Y007135D01*
X013017Y007255D01*
X012959Y007313D01*
X012959Y007713D01*
X012977Y007696D01*
X013137Y007630D01*
X013310Y007630D01*
X013470Y007696D01*
X013503Y007729D01*
X013503Y007707D01*
X013446Y007649D01*
X013396Y007529D01*
X013396Y007398D01*
X013446Y007278D01*
X013538Y007186D01*
X013658Y007136D01*
X013789Y007136D01*
X013909Y007186D01*
X014001Y007278D01*
X014051Y007398D01*
X014051Y007529D01*
X014001Y007649D01*
X013944Y007707D01*
X013944Y007729D01*
X013977Y007696D01*
X014137Y007630D01*
X014310Y007630D01*
X014470Y007696D01*
X014593Y007819D01*
X014659Y007979D01*
X014659Y008153D01*
X014593Y008313D01*
X014470Y008435D01*
X014310Y008502D01*
X014137Y008502D01*
X013977Y008435D01*
X013944Y008402D01*
X013944Y008539D01*
X013815Y008668D01*
X013815Y008668D01*
X013224Y009258D01*
X011846Y009258D01*
X011259Y009846D01*
X011579Y009846D01*
X011657Y009768D01*
X012467Y009768D01*
X012567Y009867D01*
X012567Y010264D01*
X012515Y010316D01*
X012545Y010316D01*
X012637Y010354D01*
X012746Y010463D01*
X012808Y010463D01*
X012936Y010515D01*
X013034Y010613D01*
X013086Y010741D01*
X013086Y010879D01*
X013034Y011007D01*
X012936Y011104D01*
X012808Y011157D01*
X012670Y011157D01*
X012567Y011114D01*
X012567Y011264D01*
X012515Y011316D01*
X012567Y011367D01*
X012567Y011764D01*
X012522Y011809D01*
X012541Y011827D01*
X012564Y011868D01*
X012577Y011914D01*
X012577Y012066D01*
X012577Y012217D01*
X012564Y012263D01*
X012548Y012292D01*
X012726Y012292D01*
X012726Y012216D01*
X012826Y012116D01*
X013440Y012116D01*
X013471Y012147D01*
X013962Y012147D01*
X013967Y012142D01*
X014008Y012119D01*
X014054Y012106D01*
X014276Y012106D01*
X014276Y012583D01*
X014352Y012583D01*
X014352Y012659D01*
X014276Y012659D01*
X014276Y013136D01*
X014071Y013136D01*
X014071Y013241D01*
X014018Y013369D01*
X013974Y013413D01*
X013974Y014264D01*
X014012Y014302D01*
X014012Y014488D01*
X014014Y014492D01*
X014014Y014608D01*
X014012Y014612D01*
X014012Y014798D01*
X013974Y014836D01*
X013974Y017020D01*
X014012Y017058D01*
X014012Y017554D01*
X013912Y017653D01*
X013377Y017653D01*
X013330Y017606D01*
X013282Y017653D01*
X012747Y017653D01*
X012648Y017554D01*
X012648Y017343D01*
X012644Y017339D01*
X012509Y017204D01*
X012509Y017004D01*
X012492Y017004D01*
X012392Y016904D01*
X012392Y016864D01*
X011657Y016864D01*
X011557Y016764D01*
X011557Y016589D01*
X011547Y016599D01*
X011426Y016649D01*
X011296Y016649D01*
X011176Y016599D01*
X011083Y016507D01*
X011034Y016387D01*
X011034Y016257D01*
X011083Y016136D01*
X011141Y016079D01*
X011141Y015443D01*
X011270Y015314D01*
X011607Y015314D01*
X011557Y015264D01*
X011557Y014867D01*
X011609Y014816D01*
X011606Y014813D01*
X010991Y015429D01*
X010991Y018604D01*
X014938Y018604D01*
X014985Y018651D01*
X014985Y020852D01*
X015472Y020364D01*
X015472Y018381D01*
X014813Y017723D01*
X014684Y017594D01*
X014684Y016959D01*
X014627Y016901D01*
X014577Y016781D01*
X014577Y016650D01*
X014627Y016530D01*
X014719Y016438D01*
X014839Y016388D01*
X014970Y016388D01*
X014994Y016398D01*
X015020Y016333D01*
X015113Y016241D01*
X015233Y016191D01*
X015363Y016191D01*
X015484Y016241D01*
X015576Y016333D01*
X015603Y016398D01*
X015627Y016388D01*
X015757Y016388D01*
X015781Y016398D01*
X015808Y016333D01*
X015900Y016241D01*
X016020Y016191D01*
X016120Y016191D01*
X016118Y016189D01*
X016118Y015517D01*
X016218Y015417D01*
X016890Y015417D01*
X016990Y015517D01*
X016990Y016189D01*
X016890Y016289D01*
X016320Y016289D01*
X016363Y016333D01*
X016413Y016453D01*
X016413Y016584D01*
X016363Y016704D01*
X016306Y016762D01*
X016306Y017412D01*
X016374Y017480D01*
X016503Y017608D01*
X016503Y018290D01*
X016532Y018278D01*
X016663Y018278D01*
X016783Y018327D01*
X016797Y018342D01*
X016881Y018258D01*
X017416Y018258D01*
X017457Y018299D01*
X017471Y018284D01*
X017512Y018260D01*
X017558Y018248D01*
X017770Y018248D01*
X017770Y018597D01*
X017787Y018597D01*
X017787Y018614D01*
X017770Y018614D01*
X017770Y018962D01*
X017558Y018962D01*
X017512Y018950D01*
X017471Y018926D01*
X017457Y018912D01*
X017416Y018953D01*
X016881Y018953D01*
X016797Y018869D01*
X016783Y018883D01*
X016663Y018933D01*
X016532Y018933D01*
X016503Y018921D01*
X016503Y019144D01*
X016545Y019144D01*
X016665Y019194D01*
X016757Y019286D01*
X016807Y019406D01*
X016807Y019537D01*
X016757Y019657D01*
X016665Y019749D01*
X016545Y019799D01*
X016414Y019799D01*
X016306Y019754D01*
X016738Y019676D02*
X018120Y019676D01*
X018140Y019517D02*
X016807Y019517D01*
X016787Y019359D02*
X018255Y019359D01*
X018425Y019200D02*
X016671Y019200D01*
X016503Y019042D02*
X018425Y019042D01*
X018425Y018883D02*
X018125Y018883D01*
X018119Y018893D02*
X018086Y018926D01*
X018045Y018950D01*
X017999Y018962D01*
X017787Y018962D01*
X017787Y018614D01*
X018155Y018614D01*
X018155Y018806D01*
X018143Y018852D01*
X018119Y018893D01*
X018155Y018725D02*
X018425Y018725D01*
X018425Y018566D02*
X018155Y018566D01*
X018155Y018597D02*
X017787Y018597D01*
X017787Y018248D01*
X017999Y018248D01*
X018045Y018260D01*
X018086Y018284D01*
X018119Y018318D01*
X018143Y018359D01*
X018155Y018404D01*
X018155Y018597D01*
X018054Y018487D02*
X017936Y018605D01*
X017779Y018605D01*
X017787Y018566D02*
X017770Y018566D01*
X017770Y018408D02*
X017787Y018408D01*
X017770Y018249D02*
X017787Y018249D01*
X018003Y018249D02*
X018425Y018249D01*
X018425Y018091D02*
X016503Y018091D01*
X016503Y018249D02*
X017554Y018249D01*
X017770Y018725D02*
X017787Y018725D01*
X017770Y018883D02*
X017787Y018883D01*
X018155Y018408D02*
X018425Y018408D01*
X018425Y017932D02*
X016503Y017932D01*
X016503Y017774D02*
X018425Y017774D01*
X018425Y017615D02*
X016503Y017615D01*
X016351Y017457D02*
X017663Y017457D01*
X017638Y017298D02*
X016306Y017298D01*
X016306Y017140D02*
X017638Y017140D01*
X017638Y016981D02*
X016306Y016981D01*
X016306Y016823D02*
X017638Y016823D01*
X017640Y016664D02*
X016380Y016664D01*
X016413Y016506D02*
X018425Y016506D01*
X018425Y016347D02*
X016369Y016347D01*
X016118Y016189D02*
X013974Y016189D01*
X013974Y016347D02*
X015015Y016347D01*
X014651Y016506D02*
X013974Y016506D01*
X013974Y016664D02*
X014577Y016664D01*
X014594Y016823D02*
X013974Y016823D01*
X013974Y016981D02*
X014684Y016981D01*
X014684Y017140D02*
X014012Y017140D01*
X014012Y017298D02*
X014684Y017298D01*
X014684Y017457D02*
X014012Y017457D01*
X013950Y017615D02*
X014705Y017615D01*
X014813Y017723D02*
X014813Y017723D01*
X014864Y017774D02*
X010991Y017774D01*
X010991Y017932D02*
X015022Y017932D01*
X015181Y018091D02*
X010991Y018091D01*
X010991Y018249D02*
X015339Y018249D01*
X015472Y018408D02*
X010991Y018408D01*
X010991Y018566D02*
X015472Y018566D01*
X015472Y018725D02*
X014985Y018725D01*
X014985Y018883D02*
X015472Y018883D01*
X015472Y019042D02*
X014985Y019042D01*
X014985Y019200D02*
X015472Y019200D01*
X015472Y019359D02*
X014985Y019359D01*
X014985Y019517D02*
X015472Y019517D01*
X015472Y019676D02*
X014985Y019676D01*
X014985Y019834D02*
X015472Y019834D01*
X015472Y019993D02*
X014985Y019993D01*
X014985Y020151D02*
X015472Y020151D01*
X015472Y020310D02*
X014985Y020310D01*
X014985Y020468D02*
X015368Y020468D01*
X015210Y020627D02*
X014985Y020627D01*
X014985Y020785D02*
X015051Y020785D01*
X015198Y021261D02*
X015275Y021261D01*
X015275Y021419D02*
X015040Y021419D01*
X014881Y021578D02*
X015275Y021578D01*
X015275Y021736D02*
X014723Y021736D01*
X014564Y021895D02*
X015275Y021895D01*
X015275Y022053D02*
X014406Y022053D01*
X014100Y021736D02*
X010991Y021736D01*
X010991Y021578D02*
X014259Y021578D01*
X014417Y021419D02*
X010991Y021419D01*
X010991Y021261D02*
X014576Y021261D01*
X013942Y021895D02*
X011021Y021895D01*
X011179Y022053D02*
X013783Y022053D01*
X013145Y022212D02*
X012731Y022212D01*
X012701Y022189D02*
X012765Y022236D01*
X012821Y022292D01*
X012868Y022356D01*
X012904Y022427D01*
X012928Y022503D01*
X012941Y022581D01*
X012941Y022593D01*
X012464Y022593D01*
X012464Y022649D01*
X012408Y022649D01*
X012408Y022593D01*
X011931Y022593D01*
X011931Y022581D01*
X011944Y022503D01*
X011968Y022427D01*
X012004Y022356D01*
X012051Y022292D01*
X012107Y022236D01*
X012171Y022189D01*
X012242Y022153D01*
X012318Y022129D01*
X012396Y022116D01*
X012408Y022116D01*
X012408Y022593D01*
X012464Y022593D01*
X012464Y022116D01*
X012476Y022116D01*
X012554Y022129D01*
X012630Y022153D01*
X012701Y022189D01*
X012464Y022212D02*
X012408Y022212D01*
X012408Y022370D02*
X012464Y022370D01*
X012464Y022529D02*
X012408Y022529D01*
X012408Y022649D02*
X011931Y022649D01*
X011931Y022661D01*
X011944Y022739D01*
X011968Y022815D01*
X012004Y022886D01*
X012051Y022950D01*
X012107Y023006D01*
X012171Y023053D01*
X012242Y023089D01*
X012318Y023113D01*
X012396Y023126D01*
X012408Y023126D01*
X012408Y022649D01*
X012408Y022687D02*
X012464Y022687D01*
X012464Y022649D02*
X012464Y023126D01*
X012476Y023126D01*
X012554Y023113D01*
X012630Y023089D01*
X012701Y023053D01*
X012765Y023006D01*
X012821Y022950D01*
X012868Y022886D01*
X012904Y022815D01*
X012928Y022739D01*
X012941Y022661D01*
X012941Y022649D01*
X012464Y022649D01*
X012464Y022846D02*
X012408Y022846D01*
X012408Y023004D02*
X012464Y023004D01*
X012767Y023004D02*
X013119Y023004D01*
X012993Y022846D02*
X012888Y022846D01*
X012937Y022687D02*
X012941Y022687D01*
X012932Y022529D02*
X012941Y022529D01*
X013004Y022370D02*
X012875Y022370D01*
X012141Y022212D02*
X011727Y022212D01*
X011868Y022370D02*
X011997Y022370D01*
X011940Y022529D02*
X011931Y022529D01*
X011931Y022687D02*
X011935Y022687D01*
X011984Y022846D02*
X011879Y022846D01*
X011753Y023004D02*
X012105Y023004D01*
X011119Y023004D02*
X010753Y023004D01*
X010879Y022846D02*
X010993Y022846D01*
X010941Y022687D02*
X010931Y022687D01*
X010931Y022529D02*
X010941Y022529D01*
X010874Y022370D02*
X010868Y022370D01*
X010557Y022053D02*
X004140Y022053D01*
X004140Y022038D02*
X004140Y022417D01*
X004042Y022783D01*
X003852Y023112D01*
X003584Y023380D01*
X003400Y023486D01*
X022472Y023486D01*
X022288Y023380D01*
X022020Y023112D01*
X021830Y022783D01*
X021732Y022417D01*
X021732Y022122D01*
X021350Y022122D01*
X021302Y022074D01*
X021255Y022122D01*
X020759Y022122D01*
X020685Y022047D01*
X020685Y022180D01*
X020585Y022279D01*
X020445Y022279D01*
X020408Y022285D01*
X020382Y022279D01*
X020208Y022279D01*
X020207Y022278D01*
X020164Y022289D01*
X020023Y022289D01*
X020023Y022326D02*
X020219Y022542D01*
X020219Y022818D01*
X020338Y022818D01*
X020329Y022846D02*
X020346Y022846D01*
X020329Y023004D02*
X020346Y023004D01*
X020329Y023163D02*
X020346Y023163D01*
X020604Y023163D02*
X022071Y023163D01*
X021958Y023004D02*
X020714Y023004D01*
X020714Y022846D02*
X021866Y022846D01*
X021804Y022687D02*
X020714Y022687D01*
X020677Y022529D02*
X021762Y022529D01*
X021732Y022370D02*
X019879Y022370D01*
X020023Y022212D02*
X020023Y022212D01*
X020023Y022053D02*
X020023Y022053D01*
X020023Y021736D02*
X020023Y021736D01*
X020023Y021578D02*
X020023Y021578D01*
X020397Y021912D02*
X020554Y021755D01*
X021007Y021755D01*
X021597Y021755D01*
X021732Y022212D02*
X020653Y022212D01*
X020685Y022053D02*
X020690Y022053D01*
X020416Y022030D02*
X020397Y021912D01*
X020346Y022529D02*
X020329Y022529D01*
X020329Y022687D02*
X020346Y022687D01*
X020071Y023163D02*
X019978Y023163D01*
X019708Y022818D02*
X019629Y022621D01*
X019629Y022030D01*
X019649Y021912D01*
X019379Y022212D02*
X019356Y022212D01*
X019379Y022370D02*
X019324Y022370D01*
X019379Y022529D02*
X017931Y022529D01*
X017931Y022522D02*
X017856Y022341D01*
X017716Y022201D01*
X017534Y022126D01*
X017338Y022126D01*
X017156Y022201D01*
X017016Y022341D01*
X016941Y022522D01*
X016941Y022719D01*
X017016Y022901D01*
X017156Y023041D01*
X017338Y023116D01*
X017534Y023116D01*
X017716Y023041D01*
X017856Y022901D01*
X017931Y022719D01*
X017931Y022522D01*
X017868Y022370D02*
X018359Y022370D01*
X018327Y022212D02*
X017727Y022212D01*
X017931Y022687D02*
X019341Y022687D01*
X019341Y022846D02*
X017879Y022846D01*
X017753Y023004D02*
X019341Y023004D01*
X019438Y023163D02*
X003801Y023163D01*
X003914Y023004D02*
X008119Y023004D01*
X008156Y023041D02*
X008016Y022901D01*
X007941Y022719D01*
X007941Y022522D01*
X008016Y022341D01*
X008156Y022201D01*
X008338Y022126D01*
X008534Y022126D01*
X008716Y022201D01*
X008856Y022341D01*
X008931Y022522D01*
X008931Y022719D01*
X008856Y022901D01*
X008716Y023041D01*
X008534Y023116D01*
X008338Y023116D01*
X008156Y023041D01*
X007993Y022846D02*
X004006Y022846D01*
X004068Y022687D02*
X007941Y022687D01*
X007941Y022529D02*
X004110Y022529D01*
X004140Y022370D02*
X008004Y022370D01*
X008145Y022212D02*
X004140Y022212D01*
X004140Y022038D02*
X004042Y021671D01*
X003852Y021343D01*
X003584Y021075D01*
X003256Y020885D01*
X002889Y020787D01*
X002510Y020787D01*
X002144Y020885D01*
X001816Y021075D01*
X001547Y021343D01*
X001441Y021527D01*
X001441Y007393D01*
X001498Y007529D01*
X001638Y007669D01*
X001638Y008499D01*
X001684Y008545D01*
X002251Y008545D01*
X002268Y008528D01*
X002480Y008528D01*
X002480Y009917D01*
X002609Y010046D01*
X002873Y010311D01*
X002873Y014038D01*
X002873Y014129D01*
X002873Y014129D01*
X002873Y014129D01*
X002938Y014194D01*
X003633Y014892D01*
X003601Y014969D01*
X003601Y015178D01*
X003680Y015371D01*
X003828Y015518D01*
X003950Y015569D01*
X003920Y015579D01*
X003845Y015617D01*
X003777Y015666D01*
X003717Y015726D01*
X003668Y015794D01*
X003630Y015869D01*
X003604Y015949D01*
X003591Y016032D01*
X003591Y016036D01*
X004087Y016036D01*
X004087Y016112D01*
X003591Y016112D01*
X003591Y016116D01*
X003604Y016199D01*
X003630Y016279D01*
X003668Y016354D01*
X003717Y016422D01*
X003777Y016481D01*
X003845Y016531D01*
X003920Y016569D01*
X003950Y016579D01*
X003828Y016629D01*
X003680Y016777D01*
X003601Y016969D01*
X003601Y017178D01*
X003680Y017371D01*
X003828Y017518D01*
X004021Y017598D01*
X004229Y017598D01*
X004422Y017518D01*
X004570Y017371D01*
X004649Y017178D01*
X004649Y016969D01*
X004570Y016777D01*
X004422Y016629D01*
X004300Y016579D01*
X004330Y016569D01*
X004405Y016531D01*
X004473Y016481D01*
X004533Y016422D01*
X004582Y016354D01*
X004620Y016279D01*
X004646Y016199D01*
X004659Y016116D01*
X004659Y016112D01*
X004163Y016112D01*
X004163Y016036D01*
X004659Y016036D01*
X004659Y016032D01*
X004646Y015949D01*
X004620Y015869D01*
X004582Y015794D01*
X004533Y015726D01*
X004473Y015666D01*
X004405Y015617D01*
X004330Y015579D01*
X004300Y015569D01*
X004422Y015518D01*
X004570Y015371D01*
X004649Y015178D01*
X004649Y014969D01*
X004570Y014777D01*
X004422Y014629D01*
X004288Y014574D01*
X004422Y014518D01*
X004570Y014371D01*
X004649Y014178D01*
X004649Y013969D01*
X004570Y013777D01*
X004422Y013629D01*
X004288Y013574D01*
X004422Y013518D01*
X004570Y013371D01*
X004649Y013178D01*
X004649Y012969D01*
X004570Y012777D01*
X004422Y012629D01*
X004288Y012574D01*
X004422Y012518D01*
X004570Y012371D01*
X004649Y012178D01*
X004649Y011969D01*
X004570Y011777D01*
X004422Y011629D01*
X004229Y011549D01*
X004021Y011549D01*
X003942Y011582D01*
X003904Y011545D01*
X003904Y009538D01*
X003511Y009144D01*
X003511Y008528D01*
X003667Y008528D01*
X003684Y008545D01*
X004124Y008545D01*
X004124Y008794D01*
X004172Y008841D01*
X004124Y008889D01*
X004124Y009424D01*
X004224Y009523D01*
X004719Y009523D01*
X004793Y009449D01*
X004793Y009581D01*
X004893Y009681D01*
X005095Y009681D01*
X005108Y009694D01*
X005108Y009698D01*
X005161Y009826D01*
X005166Y009830D01*
X005166Y018744D01*
X004537Y018744D01*
X004422Y018629D01*
X004229Y018549D01*
X004021Y018549D01*
X003828Y018629D01*
X003680Y018777D01*
X003601Y018969D01*
X003601Y019178D01*
X003680Y019371D01*
X003828Y019518D01*
X003950Y019569D01*
X003920Y019579D01*
X003845Y019617D01*
X003777Y019666D01*
X003717Y019726D01*
X003668Y019794D01*
X003630Y019869D01*
X003604Y019949D01*
X003591Y020032D01*
X003591Y020036D01*
X004087Y020036D01*
X004087Y020112D01*
X004087Y020608D01*
X004083Y020608D01*
X004000Y020595D01*
X003920Y020569D01*
X003845Y020531D01*
X003777Y020481D01*
X003717Y020422D01*
X003668Y020354D01*
X003630Y020279D01*
X003604Y020199D01*
X003591Y020116D01*
X003591Y020112D01*
X004087Y020112D01*
X004163Y020112D01*
X004163Y020608D01*
X004167Y020608D01*
X004250Y020595D01*
X004330Y020569D01*
X004405Y020531D01*
X004473Y020481D01*
X004533Y020422D01*
X004582Y020354D01*
X004620Y020279D01*
X004646Y020199D01*
X004659Y020116D01*
X004659Y020112D01*
X004163Y020112D01*
X004163Y020036D01*
X004659Y020036D01*
X004659Y020032D01*
X004646Y019949D01*
X004620Y019869D01*
X004582Y019794D01*
X004533Y019726D01*
X004473Y019666D01*
X004405Y019617D01*
X004330Y019579D01*
X004300Y019569D01*
X004422Y019518D01*
X004537Y019404D01*
X005578Y019404D01*
X005561Y019421D01*
X005561Y019916D01*
X005661Y020016D01*
X006195Y020016D01*
X006243Y019968D01*
X006291Y020016D01*
X006825Y020016D01*
X006925Y019916D01*
X006925Y019898D01*
X007394Y019898D01*
X007452Y019956D01*
X007790Y019956D01*
X007890Y019857D01*
X007890Y019401D01*
X007852Y019363D01*
X007870Y019345D01*
X007870Y018889D01*
X007770Y018789D01*
X007432Y018789D01*
X007333Y018889D01*
X007333Y019345D01*
X007371Y019383D01*
X007352Y019401D01*
X007352Y019438D01*
X007029Y019438D01*
X007122Y019345D01*
X007122Y018889D01*
X007022Y018789D01*
X006882Y018789D01*
X006868Y018784D01*
X006440Y018784D01*
X006440Y018783D01*
X006312Y018730D01*
X006174Y018730D01*
X006133Y018747D01*
X005925Y018747D01*
X005915Y018744D01*
X005746Y018744D01*
X005746Y013303D01*
X005769Y013358D01*
X005796Y013385D01*
X005796Y014994D01*
X005834Y015085D01*
X005905Y015156D01*
X006487Y015738D01*
X006375Y015738D01*
X006254Y015788D01*
X006162Y015880D01*
X006112Y016001D01*
X006112Y016131D01*
X006162Y016251D01*
X006210Y016299D01*
X006210Y016834D01*
X006199Y016848D01*
X006210Y016927D01*
X006210Y017008D01*
X006222Y017020D01*
X006224Y017037D01*
X006288Y017086D01*
X006345Y017142D01*
X006362Y017142D01*
X006544Y017282D01*
X006545Y017284D01*
X006545Y017357D01*
X006593Y017404D01*
X006545Y017452D01*
X006545Y017947D01*
X006645Y018047D01*
X006959Y018047D01*
X006959Y018141D01*
X006937Y018193D01*
X006937Y018348D01*
X006959Y018400D01*
X006959Y018479D01*
X007058Y018579D01*
X007165Y018579D01*
X007170Y018580D01*
X008011Y018580D01*
X008015Y018585D01*
X008143Y018638D01*
X008281Y018638D01*
X008408Y018585D01*
X008506Y018487D01*
X008559Y018359D01*
X008559Y018221D01*
X008506Y018093D01*
X008408Y017996D01*
X008281Y017943D01*
X008143Y017943D01*
X008015Y017996D01*
X008011Y018000D01*
X007857Y018000D01*
X007909Y017947D01*
X007909Y017452D01*
X007869Y017411D01*
X007883Y017397D01*
X007907Y017356D01*
X007919Y017310D01*
X007919Y017118D01*
X007551Y017118D01*
X007551Y017101D01*
X007919Y017101D01*
X007919Y016908D01*
X007907Y016864D01*
X008703Y016864D01*
X008781Y016786D01*
X009000Y016786D01*
X009010Y016796D01*
X009131Y016846D01*
X009261Y016846D01*
X009381Y016796D01*
X009474Y016704D01*
X009524Y016584D01*
X009524Y016453D01*
X009474Y016333D01*
X009381Y016241D01*
X009261Y016191D01*
X009131Y016191D01*
X009010Y016241D01*
X008918Y016333D01*
X008913Y016346D01*
X008781Y016346D01*
X008751Y016316D01*
X008803Y016264D01*
X008803Y015867D01*
X008751Y015816D01*
X008771Y015796D01*
X008994Y015796D01*
X009010Y015812D01*
X009131Y015862D01*
X009261Y015862D01*
X009381Y015812D01*
X009474Y015720D01*
X009524Y015600D01*
X009524Y015469D01*
X009474Y015349D01*
X009381Y015257D01*
X009261Y015207D01*
X009131Y015207D01*
X009010Y015257D01*
X008931Y015336D01*
X008771Y015336D01*
X008751Y015316D01*
X008781Y015286D01*
X008968Y015286D01*
X009180Y015075D01*
X009261Y015075D01*
X009381Y015025D01*
X009474Y014933D01*
X009524Y014812D01*
X009524Y014682D01*
X009474Y014561D01*
X009381Y014469D01*
X009339Y014452D01*
X009381Y014434D01*
X009474Y014342D01*
X009524Y014222D01*
X009524Y014091D01*
X009474Y013971D01*
X009381Y013879D01*
X009261Y013829D01*
X009131Y013829D01*
X009010Y013879D01*
X008918Y013971D01*
X008868Y014091D01*
X008868Y014173D01*
X008803Y014238D01*
X008803Y013867D01*
X008751Y013816D01*
X008803Y013764D01*
X008803Y013367D01*
X008758Y013323D01*
X008777Y013304D01*
X008801Y013263D01*
X008813Y013217D01*
X008813Y013066D01*
X008298Y013066D01*
X008298Y013066D01*
X007784Y013066D01*
X007784Y013217D01*
X007792Y013249D01*
X007765Y013238D01*
X007635Y013238D01*
X007514Y013288D01*
X007504Y013298D01*
X007504Y012849D01*
X007514Y012859D01*
X007635Y012909D01*
X007765Y012909D01*
X007787Y012900D01*
X007784Y012914D01*
X007784Y013066D01*
X008298Y013066D01*
X008298Y013066D01*
X008813Y013066D01*
X008813Y012914D01*
X008801Y012868D01*
X008777Y012827D01*
X008758Y012809D01*
X008803Y012764D01*
X008803Y012367D01*
X008751Y012316D01*
X008803Y012264D01*
X008803Y011867D01*
X008751Y011816D01*
X008803Y011764D01*
X008803Y011367D01*
X008751Y011316D01*
X008803Y011264D01*
X008803Y010867D01*
X008759Y010824D01*
X009009Y010824D01*
X009084Y010793D01*
X009036Y010841D01*
X008986Y010961D01*
X008986Y011092D01*
X009036Y011212D01*
X009128Y011304D01*
X009249Y011354D01*
X009379Y011354D01*
X009500Y011304D01*
X009592Y011212D01*
X009642Y011092D01*
X009642Y010961D01*
X009592Y010841D01*
X009534Y010783D01*
X009534Y008372D01*
X009593Y008313D01*
X009659Y008153D01*
X009659Y007979D01*
X009593Y007819D01*
X009470Y007696D01*
X009455Y007690D01*
X009455Y007274D01*
X009461Y007191D01*
X009455Y007184D01*
X009455Y007175D01*
X009396Y007116D01*
X008432Y006003D01*
X008432Y003238D01*
X008303Y003109D01*
X006892Y001699D01*
X006950Y001641D01*
X007025Y001460D01*
X007025Y001263D01*
X006950Y001081D01*
X006811Y000941D01*
X006629Y000866D01*
X006432Y000866D01*
X006250Y000941D01*
X006111Y001081D01*
X006036Y001263D01*
X006036Y001460D01*
X006111Y001641D01*
X006250Y001781D01*
X006423Y001852D01*
X007991Y003421D01*
X007991Y006078D01*
X007986Y006161D01*
X007991Y006168D01*
X007991Y006177D01*
X008050Y006236D01*
X008779Y007077D01*
X008654Y007077D01*
X008527Y007130D01*
X008429Y007227D01*
X008376Y007355D01*
X008376Y007493D01*
X008429Y007621D01*
X008473Y007665D01*
X008473Y007699D01*
X008470Y007696D01*
X008310Y007630D01*
X008137Y007630D01*
X007977Y007696D01*
X007854Y007819D01*
X007788Y007979D01*
X007788Y008153D01*
X007854Y008313D01*
X007977Y008435D01*
X008137Y008502D01*
X008310Y008502D01*
X008470Y008435D01*
X008488Y008418D01*
X008493Y008440D01*
X008504Y008454D01*
X008511Y008471D01*
X008534Y008494D01*
X008682Y008691D01*
X008259Y008691D01*
X008212Y008739D01*
X008164Y008691D01*
X007629Y008691D01*
X007530Y008791D01*
X007530Y009286D01*
X007629Y009386D01*
X007701Y009386D01*
X007971Y009655D01*
X007971Y009668D01*
X007930Y009628D01*
X007737Y009628D01*
X007730Y009599D01*
X007706Y009558D01*
X007673Y009524D01*
X007631Y009500D01*
X007586Y009488D01*
X007393Y009488D01*
X007393Y009856D01*
X007376Y009856D01*
X007376Y009488D01*
X007184Y009488D01*
X007142Y009500D01*
X007142Y009125D01*
X007042Y009026D01*
X006232Y009026D01*
X006132Y009125D01*
X006132Y009182D01*
X006118Y009182D01*
X006118Y009047D01*
X006018Y008947D01*
X005772Y008947D01*
X005772Y008926D01*
X005725Y008880D01*
X005186Y008880D01*
X005139Y008926D01*
X005139Y008947D01*
X005068Y008947D01*
X005066Y008944D01*
X004974Y008906D01*
X004819Y008906D01*
X004819Y008889D01*
X004771Y008841D01*
X004819Y008794D01*
X004819Y008777D01*
X004974Y008777D01*
X005066Y008739D01*
X005068Y008736D01*
X005270Y008736D01*
X005272Y008735D01*
X005314Y008746D01*
X005456Y008746D01*
X005456Y008369D01*
X005456Y008369D01*
X005456Y007992D01*
X005580Y007992D01*
X005580Y007850D01*
X005562Y007850D01*
X005522Y007809D01*
X005507Y007824D01*
X005466Y007848D01*
X005420Y007860D01*
X005208Y007860D01*
X005208Y007511D01*
X005191Y007511D01*
X005191Y007494D01*
X005208Y007494D01*
X005208Y007146D01*
X005420Y007146D01*
X005466Y007158D01*
X005507Y007182D01*
X005522Y007196D01*
X005562Y007156D01*
X006097Y007156D01*
X006197Y007255D01*
X006197Y007750D01*
X006097Y007850D01*
X006080Y007850D01*
X006080Y008064D01*
X006118Y008102D01*
X006118Y008636D01*
X006018Y008736D01*
X005641Y008736D01*
X005640Y008735D01*
X005598Y008746D01*
X005456Y008746D01*
X005456Y008369D01*
X005456Y008369D01*
X005456Y007936D01*
X005456Y008841D01*
X006637Y008841D01*
X007385Y008841D01*
X007385Y009865D01*
X007393Y009849D02*
X007376Y009849D01*
X007376Y009690D02*
X007393Y009690D01*
X007376Y009532D02*
X007393Y009532D01*
X007617Y009373D02*
X007142Y009373D01*
X007142Y009215D02*
X007530Y009215D01*
X007530Y009056D02*
X007072Y009056D01*
X006995Y008667D02*
X006675Y008667D01*
X006675Y008289D01*
X007151Y008289D01*
X007151Y008511D01*
X007139Y008557D01*
X007115Y008598D01*
X007082Y008631D01*
X007041Y008655D01*
X006995Y008667D01*
X007125Y008581D02*
X008599Y008581D01*
X008489Y008422D02*
X008484Y008422D01*
X008723Y008330D02*
X008723Y007424D01*
X008394Y007313D02*
X006197Y007313D01*
X006197Y007471D02*
X008376Y007471D01*
X008438Y007630D02*
X006197Y007630D01*
X006159Y007788D02*
X007885Y007788D01*
X007801Y007947D02*
X007140Y007947D01*
X007139Y007945D02*
X007151Y007991D01*
X007151Y008213D01*
X006675Y008213D01*
X006675Y008289D01*
X006599Y008289D01*
X006599Y008667D01*
X006278Y008667D01*
X006233Y008655D01*
X006192Y008631D01*
X006158Y008598D01*
X006134Y008557D01*
X006122Y008511D01*
X006122Y008289D01*
X006599Y008289D01*
X006599Y008213D01*
X006675Y008213D01*
X006675Y007835D01*
X006995Y007835D01*
X007041Y007847D01*
X007082Y007871D01*
X007115Y007904D01*
X007139Y007945D01*
X007151Y008105D02*
X007788Y008105D01*
X007833Y008264D02*
X006675Y008264D01*
X006637Y008251D02*
X006637Y008841D01*
X006599Y008581D02*
X006675Y008581D01*
X006675Y008422D02*
X006599Y008422D01*
X006599Y008264D02*
X006118Y008264D01*
X006122Y008213D02*
X006122Y007991D01*
X006134Y007945D01*
X006158Y007904D01*
X006192Y007871D01*
X006233Y007847D01*
X006278Y007835D01*
X006599Y007835D01*
X006599Y008213D01*
X006122Y008213D01*
X006118Y008105D02*
X006122Y008105D01*
X006134Y007947D02*
X006080Y007947D01*
X005830Y008369D02*
X005830Y007503D01*
X005456Y007857D02*
X005200Y007503D01*
X005191Y007511D02*
X004823Y007511D01*
X004823Y007704D01*
X004835Y007749D01*
X004859Y007791D01*
X004892Y007824D01*
X004933Y007848D01*
X004979Y007860D01*
X005191Y007860D01*
X005191Y007511D01*
X005191Y007494D02*
X004823Y007494D01*
X004823Y007302D01*
X004835Y007256D01*
X004859Y007215D01*
X004892Y007182D01*
X004933Y007158D01*
X004979Y007146D01*
X005191Y007146D01*
X005191Y007494D01*
X005191Y007471D02*
X005208Y007471D01*
X005191Y007313D02*
X005208Y007313D01*
X005191Y007154D02*
X005208Y007154D01*
X005451Y007154D02*
X008502Y007154D01*
X008709Y006996D02*
X004488Y006996D01*
X004490Y006999D02*
X004517Y007083D01*
X004531Y007167D01*
X004298Y007167D01*
X004298Y007263D01*
X004531Y007263D01*
X004517Y007347D01*
X004490Y007432D01*
X004450Y007511D01*
X004398Y007583D01*
X004335Y007646D01*
X004298Y007673D01*
X004298Y008159D01*
X004719Y008159D01*
X004793Y008234D01*
X004793Y008102D01*
X004893Y008002D01*
X005270Y008002D01*
X005272Y008003D01*
X005314Y007992D01*
X005456Y007992D01*
X005456Y008369D01*
X005456Y008422D02*
X005456Y008422D01*
X005456Y008264D02*
X005456Y008264D01*
X005456Y008105D02*
X005456Y008105D01*
X005456Y007936D02*
X005456Y007857D01*
X005580Y007947D02*
X004298Y007947D01*
X004298Y008105D02*
X004793Y008105D01*
X004857Y007788D02*
X004298Y007788D01*
X004351Y007630D02*
X004823Y007630D01*
X004823Y007471D02*
X004470Y007471D01*
X004523Y007313D02*
X004823Y007313D01*
X004948Y007154D02*
X004529Y007154D01*
X004490Y006999D02*
X004450Y006920D01*
X004398Y006848D01*
X004335Y006785D01*
X004298Y006758D01*
X004298Y006302D01*
X004319Y006324D01*
X004501Y006399D01*
X004698Y006399D01*
X004880Y006324D01*
X005019Y006185D01*
X005094Y006003D01*
X005094Y005806D01*
X005019Y005624D01*
X004880Y005485D01*
X004698Y005409D01*
X004501Y005409D01*
X004319Y005485D01*
X004180Y005624D01*
X004104Y005806D01*
X004104Y005885D01*
X003684Y005885D01*
X003643Y005927D01*
X003511Y005927D01*
X003511Y004838D01*
X003552Y004838D01*
X003673Y004788D01*
X003765Y004696D01*
X003815Y004576D01*
X003815Y004446D01*
X003765Y004325D01*
X003673Y004233D01*
X003552Y004183D01*
X003422Y004183D01*
X003302Y004233D01*
X003209Y004325D01*
X003160Y004446D01*
X003160Y004507D01*
X003082Y004430D01*
X002962Y004380D01*
X002831Y004380D01*
X002711Y004430D01*
X002619Y004522D01*
X002569Y004642D01*
X002569Y004773D01*
X002570Y004774D01*
X002568Y004774D01*
X002438Y004774D01*
X002317Y004824D01*
X002225Y004916D01*
X002175Y005036D01*
X002175Y005166D01*
X002225Y005287D01*
X002317Y005379D01*
X002438Y005429D01*
X002519Y005429D01*
X002676Y005586D01*
X002676Y005606D01*
X002568Y005561D01*
X002438Y005561D01*
X002317Y005611D01*
X002225Y005703D01*
X002175Y005823D01*
X002175Y005885D01*
X001684Y005885D01*
X001638Y005932D01*
X001638Y006762D01*
X001498Y006902D01*
X001441Y007038D01*
X001441Y006996D02*
X001459Y006996D01*
X001441Y006837D02*
X001562Y006837D01*
X001638Y006679D02*
X001441Y006679D01*
X001441Y006520D02*
X001638Y006520D01*
X001638Y006362D02*
X001441Y006362D01*
X001441Y006203D02*
X001638Y006203D01*
X001638Y006045D02*
X001441Y006045D01*
X001441Y005886D02*
X001684Y005886D01*
X001441Y005728D02*
X002215Y005728D01*
X002419Y005569D02*
X001441Y005569D01*
X001441Y005411D02*
X002393Y005411D01*
X002211Y005252D02*
X001441Y005252D01*
X001441Y005094D02*
X002175Y005094D01*
X002217Y004935D02*
X001441Y004935D01*
X001441Y004777D02*
X002431Y004777D01*
X002579Y004618D02*
X001441Y004618D01*
X001441Y004460D02*
X002681Y004460D01*
X003112Y004460D02*
X003160Y004460D01*
X003234Y004301D02*
X001441Y004301D01*
X001441Y004143D02*
X004162Y004143D01*
X004180Y004185D02*
X004104Y004003D01*
X004104Y003806D01*
X004180Y003624D01*
X004319Y003485D01*
X004501Y003409D01*
X004698Y003409D01*
X004880Y003485D01*
X005019Y003624D01*
X005094Y003806D01*
X005094Y004003D01*
X005019Y004185D01*
X004880Y004324D01*
X004698Y004399D01*
X004501Y004399D01*
X004319Y004324D01*
X004180Y004185D01*
X004296Y004301D02*
X003741Y004301D01*
X003815Y004460D02*
X007991Y004460D01*
X007991Y004618D02*
X003797Y004618D01*
X003685Y004777D02*
X007991Y004777D01*
X007991Y004935D02*
X003511Y004935D01*
X003511Y005094D02*
X007991Y005094D01*
X007991Y005252D02*
X003511Y005252D01*
X003511Y005411D02*
X004498Y005411D01*
X004700Y005411D02*
X006998Y005411D01*
X007001Y005409D02*
X007198Y005409D01*
X007380Y005485D01*
X007519Y005624D01*
X007594Y005806D01*
X007594Y006003D01*
X007519Y006185D01*
X007380Y006324D01*
X007198Y006399D01*
X007001Y006399D01*
X006819Y006324D01*
X006680Y006185D01*
X006604Y006003D01*
X006604Y005806D01*
X006680Y005624D01*
X006819Y005485D01*
X007001Y005409D01*
X007200Y005411D02*
X007991Y005411D01*
X007991Y005569D02*
X007464Y005569D01*
X007562Y005728D02*
X007991Y005728D01*
X007991Y005886D02*
X007594Y005886D01*
X007577Y006045D02*
X007991Y006045D01*
X008018Y006203D02*
X007501Y006203D01*
X007289Y006362D02*
X008159Y006362D01*
X008297Y006520D02*
X004298Y006520D01*
X004298Y006362D02*
X004410Y006362D01*
X004298Y006679D02*
X008434Y006679D01*
X008572Y006837D02*
X004387Y006837D01*
X004789Y006362D02*
X006910Y006362D01*
X006698Y006203D02*
X005001Y006203D01*
X005077Y006045D02*
X006622Y006045D01*
X006604Y005886D02*
X005094Y005886D01*
X005062Y005728D02*
X006637Y005728D01*
X006735Y005569D02*
X004964Y005569D01*
X004235Y005569D02*
X003511Y005569D01*
X003511Y005728D02*
X004137Y005728D01*
X003684Y005886D02*
X003511Y005886D01*
X002659Y005569D02*
X002587Y005569D01*
X001441Y003984D02*
X004104Y003984D01*
X004104Y003826D02*
X001441Y003826D01*
X001441Y003667D02*
X004162Y003667D01*
X004295Y003509D02*
X001441Y003509D01*
X001441Y003350D02*
X007921Y003350D01*
X007991Y003509D02*
X007413Y003509D01*
X007428Y003519D02*
X007484Y003576D01*
X007531Y003640D01*
X007567Y003711D01*
X007592Y003786D01*
X007604Y003865D01*
X007604Y003876D01*
X007128Y003876D01*
X007128Y003933D01*
X007604Y003933D01*
X007604Y003944D01*
X007592Y004023D01*
X007567Y004098D01*
X007531Y004169D01*
X007484Y004233D01*
X007428Y004289D01*
X007364Y004336D01*
X007293Y004372D01*
X007218Y004397D01*
X007139Y004409D01*
X007128Y004409D01*
X007128Y003933D01*
X007071Y003933D01*
X007071Y004409D01*
X007060Y004409D01*
X006981Y004397D01*
X006906Y004372D01*
X006835Y004336D01*
X006771Y004289D01*
X006714Y004233D01*
X006668Y004169D01*
X006632Y004098D01*
X006607Y004023D01*
X006595Y003944D01*
X006595Y003933D01*
X007071Y003933D01*
X007071Y003876D01*
X007128Y003876D01*
X007128Y003400D01*
X007139Y003400D01*
X007218Y003412D01*
X007293Y003437D01*
X007364Y003473D01*
X007428Y003519D01*
X007545Y003667D02*
X007991Y003667D01*
X007991Y003826D02*
X007598Y003826D01*
X007598Y003984D02*
X007991Y003984D01*
X007991Y004143D02*
X007545Y004143D01*
X007412Y004301D02*
X007991Y004301D01*
X008432Y004301D02*
X009020Y004301D01*
X009043Y004324D02*
X008904Y004185D01*
X008829Y004003D01*
X008829Y003806D01*
X008904Y003624D01*
X009043Y003485D01*
X009225Y003409D01*
X009422Y003409D01*
X009604Y003485D01*
X009743Y003624D01*
X009819Y003806D01*
X009819Y004003D01*
X009743Y004185D01*
X009604Y004324D01*
X009422Y004399D01*
X009225Y004399D01*
X009043Y004324D01*
X008887Y004143D02*
X008432Y004143D01*
X008432Y003984D02*
X008829Y003984D01*
X008829Y003826D02*
X008432Y003826D01*
X008432Y003667D02*
X008886Y003667D01*
X009020Y003509D02*
X008432Y003509D01*
X008432Y003350D02*
X010354Y003350D01*
X010354Y003192D02*
X008385Y003192D01*
X008226Y003033D02*
X010354Y003033D01*
X010354Y003027D02*
X008908Y001581D01*
X008025Y001581D01*
X008025Y001756D01*
X007926Y001856D01*
X007135Y001856D01*
X007036Y001756D01*
X007036Y000966D01*
X007135Y000866D01*
X007926Y000866D01*
X008025Y000966D01*
X008025Y001141D01*
X009090Y001141D01*
X009219Y001270D01*
X010794Y002845D01*
X010794Y006630D01*
X010852Y006687D01*
X010901Y006808D01*
X010901Y006938D01*
X010852Y007059D01*
X010759Y007151D01*
X010639Y007201D01*
X010509Y007201D01*
X010388Y007151D01*
X010296Y007059D01*
X010246Y006938D01*
X010246Y006808D01*
X010296Y006687D01*
X010354Y006630D01*
X010354Y003027D01*
X010201Y002875D02*
X008068Y002875D01*
X007909Y002716D02*
X010043Y002716D01*
X009884Y002558D02*
X007751Y002558D01*
X007592Y002399D02*
X009726Y002399D01*
X009567Y002241D02*
X007434Y002241D01*
X007275Y002082D02*
X009409Y002082D01*
X009250Y001924D02*
X007117Y001924D01*
X007044Y001765D02*
X006958Y001765D01*
X006965Y001607D02*
X007036Y001607D01*
X007025Y001448D02*
X007036Y001448D01*
X007025Y001290D02*
X007036Y001290D01*
X007036Y001131D02*
X006971Y001131D01*
X007036Y000973D02*
X006842Y000973D01*
X006219Y000973D02*
X003911Y000973D01*
X004003Y001131D02*
X006090Y001131D01*
X006036Y001290D02*
X004066Y001290D01*
X004109Y001448D02*
X006036Y001448D01*
X006096Y001607D02*
X004140Y001607D01*
X004140Y001765D02*
X006234Y001765D01*
X006494Y001924D02*
X004140Y001924D01*
X004103Y002082D02*
X006653Y002082D01*
X006811Y002241D02*
X004061Y002241D01*
X003991Y002399D02*
X006970Y002399D01*
X007128Y002558D02*
X003899Y002558D01*
X003775Y002716D02*
X007287Y002716D01*
X007445Y002875D02*
X003617Y002875D01*
X003366Y003033D02*
X007604Y003033D01*
X007762Y003192D02*
X002902Y003192D01*
X002497Y003192D02*
X001441Y003192D01*
X001441Y003033D02*
X002033Y003033D01*
X001783Y002875D02*
X001441Y002875D01*
X001441Y002716D02*
X001624Y002716D01*
X001500Y002558D02*
X001441Y002558D01*
X003402Y000497D02*
X022471Y000497D01*
X022235Y000656D02*
X003637Y000656D01*
X003796Y000814D02*
X022076Y000814D01*
X021961Y000973D02*
X008025Y000973D01*
X008025Y001131D02*
X021869Y001131D01*
X021806Y001290D02*
X009239Y001290D01*
X009397Y001448D02*
X021763Y001448D01*
X021732Y001607D02*
X009556Y001607D01*
X009714Y001765D02*
X010620Y001765D01*
X010656Y001729D02*
X010838Y001654D01*
X011034Y001654D01*
X011216Y001729D01*
X011356Y001868D01*
X011431Y002050D01*
X011431Y002247D01*
X011418Y002277D01*
X011478Y002337D01*
X011441Y002247D01*
X011441Y002050D01*
X011516Y001868D01*
X011656Y001729D01*
X011838Y001654D01*
X012034Y001654D01*
X012216Y001729D01*
X012356Y001868D01*
X012431Y002050D01*
X012431Y002247D01*
X012356Y002429D01*
X012216Y002568D01*
X012034Y002643D01*
X011838Y002643D01*
X011747Y002606D01*
X012024Y002883D01*
X013316Y002883D01*
X013065Y002631D01*
X013034Y002643D01*
X012838Y002643D01*
X012656Y002568D01*
X012516Y002429D01*
X012441Y002247D01*
X012441Y002050D01*
X012516Y001868D01*
X012656Y001729D01*
X012838Y001654D01*
X013034Y001654D01*
X013216Y001729D01*
X013356Y001868D01*
X013431Y002050D01*
X013431Y002247D01*
X013418Y002277D01*
X013478Y002337D01*
X013441Y002247D01*
X013441Y002050D01*
X013516Y001868D01*
X013656Y001729D01*
X013838Y001654D01*
X014034Y001654D01*
X014216Y001729D01*
X014356Y001868D01*
X014431Y002050D01*
X014431Y002247D01*
X014356Y002429D01*
X014296Y002489D01*
X014431Y002489D01*
X014431Y002177D01*
X014908Y002177D01*
X014908Y002489D01*
X014964Y002489D01*
X014964Y002177D01*
X014908Y002177D01*
X014908Y002120D01*
X014964Y002120D01*
X014964Y001644D01*
X015285Y001644D01*
X015330Y001656D01*
X015371Y001680D01*
X015405Y001713D01*
X015429Y001754D01*
X015441Y001800D01*
X015441Y002120D01*
X014964Y002120D01*
X014964Y002177D01*
X015441Y002177D01*
X015441Y002489D01*
X017316Y002489D01*
X017408Y002527D01*
X017479Y002597D01*
X017873Y002991D01*
X017911Y003083D01*
X017911Y006572D01*
X018463Y007125D01*
X018501Y007217D01*
X018501Y009875D01*
X018463Y009967D01*
X018393Y010038D01*
X018393Y010038D01*
X016139Y012291D01*
X016139Y012689D01*
X016141Y012682D01*
X016173Y012620D01*
X016214Y012563D01*
X016264Y012513D01*
X016321Y012472D01*
X016383Y012440D01*
X016450Y012418D01*
X016519Y012407D01*
X016546Y012407D01*
X016546Y012845D01*
X016563Y012845D01*
X016563Y012862D01*
X017000Y012862D01*
X017000Y012888D01*
X016989Y012958D01*
X016967Y013024D01*
X016935Y013087D01*
X016894Y013144D01*
X016845Y013193D01*
X016788Y013234D01*
X016725Y013266D01*
X016659Y013288D01*
X016589Y013299D01*
X016563Y013299D01*
X016563Y012862D01*
X016546Y012862D01*
X016546Y013299D01*
X016519Y013299D01*
X016450Y013288D01*
X016383Y013266D01*
X016321Y013234D01*
X016264Y013193D01*
X016214Y013144D01*
X016173Y013087D01*
X016141Y013024D01*
X016139Y013018D01*
X016139Y013717D01*
X016185Y013606D01*
X016307Y013484D01*
X016467Y013417D01*
X016641Y013417D01*
X016801Y013484D01*
X016924Y013606D01*
X016990Y013767D01*
X016990Y013940D01*
X016924Y014100D01*
X016801Y014223D01*
X016641Y014289D01*
X016467Y014289D01*
X016307Y014223D01*
X016236Y014152D01*
X016236Y014502D01*
X016188Y014550D01*
X016215Y014576D01*
X016307Y014484D01*
X016467Y014417D01*
X016641Y014417D01*
X016801Y014484D01*
X016924Y014606D01*
X016990Y014767D01*
X016990Y014940D01*
X016924Y015100D01*
X016801Y015223D01*
X016641Y015289D01*
X016467Y015289D01*
X016307Y015223D01*
X016226Y015142D01*
X016136Y015232D01*
X015641Y015232D01*
X015541Y015132D01*
X015541Y014598D01*
X015589Y014550D01*
X015541Y014502D01*
X015541Y013968D01*
X015639Y013871D01*
X015639Y012138D01*
X015677Y012046D01*
X016782Y010941D01*
X016709Y010941D01*
X016589Y010891D01*
X016497Y010799D01*
X016447Y010678D01*
X016447Y010548D01*
X016497Y010427D01*
X016589Y010335D01*
X016709Y010285D01*
X016748Y010285D01*
X017607Y009427D01*
X017607Y008279D01*
X017593Y008313D01*
X017470Y008435D01*
X017310Y008502D01*
X017137Y008502D01*
X016977Y008435D01*
X016854Y008313D01*
X016788Y008153D01*
X016788Y007979D01*
X016854Y007819D01*
X016977Y007696D01*
X017137Y007630D01*
X017310Y007630D01*
X017470Y007696D01*
X017593Y007819D01*
X017607Y007853D01*
X017607Y007567D01*
X017055Y007015D01*
X017017Y006923D01*
X017017Y006067D01*
X016968Y006185D01*
X016829Y006324D01*
X016647Y006399D01*
X016450Y006399D01*
X016268Y006324D01*
X016129Y006185D01*
X016053Y006003D01*
X016053Y005806D01*
X016129Y005624D01*
X016268Y005485D01*
X016450Y005409D01*
X016647Y005409D01*
X016829Y005485D01*
X016968Y005624D01*
X017017Y005742D01*
X017017Y004097D01*
X017016Y004098D01*
X016980Y004169D01*
X016933Y004233D01*
X016877Y004289D01*
X016813Y004336D01*
X016742Y004372D01*
X016666Y004397D01*
X016588Y004409D01*
X016576Y004409D01*
X016576Y003933D01*
X016520Y003933D01*
X016520Y004409D01*
X016508Y004409D01*
X016430Y004397D01*
X016354Y004372D01*
X016284Y004336D01*
X016219Y004289D01*
X016163Y004233D01*
X016116Y004169D01*
X016080Y004098D01*
X016056Y004023D01*
X016043Y003944D01*
X016043Y003933D01*
X016520Y003933D01*
X016520Y003876D01*
X016576Y003876D01*
X016576Y003400D01*
X016588Y003400D01*
X016666Y003412D01*
X016742Y003437D01*
X016813Y003473D01*
X016877Y003519D01*
X016933Y003576D01*
X016980Y003640D01*
X017016Y003711D01*
X017017Y003712D01*
X017017Y003433D01*
X016966Y003383D01*
X011871Y003383D01*
X011779Y003345D01*
X011065Y002631D01*
X011034Y002643D01*
X010838Y002643D01*
X010656Y002568D01*
X010516Y002429D01*
X010441Y002247D01*
X010441Y002050D01*
X010516Y001868D01*
X010656Y001729D01*
X010493Y001924D02*
X009873Y001924D01*
X010031Y002082D02*
X010441Y002082D01*
X010441Y002241D02*
X010190Y002241D01*
X010348Y002399D02*
X010504Y002399D01*
X010507Y002558D02*
X010645Y002558D01*
X010665Y002716D02*
X011150Y002716D01*
X011308Y002875D02*
X010794Y002875D01*
X010794Y003033D02*
X011467Y003033D01*
X011625Y003192D02*
X010794Y003192D01*
X010794Y003350D02*
X011791Y003350D01*
X011796Y003400D02*
X011796Y003876D01*
X011852Y003876D01*
X011852Y003400D01*
X011864Y003400D01*
X011942Y003412D01*
X012018Y003437D01*
X012088Y003473D01*
X012153Y003519D01*
X012209Y003576D01*
X012256Y003640D01*
X012292Y003711D01*
X012316Y003786D01*
X012329Y003865D01*
X012329Y003876D01*
X011852Y003876D01*
X011852Y003933D01*
X011796Y003933D01*
X011796Y004409D01*
X011784Y004409D01*
X011706Y004397D01*
X011630Y004372D01*
X011559Y004336D01*
X011495Y004289D01*
X011439Y004233D01*
X011392Y004169D01*
X011356Y004098D01*
X011331Y004023D01*
X011319Y003944D01*
X011319Y003933D01*
X011796Y003933D01*
X011796Y003876D01*
X011319Y003876D01*
X011319Y003865D01*
X011331Y003786D01*
X011356Y003711D01*
X011392Y003640D01*
X011439Y003576D01*
X011495Y003519D01*
X011559Y003473D01*
X011630Y003437D01*
X011706Y003412D01*
X011784Y003400D01*
X011796Y003400D01*
X011796Y003509D02*
X011852Y003509D01*
X011852Y003667D02*
X011796Y003667D01*
X011796Y003826D02*
X011852Y003826D01*
X011852Y003933D02*
X012329Y003933D01*
X012329Y003944D01*
X012316Y004023D01*
X012292Y004098D01*
X012256Y004169D01*
X012209Y004233D01*
X012153Y004289D01*
X012088Y004336D01*
X012018Y004372D01*
X011942Y004397D01*
X011864Y004409D01*
X011852Y004409D01*
X011852Y003933D01*
X011852Y003984D02*
X011796Y003984D01*
X011796Y004143D02*
X011852Y004143D01*
X011852Y004301D02*
X011796Y004301D01*
X011511Y004301D02*
X010794Y004301D01*
X010794Y004143D02*
X011379Y004143D01*
X011325Y003984D02*
X010794Y003984D01*
X010794Y003826D02*
X011325Y003826D01*
X011378Y003667D02*
X010794Y003667D01*
X010794Y003509D02*
X011510Y003509D01*
X011920Y003133D02*
X010936Y002149D01*
X011253Y001765D02*
X011620Y001765D01*
X011493Y001924D02*
X011379Y001924D01*
X011431Y002082D02*
X011441Y002082D01*
X011431Y002241D02*
X011441Y002241D01*
X011857Y002716D02*
X013150Y002716D01*
X013308Y002875D02*
X012016Y002875D01*
X012227Y002558D02*
X012645Y002558D01*
X012504Y002399D02*
X012368Y002399D01*
X012431Y002241D02*
X012441Y002241D01*
X012431Y002082D02*
X012441Y002082D01*
X012493Y001924D02*
X012379Y001924D01*
X012253Y001765D02*
X012620Y001765D01*
X012936Y002149D02*
X013527Y002739D01*
X017267Y002739D01*
X017660Y003133D01*
X017660Y006676D01*
X018251Y007267D01*
X018251Y009826D01*
X015889Y012188D01*
X015889Y014235D01*
X015541Y014287D02*
X013996Y014287D01*
X014012Y014445D02*
X015541Y014445D01*
X015541Y014604D02*
X014014Y014604D01*
X014012Y014762D02*
X015541Y014762D01*
X015541Y014921D02*
X013974Y014921D01*
X013974Y015079D02*
X015541Y015079D01*
X015889Y014865D02*
X016542Y014865D01*
X016554Y014853D01*
X016401Y014445D02*
X016236Y014445D01*
X016236Y014287D02*
X016461Y014287D01*
X016647Y014287D02*
X017173Y014287D01*
X017173Y014445D02*
X016708Y014445D01*
X016921Y014604D02*
X017173Y014604D01*
X017173Y014762D02*
X016988Y014762D01*
X016990Y014921D02*
X017173Y014921D01*
X017173Y015079D02*
X016932Y015079D01*
X016765Y015238D02*
X017173Y015238D01*
X017173Y015396D02*
X013974Y015396D01*
X013974Y015238D02*
X016343Y015238D01*
X016118Y015555D02*
X013974Y015555D01*
X013974Y015713D02*
X016118Y015713D01*
X016118Y015872D02*
X013974Y015872D01*
X013974Y016030D02*
X016118Y016030D01*
X015802Y016347D02*
X015582Y016347D01*
X016990Y016189D02*
X018425Y016189D01*
X018425Y016030D02*
X017754Y016030D01*
X017758Y016026D02*
X017660Y016124D01*
X017533Y016177D01*
X017394Y016177D01*
X017267Y016124D01*
X017169Y016026D01*
X017116Y015899D01*
X017116Y015761D01*
X017169Y015633D01*
X017173Y015629D01*
X017173Y012192D01*
X017169Y012188D01*
X017116Y012060D01*
X017116Y011922D01*
X017169Y011794D01*
X017267Y011697D01*
X017394Y011644D01*
X017533Y011644D01*
X017660Y011697D01*
X017758Y011794D01*
X017811Y011922D01*
X017811Y012060D01*
X017758Y012188D01*
X017754Y012192D01*
X017754Y015629D01*
X017758Y015633D01*
X017811Y015761D01*
X017811Y015899D01*
X017758Y016026D01*
X017811Y015872D02*
X018425Y015872D01*
X018425Y015713D02*
X017791Y015713D01*
X017754Y015555D02*
X018398Y015555D01*
X018317Y015396D02*
X017754Y015396D01*
X017754Y015238D02*
X018331Y015238D01*
X018440Y015079D02*
X017754Y015079D01*
X017754Y014921D02*
X019118Y014921D01*
X019118Y014940D02*
X019118Y014767D01*
X019185Y014606D01*
X019307Y014484D01*
X019467Y014417D01*
X019641Y014417D01*
X019801Y014484D01*
X019924Y014606D01*
X019990Y014767D01*
X019990Y014940D01*
X019924Y015100D01*
X019801Y015223D01*
X019641Y015289D01*
X019467Y015289D01*
X019307Y015223D01*
X019185Y015100D01*
X019118Y014940D01*
X019176Y015079D02*
X018850Y015079D01*
X018958Y015238D02*
X019343Y015238D01*
X019236Y015555D02*
X018891Y015555D01*
X018865Y015713D02*
X019140Y015713D01*
X019118Y015872D02*
X018865Y015872D01*
X018865Y016030D02*
X019117Y016030D01*
X018976Y016189D02*
X018865Y016189D01*
X018865Y016347D02*
X018945Y016347D01*
X018945Y016506D02*
X018865Y016506D01*
X019525Y016506D02*
X021315Y016506D01*
X021171Y016347D02*
X019620Y016347D01*
X019835Y016189D02*
X021105Y016189D01*
X021101Y016030D02*
X019953Y016030D01*
X019990Y015872D02*
X021141Y015872D01*
X021244Y015713D02*
X019968Y015713D01*
X019872Y015555D02*
X021415Y015555D01*
X021206Y015396D02*
X018972Y015396D01*
X019120Y014762D02*
X017754Y014762D01*
X017754Y014604D02*
X019187Y014604D01*
X019401Y014445D02*
X017754Y014445D01*
X017754Y014287D02*
X019461Y014287D01*
X019467Y014289D02*
X019307Y014223D01*
X019185Y014100D01*
X019118Y013940D01*
X019118Y013767D01*
X019185Y013606D01*
X019307Y013484D01*
X019467Y013417D01*
X019641Y013417D01*
X019801Y013484D01*
X019924Y013606D01*
X019990Y013767D01*
X019990Y013940D01*
X019924Y014100D01*
X019801Y014223D01*
X019641Y014289D01*
X019467Y014289D01*
X019647Y014287D02*
X024431Y014287D01*
X024431Y014445D02*
X019708Y014445D01*
X019921Y014604D02*
X021390Y014604D01*
X021195Y014762D02*
X019988Y014762D01*
X019990Y014921D02*
X021121Y014921D01*
X021101Y015079D02*
X019932Y015079D01*
X019765Y015238D02*
X021125Y015238D01*
X019896Y014128D02*
X024431Y014128D01*
X024431Y013970D02*
X019978Y013970D01*
X019990Y013811D02*
X024431Y013811D01*
X024431Y013653D02*
X019943Y013653D01*
X019811Y013494D02*
X021304Y013494D01*
X021328Y013518D02*
X021180Y013371D01*
X021101Y013178D01*
X021101Y012969D01*
X021180Y012777D01*
X021328Y012629D01*
X021450Y012579D01*
X021420Y012569D01*
X021345Y012531D01*
X021277Y012481D01*
X021217Y012422D01*
X021168Y012354D01*
X021130Y012279D01*
X021104Y012199D01*
X021091Y012116D01*
X021091Y012112D01*
X021587Y012112D01*
X021587Y012036D01*
X021091Y012036D01*
X021091Y012032D01*
X021104Y011949D01*
X021130Y011869D01*
X021168Y011794D01*
X021217Y011726D01*
X021277Y011666D01*
X021345Y011617D01*
X021420Y011579D01*
X021500Y011553D01*
X021583Y011539D01*
X021587Y011539D01*
X021587Y012036D01*
X021663Y012036D01*
X021663Y012112D01*
X022159Y012112D01*
X022159Y012116D01*
X022146Y012199D01*
X022120Y012279D01*
X022082Y012354D01*
X022033Y012422D01*
X021973Y012481D01*
X021905Y012531D01*
X021830Y012569D01*
X021800Y012579D01*
X021922Y012629D01*
X022070Y012777D01*
X022149Y012969D01*
X022149Y013178D01*
X022070Y013371D01*
X021922Y013518D01*
X021729Y013598D01*
X021521Y013598D01*
X021328Y013518D01*
X021166Y013336D02*
X017754Y013336D01*
X017754Y013494D02*
X019297Y013494D01*
X019165Y013653D02*
X017754Y013653D01*
X017754Y013811D02*
X019118Y013811D01*
X019130Y013970D02*
X017754Y013970D01*
X017754Y014128D02*
X019212Y014128D01*
X019467Y013289D02*
X019307Y013223D01*
X019185Y013100D01*
X019118Y012940D01*
X019118Y012767D01*
X019185Y012606D01*
X019304Y012487D01*
X019304Y008890D01*
X019256Y008841D01*
X019203Y008714D01*
X019203Y008575D01*
X019256Y008448D01*
X019353Y008350D01*
X019481Y008297D01*
X019619Y008297D01*
X019747Y008350D01*
X019845Y008448D01*
X019898Y008575D01*
X019898Y008714D01*
X019845Y008841D01*
X019804Y008882D01*
X019804Y012487D01*
X019924Y012606D01*
X019990Y012767D01*
X019990Y012940D01*
X019924Y013100D01*
X019801Y013223D01*
X019641Y013289D01*
X019467Y013289D01*
X019261Y013177D02*
X017754Y013177D01*
X017754Y013019D02*
X019151Y013019D01*
X019118Y012860D02*
X017754Y012860D01*
X017754Y012702D02*
X019145Y012702D01*
X019248Y012543D02*
X017754Y012543D01*
X017754Y012385D02*
X019304Y012385D01*
X019304Y012226D02*
X017754Y012226D01*
X017808Y012068D02*
X019304Y012068D01*
X019304Y011909D02*
X017806Y011909D01*
X017714Y011751D02*
X019304Y011751D01*
X019304Y011592D02*
X016838Y011592D01*
X016680Y011751D02*
X017213Y011751D01*
X017122Y011909D02*
X016521Y011909D01*
X016363Y012068D02*
X017119Y012068D01*
X017173Y012226D02*
X016204Y012226D01*
X016139Y012385D02*
X017173Y012385D01*
X017173Y012543D02*
X016874Y012543D01*
X016894Y012563D02*
X016935Y012620D01*
X016967Y012682D01*
X016989Y012749D01*
X017000Y012818D01*
X017000Y012845D01*
X016563Y012845D01*
X016563Y012407D01*
X016589Y012407D01*
X016659Y012418D01*
X016725Y012440D01*
X016788Y012472D01*
X016845Y012513D01*
X016894Y012563D01*
X016974Y012702D02*
X017173Y012702D01*
X017173Y012860D02*
X016563Y012860D01*
X016546Y012702D02*
X016563Y012702D01*
X016546Y012543D02*
X016563Y012543D01*
X016234Y012543D02*
X016139Y012543D01*
X016139Y013019D02*
X016139Y013019D01*
X016139Y013177D02*
X016248Y013177D01*
X016139Y013336D02*
X017173Y013336D01*
X017173Y013494D02*
X016811Y013494D01*
X016943Y013653D02*
X017173Y013653D01*
X017173Y013811D02*
X016990Y013811D01*
X016978Y013970D02*
X017173Y013970D01*
X017173Y014128D02*
X016896Y014128D01*
X016297Y013494D02*
X016139Y013494D01*
X016139Y013653D02*
X016165Y013653D01*
X015639Y013653D02*
X013974Y013653D01*
X013974Y013811D02*
X015639Y013811D01*
X015541Y013970D02*
X013974Y013970D01*
X013974Y014128D02*
X015541Y014128D01*
X015639Y013494D02*
X013974Y013494D01*
X014032Y013336D02*
X015639Y013336D01*
X015639Y013177D02*
X014071Y013177D01*
X014276Y013019D02*
X014352Y013019D01*
X014352Y013136D02*
X014352Y012659D01*
X014730Y012659D01*
X014730Y012979D01*
X014718Y013025D01*
X014694Y013066D01*
X014661Y013100D01*
X014620Y013123D01*
X014574Y013136D01*
X014352Y013136D01*
X014352Y012860D02*
X014276Y012860D01*
X014276Y012702D02*
X014352Y012702D01*
X014314Y012621D02*
X014314Y012066D01*
X012062Y012066D01*
X012577Y012066D01*
X012062Y012066D01*
X012062Y012066D01*
X012062Y012066D01*
X011547Y012066D01*
X011547Y012217D01*
X011560Y012263D01*
X011583Y012304D01*
X011602Y012323D01*
X011557Y012367D01*
X011557Y012764D01*
X011609Y012816D01*
X011571Y012854D01*
X011270Y012854D01*
X011141Y012983D01*
X011141Y014065D01*
X010991Y014215D01*
X010991Y012667D01*
X011099Y012712D01*
X011230Y012712D01*
X011350Y012662D01*
X011442Y012570D01*
X011492Y012450D01*
X011492Y012320D01*
X011442Y012199D01*
X011385Y012142D01*
X011385Y011913D01*
X011414Y011925D01*
X011545Y011925D01*
X011547Y011924D01*
X011547Y012066D01*
X012062Y012066D01*
X012070Y012542D02*
X012062Y012566D01*
X012070Y012542D02*
X013172Y012542D01*
X013172Y012621D01*
X013133Y012621D01*
X012726Y012226D02*
X012574Y012226D01*
X012577Y012068D02*
X015668Y012068D01*
X015639Y012226D02*
X014720Y012226D01*
X014718Y012217D02*
X014730Y012263D01*
X014730Y012583D01*
X014352Y012583D01*
X014352Y012106D01*
X014574Y012106D01*
X014620Y012119D01*
X014661Y012142D01*
X014694Y012176D01*
X014718Y012217D01*
X014730Y012385D02*
X015639Y012385D01*
X015639Y012543D02*
X014730Y012543D01*
X014730Y012702D02*
X015639Y012702D01*
X015639Y012860D02*
X014730Y012860D01*
X014720Y013019D02*
X015639Y013019D01*
X016546Y013019D02*
X016563Y013019D01*
X016546Y013177D02*
X016563Y013177D01*
X016861Y013177D02*
X017173Y013177D01*
X017173Y013019D02*
X016969Y013019D01*
X018054Y011991D02*
X018645Y011400D01*
X018645Y007070D01*
X018054Y006479D01*
X018054Y002936D01*
X017464Y002345D01*
X015101Y002345D01*
X014936Y002180D01*
X014936Y002149D01*
X014908Y002120D02*
X014908Y001644D01*
X014588Y001644D01*
X014542Y001656D01*
X014501Y001680D01*
X014467Y001713D01*
X014443Y001754D01*
X014431Y001800D01*
X014431Y002120D01*
X014908Y002120D01*
X014908Y002082D02*
X014964Y002082D01*
X014964Y001924D02*
X014908Y001924D01*
X014908Y001765D02*
X014964Y001765D01*
X015431Y001765D02*
X021732Y001765D01*
X021732Y001924D02*
X015441Y001924D01*
X015441Y002082D02*
X021769Y002082D01*
X021811Y002241D02*
X015441Y002241D01*
X015441Y002399D02*
X021881Y002399D01*
X021973Y002558D02*
X017439Y002558D01*
X017597Y002716D02*
X022097Y002716D01*
X022255Y002875D02*
X017756Y002875D01*
X017890Y003033D02*
X022506Y003033D01*
X022970Y003192D02*
X017911Y003192D01*
X017911Y003350D02*
X024431Y003350D01*
X024431Y003192D02*
X023375Y003192D01*
X023839Y003033D02*
X024431Y003033D01*
X024431Y002875D02*
X024089Y002875D01*
X024248Y002716D02*
X024431Y002716D01*
X024431Y002558D02*
X024372Y002558D01*
X024431Y003509D02*
X021587Y003509D01*
X021601Y003519D02*
X021658Y003576D01*
X021704Y003640D01*
X021740Y003711D01*
X021765Y003786D01*
X021777Y003865D01*
X021777Y003876D01*
X021301Y003876D01*
X021301Y003400D01*
X021312Y003400D01*
X021391Y003412D01*
X021466Y003437D01*
X021537Y003473D01*
X021601Y003519D01*
X021718Y003667D02*
X024431Y003667D01*
X024431Y003826D02*
X021771Y003826D01*
X021777Y003933D02*
X021777Y003944D01*
X021765Y004023D01*
X021740Y004098D01*
X021704Y004169D01*
X021658Y004233D01*
X021601Y004289D01*
X021537Y004336D01*
X021466Y004372D01*
X021391Y004397D01*
X021312Y004409D01*
X021301Y004409D01*
X021301Y003933D01*
X021244Y003933D01*
X021244Y003876D01*
X020768Y003876D01*
X020768Y003865D01*
X020780Y003786D01*
X020805Y003711D01*
X020841Y003640D01*
X020888Y003576D01*
X020944Y003519D01*
X021008Y003473D01*
X021079Y003437D01*
X021154Y003412D01*
X021233Y003400D01*
X021244Y003400D01*
X021244Y003876D01*
X021301Y003876D01*
X021301Y003933D01*
X021777Y003933D01*
X021771Y003984D02*
X024431Y003984D01*
X024431Y004143D02*
X021718Y004143D01*
X021586Y004301D02*
X023578Y004301D01*
X023649Y004272D02*
X023846Y004272D01*
X024027Y004347D01*
X024167Y004486D01*
X024242Y004668D01*
X024242Y004865D01*
X024167Y005047D01*
X024027Y005186D01*
X023846Y005262D01*
X023649Y005262D01*
X023467Y005186D01*
X023327Y005047D01*
X023252Y004865D01*
X023252Y004668D01*
X023327Y004486D01*
X023467Y004347D01*
X023649Y004272D01*
X023916Y004301D02*
X024431Y004301D01*
X024431Y004460D02*
X024140Y004460D01*
X024221Y004618D02*
X024431Y004618D01*
X024431Y004777D02*
X024242Y004777D01*
X024213Y004935D02*
X024431Y004935D01*
X024431Y005094D02*
X024120Y005094D01*
X024027Y005347D02*
X024167Y005486D01*
X024242Y005668D01*
X024242Y005865D01*
X024167Y006047D01*
X024027Y006186D01*
X023846Y006262D01*
X023649Y006262D01*
X023467Y006186D01*
X023327Y006047D01*
X023252Y005865D01*
X023252Y005668D01*
X023327Y005486D01*
X023467Y005347D01*
X023649Y005272D01*
X023846Y005272D01*
X024027Y005347D01*
X024091Y005411D02*
X024431Y005411D01*
X024431Y005569D02*
X024201Y005569D01*
X024242Y005728D02*
X024431Y005728D01*
X024431Y005886D02*
X024233Y005886D01*
X024168Y006045D02*
X024431Y006045D01*
X024431Y006203D02*
X023987Y006203D01*
X024027Y006347D02*
X023846Y006272D01*
X023649Y006272D01*
X023467Y006347D01*
X023327Y006486D01*
X023252Y006668D01*
X023252Y006865D01*
X023327Y007047D01*
X023467Y007186D01*
X023649Y007262D01*
X023846Y007262D01*
X024027Y007186D01*
X024167Y007047D01*
X024242Y006865D01*
X024242Y006668D01*
X024167Y006486D01*
X024027Y006347D01*
X024042Y006362D02*
X024431Y006362D01*
X024431Y006520D02*
X024181Y006520D01*
X024242Y006679D02*
X024431Y006679D01*
X024431Y006837D02*
X024242Y006837D01*
X024188Y006996D02*
X024431Y006996D01*
X024431Y007154D02*
X024060Y007154D01*
X023968Y007313D02*
X024431Y007313D01*
X024431Y007471D02*
X024156Y007471D01*
X024179Y007502D02*
X024215Y007573D01*
X024239Y007648D01*
X024252Y007727D01*
X024252Y007738D01*
X023775Y007738D01*
X023775Y007262D01*
X023787Y007262D01*
X023865Y007274D01*
X023941Y007299D01*
X024012Y007335D01*
X024076Y007382D01*
X024132Y007438D01*
X024179Y007502D01*
X024233Y007630D02*
X024431Y007630D01*
X024431Y007788D02*
X023775Y007788D01*
X023775Y007795D02*
X024252Y007795D01*
X024252Y007806D01*
X024239Y007885D01*
X024215Y007960D01*
X024179Y008031D01*
X024132Y008095D01*
X024076Y008152D01*
X024012Y008198D01*
X023941Y008234D01*
X023865Y008259D01*
X023787Y008271D01*
X023775Y008271D01*
X023775Y007795D01*
X023719Y007795D01*
X023719Y008271D01*
X023707Y008271D01*
X023629Y008259D01*
X023553Y008234D01*
X023482Y008198D01*
X023418Y008152D01*
X023362Y008095D01*
X023315Y008031D01*
X023279Y007960D01*
X023255Y007885D01*
X023242Y007806D01*
X023242Y007795D01*
X023719Y007795D01*
X023719Y007738D01*
X023775Y007738D01*
X023775Y007795D01*
X023719Y007788D02*
X022279Y007788D01*
X022279Y007908D02*
X022180Y008008D01*
X021645Y008008D01*
X021597Y007960D01*
X021550Y008008D01*
X021060Y008008D01*
X021060Y008526D01*
X021104Y008570D01*
X021157Y008698D01*
X021157Y008836D01*
X021104Y008963D01*
X021007Y009061D01*
X020879Y009114D01*
X020741Y009114D01*
X020613Y009061D01*
X020516Y008963D01*
X020463Y008836D01*
X020463Y008698D01*
X020516Y008570D01*
X020560Y008526D01*
X020560Y006720D01*
X020516Y006676D01*
X020463Y006548D01*
X020463Y006410D01*
X020516Y006282D01*
X020613Y006185D01*
X020741Y006132D01*
X020831Y006132D01*
X020778Y006003D01*
X020778Y005806D01*
X020853Y005624D01*
X020992Y005485D01*
X021174Y005409D01*
X021371Y005409D01*
X021553Y005485D01*
X021692Y005624D01*
X021768Y005806D01*
X021768Y006003D01*
X021692Y006185D01*
X021553Y006324D01*
X021371Y006399D01*
X021174Y006399D01*
X021148Y006389D01*
X021157Y006410D01*
X021157Y006548D01*
X021104Y006676D01*
X021060Y006720D01*
X021060Y007313D01*
X021550Y007313D01*
X021597Y007361D01*
X021645Y007313D01*
X021771Y007313D01*
X021771Y007313D01*
X021713Y007255D01*
X021664Y007135D01*
X021664Y007005D01*
X021713Y006884D01*
X021806Y006792D01*
X021926Y006742D01*
X022056Y006742D01*
X022177Y006792D01*
X022269Y006884D01*
X022319Y007005D01*
X022319Y007135D01*
X022269Y007255D01*
X022211Y007313D01*
X022211Y007345D01*
X022279Y007413D01*
X022279Y007908D01*
X022241Y007947D02*
X023275Y007947D01*
X023372Y008105D02*
X021060Y008105D01*
X021060Y008264D02*
X023657Y008264D01*
X023649Y008272D02*
X023846Y008272D01*
X024027Y008347D01*
X024167Y008486D01*
X024242Y008668D01*
X024242Y008865D01*
X024167Y009047D01*
X024027Y009186D01*
X023846Y009262D01*
X023649Y009262D01*
X023467Y009186D01*
X023327Y009047D01*
X023252Y008865D01*
X023252Y008668D01*
X023327Y008486D01*
X023467Y008347D01*
X023649Y008272D01*
X023719Y008264D02*
X023775Y008264D01*
X023837Y008264D02*
X024431Y008264D01*
X024431Y008422D02*
X024102Y008422D01*
X024206Y008581D02*
X024431Y008581D01*
X024431Y008739D02*
X024242Y008739D01*
X024229Y008898D02*
X024431Y008898D01*
X024431Y009056D02*
X024158Y009056D01*
X024142Y009272D02*
X024242Y009371D01*
X024242Y010162D01*
X024142Y010262D01*
X023352Y010262D01*
X023252Y010162D01*
X023252Y009371D01*
X023352Y009272D01*
X024142Y009272D01*
X024242Y009373D02*
X024431Y009373D01*
X024431Y009215D02*
X023959Y009215D01*
X024242Y009532D02*
X024431Y009532D01*
X024431Y009690D02*
X024242Y009690D01*
X024242Y009849D02*
X024431Y009849D01*
X024431Y010007D02*
X024242Y010007D01*
X024238Y010166D02*
X024431Y010166D01*
X024431Y010324D02*
X019804Y010324D01*
X019804Y010166D02*
X023256Y010166D01*
X023252Y010007D02*
X019804Y010007D01*
X019804Y009849D02*
X023252Y009849D01*
X023252Y009690D02*
X019804Y009690D01*
X019804Y009532D02*
X023252Y009532D01*
X023252Y009373D02*
X019804Y009373D01*
X019804Y009215D02*
X023535Y009215D01*
X023336Y009056D02*
X021012Y009056D01*
X021132Y008898D02*
X023266Y008898D01*
X023252Y008739D02*
X021157Y008739D01*
X021109Y008581D02*
X023288Y008581D01*
X023392Y008422D02*
X021060Y008422D01*
X020810Y008767D02*
X020810Y007660D01*
X020810Y006479D01*
X020483Y006362D02*
X018962Y006362D01*
X018871Y006399D02*
X018674Y006399D01*
X018492Y006324D01*
X018353Y006185D01*
X018278Y006003D01*
X018278Y005806D01*
X018353Y005624D01*
X018492Y005485D01*
X018674Y005409D01*
X018871Y005409D01*
X019053Y005485D01*
X019192Y005624D01*
X019268Y005806D01*
X019268Y006003D01*
X019192Y006185D01*
X019053Y006324D01*
X018871Y006399D01*
X018583Y006362D02*
X017911Y006362D01*
X017911Y006520D02*
X020463Y006520D01*
X020518Y006679D02*
X018017Y006679D01*
X018175Y006837D02*
X020560Y006837D01*
X020560Y006996D02*
X018334Y006996D01*
X018475Y007154D02*
X020560Y007154D01*
X020560Y007313D02*
X018501Y007313D01*
X018501Y007471D02*
X020560Y007471D01*
X020560Y007630D02*
X018501Y007630D01*
X018501Y007788D02*
X020560Y007788D01*
X020560Y007947D02*
X018501Y007947D01*
X018501Y008105D02*
X020560Y008105D01*
X020560Y008264D02*
X018501Y008264D01*
X018501Y008422D02*
X019282Y008422D01*
X019203Y008581D02*
X018501Y008581D01*
X018501Y008739D02*
X019213Y008739D01*
X019304Y008898D02*
X018501Y008898D01*
X018501Y009056D02*
X019304Y009056D01*
X019304Y009215D02*
X018501Y009215D01*
X018501Y009373D02*
X019304Y009373D01*
X019304Y009532D02*
X018501Y009532D01*
X018501Y009690D02*
X019304Y009690D01*
X019304Y009849D02*
X018501Y009849D01*
X018423Y010007D02*
X019304Y010007D01*
X019304Y010166D02*
X018265Y010166D01*
X018106Y010324D02*
X019304Y010324D01*
X019304Y010483D02*
X017948Y010483D01*
X017789Y010641D02*
X019304Y010641D01*
X019304Y010800D02*
X017631Y010800D01*
X017472Y010958D02*
X019304Y010958D01*
X019304Y011117D02*
X017314Y011117D01*
X017155Y011275D02*
X019304Y011275D01*
X019304Y011434D02*
X016997Y011434D01*
X016606Y011117D02*
X012907Y011117D01*
X013054Y010958D02*
X016765Y010958D01*
X016498Y010800D02*
X013086Y010800D01*
X013045Y010641D02*
X016447Y010641D01*
X016474Y010483D02*
X012856Y010483D01*
X012565Y010324D02*
X016616Y010324D01*
X016868Y010166D02*
X012567Y010166D01*
X012567Y010007D02*
X017027Y010007D01*
X017185Y009849D02*
X012548Y009849D01*
X012495Y010566D02*
X012062Y010566D01*
X012495Y010566D02*
X012739Y010810D01*
X012572Y011117D02*
X012567Y011117D01*
X012556Y011275D02*
X016448Y011275D01*
X016289Y011434D02*
X012567Y011434D01*
X012567Y011592D02*
X016131Y011592D01*
X015972Y011751D02*
X012567Y011751D01*
X012575Y011909D02*
X015814Y011909D01*
X016775Y010613D02*
X017857Y009530D01*
X017857Y007463D01*
X017267Y006873D01*
X017267Y003330D01*
X017070Y003133D01*
X011920Y003133D01*
X012138Y003509D02*
X013744Y003509D01*
X013768Y003485D02*
X013950Y003409D01*
X014147Y003409D01*
X014329Y003485D01*
X014468Y003624D01*
X014543Y003806D01*
X014543Y004003D01*
X014468Y004185D01*
X014329Y004324D01*
X014147Y004399D01*
X013950Y004399D01*
X013768Y004324D01*
X013629Y004185D01*
X013553Y004003D01*
X013553Y003806D01*
X013629Y003624D01*
X013768Y003485D01*
X013611Y003667D02*
X012269Y003667D01*
X012322Y003826D02*
X013553Y003826D01*
X013553Y003984D02*
X012322Y003984D01*
X012269Y004143D02*
X013611Y004143D01*
X013745Y004301D02*
X012137Y004301D01*
X011922Y005409D02*
X011725Y005409D01*
X011543Y005485D01*
X011404Y005624D01*
X011329Y005806D01*
X011329Y006003D01*
X011404Y006185D01*
X011543Y006324D01*
X011725Y006399D01*
X011922Y006399D01*
X012104Y006324D01*
X012243Y006185D01*
X012319Y006003D01*
X012319Y005806D01*
X012243Y005624D01*
X012104Y005485D01*
X011922Y005409D01*
X011925Y005411D02*
X013947Y005411D01*
X013950Y005409D02*
X014147Y005409D01*
X014329Y005485D01*
X014468Y005624D01*
X014543Y005806D01*
X014543Y006003D01*
X014468Y006185D01*
X014329Y006324D01*
X014147Y006399D01*
X013950Y006399D01*
X013768Y006324D01*
X013629Y006185D01*
X013553Y006003D01*
X013553Y005806D01*
X013629Y005624D01*
X013768Y005485D01*
X013950Y005409D01*
X014149Y005411D02*
X016447Y005411D01*
X016649Y005411D02*
X017017Y005411D01*
X017017Y005569D02*
X016913Y005569D01*
X017011Y005728D02*
X017017Y005728D01*
X017017Y006203D02*
X016950Y006203D01*
X017017Y006362D02*
X016738Y006362D01*
X017017Y006520D02*
X010794Y006520D01*
X010794Y006362D02*
X011634Y006362D01*
X011422Y006203D02*
X010794Y006203D01*
X010794Y006045D02*
X011346Y006045D01*
X011329Y005886D02*
X010794Y005886D01*
X010794Y005728D02*
X011361Y005728D01*
X011459Y005569D02*
X010794Y005569D01*
X010794Y005411D02*
X011723Y005411D01*
X012188Y005569D02*
X013684Y005569D01*
X013586Y005728D02*
X012286Y005728D01*
X012319Y005886D02*
X013553Y005886D01*
X013571Y006045D02*
X012302Y006045D01*
X012225Y006203D02*
X013647Y006203D01*
X013858Y006362D02*
X012014Y006362D01*
X012509Y006837D02*
X010901Y006837D01*
X010878Y006996D02*
X012415Y006996D01*
X012419Y007154D02*
X010751Y007154D01*
X010396Y007154D02*
X009434Y007154D01*
X009455Y007313D02*
X012519Y007313D01*
X012519Y007471D02*
X009455Y007471D01*
X009455Y007630D02*
X011129Y007630D01*
X011119Y007631D02*
X011188Y007620D01*
X011215Y007620D01*
X011215Y008057D01*
X011232Y008057D01*
X011232Y007620D01*
X011259Y007620D01*
X011328Y007631D01*
X011395Y007653D01*
X011457Y007685D01*
X011514Y007726D01*
X011563Y007775D01*
X011605Y007832D01*
X011637Y007895D01*
X011658Y007961D01*
X011669Y008031D01*
X011669Y008057D01*
X011232Y008057D01*
X011232Y008074D01*
X011669Y008074D01*
X011669Y008101D01*
X011658Y008170D01*
X011637Y008237D01*
X011605Y008299D01*
X011563Y008356D01*
X011514Y008406D01*
X011457Y008447D01*
X011395Y008479D01*
X011328Y008501D01*
X011259Y008512D01*
X011232Y008512D01*
X011232Y008074D01*
X011215Y008074D01*
X011215Y008057D01*
X010778Y008057D01*
X010778Y008031D01*
X010789Y007961D01*
X010810Y007895D01*
X010842Y007832D01*
X010883Y007775D01*
X010933Y007726D01*
X010990Y007685D01*
X011052Y007653D01*
X011119Y007631D01*
X011215Y007630D02*
X011232Y007630D01*
X011318Y007630D02*
X012519Y007630D01*
X012959Y007630D02*
X013438Y007630D01*
X013396Y007471D02*
X012959Y007471D01*
X012960Y007313D02*
X013431Y007313D01*
X013614Y007154D02*
X013059Y007154D01*
X013063Y006996D02*
X017047Y006996D01*
X017017Y006837D02*
X012970Y006837D01*
X013832Y007154D02*
X017194Y007154D01*
X017353Y007313D02*
X014016Y007313D01*
X014051Y007471D02*
X017511Y007471D01*
X017607Y007630D02*
X014009Y007630D01*
X014562Y007788D02*
X014885Y007788D01*
X014854Y007819D02*
X014977Y007696D01*
X015137Y007630D01*
X015310Y007630D01*
X015470Y007696D01*
X015593Y007819D01*
X015659Y007979D01*
X015659Y008153D01*
X015593Y008313D01*
X015470Y008435D01*
X015310Y008502D01*
X015137Y008502D01*
X014977Y008435D01*
X014854Y008313D01*
X014788Y008153D01*
X014788Y007979D01*
X014854Y007819D01*
X014801Y007947D02*
X014646Y007947D01*
X014659Y008105D02*
X014788Y008105D01*
X014833Y008264D02*
X014613Y008264D01*
X014484Y008422D02*
X014963Y008422D01*
X015484Y008422D02*
X015963Y008422D01*
X015977Y008435D02*
X015854Y008313D01*
X015788Y008153D01*
X015788Y007979D01*
X015854Y007819D01*
X015977Y007696D01*
X016137Y007630D01*
X016310Y007630D01*
X016470Y007696D01*
X016593Y007819D01*
X016659Y007979D01*
X016659Y008153D01*
X016593Y008313D01*
X016470Y008435D01*
X016310Y008502D01*
X016137Y008502D01*
X015977Y008435D01*
X015833Y008264D02*
X015613Y008264D01*
X015659Y008105D02*
X015788Y008105D01*
X015801Y007947D02*
X015646Y007947D01*
X015562Y007788D02*
X015885Y007788D01*
X016562Y007788D02*
X016885Y007788D01*
X016801Y007947D02*
X016646Y007947D01*
X016659Y008105D02*
X016788Y008105D01*
X016833Y008264D02*
X016613Y008264D01*
X016484Y008422D02*
X016963Y008422D01*
X017484Y008422D02*
X017607Y008422D01*
X017607Y008581D02*
X013902Y008581D01*
X013944Y008422D02*
X013963Y008422D01*
X013743Y008739D02*
X017607Y008739D01*
X017607Y008898D02*
X013585Y008898D01*
X013426Y009056D02*
X017607Y009056D01*
X017607Y009215D02*
X013268Y009215D01*
X012492Y008581D02*
X010400Y008581D01*
X010400Y008739D02*
X011349Y008739D01*
X011191Y008898D02*
X010400Y008898D01*
X010400Y009056D02*
X011032Y009056D01*
X010874Y009215D02*
X010400Y009215D01*
X010400Y009373D02*
X010715Y009373D01*
X010557Y009532D02*
X010400Y009532D01*
X009960Y009532D02*
X009534Y009532D01*
X009534Y009690D02*
X009960Y009690D01*
X009960Y009849D02*
X009534Y009849D01*
X009534Y010007D02*
X009960Y010007D01*
X009960Y010166D02*
X009534Y010166D01*
X009534Y010324D02*
X009960Y010324D01*
X009960Y010483D02*
X009534Y010483D01*
X009534Y010641D02*
X009960Y010641D01*
X009960Y010800D02*
X009550Y010800D01*
X009640Y010958D02*
X009960Y010958D01*
X009960Y011117D02*
X009631Y011117D01*
X009529Y011275D02*
X009960Y011275D01*
X009893Y011434D02*
X008803Y011434D01*
X008803Y011592D02*
X009852Y011592D01*
X009889Y011751D02*
X008803Y011751D01*
X008803Y011909D02*
X010076Y011909D01*
X010284Y011909D02*
X010354Y011909D01*
X010354Y012068D02*
X008803Y012068D01*
X008803Y012226D02*
X010354Y012226D01*
X010354Y012385D02*
X008803Y012385D01*
X008803Y012543D02*
X010354Y012543D01*
X010354Y012702D02*
X008803Y012702D01*
X008796Y012860D02*
X010354Y012860D01*
X010354Y013019D02*
X008813Y013019D01*
X008813Y013177D02*
X010354Y013177D01*
X010354Y013336D02*
X008771Y013336D01*
X008803Y013494D02*
X010354Y013494D01*
X010262Y013653D02*
X008803Y013653D01*
X008756Y013811D02*
X010084Y013811D01*
X010049Y013970D02*
X009472Y013970D01*
X009524Y014128D02*
X010092Y014128D01*
X010177Y014287D02*
X009497Y014287D01*
X009355Y014445D02*
X010066Y014445D01*
X010049Y014604D02*
X009491Y014604D01*
X009524Y014762D02*
X010126Y014762D01*
X010286Y014921D02*
X009479Y014921D01*
X009175Y015079D02*
X010157Y015079D01*
X010157Y015238D02*
X009335Y015238D01*
X009493Y015396D02*
X010157Y015396D01*
X010157Y015555D02*
X009524Y015555D01*
X009476Y015713D02*
X010157Y015713D01*
X010157Y015872D02*
X008803Y015872D01*
X008803Y016030D02*
X010157Y016030D01*
X010157Y016189D02*
X008803Y016189D01*
X009479Y016347D02*
X010157Y016347D01*
X010157Y016506D02*
X009524Y016506D01*
X009490Y016664D02*
X010157Y016664D01*
X010157Y016823D02*
X009318Y016823D01*
X009073Y016823D02*
X008745Y016823D01*
X008737Y017175D02*
X008867Y017175D01*
X008988Y017225D01*
X009080Y017317D01*
X009130Y017438D01*
X009130Y017568D01*
X009080Y017688D01*
X009022Y017746D01*
X009022Y018593D01*
X009050Y018593D01*
X009149Y018692D01*
X009149Y019227D01*
X009102Y019274D01*
X009149Y019322D01*
X009149Y019857D01*
X009050Y019956D01*
X009032Y019956D01*
X009032Y020590D01*
X008897Y020725D01*
X008261Y020725D01*
X008164Y020823D01*
X007826Y020823D01*
X007726Y020723D01*
X007726Y020267D01*
X007826Y020167D01*
X008164Y020167D01*
X008261Y020265D01*
X008572Y020265D01*
X008572Y019956D01*
X008555Y019956D01*
X008455Y019857D01*
X008455Y019322D01*
X008502Y019274D01*
X008455Y019227D01*
X008455Y018692D01*
X008555Y018593D01*
X008582Y018593D01*
X008582Y017746D01*
X008524Y017688D01*
X008475Y017568D01*
X008475Y017438D01*
X008524Y017317D01*
X008617Y017225D01*
X008737Y017175D01*
X008544Y017298D02*
X007919Y017298D01*
X007919Y017140D02*
X010091Y017140D01*
X010049Y017298D02*
X009061Y017298D01*
X009130Y017457D02*
X010085Y017457D01*
X010267Y017615D02*
X009110Y017615D01*
X009022Y017774D02*
X010551Y017774D01*
X010551Y017932D02*
X009022Y017932D01*
X009022Y018091D02*
X010551Y018091D01*
X010551Y018249D02*
X009022Y018249D01*
X009022Y018408D02*
X010551Y018408D01*
X010551Y018566D02*
X009022Y018566D01*
X009149Y018725D02*
X010551Y018725D01*
X010551Y018883D02*
X009149Y018883D01*
X009149Y019042D02*
X010551Y019042D01*
X010551Y019200D02*
X009149Y019200D01*
X009149Y019359D02*
X010551Y019359D01*
X010551Y019517D02*
X009149Y019517D01*
X009149Y019676D02*
X010551Y019676D01*
X010551Y019834D02*
X009149Y019834D01*
X009032Y019993D02*
X010551Y019993D01*
X010551Y020151D02*
X009032Y020151D01*
X009032Y020310D02*
X010551Y020310D01*
X010551Y020468D02*
X009032Y020468D01*
X008996Y020627D02*
X010551Y020627D01*
X010551Y020785D02*
X008202Y020785D01*
X007789Y020785D02*
X007467Y020785D01*
X007456Y020796D02*
X007415Y020820D01*
X007369Y020832D01*
X007247Y020832D01*
X007125Y020832D01*
X007079Y020820D01*
X007038Y020796D01*
X007005Y020763D01*
X006981Y020722D01*
X006969Y020676D01*
X006969Y020495D01*
X006990Y020495D01*
X006990Y020495D01*
X006969Y020495D01*
X006969Y020314D01*
X006981Y020268D01*
X006990Y020252D01*
X006990Y020226D01*
X007037Y020179D01*
X007064Y020179D01*
X007079Y020170D01*
X007125Y020157D01*
X007247Y020157D01*
X007247Y020179D01*
X007247Y020179D01*
X007247Y020157D01*
X007369Y020157D01*
X007415Y020170D01*
X007431Y020179D01*
X007457Y020179D01*
X007504Y020226D01*
X007504Y020252D01*
X007513Y020268D01*
X007525Y020314D01*
X007525Y020495D01*
X007504Y020495D01*
X007525Y020495D01*
X007525Y020676D01*
X007513Y020722D01*
X007490Y020763D01*
X007456Y020796D01*
X007525Y020627D02*
X007726Y020627D01*
X007726Y020468D02*
X007525Y020468D01*
X007504Y020495D02*
X007504Y020495D01*
X007524Y020310D02*
X007726Y020310D01*
X007890Y019834D02*
X008455Y019834D01*
X008455Y019676D02*
X007890Y019676D01*
X007890Y019517D02*
X008455Y019517D01*
X008455Y019359D02*
X007856Y019359D01*
X007870Y019200D02*
X008455Y019200D01*
X008455Y019042D02*
X007870Y019042D01*
X007864Y018883D02*
X008455Y018883D01*
X008455Y018725D02*
X005746Y018725D01*
X005746Y018566D02*
X007046Y018566D01*
X006959Y018408D02*
X005746Y018408D01*
X005746Y018249D02*
X006937Y018249D01*
X006959Y018091D02*
X005746Y018091D01*
X005746Y017932D02*
X006545Y017932D01*
X006545Y017774D02*
X005746Y017774D01*
X005746Y017615D02*
X006545Y017615D01*
X006545Y017457D02*
X005746Y017457D01*
X005746Y017298D02*
X006545Y017298D01*
X006342Y017140D02*
X005746Y017140D01*
X005746Y016981D02*
X006210Y016981D01*
X006210Y016823D02*
X005746Y016823D01*
X005746Y016664D02*
X006210Y016664D01*
X006210Y016506D02*
X005746Y016506D01*
X005746Y016347D02*
X006210Y016347D01*
X006136Y016189D02*
X005746Y016189D01*
X005746Y016030D02*
X006112Y016030D01*
X006171Y015872D02*
X005746Y015872D01*
X005746Y015713D02*
X006462Y015713D01*
X006303Y015555D02*
X005746Y015555D01*
X005746Y015396D02*
X006145Y015396D01*
X005986Y015238D02*
X005746Y015238D01*
X005746Y015079D02*
X005832Y015079D01*
X005796Y014921D02*
X005746Y014921D01*
X005746Y014762D02*
X005796Y014762D01*
X005796Y014604D02*
X005746Y014604D01*
X005746Y014445D02*
X005796Y014445D01*
X005796Y014287D02*
X005746Y014287D01*
X005746Y014128D02*
X005796Y014128D01*
X005796Y013970D02*
X005746Y013970D01*
X005746Y013811D02*
X005796Y013811D01*
X005796Y013653D02*
X005746Y013653D01*
X005746Y013494D02*
X005796Y013494D01*
X005759Y013336D02*
X005746Y013336D01*
X006046Y013172D02*
X006046Y010967D01*
X006440Y010574D01*
X006676Y010574D01*
X006637Y010534D01*
X006637Y010023D01*
X006637Y009432D01*
X005948Y009432D01*
X005830Y009314D01*
X006118Y009056D02*
X006201Y009056D01*
X006148Y008581D02*
X006118Y008581D01*
X006118Y008422D02*
X006122Y008422D01*
X006599Y008105D02*
X006675Y008105D01*
X006675Y007947D02*
X006599Y007947D01*
X007151Y008422D02*
X007963Y008422D01*
X007581Y008739D02*
X005623Y008739D01*
X005456Y008739D02*
X005456Y008739D01*
X005456Y008581D02*
X005456Y008581D01*
X005288Y008739D02*
X005065Y008739D01*
X005168Y008898D02*
X004819Y008898D01*
X004924Y009156D02*
X004471Y009156D01*
X004124Y009215D02*
X003581Y009215D01*
X003511Y009056D02*
X004124Y009056D01*
X004124Y008898D02*
X003511Y008898D01*
X003511Y008739D02*
X004124Y008739D01*
X004124Y008581D02*
X003511Y008581D01*
X003740Y009373D02*
X004124Y009373D01*
X003898Y009532D02*
X004793Y009532D01*
X005104Y009690D02*
X003904Y009690D01*
X003904Y009849D02*
X005166Y009849D01*
X005166Y010007D02*
X003904Y010007D01*
X003904Y010166D02*
X005166Y010166D01*
X005166Y010324D02*
X003904Y010324D01*
X003904Y010483D02*
X005166Y010483D01*
X005166Y010641D02*
X003904Y010641D01*
X003904Y010800D02*
X005166Y010800D01*
X005166Y010958D02*
X003904Y010958D01*
X003904Y011117D02*
X005166Y011117D01*
X005166Y011275D02*
X003904Y011275D01*
X003904Y011434D02*
X005166Y011434D01*
X005166Y011592D02*
X004333Y011592D01*
X004544Y011751D02*
X005166Y011751D01*
X005166Y011909D02*
X004624Y011909D01*
X004649Y012068D02*
X005166Y012068D01*
X005166Y012226D02*
X004630Y012226D01*
X004556Y012385D02*
X005166Y012385D01*
X005166Y012543D02*
X004363Y012543D01*
X004495Y012702D02*
X005166Y012702D01*
X005166Y012860D02*
X004604Y012860D01*
X004649Y013019D02*
X005166Y013019D01*
X005166Y013177D02*
X004649Y013177D01*
X004584Y013336D02*
X005166Y013336D01*
X005166Y013494D02*
X004446Y013494D01*
X004446Y013653D02*
X005166Y013653D01*
X005166Y013811D02*
X004584Y013811D01*
X004649Y013970D02*
X005166Y013970D01*
X005166Y014128D02*
X004649Y014128D01*
X004605Y014287D02*
X005166Y014287D01*
X005166Y014445D02*
X004495Y014445D01*
X004360Y014604D02*
X005166Y014604D01*
X005166Y014762D02*
X004555Y014762D01*
X004629Y014921D02*
X005166Y014921D01*
X005166Y015079D02*
X004649Y015079D01*
X004625Y015238D02*
X005166Y015238D01*
X005166Y015396D02*
X004544Y015396D01*
X004335Y015555D02*
X005166Y015555D01*
X005166Y015713D02*
X004520Y015713D01*
X004621Y015872D02*
X005166Y015872D01*
X005166Y016030D02*
X004659Y016030D01*
X004648Y016189D02*
X005166Y016189D01*
X005166Y016347D02*
X004585Y016347D01*
X004440Y016506D02*
X005166Y016506D01*
X005166Y016664D02*
X004457Y016664D01*
X004589Y016823D02*
X005166Y016823D01*
X005166Y016981D02*
X004649Y016981D01*
X004649Y017140D02*
X005166Y017140D01*
X005166Y017298D02*
X004600Y017298D01*
X004484Y017457D02*
X005166Y017457D01*
X005166Y017615D02*
X001441Y017615D01*
X001441Y017457D02*
X001750Y017457D01*
X001812Y017518D02*
X001665Y017371D01*
X001585Y017178D01*
X001585Y016969D01*
X001665Y016777D01*
X001812Y016629D01*
X001954Y016570D01*
X001828Y016518D01*
X001680Y016371D01*
X001601Y016178D01*
X001601Y015969D01*
X001680Y015777D01*
X001828Y015629D01*
X001962Y015574D01*
X001828Y015518D01*
X001680Y015371D01*
X001601Y015178D01*
X001601Y014969D01*
X001680Y014777D01*
X001828Y014629D01*
X001962Y014574D01*
X001828Y014518D01*
X001680Y014371D01*
X001601Y014178D01*
X001601Y013969D01*
X001680Y013777D01*
X001828Y013629D01*
X001962Y013574D01*
X001828Y013518D01*
X001680Y013371D01*
X001601Y013178D01*
X001601Y012969D01*
X001680Y012777D01*
X001828Y012629D01*
X001962Y012574D01*
X001828Y012518D01*
X001680Y012371D01*
X001601Y012178D01*
X001601Y011969D01*
X001680Y011777D01*
X001828Y011629D01*
X002021Y011549D01*
X002229Y011549D01*
X002422Y011629D01*
X002570Y011777D01*
X002649Y011969D01*
X002649Y012178D01*
X002570Y012371D01*
X002422Y012518D01*
X002288Y012574D01*
X002422Y012629D01*
X002570Y012777D01*
X002649Y012969D01*
X002649Y013178D01*
X002570Y013371D01*
X002422Y013518D01*
X002288Y013574D01*
X002422Y013629D01*
X002570Y013777D01*
X002649Y013969D01*
X002649Y014178D01*
X002570Y014371D01*
X002422Y014518D01*
X002288Y014574D01*
X002422Y014629D01*
X002570Y014777D01*
X002649Y014969D01*
X002649Y015178D01*
X002570Y015371D01*
X002422Y015518D01*
X002288Y015574D01*
X002422Y015629D01*
X002570Y015777D01*
X002649Y015969D01*
X002649Y016178D01*
X002570Y016371D01*
X002422Y016518D01*
X002281Y016577D01*
X002406Y016629D01*
X002554Y016777D01*
X002634Y016969D01*
X002634Y017178D01*
X002554Y017371D01*
X002406Y017518D01*
X002214Y017598D01*
X002005Y017598D01*
X001812Y017518D01*
X001634Y017298D02*
X001441Y017298D01*
X001441Y017140D02*
X001585Y017140D01*
X001585Y016981D02*
X001441Y016981D01*
X001441Y016823D02*
X001646Y016823D01*
X001777Y016664D02*
X001441Y016664D01*
X001441Y016506D02*
X001815Y016506D01*
X001671Y016347D02*
X001441Y016347D01*
X001441Y016189D02*
X001605Y016189D01*
X001601Y016030D02*
X001441Y016030D01*
X001441Y015872D02*
X001641Y015872D01*
X001744Y015713D02*
X001441Y015713D01*
X001441Y015555D02*
X001915Y015555D01*
X001706Y015396D02*
X001441Y015396D01*
X001441Y015238D02*
X001625Y015238D01*
X001601Y015079D02*
X001441Y015079D01*
X001441Y014921D02*
X001621Y014921D01*
X001695Y014762D02*
X001441Y014762D01*
X001441Y014604D02*
X001890Y014604D01*
X001755Y014445D02*
X001441Y014445D01*
X001441Y014287D02*
X001645Y014287D01*
X001601Y014128D02*
X001441Y014128D01*
X001441Y013970D02*
X001601Y013970D01*
X001666Y013811D02*
X001441Y013811D01*
X001441Y013653D02*
X001804Y013653D01*
X001804Y013494D02*
X001441Y013494D01*
X001441Y013336D02*
X001666Y013336D01*
X001601Y013177D02*
X001441Y013177D01*
X001441Y013019D02*
X001601Y013019D01*
X001646Y012860D02*
X001441Y012860D01*
X001441Y012702D02*
X001755Y012702D01*
X001887Y012543D02*
X001441Y012543D01*
X001441Y012385D02*
X001694Y012385D01*
X001620Y012226D02*
X001441Y012226D01*
X001441Y012068D02*
X001601Y012068D01*
X001626Y011909D02*
X001441Y011909D01*
X001441Y011751D02*
X001706Y011751D01*
X001917Y011592D02*
X001441Y011592D01*
X001441Y011434D02*
X002873Y011434D01*
X002873Y011592D02*
X002333Y011592D01*
X002544Y011751D02*
X002873Y011751D01*
X002873Y011909D02*
X002624Y011909D01*
X002649Y012068D02*
X002873Y012068D01*
X002873Y012226D02*
X002630Y012226D01*
X002556Y012385D02*
X002873Y012385D01*
X002873Y012543D02*
X002363Y012543D01*
X002495Y012702D02*
X002873Y012702D01*
X002873Y012860D02*
X002604Y012860D01*
X002649Y013019D02*
X002873Y013019D01*
X002873Y013177D02*
X002649Y013177D01*
X002584Y013336D02*
X002873Y013336D01*
X002873Y013494D02*
X002446Y013494D01*
X002446Y013653D02*
X002873Y013653D01*
X002873Y013811D02*
X002584Y013811D01*
X002649Y013970D02*
X002873Y013970D01*
X002873Y014128D02*
X002649Y014128D01*
X002605Y014287D02*
X003030Y014287D01*
X003188Y014445D02*
X002495Y014445D01*
X002360Y014604D02*
X003346Y014604D01*
X003504Y014762D02*
X002555Y014762D01*
X002629Y014921D02*
X003621Y014921D01*
X003601Y015079D02*
X002649Y015079D01*
X002625Y015238D02*
X003625Y015238D01*
X003706Y015396D02*
X002544Y015396D01*
X002335Y015555D02*
X003915Y015555D01*
X003730Y015713D02*
X002506Y015713D01*
X002609Y015872D02*
X003629Y015872D01*
X003591Y016030D02*
X002649Y016030D01*
X002645Y016189D02*
X003602Y016189D01*
X003665Y016347D02*
X002579Y016347D01*
X002435Y016506D02*
X003810Y016506D01*
X003793Y016664D02*
X002441Y016664D01*
X002573Y016823D02*
X003661Y016823D01*
X003601Y016981D02*
X002634Y016981D01*
X002634Y017140D02*
X003601Y017140D01*
X003650Y017298D02*
X002584Y017298D01*
X002468Y017457D02*
X003766Y017457D01*
X003980Y018566D02*
X002270Y018566D01*
X002229Y018549D02*
X002422Y018629D01*
X002570Y018777D01*
X002649Y018969D01*
X002649Y019178D01*
X002570Y019371D01*
X002422Y019518D01*
X002288Y019574D01*
X002422Y019629D01*
X002570Y019777D01*
X002649Y019969D01*
X002649Y020178D01*
X002570Y020371D01*
X002422Y020518D01*
X002229Y020598D01*
X002021Y020598D01*
X001828Y020518D01*
X001680Y020371D01*
X001601Y020178D01*
X001601Y019969D01*
X001680Y019777D01*
X001828Y019629D01*
X001962Y019574D01*
X001828Y019518D01*
X001680Y019371D01*
X001601Y019178D01*
X001601Y018969D01*
X001680Y018777D01*
X001828Y018629D01*
X002021Y018549D01*
X002229Y018549D01*
X001980Y018566D02*
X001441Y018566D01*
X001441Y018408D02*
X005166Y018408D01*
X005166Y018566D02*
X004270Y018566D01*
X004518Y018725D02*
X005166Y018725D01*
X005452Y019074D02*
X005456Y019078D01*
X005561Y019517D02*
X004423Y019517D01*
X004482Y019676D02*
X005561Y019676D01*
X005561Y019834D02*
X004603Y019834D01*
X004653Y019993D02*
X005638Y019993D01*
X006218Y019993D02*
X006268Y019993D01*
X006848Y019993D02*
X008572Y019993D01*
X008572Y020151D02*
X004654Y020151D01*
X004605Y020310D02*
X006970Y020310D01*
X006969Y020468D02*
X004486Y020468D01*
X004163Y020468D02*
X004087Y020468D01*
X004087Y020310D02*
X004163Y020310D01*
X004163Y020151D02*
X004087Y020151D01*
X003764Y020468D02*
X002472Y020468D01*
X002595Y020310D02*
X003645Y020310D01*
X003596Y020151D02*
X002649Y020151D01*
X002649Y019993D02*
X003597Y019993D01*
X003647Y019834D02*
X002593Y019834D01*
X002469Y019676D02*
X003768Y019676D01*
X003827Y019517D02*
X002423Y019517D01*
X002575Y019359D02*
X003675Y019359D01*
X003610Y019200D02*
X002640Y019200D01*
X002649Y019042D02*
X003601Y019042D01*
X003636Y018883D02*
X002614Y018883D01*
X002518Y018725D02*
X003732Y018725D01*
X005166Y018249D02*
X001441Y018249D01*
X001441Y018091D02*
X005166Y018091D01*
X005166Y017932D02*
X001441Y017932D01*
X001441Y017774D02*
X005166Y017774D01*
X006810Y019074D02*
X006853Y019117D01*
X007122Y019042D02*
X007333Y019042D01*
X007333Y019200D02*
X007122Y019200D01*
X007108Y019359D02*
X007346Y019359D01*
X007339Y018883D02*
X007116Y018883D01*
X008192Y018330D02*
X008212Y018290D01*
X008172Y018290D01*
X008427Y018566D02*
X008582Y018566D01*
X008582Y018408D02*
X008539Y018408D01*
X008559Y018249D02*
X008582Y018249D01*
X008582Y018091D02*
X008503Y018091D01*
X008582Y017932D02*
X007909Y017932D01*
X007909Y017774D02*
X008582Y017774D01*
X008494Y017615D02*
X007909Y017615D01*
X007909Y017457D02*
X008475Y017457D01*
X007919Y016981D02*
X010157Y016981D01*
X010487Y017615D02*
X010551Y017615D01*
X010991Y017615D02*
X012709Y017615D01*
X012648Y017457D02*
X010991Y017457D01*
X010991Y017298D02*
X012603Y017298D01*
X012509Y017140D02*
X010991Y017140D01*
X010991Y016981D02*
X012469Y016981D01*
X012739Y016637D02*
X012660Y016566D01*
X013086Y016506D02*
X013473Y016506D01*
X013473Y016664D02*
X013086Y016664D01*
X013086Y016823D02*
X013473Y016823D01*
X013473Y016959D02*
X013473Y014897D01*
X013377Y014897D01*
X013330Y014850D01*
X013282Y014897D01*
X012959Y014897D01*
X013017Y014955D01*
X013067Y015075D01*
X013067Y015206D01*
X013017Y015326D01*
X012925Y015418D01*
X012804Y015468D01*
X012674Y015468D01*
X012567Y015424D01*
X012567Y015630D01*
X012731Y015630D01*
X012731Y015998D01*
X012748Y015998D01*
X012748Y016015D01*
X013096Y016015D01*
X013096Y016227D01*
X013084Y016273D01*
X013060Y016314D01*
X013046Y016329D01*
X013086Y016369D01*
X013086Y016904D01*
X013032Y016959D01*
X013282Y016959D01*
X013330Y017006D01*
X013377Y016959D01*
X013473Y016959D01*
X013355Y016981D02*
X013304Y016981D01*
X013645Y017306D02*
X013723Y017208D01*
X013723Y014589D01*
X013645Y014550D01*
X013723Y014550D02*
X013723Y013172D01*
X014276Y012543D02*
X014352Y012543D01*
X014352Y012385D02*
X014276Y012385D01*
X014276Y012226D02*
X014352Y012226D01*
X012062Y011566D02*
X011755Y011597D01*
X011479Y011597D01*
X011547Y012068D02*
X011385Y012068D01*
X011453Y012226D02*
X011550Y012226D01*
X011557Y012385D02*
X011492Y012385D01*
X011453Y012543D02*
X011557Y012543D01*
X011557Y012702D02*
X011256Y012702D01*
X011264Y012860D02*
X010991Y012860D01*
X010991Y012702D02*
X011073Y012702D01*
X011141Y013019D02*
X010991Y013019D01*
X010991Y013177D02*
X011141Y013177D01*
X011141Y013336D02*
X010991Y013336D01*
X010991Y013494D02*
X011141Y013494D01*
X011141Y013653D02*
X010991Y013653D01*
X010991Y013811D02*
X011141Y013811D01*
X011141Y013970D02*
X010991Y013970D01*
X010991Y014128D02*
X011078Y014128D01*
X011499Y014921D02*
X011557Y014921D01*
X011557Y015079D02*
X011340Y015079D01*
X011182Y015238D02*
X011557Y015238D01*
X011188Y015396D02*
X011023Y015396D01*
X010991Y015555D02*
X011141Y015555D01*
X011141Y015713D02*
X010991Y015713D01*
X010991Y015872D02*
X011141Y015872D01*
X011141Y016030D02*
X010991Y016030D01*
X010991Y016189D02*
X011062Y016189D01*
X011034Y016347D02*
X010991Y016347D01*
X010991Y016506D02*
X011083Y016506D01*
X010991Y016664D02*
X011557Y016664D01*
X011615Y016823D02*
X010991Y016823D01*
X012567Y015555D02*
X013473Y015555D01*
X013473Y015713D02*
X013068Y015713D01*
X013060Y015699D02*
X013084Y015740D01*
X013096Y015786D01*
X013096Y015998D01*
X012748Y015998D01*
X012748Y015630D01*
X012940Y015630D01*
X012986Y015642D01*
X013027Y015666D01*
X013060Y015699D01*
X013096Y015872D02*
X013473Y015872D01*
X013473Y016030D02*
X013096Y016030D01*
X013096Y016189D02*
X013473Y016189D01*
X013473Y016347D02*
X013064Y016347D01*
X012748Y015872D02*
X012731Y015872D01*
X012731Y015713D02*
X012748Y015713D01*
X012947Y015396D02*
X013473Y015396D01*
X013473Y015238D02*
X013054Y015238D01*
X013067Y015079D02*
X013473Y015079D01*
X013473Y014921D02*
X012982Y014921D01*
X013320Y017615D02*
X013339Y017615D01*
X016597Y018605D02*
X017149Y018605D01*
X016812Y018883D02*
X016783Y018883D01*
X018016Y017457D02*
X018092Y017457D01*
X018092Y017298D02*
X018016Y017298D01*
X018016Y017140D02*
X018092Y017140D01*
X018092Y016981D02*
X018016Y016981D01*
X018016Y016823D02*
X018092Y016823D01*
X018092Y016664D02*
X018016Y016664D01*
X017173Y016030D02*
X016990Y016030D01*
X016990Y015872D02*
X017116Y015872D01*
X017136Y015713D02*
X016990Y015713D01*
X016990Y015555D02*
X017173Y015555D01*
X019847Y013177D02*
X021101Y013177D01*
X021101Y013019D02*
X019957Y013019D01*
X019990Y012860D02*
X021146Y012860D01*
X021255Y012702D02*
X019963Y012702D01*
X019860Y012543D02*
X021369Y012543D01*
X021190Y012385D02*
X019804Y012385D01*
X019804Y012226D02*
X021113Y012226D01*
X021117Y011909D02*
X019804Y011909D01*
X019804Y011751D02*
X021199Y011751D01*
X021393Y011592D02*
X019804Y011592D01*
X019804Y011434D02*
X024431Y011434D01*
X024431Y011592D02*
X023833Y011592D01*
X023922Y011629D02*
X024070Y011777D01*
X024149Y011969D01*
X024149Y012178D01*
X024070Y012371D01*
X023922Y012518D01*
X023788Y012574D01*
X023922Y012629D01*
X024070Y012777D01*
X024149Y012969D01*
X024149Y013178D01*
X024070Y013371D01*
X023922Y013518D01*
X023729Y013598D01*
X023521Y013598D01*
X023328Y013518D01*
X023180Y013371D01*
X023101Y013178D01*
X023101Y012969D01*
X023180Y012777D01*
X023328Y012629D01*
X023462Y012574D01*
X023328Y012518D01*
X023180Y012371D01*
X023101Y012178D01*
X023101Y011969D01*
X023180Y011777D01*
X023328Y011629D01*
X023521Y011549D01*
X023729Y011549D01*
X023922Y011629D01*
X024044Y011751D02*
X024431Y011751D01*
X024431Y011909D02*
X024124Y011909D01*
X024149Y012068D02*
X024431Y012068D01*
X024431Y012226D02*
X024130Y012226D01*
X024056Y012385D02*
X024431Y012385D01*
X024431Y012543D02*
X023863Y012543D01*
X023995Y012702D02*
X024431Y012702D01*
X024431Y012860D02*
X024104Y012860D01*
X024149Y013019D02*
X024431Y013019D01*
X024431Y013177D02*
X024149Y013177D01*
X024084Y013336D02*
X024431Y013336D01*
X024431Y013494D02*
X023946Y013494D01*
X023304Y013494D02*
X021946Y013494D01*
X022084Y013336D02*
X023166Y013336D01*
X023101Y013177D02*
X022149Y013177D01*
X022149Y013019D02*
X023101Y013019D01*
X023146Y012860D02*
X022104Y012860D01*
X021995Y012702D02*
X023255Y012702D01*
X023387Y012543D02*
X021881Y012543D01*
X022060Y012385D02*
X023194Y012385D01*
X023120Y012226D02*
X022137Y012226D01*
X022159Y012036D02*
X021663Y012036D01*
X021663Y011539D01*
X021667Y011539D01*
X021750Y011553D01*
X021830Y011579D01*
X021905Y011617D01*
X021973Y011666D01*
X022033Y011726D01*
X022082Y011794D01*
X022120Y011869D01*
X022146Y011949D01*
X022159Y012032D01*
X022159Y012036D01*
X022133Y011909D02*
X023126Y011909D01*
X023101Y012068D02*
X021663Y012068D01*
X021587Y012068D02*
X019804Y012068D01*
X019804Y011275D02*
X024431Y011275D01*
X024431Y011117D02*
X019804Y011117D01*
X019804Y010958D02*
X024431Y010958D01*
X024431Y010800D02*
X019804Y010800D01*
X019804Y010641D02*
X024431Y010641D01*
X024431Y010483D02*
X019804Y010483D01*
X019804Y009056D02*
X020608Y009056D01*
X020488Y008898D02*
X019804Y008898D01*
X019887Y008739D02*
X020463Y008739D01*
X020511Y008581D02*
X019898Y008581D01*
X019819Y008422D02*
X020560Y008422D01*
X019554Y008649D02*
X019550Y008645D01*
X019554Y008649D02*
X019554Y012853D01*
X021587Y011909D02*
X021663Y011909D01*
X021663Y011751D02*
X021587Y011751D01*
X021587Y011592D02*
X021663Y011592D01*
X021857Y011592D02*
X023417Y011592D01*
X023206Y011751D02*
X022051Y011751D01*
X023719Y008105D02*
X023775Y008105D01*
X023775Y007947D02*
X023719Y007947D01*
X023719Y007738D02*
X023242Y007738D01*
X023242Y007727D01*
X023255Y007648D01*
X023279Y007573D01*
X023315Y007502D01*
X023362Y007438D01*
X023418Y007382D01*
X023482Y007335D01*
X023553Y007299D01*
X023629Y007274D01*
X023707Y007262D01*
X023719Y007262D01*
X023719Y007738D01*
X023719Y007630D02*
X023775Y007630D01*
X023775Y007471D02*
X023719Y007471D01*
X023719Y007313D02*
X023775Y007313D01*
X023526Y007313D02*
X022212Y007313D01*
X022279Y007471D02*
X023338Y007471D01*
X023261Y007630D02*
X022279Y007630D01*
X022311Y007154D02*
X023434Y007154D01*
X023306Y006996D02*
X022315Y006996D01*
X022222Y006837D02*
X023252Y006837D01*
X023252Y006679D02*
X021102Y006679D01*
X021060Y006837D02*
X021761Y006837D01*
X021667Y006996D02*
X021060Y006996D01*
X021060Y007154D02*
X021671Y007154D01*
X021771Y007313D02*
X021060Y007313D01*
X021157Y006520D02*
X023313Y006520D01*
X023452Y006362D02*
X021462Y006362D01*
X021674Y006203D02*
X023507Y006203D01*
X023326Y006045D02*
X021750Y006045D01*
X021768Y005886D02*
X023261Y005886D01*
X023252Y005728D02*
X021735Y005728D01*
X021637Y005569D02*
X023293Y005569D01*
X023403Y005411D02*
X021374Y005411D01*
X021172Y005411D02*
X018874Y005411D01*
X018672Y005411D02*
X017911Y005411D01*
X017911Y005569D02*
X018408Y005569D01*
X018310Y005728D02*
X017911Y005728D01*
X017911Y005886D02*
X018278Y005886D01*
X018295Y006045D02*
X017911Y006045D01*
X017911Y006203D02*
X018371Y006203D01*
X019174Y006203D02*
X020595Y006203D01*
X020795Y006045D02*
X019250Y006045D01*
X019268Y005886D02*
X020778Y005886D01*
X020810Y005728D02*
X019235Y005728D01*
X019137Y005569D02*
X020908Y005569D01*
X021154Y004397D02*
X021079Y004372D01*
X021008Y004336D01*
X020944Y004289D01*
X020888Y004233D01*
X020841Y004169D01*
X020805Y004098D01*
X020780Y004023D01*
X020768Y003944D01*
X020768Y003933D01*
X021244Y003933D01*
X021244Y004409D01*
X021233Y004409D01*
X021154Y004397D01*
X021244Y004301D02*
X021301Y004301D01*
X021301Y004143D02*
X021244Y004143D01*
X021244Y003984D02*
X021301Y003984D01*
X021301Y003826D02*
X021244Y003826D01*
X021244Y003667D02*
X021301Y003667D01*
X021301Y003509D02*
X021244Y003509D01*
X020959Y003509D02*
X019077Y003509D01*
X019053Y003485D02*
X019192Y003624D01*
X019268Y003806D01*
X019268Y004003D01*
X019192Y004185D01*
X019053Y004324D01*
X018871Y004399D01*
X018674Y004399D01*
X018492Y004324D01*
X018353Y004185D01*
X018278Y004003D01*
X018278Y003806D01*
X018353Y003624D01*
X018492Y003485D01*
X018674Y003409D01*
X018871Y003409D01*
X019053Y003485D01*
X019210Y003667D02*
X020827Y003667D01*
X020774Y003826D02*
X019268Y003826D01*
X019268Y003984D02*
X020774Y003984D01*
X020827Y004143D02*
X019210Y004143D01*
X019076Y004301D02*
X020960Y004301D01*
X023273Y004618D02*
X017911Y004618D01*
X017911Y004460D02*
X023354Y004460D01*
X023252Y004777D02*
X017911Y004777D01*
X017911Y004935D02*
X023281Y004935D01*
X023374Y005094D02*
X017911Y005094D01*
X017911Y005252D02*
X023625Y005252D01*
X023869Y005252D02*
X024431Y005252D01*
X024431Y007947D02*
X024219Y007947D01*
X024123Y008105D02*
X024431Y008105D01*
X018469Y004301D02*
X017911Y004301D01*
X017911Y004143D02*
X018336Y004143D01*
X018278Y003984D02*
X017911Y003984D01*
X017911Y003826D02*
X018278Y003826D01*
X018335Y003667D02*
X017911Y003667D01*
X017911Y003509D02*
X018469Y003509D01*
X017017Y003509D02*
X016862Y003509D01*
X016994Y003667D02*
X017017Y003667D01*
X016576Y003667D02*
X016520Y003667D01*
X016520Y003509D02*
X016576Y003509D01*
X016520Y003400D02*
X016520Y003876D01*
X016043Y003876D01*
X016043Y003865D01*
X016056Y003786D01*
X016080Y003711D01*
X016116Y003640D01*
X016163Y003576D01*
X016219Y003519D01*
X016284Y003473D01*
X016354Y003437D01*
X016430Y003412D01*
X016508Y003400D01*
X016520Y003400D01*
X016234Y003509D02*
X014352Y003509D01*
X014486Y003667D02*
X016103Y003667D01*
X016050Y003826D02*
X014543Y003826D01*
X014543Y003984D02*
X016050Y003984D01*
X016103Y004143D02*
X014485Y004143D01*
X014352Y004301D02*
X016235Y004301D01*
X016520Y004301D02*
X016576Y004301D01*
X016576Y004143D02*
X016520Y004143D01*
X016520Y003984D02*
X016576Y003984D01*
X016576Y003826D02*
X016520Y003826D01*
X016993Y004143D02*
X017017Y004143D01*
X017017Y004301D02*
X016861Y004301D01*
X017017Y004460D02*
X010794Y004460D01*
X010794Y004618D02*
X017017Y004618D01*
X017017Y004777D02*
X010794Y004777D01*
X010794Y004935D02*
X017017Y004935D01*
X017017Y005094D02*
X010794Y005094D01*
X010794Y005252D02*
X017017Y005252D01*
X016184Y005569D02*
X014413Y005569D01*
X014511Y005728D02*
X016086Y005728D01*
X016053Y005886D02*
X014543Y005886D01*
X014526Y006045D02*
X016071Y006045D01*
X016147Y006203D02*
X014450Y006203D01*
X014238Y006362D02*
X016358Y006362D01*
X017017Y006679D02*
X010843Y006679D01*
X010354Y006520D02*
X008880Y006520D01*
X009017Y006679D02*
X010305Y006679D01*
X010246Y006837D02*
X009154Y006837D01*
X009292Y006996D02*
X010270Y006996D01*
X010180Y007424D02*
X010180Y003330D01*
X010354Y003509D02*
X009628Y003509D01*
X009761Y003667D02*
X010354Y003667D01*
X010354Y003826D02*
X009819Y003826D01*
X009819Y003984D02*
X010354Y003984D01*
X010354Y004143D02*
X009761Y004143D01*
X009627Y004301D02*
X010354Y004301D01*
X010354Y004460D02*
X008432Y004460D01*
X008432Y004618D02*
X010354Y004618D01*
X010354Y004777D02*
X008432Y004777D01*
X008432Y004935D02*
X010354Y004935D01*
X010354Y005094D02*
X008432Y005094D01*
X008432Y005252D02*
X010354Y005252D01*
X010354Y005411D02*
X009425Y005411D01*
X009422Y005409D02*
X009604Y005485D01*
X009743Y005624D01*
X009819Y005806D01*
X009819Y006003D01*
X009743Y006185D01*
X009604Y006324D01*
X009422Y006399D01*
X009225Y006399D01*
X009043Y006324D01*
X008904Y006185D01*
X008829Y006003D01*
X008829Y005806D01*
X008904Y005624D01*
X009043Y005485D01*
X009225Y005409D01*
X009422Y005409D01*
X009223Y005411D02*
X008432Y005411D01*
X008432Y005569D02*
X008959Y005569D01*
X008861Y005728D02*
X008432Y005728D01*
X008432Y005886D02*
X008829Y005886D01*
X008846Y006045D02*
X008467Y006045D01*
X008605Y006203D02*
X008922Y006203D01*
X008742Y006362D02*
X009134Y006362D01*
X009514Y006362D02*
X010354Y006362D01*
X010354Y006203D02*
X009725Y006203D01*
X009802Y006045D02*
X010354Y006045D01*
X010354Y005886D02*
X009819Y005886D01*
X009786Y005728D02*
X010354Y005728D01*
X010354Y005569D02*
X009688Y005569D01*
X009562Y007788D02*
X009885Y007788D01*
X009801Y007947D02*
X009646Y007947D01*
X009659Y008105D02*
X009788Y008105D01*
X009833Y008264D02*
X009613Y008264D01*
X009534Y008422D02*
X009960Y008422D01*
X009960Y008581D02*
X009534Y008581D01*
X009534Y008739D02*
X009960Y008739D01*
X009960Y008898D02*
X009534Y008898D01*
X009534Y009056D02*
X009960Y009056D01*
X009960Y009215D02*
X009534Y009215D01*
X009534Y009373D02*
X009960Y009373D01*
X008960Y009038D02*
X008960Y008645D01*
X008723Y008330D01*
X009235Y008093D02*
X009223Y008066D01*
X010180Y008054D02*
X010223Y008066D01*
X010613Y008264D02*
X010824Y008264D01*
X010810Y008237D02*
X010842Y008299D01*
X010883Y008356D01*
X010933Y008406D01*
X010990Y008447D01*
X011052Y008479D01*
X011119Y008501D01*
X011188Y008512D01*
X011215Y008512D01*
X011215Y008074D01*
X010778Y008074D01*
X010778Y008101D01*
X010789Y008170D01*
X010810Y008237D01*
X010778Y008105D02*
X010659Y008105D01*
X010646Y007947D02*
X010794Y007947D01*
X010874Y007788D02*
X010562Y007788D01*
X011215Y007788D02*
X011232Y007788D01*
X011215Y007947D02*
X011232Y007947D01*
X011204Y008054D02*
X011223Y008066D01*
X011215Y008105D02*
X011232Y008105D01*
X011215Y008264D02*
X011232Y008264D01*
X011215Y008422D02*
X011232Y008422D01*
X011492Y008422D02*
X011963Y008422D01*
X011833Y008264D02*
X011623Y008264D01*
X011669Y008105D02*
X011788Y008105D01*
X011801Y007947D02*
X011653Y007947D01*
X011573Y007788D02*
X011885Y007788D01*
X012484Y008422D02*
X012519Y008422D01*
X011732Y009373D02*
X017607Y009373D01*
X017502Y009532D02*
X011573Y009532D01*
X011415Y009690D02*
X017344Y009690D01*
X017562Y007788D02*
X017607Y007788D01*
X014964Y002399D02*
X014908Y002399D01*
X014908Y002241D02*
X014964Y002241D01*
X014431Y002241D02*
X014431Y002241D01*
X014431Y002399D02*
X014368Y002399D01*
X014431Y002082D02*
X014431Y002082D01*
X014431Y001924D02*
X014379Y001924D01*
X014441Y001765D02*
X014253Y001765D01*
X013620Y001765D02*
X013253Y001765D01*
X013379Y001924D02*
X013493Y001924D01*
X013441Y002082D02*
X013431Y002082D01*
X013431Y002241D02*
X013441Y002241D01*
X009092Y001765D02*
X008017Y001765D01*
X008025Y001607D02*
X008933Y001607D01*
X007071Y003400D02*
X007071Y003876D01*
X006595Y003876D01*
X006595Y003865D01*
X006607Y003786D01*
X006632Y003711D01*
X006668Y003640D01*
X006714Y003576D01*
X006771Y003519D01*
X006835Y003473D01*
X006906Y003437D01*
X006981Y003412D01*
X007060Y003400D01*
X007071Y003400D01*
X007071Y003509D02*
X007128Y003509D01*
X007128Y003667D02*
X007071Y003667D01*
X007071Y003826D02*
X007128Y003826D01*
X007128Y003984D02*
X007071Y003984D01*
X007071Y004143D02*
X007128Y004143D01*
X007128Y004301D02*
X007071Y004301D01*
X006786Y004301D02*
X004903Y004301D01*
X005037Y004143D02*
X006654Y004143D01*
X006601Y003984D02*
X005094Y003984D01*
X005094Y003826D02*
X006601Y003826D01*
X006654Y003667D02*
X005037Y003667D01*
X004903Y003509D02*
X006786Y003509D01*
X005208Y007630D02*
X005191Y007630D01*
X005191Y007788D02*
X005208Y007788D01*
X005082Y008369D02*
X004924Y008526D01*
X004471Y008526D01*
X004924Y009156D02*
X005082Y009314D01*
X005397Y009629D01*
X005456Y009688D01*
X005456Y009629D02*
X005397Y009629D01*
X005743Y008898D02*
X007530Y008898D01*
X007897Y009038D02*
X007897Y009227D01*
X008298Y009629D01*
X008298Y010066D01*
X007847Y009532D02*
X007680Y009532D01*
X008527Y009038D02*
X008960Y009038D01*
X008960Y010574D01*
X008306Y010574D01*
X008298Y010566D01*
X007456Y010566D01*
X007385Y010495D01*
X007306Y010574D01*
X006676Y010574D01*
X006637Y011574D02*
X006619Y011591D01*
X007660Y011066D02*
X007660Y011046D01*
X008290Y011046D01*
X008298Y011066D01*
X008298Y011566D02*
X008290Y011597D01*
X008792Y011275D02*
X009099Y011275D01*
X008997Y011117D02*
X008803Y011117D01*
X008803Y010958D02*
X008988Y010958D01*
X009068Y010800D02*
X009078Y010800D01*
X007516Y012860D02*
X007504Y012860D01*
X007504Y013019D02*
X007784Y013019D01*
X007784Y013177D02*
X007504Y013177D01*
X008330Y013054D02*
X009747Y013054D01*
X008919Y013970D02*
X008803Y013970D01*
X008803Y014128D02*
X008868Y014128D01*
X009017Y015238D02*
X009056Y015238D01*
X006932Y015554D02*
X006656Y015554D01*
X006046Y014944D01*
X006046Y013172D01*
X006912Y015574D02*
X006912Y016558D01*
X007247Y020495D02*
X007247Y020832D01*
X007247Y020495D01*
X007247Y020495D01*
X007247Y020627D02*
X007247Y020627D01*
X007247Y020785D02*
X007247Y020785D01*
X007027Y020785D02*
X001441Y020785D01*
X001441Y020627D02*
X006969Y020627D01*
X008727Y022212D02*
X009145Y022212D01*
X009156Y022201D02*
X009338Y022126D01*
X009534Y022126D01*
X009716Y022201D01*
X009856Y022341D01*
X009931Y022522D01*
X009931Y022719D01*
X009856Y022901D01*
X009716Y023041D01*
X009534Y023116D01*
X009338Y023116D01*
X009156Y023041D01*
X009016Y022901D01*
X008941Y022719D01*
X008941Y022522D01*
X009016Y022341D01*
X009156Y022201D01*
X009004Y022370D02*
X008868Y022370D01*
X008931Y022529D02*
X008941Y022529D01*
X008931Y022687D02*
X008941Y022687D01*
X008993Y022846D02*
X008879Y022846D01*
X008753Y023004D02*
X009119Y023004D01*
X009753Y023004D02*
X010119Y023004D01*
X009993Y022846D02*
X009879Y022846D01*
X009931Y022687D02*
X009941Y022687D01*
X009931Y022529D02*
X009941Y022529D01*
X010004Y022370D02*
X009868Y022370D01*
X009727Y022212D02*
X010145Y022212D01*
X010551Y021895D02*
X004102Y021895D01*
X004059Y021736D02*
X010551Y021736D01*
X010551Y021578D02*
X003988Y021578D01*
X003896Y021419D02*
X010551Y021419D01*
X010551Y021261D02*
X003770Y021261D01*
X003611Y021102D02*
X010551Y021102D01*
X010551Y020944D02*
X003357Y020944D01*
X002043Y020944D02*
X001441Y020944D01*
X001441Y021102D02*
X001788Y021102D01*
X001630Y021261D02*
X001441Y021261D01*
X001441Y021419D02*
X001503Y021419D01*
X001441Y020468D02*
X001778Y020468D01*
X001655Y020310D02*
X001441Y020310D01*
X001441Y020151D02*
X001601Y020151D01*
X001601Y019993D02*
X001441Y019993D01*
X001441Y019834D02*
X001657Y019834D01*
X001781Y019676D02*
X001441Y019676D01*
X001441Y019517D02*
X001827Y019517D01*
X001675Y019359D02*
X001441Y019359D01*
X001441Y019200D02*
X001610Y019200D01*
X001601Y019042D02*
X001441Y019042D01*
X001441Y018883D02*
X001636Y018883D01*
X001732Y018725D02*
X001441Y018725D01*
X003643Y023321D02*
X022229Y023321D01*
X022461Y023480D02*
X003411Y023480D01*
X013753Y023004D02*
X014119Y023004D01*
X013993Y022846D02*
X013879Y022846D01*
X013931Y022687D02*
X013941Y022687D01*
X014753Y023004D02*
X015119Y023004D01*
X014993Y022846D02*
X014879Y022846D01*
X014931Y022687D02*
X014941Y022687D01*
X014931Y022529D02*
X014941Y022529D01*
X015004Y022370D02*
X014868Y022370D01*
X014727Y022212D02*
X015145Y022212D01*
X015727Y022212D02*
X015865Y022212D01*
X015868Y022370D02*
X015874Y022370D01*
X015931Y022529D02*
X015941Y022529D01*
X015931Y022687D02*
X015941Y022687D01*
X015993Y022846D02*
X015879Y022846D01*
X015753Y023004D02*
X016119Y023004D01*
X016753Y023004D02*
X017119Y023004D01*
X016993Y022846D02*
X016879Y022846D01*
X016931Y022687D02*
X016941Y022687D01*
X016931Y022529D02*
X016941Y022529D01*
X017004Y022370D02*
X016868Y022370D01*
X016727Y022212D02*
X017145Y022212D01*
X015865Y022053D02*
X015715Y022053D01*
X015715Y021895D02*
X015865Y021895D01*
X015865Y021736D02*
X015715Y021736D01*
X015715Y021578D02*
X015865Y021578D01*
X015865Y021419D02*
X015715Y021419D01*
X015715Y021261D02*
X015865Y021261D01*
X015865Y021102D02*
X015751Y021102D01*
X018803Y022212D02*
X018880Y022212D01*
X018880Y022370D02*
X018803Y022370D01*
X020313Y020310D02*
X022023Y020310D01*
X022165Y020151D02*
X020313Y020151D01*
X020313Y019993D02*
X022165Y019993D01*
X022165Y019834D02*
X020313Y019834D01*
X020313Y019676D02*
X022165Y019676D01*
X023923Y019517D02*
X024431Y019517D01*
X024431Y019359D02*
X024075Y019359D01*
X024140Y019200D02*
X024431Y019200D01*
X024431Y019042D02*
X024149Y019042D01*
X024114Y018883D02*
X024431Y018883D01*
X024431Y018725D02*
X024018Y018725D01*
X023807Y018566D02*
X024431Y018566D01*
X024431Y018408D02*
X024033Y018408D01*
X024120Y018249D02*
X024431Y018249D01*
X024431Y018091D02*
X024149Y018091D01*
X024134Y017932D02*
X024431Y017932D01*
X024431Y017774D02*
X024067Y017774D01*
X023829Y020944D02*
X024431Y020944D01*
X024431Y021102D02*
X024084Y021102D01*
X024242Y021261D02*
X024431Y021261D01*
X024431Y021419D02*
X024369Y021419D01*
X012070Y011046D02*
X011479Y011046D01*
X010955Y008422D02*
X010484Y008422D01*
X002873Y010324D02*
X001441Y010324D01*
X001441Y010166D02*
X002728Y010166D01*
X002570Y010007D02*
X001441Y010007D01*
X001441Y009849D02*
X002480Y009849D01*
X002480Y009690D02*
X001441Y009690D01*
X001441Y009532D02*
X002480Y009532D01*
X002480Y009373D02*
X001441Y009373D01*
X001441Y009215D02*
X002480Y009215D01*
X002480Y009056D02*
X001441Y009056D01*
X001441Y008898D02*
X002480Y008898D01*
X002480Y008739D02*
X001441Y008739D01*
X001441Y008581D02*
X002480Y008581D01*
X001638Y008422D02*
X001441Y008422D01*
X001441Y008264D02*
X001638Y008264D01*
X001638Y008105D02*
X001441Y008105D01*
X001441Y007947D02*
X001638Y007947D01*
X001638Y007788D02*
X001441Y007788D01*
X001441Y007630D02*
X001598Y007630D01*
X001474Y007471D02*
X001441Y007471D01*
X001441Y010483D02*
X002873Y010483D01*
X002873Y010641D02*
X001441Y010641D01*
X001441Y010800D02*
X002873Y010800D01*
X002873Y010958D02*
X001441Y010958D01*
X001441Y011117D02*
X002873Y011117D01*
X002873Y011275D02*
X001441Y011275D01*
D29*
X005456Y009629D03*
X006637Y010023D03*
X007385Y008841D03*
X008723Y007424D03*
X009747Y008841D03*
X012739Y010810D03*
X013723Y013172D03*
X017464Y011991D03*
X018054Y011991D03*
X018054Y012975D03*
X017464Y015830D03*
X018054Y018131D03*
X020023Y020652D03*
X018054Y021440D03*
X015298Y020259D03*
X009747Y021440D03*
X008212Y018290D03*
X006243Y019078D03*
X019550Y008645D03*
X020810Y008767D03*
X020810Y006479D03*
X010180Y003330D03*
D30*
X006243Y019078D02*
X005771Y019078D01*
X005771Y019074D02*
X005849Y019074D01*
X005771Y019074D02*
X005452Y019074D01*
X004125Y019074D01*
M02*
