  0
SECTION
  2
HEADER
  9
$ACADVER
  1
AC1009
  9
$INSBASE
 10
0
 20
0
 30
0
  9
$EXTMIN
 10
0
 20
0
  9
$EXTMAX
 10
420
 20
297
  9
$LIMMIN
 10
0
 20
0
  9
$LIMMAX
 10
420
 20
297
  9
$LTSCALE
 40
1
  0
ENDSEC
  0
SECTION
  2
TABLES
  0
TABLE
  2
LTYPE
 70
     9
  0
LTYPE
  2
CONTINUOUS
 70
    64
  3
実線
 72
    65
 73
     0
 40
0.0
  0
LTYPE
  2
DASHED1
 70
    64
  3
--  --  --  --  --  --  --  --  
 72
    65
 73
     2
 40
2.5
 49
1.25
 49
-1.25
  0
LTYPE
  2
DASHED2
 70
    64
  3
----    ----    ----    ----    
 72
    65
 73
     2
 40
5.0
 49
2.5
 49
-2.5
  0
LTYPE
  2
DASHED3
 70
    64
  3
------  ------  ------  ------  
 72
    65
 73
     2
 40
5.0
 49
3.75
 49
-1.25
  0
LTYPE
  2
CENTER1
 70
    64
  3
----- - ----- - ----- - ----- - 
 72
    65
 73
     4
 40
10.0
 49
6.25
 49
-1.25
 49
1.25
 49
-1.25
  0
LTYPE
  2
CENTER2
 70
    64
  3
----------  --  ----------  --  
 72
    65
 73
     4
 40
20.0
 49
12.5
 49
-2.5
 49
2.5
 49
-2.5
  0
LTYPE
  2
PHANTOM1
 70
    64
  3
--- - - --- - - --- - - --- - - 
 72
    65
 73
     6
 40
10.0
 49
3.25
 49
-1.25
 49
1.25
 49
-1.25
 49
1.25
 49
-1.25
  0
LTYPE
  2
PHANTOM2
 70
    64
  3
--------  -  -  --------  -  -  
 72
    65
 73
     6
 40
20.0
 49
10.0
 49
-2.5
 49
1.25
 49
-2.5
 49
1.25
 49
-2.5
  0
LTYPE
  2
DOT
 70
    64
  3
-   -   -   -   -   -   -   -   
 72
    65
 73
     2
 40
2.5
 49
0.625
 49
-1.875
  0
LTYPE
  2
DUMMY
 70
    64
  3
ダミー
 72
    65
 73
     0
 40
0.0
  0
LTYPE
  2
RAND1
 70
    64
  3
ランダム線1
 72
    65
 73
     4
 40
10.0
 49
1.0
 49
-2.0
 49
3.0
 49
-4.0
  0
LTYPE
  2
RAND2
 70
    64
  3
ランダム線2
 72
    65
 73
     4
 40
14.0
 49
2.0
 49
-3.0
 49
4.0
 49
-5.0
  0
LTYPE
  2
RAND3
 70
    64
  3
ランダム線3
 72
    65
 73
     4
 40
18.0
 49
3.0
 49
-4.0
 49
5.0
 49
-6.0
  0
LTYPE
  2
RAND4
 70
    64
  3
ランダム線4
 72
    65
 73
     4
 40
22.0
 49
4.0
 49
-5.0
 49
6.0
 49
-7.0
  0
LTYPE
  2
RAND5
 70
    64
  3
ランダム線5
 72
    65
 73
     4
 40
26.0
 49
5.0
 49
-6.0
 49
7.0
 49
-8.0
  0
LTYPE
  2
LONG1
 70
    64
  3
----------  --  ----------  --  
 72
    65
 73
     4
 40
40.0
 49
32.5
 49
-2.5
 49
2.5
 49
-2.5
  0
LTYPE
  2
LONG2
 70
    64
  3
--------  -  -  --------  -  -  
 72
    65
 73
     6
 40
40.0
 49
30.0
 49
-2.5
 49
1.25
 49
-2.5
 49
1.25
 49
-2.5
  0
LTYPE
  2
LONG3
 70
    64
  3
+++++++++++++++..+++++++++++++++
 72
    65
 73
     2
 40
40.0
 49
37.5
 49
-2.5
  0
LTYPE
  2
LONG4
 70
    64
  3
+++++++++++++++..+++++++++++++++
 72
    65
 73
     2
 40
80.0
 49
75.0
 49
-5.0
  0
LTYPE
  2
LONG5
 70
    64
  3
----------  --  ----------  --  
 72
    65
 73
     4
 40
60.0
 49
37.5
 49
-7.5
 49
7.5
 49
-7.5
  0
LTYPE
  2
dashed
 70
   64
  3
-------   -------------   ------
 72
   65
 73
    2
 40
7.5
 49
6
 49
-1.5
  0
LTYPE
  2
dashed_spaced
 70
   64
  3
----        --------        ----
 72
   65
 73
    2
 40
12
 49
6
 49
-6
  0
LTYPE
  2
long_dashed_dotted
 70
   64
  3
------------- --- --------------
 72
   65
 73
    4
 40
15.25
 49
12
 49
-1.5
 49
0.25
 49
-1.5
  0
LTYPE
  2
long_dashed_double-dotted
 70
   64
  3
----------- --- --- ------------
 72
   65
 73
    6
 40
17
 49
12
 49
-1.5
 49
0.25
 49
-1.5
 49
0.25
 49
-1.5
  0
LTYPE
  2
long_dashed_triplicate-dotted
 70
   64
  3
--------- --- --- --- ----------
 72
   65
 73
    8
 40
18.75
 49
12
 49
-1.5
 49
0.25
 49
-1.5
 49
0.25
 49
-1.5
 49
0.25
 49
-1.5
  0
LTYPE
  2
dotted
 70
   64
  3
   -       -       -       -    
 72
   65
 73
    2
 40
1.75
 49
0.25
 49
-1.5
  0
LTYPE
  2
chain
 70
   64
  3
-------------- -- --------------
 72
   65
 73
    4
 40
18.5
 49
12
 49
-1.5
 49
3.5
 49
-1.5
  0
LTYPE
  2
chain_double_dash
 70
   64
  3
------------ -- -- -------------
 72
   65
 73
    6
 40
23.5
 49
12
 49
-1.5
 49
3.5
 49
-1.5
 49
3.5
 49
-1.5
  0
LTYPE
  2
dashed_dotted
 70
   64
  3
-----------     -     ----------
 72
   65
 73
    4
 40
9.25
 49
6
 49
-1.5
 49
0.25
 49
-1.5
  0
LTYPE
  2
double-dashed_dotted
 70
   64
  3
------   -----------   -   -----
 72
   65
 73
    6
 40
16.75
 49
6
 49
-1.5
 49
6
 49
-1.5
 49
0.25
 49
-1.5
  0
LTYPE
  2
dashed_double-dotted
 70
   64
  3
---------    -    -    ---------
 72
   65
 73
    6
 40
11
 49
6
 49
-1.5
 49
0.25
 49
-1.5
 49
0.25
 49
-1.5
  0
LTYPE
  2
double-dashed_double-dotted
 70
   64
  3
-----   ---------   -   -   ----
 72
   65
 73
    8
 40
18.5
 49
6
 49
-1.5
 49
6
 49
-1.5
 49
0.25
 49
-1.5
 49
0.25
 49
-1.5
  0
LTYPE
  2
dashed_triplicate-dotted
 70
   64
  3
-------    -    -    -    ------
 72
   65
 73
    8
 40
12.75
 49
6
 49
-1.5
 49
0.25
 49
-1.5
 49
0.25
 49
-1.5
 49
0.25
 49
-1.5
  0
LTYPE
  2
double-dashed_triplicate-dotted
 70
   64
  3
-----  ---------  -  -  -  -----
 72
   65
 73
   10
 40
20.25
 49
6
 49
-1.5
 49
6
 49
-1.5
 49
0.25
 49
-1.5
 49
0.25
 49
-1.5
 49
0.25
 49
-1.5
  0
LTYPE
  2
undefined
 70
   64
  3
--------------------------------
 72
   65
 73
    0
 40
0
  0
LTYPE
  2
_
 70
   64
  3
                                
 72
   65
 73
    0
 40
0
  0
LTYPE
  2
__18
 70
   64
  3
                                
 72
   65
 73
    0
 40
0
  0
LTYPE
  2
__19
 70
   64
  3
                                
 72
   65
 73
    0
 40
0
  0
LTYPE
  2
__20
 70
   64
  3
                                
 72
   65
 73
    0
 40
0
  0
LTYPE
  2
__21
 70
   64
  3
                                
 72
   65
 73
    0
 40
0
  0
LTYPE
  2
__22
 70
   64
  3
                                
 72
   65
 73
    0
 40
0
  0
LTYPE
  2
__23
 70
   64
  3
                                
 72
   65
 73
    0
 40
0
  0
LTYPE
  2
__24
 70
   64
  3
                                
 72
   65
 73
    0
 40
0
  0
LTYPE
  2
__25
 70
   64
  3
                                
 72
   65
 73
    0
 40
0
  0
LTYPE
  2
__26
 70
   64
  3
                                
 72
   65
 73
    0
 40
0
  0
LTYPE
  2
__27
 70
   64
  3
                                
 72
   65
 73
    0
 40
0
  0
LTYPE
  2
__28
 70
   64
  3
                                
 72
   65
 73
    0
 40
0
  0
LTYPE
  2
__29
 70
   64
  3
                                
 72
   65
 73
    0
 40
0
  0
LTYPE
  2
__30
 70
   64
  3
                                
 72
   65
 73
    0
 40
0
  0
LTYPE
  2
__31
 70
   64
  3
                                
 72
   65
 73
    0
 40
0
  0
LTYPE
  2
__32
 70
   64
  3
                                
 72
   65
 73
    0
 40
0
  0
ENDTAB
  0
TABLE
  2
STYLE
  5
3
100
AcDbSymbolTable
 70
     1
  0
STYLE
  5
10
100
AcDbSymbolTableRecord
100
AcDbTextStyleTableRecord
  2
STANDARD
 70
     0
 40
0.0
 41
1.0
 50
0.0
 71
     0
 42
0.2
  3
txt
  4
bigfont.shx
  0
STYLE
  5
26
100
AcDbSymbolTableRecord
100
AcDbTextStyleTableRecord
  2
TATEGAKI
 70
    68
 40
0.0
 41
1.0
 50
0.0
 71
     0
 42
1.0
  3
txt
  4
bigfont.shx
  0
ENDTAB
  0
TABLE
  2
LAYER
 70
    2
  0
LAYER
  2
_1-d_
 70
   64
 62
    7
  6
CONTINUOUS
  0
LAYER
  2
ADD_LINE
 70
   64
 62
    7
  6
CONTINUOUS
  0
ENDTAB
  0
ENDSEC
  0
SECTION
  2
BLOCKS
  0
ENDSEC
  0
SECTION
  2
ENTITIES
  0
LINE
  8
_1-d_
  6
CONTINUOUS
 62
  161
 10
175.79459302532058
 20
8.9366512042542183
 11
175.79459302532058
 21
4.9366512042542183
  0
LINE
  8
_1-d_
  6
CONTINUOUS
 62
  161
 10
172.79459302532058
 20
6.9366512042542183
 11
175.79459302532058
 21
8.9366512042542183
  0
LINE
  8
_1-d_
  6
CONTINUOUS
 62
  161
 10
172.79459302532058
 20
6.9366512042542183
 11
175.79459302532058
 21
4.9366512042542183
  0
LINE
  8
_1-d_
  6
CONTINUOUS
 62
  161
 10
172.79459302532058
 20
6.9366512042542183
 11
175.79459302532058
 21
6.9366512042542183
  0
LINE
  8
_1-d_
  6
CONTINUOUS
 62
  161
 10
182.47780853187129
 20
6.9138002695595446
 11
182.13405853187129
 21
6.2263002695595446
  0
LINE
  8
_1-d_
  6
CONTINUOUS
 62
  161
 10
182.13405853187129
 20
6.2263002695595446
 11
181.446558412662
 21
5.5388002695595446
  0
LINE
  8
_1-d_
  6
CONTINUOUS
 62
  161
 10
181.446558412662
 20
5.5388002695595446
 11
180.75905847226664
 21
5.1950502695595446
  0
LINE
  8
_1-d_
  6
CONTINUOUS
 62
  161
 10
180.75905847226664
 20
5.1950502695595446
 11
179.04030847226664
 21
5.1950502695595446
  0
LINE
  8
_1-d_
  6
CONTINUOUS
 62
  161
 10
179.04030847226664
 20
5.1950502695595446
 11
178.352808412662
 21
5.5388002695595446
  0
LINE
  8
_1-d_
  6
CONTINUOUS
 62
  161
 10
178.352808412662
 20
5.5388002695595446
 11
177.66530853187129
 21
6.2263002695595446
  0
LINE
  8
_1-d_
  6
CONTINUOUS
 62
  161
 10
177.66530853187129
 20
6.2263002695595446
 11
177.32155853187129
 21
6.9138002695595446
  0
LINE
  8
_1-d_
  6
CONTINUOUS
 62
  161
 10
177.32155853187129
 20
6.9138002695595446
 11
177.32155853187129
 21
8.2888002695595446
  0
LINE
  8
_1-d_
  6
CONTINUOUS
 62
  161
 10
177.32155853187129
 20
8.2888002695595446
 11
177.66530853187129
 21
8.9763002695595446
  0
LINE
  8
_1-d_
  6
CONTINUOUS
 62
  161
 10
177.66530853187129
 20
8.9763002695595446
 11
178.352808412662
 21
9.6638002695595446
  0
LINE
  8
_1-d_
  6
CONTINUOUS
 62
  161
 10
178.352808412662
 20
9.6638002695595446
 11
179.04030847226664
 21
10.007550269559545
  0
LINE
  8
_1-d_
  6
CONTINUOUS
 62
  161
 10
179.04030847226664
 20
10.007550269559545
 11
180.75905847226664
 21
10.007550269559545
  0
LINE
  8
_1-d_
  6
CONTINUOUS
 62
  161
 10
180.75905847226664
 20
10.007550269559545
 11
181.446558412662
 21
9.6638002695595446
  0
LINE
  8
_1-d_
  6
CONTINUOUS
 62
  161
 10
181.446558412662
 20
9.6638002695595446
 11
182.13405853187129
 21
8.9763002695595446
  0
LINE
  8
_1-d_
  6
CONTINUOUS
 62
  161
 10
182.13405853187129
 20
8.9763002695595446
 11
182.47780853187129
 21
8.2888002695595446
  0
LINE
  8
_1-d_
  6
CONTINUOUS
 62
  161
 10
182.47780853187129
 20
8.2888002695595446
 11
182.47780853187129
 21
6.9138002695595446
  0
LINE
  8
_1-d_
  6
CONTINUOUS
 62
  161
 10
180.75905847226664
 20
6.5700502695595446
 11
181.446558412662
 21
7.2575502695595446
  0
LINE
  8
_1-d_
  6
CONTINUOUS
 62
  161
 10
181.446558412662
 20
7.2575502695595446
 11
181.446558412662
 21
7.9450502695595446
  0
LINE
  8
_1-d_
  6
CONTINUOUS
 62
  161
 10
181.446558412662
 20
7.9450502695595446
 11
180.75905847226664
 21
8.6325502695595446
  0
LINE
  8
_1-d_
  6
CONTINUOUS
 62
  161
 10
180.75905847226664
 20
8.6325502695595446
 11
180.41530847226664
 21
8.6325502695595446
  0
LINE
  8
_1-d_
  6
CONTINUOUS
 62
  161
 10
180.41530847226664
 20
8.6325502695595446
 11
178.696558412662
 21
6.5700502695595446
  0
LINE
  8
_1-d_
  6
CONTINUOUS
 62
  161
 10
178.696558412662
 20
6.5700502695595446
 11
178.352808412662
 21
6.5700502695595446
  0
LINE
  8
_1-d_
  6
CONTINUOUS
 62
  161
 10
178.352808412662
 20
6.5700502695595446
 11
178.352808412662
 21
8.6325502695595446
  0
LINE
  8
_1-d_
  6
CONTINUOUS
 62
  161
 10
178.352808412662
 20
8.6325502695595446
 11
179.04030847226664
 21
8.6325502695595446
  0
LINE
  8
_1-d_
  6
CONTINUOUS
 62
  161
 10
161.23032532639979
 20
37.554519081098306
 11
165.23032532639979
 21
37.554519081098306
  0
LINE
  8
_1-d_
  6
CONTINUOUS
 62
  161
 10
163.23032532639979
 20
40.554519081098306
 11
161.23032532639979
 21
37.554519081098306
  0
LINE
  8
_1-d_
  6
CONTINUOUS
 62
  161
 10
163.23032532639979
 20
40.554519081098306
 11
165.23032532639979
 21
37.554519081098306
  0
LINE
  8
_1-d_
  6
CONTINUOUS
 62
  161
 10
163.23032532639979
 20
40.554519081098306
 11
163.23032532639979
 21
37.554519081098306
  0
LINE
  8
_1-d_
  6
CONTINUOUS
 62
  161
 10
161.3155006645589
 20
71.144521798014992
 11
165.3155006645589
 21
71.144521798014992
  0
LINE
  8
_1-d_
  6
CONTINUOUS
 62
  161
 10
163.3155006645589
 20
74.144521798014992
 11
161.3155006645589
 21
71.144521798014992
  0
LINE
  8
_1-d_
  6
CONTINUOUS
 62
  161
 10
163.3155006645589
 20
74.144521798014992
 11
165.3155006645589
 21
71.144521798014992
  0
LINE
  8
_1-d_
  6
CONTINUOUS
 62
  161
 10
163.3155006645589
 20
74.144521798014992
 11
163.3155006645589
 21
71.144521798014992
  0
LINE
  8
_1-d_
  6
CONTINUOUS
 62
  161
 10
158.94003789479396
 20
86.045875519320944
 11
162.40413950993172
 21
88.045875519320944
  0
LINE
  8
_1-d_
  6
CONTINUOUS
 62
  161
 10
159.17208870236283
 20
89.64395173067426
 11
158.94003789479396
 21
86.045875519320944
  0
LINE
  8
_1-d_
  6
CONTINUOUS
 62
  161
 10
159.17208870236283
 20
89.64395173067426
 11
162.40413950993172
 21
88.045875519320944
  0
LINE
  8
_1-d_
  6
CONTINUOUS
 62
  161
 10
159.17208870236283
 20
89.64395173067426
 11
160.67208870236283
 21
87.045875519320944
  0
LINE
  8
_1-d_
  6
CONTINUOUS
 62
  161
 10
78.572268036278388
 20
9.6453038394901967
 11
78.572268036278388
 21
5.6453038394901967
  0
LINE
  8
_1-d_
  6
CONTINUOUS
 62
  161
 10
81.572268036278388
 20
7.6453038394901967
 11
78.572268036278388
 21
9.6453038394901967
  0
LINE
  8
_1-d_
  6
CONTINUOUS
 62
  161
 10
81.572268036278388
 20
7.6453038394901967
 11
78.572268036278388
 21
5.6453038394901967
  0
LINE
  8
_1-d_
  6
CONTINUOUS
 62
  161
 10
81.572268036278388
 20
7.6453038394901967
 11
78.572268036278388
 21
7.6453038394901967
  0
LINE
  8
_1-d_
  6
CONTINUOUS
 62
  161
 10
247.00471621901872
 20
164.05980478658597
 11
251.00471621901872
 21
164.05980478658597
  0
LINE
  8
_1-d_
  6
CONTINUOUS
 62
  161
 10
249.00471621901872
 20
167.05980478658597
 11
247.00471621901872
 21
164.05980478658597
  0
LINE
  8
_1-d_
  6
CONTINUOUS
 62
  161
 10
249.00471621901872
 20
167.05980478658597
 11
251.00471621901872
 21
164.05980478658597
  0
LINE
  8
_1-d_
  6
CONTINUOUS
 62
  161
 10
249.00471621901872
 20
167.05980478658597
 11
249.00471621901872
 21
164.05980478658597
  0
LINE
  8
_1-d_
  6
CONTINUOUS
 62
  161
 10
247.08989155717782
 20
197.64980750350264
 11
251.08989155717782
 21
197.64980750350264
  0
LINE
  8
_1-d_
  6
CONTINUOUS
 62
  161
 10
249.08989155717782
 20
200.64980750350264
 11
247.08989155717782
 21
197.64980750350264
  0
LINE
  8
_1-d_
  6
CONTINUOUS
 62
  161
 10
249.08989155717782
 20
200.64980750350264
 11
251.08989155717782
 21
197.64980750350264
  0
LINE
  8
_1-d_
  6
CONTINUOUS
 62
  161
 10
249.08989155717782
 20
200.64980750350264
 11
249.08989155717782
 21
197.64980750350264
  0
LINE
  8
_1-d_
  6
CONTINUOUS
 62
  161
 10
244.71442878741291
 20
212.5511612248086
 11
248.17853040255065
 21
214.5511612248086
  0
LINE
  8
_1-d_
  6
CONTINUOUS
 62
  161
 10
244.94647959498178
 20
216.14923743616191
 11
244.71442878741291
 21
212.5511612248086
  0
LINE
  8
_1-d_
  6
CONTINUOUS
 62
  161
 10
244.94647959498178
 20
216.14923743616191
 11
248.17853040255065
 21
214.5511612248086
  0
LINE
  8
_1-d_
  6
CONTINUOUS
 62
  161
 10
244.94647959498178
 20
216.14923743616191
 11
246.44647959498178
 21
213.5511612248086
  0
LINE
  8
_1-d_
  6
CONTINUOUS
 62
  161
 10
175.98708127089088
 20
20.773577080682941
 11
176.67458121128624
 21
20.429827080682941
  0
LINE
  8
_1-d_
  6
CONTINUOUS
 62
  161
 10
176.67458121128624
 20
20.429827080682941
 11
177.36208121128624
 21
19.742327080682941
  0
LINE
  8
_1-d_
  6
CONTINUOUS
 62
  161
 10
177.36208121128624
 20
19.742327080682941
 11
177.70583121128624
 21
19.054827080682941
  0
LINE
  8
_1-d_
  6
CONTINUOUS
 62
  161
 10
177.70583121128624
 20
19.054827080682941
 11
177.70583121128624
 21
17.336077080682941
  0
LINE
  8
_1-d_
  6
CONTINUOUS
 62
  161
 10
177.70583121128624
 20
17.336077080682941
 11
177.36208121128624
 21
16.648577080682941
  0
LINE
  8
_1-d_
  6
CONTINUOUS
 62
  161
 10
177.36208121128624
 20
16.648577080682941
 11
176.67458121128624
 21
15.961077080682941
  0
LINE
  8
_1-d_
  6
CONTINUOUS
 62
  161
 10
176.67458121128624
 20
15.961077080682941
 11
175.98708127089088
 21
15.617327080682941
  0
LINE
  8
_1-d_
  6
CONTINUOUS
 62
  161
 10
175.98708127089088
 20
15.617327080682941
 11
174.61208127089088
 21
15.617327080682941
  0
LINE
  8
_1-d_
  6
CONTINUOUS
 62
  161
 10
174.61208127089088
 20
15.617327080682941
 11
173.92458121128624
 21
15.961077080682941
  0
LINE
  8
_1-d_
  6
CONTINUOUS
 62
  161
 10
173.92458121128624
 20
15.961077080682941
 11
173.23708121128624
 21
16.648577080682941
  0
LINE
  8
_1-d_
  6
CONTINUOUS
 62
  161
 10
173.23708121128624
 20
16.648577080682941
 11
172.89333121128624
 21
17.336077080682941
  0
LINE
  8
_1-d_
  6
CONTINUOUS
 62
  161
 10
172.89333121128624
 20
17.336077080682941
 11
172.89333121128624
 21
19.054827080682941
  0
LINE
  8
_1-d_
  6
CONTINUOUS
 62
  161
 10
172.89333121128624
 20
19.054827080682941
 11
173.23708121128624
 21
19.742327080682941
  0
LINE
  8
_1-d_
  6
CONTINUOUS
 62
  161
 10
173.23708121128624
 20
19.742327080682941
 11
173.92458121128624
 21
20.429827080682941
  0
LINE
  8
_1-d_
  6
CONTINUOUS
 62
  161
 10
173.92458121128624
 20
20.429827080682941
 11
174.61208127089088
 21
20.773577080682941
  0
LINE
  8
_1-d_
  6
CONTINUOUS
 62
  161
 10
174.61208127089088
 20
20.773577080682941
 11
175.98708127089088
 21
20.773577080682941
  0
LINE
  8
_1-d_
  6
CONTINUOUS
 62
  161
 10
176.33083121128624
 20
18.711077080682941
 11
175.98708127089088
 21
19.742327080682941
  0
LINE
  8
_1-d_
  6
CONTINUOUS
 62
  161
 10
175.98708127089088
 20
19.742327080682941
 11
174.26833121128624
 21
19.742327080682941
  0
LINE
  8
_1-d_
  6
CONTINUOUS
 62
  161
 10
174.26833121128624
 20
19.742327080682941
 11
175.29958125878369
 21
17.336077080682941
  0
LINE
  8
_1-d_
  6
CONTINUOUS
 62
  161
 10
175.29958125878369
 20
17.336077080682941
 11
175.29958125878369
 21
16.648577080682941
  0
LINE
  8
_1-d_
  6
CONTINUOUS
 62
  161
 10
176.11910845790709
 20
32.106943576063344
 11
176.80660839830244
 21
31.763193576063344
  0
LINE
  8
_1-d_
  6
CONTINUOUS
 62
  161
 10
176.80660839830244
 20
31.763193576063344
 11
177.49410839830244
 21
31.075693576063344
  0
LINE
  8
_1-d_
  6
CONTINUOUS
 62
  161
 10
177.49410839830244
 20
31.075693576063344
 11
177.83785839830244
 21
30.388193576063344
  0
LINE
  8
_1-d_
  6
CONTINUOUS
 62
  161
 10
177.83785839830244
 20
30.388193576063344
 11
177.83785839830244
 21
28.669443576063344
  0
LINE
  8
_1-d_
  6
CONTINUOUS
 62
  161
 10
177.83785839830244
 20
28.669443576063344
 11
177.49410839830244
 21
27.981943576063344
  0
LINE
  8
_1-d_
  6
CONTINUOUS
 62
  161
 10
177.49410839830244
 20
27.981943576063344
 11
176.80660839830244
 21
27.294443576063344
  0
LINE
  8
_1-d_
  6
CONTINUOUS
 62
  161
 10
176.80660839830244
 20
27.294443576063344
 11
176.11910845790709
 21
26.950693576063344
  0
LINE
  8
_1-d_
  6
CONTINUOUS
 62
  161
 10
176.11910845790709
 20
26.950693576063344
 11
174.74410845790709
 21
26.950693576063344
  0
LINE
  8
_1-d_
  6
CONTINUOUS
 62
  161
 10
174.74410845790709
 20
26.950693576063344
 11
174.05660839830244
 21
27.294443576063344
  0
LINE
  8
_1-d_
  6
CONTINUOUS
 62
  161
 10
174.05660839830244
 20
27.294443576063344
 11
173.36910839830244
 21
27.981943576063344
  0
LINE
  8
_1-d_
  6
CONTINUOUS
 62
  161
 10
173.36910839830244
 20
27.981943576063344
 11
173.02535839830244
 21
28.669443576063344
  0
LINE
  8
_1-d_
  6
CONTINUOUS
 62
  161
 10
173.02535839830244
 20
28.669443576063344
 11
173.02535839830244
 21
30.388193576063344
  0
LINE
  8
_1-d_
  6
CONTINUOUS
 62
  161
 10
173.02535839830244
 20
30.388193576063344
 11
173.36910839830244
 21
31.075693576063344
  0
LINE
  8
_1-d_
  6
CONTINUOUS
 62
  161
 10
173.36910839830244
 20
31.075693576063344
 11
174.05660839830244
 21
31.763193576063344
  0
LINE
  8
_1-d_
  6
CONTINUOUS
 62
  161
 10
174.05660839830244
 20
31.763193576063344
 11
174.74410845790709
 21
32.106943576063344
  0
LINE
  8
_1-d_
  6
CONTINUOUS
 62
  161
 10
174.74410845790709
 20
32.106943576063344
 11
176.11910845790709
 21
32.106943576063344
  0
LINE
  8
_1-d_
  6
CONTINUOUS
 62
  161
 10
176.46285839830244
 20
30.044443576063344
 11
176.11910845790709
 21
31.075693576063344
  0
LINE
  8
_1-d_
  6
CONTINUOUS
 62
  161
 10
176.11910845790709
 20
31.075693576063344
 11
174.40035839830244
 21
31.075693576063344
  0
LINE
  8
_1-d_
  6
CONTINUOUS
 62
  161
 10
174.40035839830244
 20
31.075693576063344
 11
175.4316084457999
 21
28.669443576063344
  0
LINE
  8
_1-d_
  6
CONTINUOUS
 62
  161
 10
175.4316084457999
 20
28.669443576063344
 11
175.4316084457999
 21
27.981943576063344
  0
LINE
  8
_1-d_
  6
CONTINUOUS
 62
  161
 10
173.22381412485882
 20
58.82986462324547
 11
173.56756412485882
 21
59.51736462324547
  0
LINE
  8
_1-d_
  6
CONTINUOUS
 62
  161
 10
173.56756412485882
 20
59.51736462324547
 11
174.25506400564953
 21
60.204864623245456
  0
LINE
  8
_1-d_
  6
CONTINUOUS
 62
  161
 10
174.25506400564953
 20
60.204864623245456
 11
174.94256400564953
 21
60.548614623245456
  0
LINE
  8
_1-d_
  6
CONTINUOUS
 62
  161
 10
174.94256400564953
 20
60.548614623245456
 11
176.66131400564953
 21
60.548614623245456
  0
LINE
  8
_1-d_
  6
CONTINUOUS
 62
  161
 10
176.66131400564953
 20
60.548614623245456
 11
177.34881400564953
 21
60.204864623245456
  0
LINE
  8
_1-d_
  6
CONTINUOUS
 62
  161
 10
177.34881400564953
 20
60.204864623245456
 11
178.03631412485882
 21
59.517364623245456
  0
LINE
  8
_1-d_
  6
CONTINUOUS
 62
  161
 10
178.03631412485882
 20
59.517364623245456
 11
178.38006412485882
 21
58.829864623245456
  0
LINE
  8
_1-d_
  6
CONTINUOUS
 62
  161
 10
178.38006412485882
 20
58.829864623245456
 11
178.38006412485882
 21
57.454864623245456
  0
LINE
  8
_1-d_
  6
CONTINUOUS
 62
  161
 10
178.38006412485882
 20
57.454864623245456
 11
178.03631412485882
 21
56.767364623245456
  0
LINE
  8
_1-d_
  6
CONTINUOUS
 62
  161
 10
178.03631412485882
 20
56.767364623245456
 11
177.34881400564953
 21
56.079864623245456
  0
LINE
  8
_1-d_
  6
CONTINUOUS
 62
  161
 10
177.34881400564953
 20
56.079864623245456
 11
176.66131400564953
 21
55.736114623245456
  0
LINE
  8
_1-d_
  6
CONTINUOUS
 62
  161
 10
176.66131400564953
 20
55.736114623245456
 11
174.94256400564953
 21
55.736114623245456
  0
LINE
  8
_1-d_
  6
CONTINUOUS
 62
  161
 10
174.94256400564953
 20
55.736114623245456
 11
174.25506400564953
 21
56.07986462324547
  0
LINE
  8
_1-d_
  6
CONTINUOUS
 62
  161
 10
174.25506400564953
 20
56.07986462324547
 11
173.56756412485882
 21
56.76736462324547
  0
LINE
  8
_1-d_
  6
CONTINUOUS
 62
  161
 10
173.56756412485882
 20
56.76736462324547
 11
173.22381412485882
 21
57.45486462324547
  0
LINE
  8
_1-d_
  6
CONTINUOUS
 62
  161
 10
173.22381412485882
 20
57.45486462324547
 11
173.22381412485882
 21
58.82986462324547
  0
LINE
  8
_1-d_
  6
CONTINUOUS
 62
  161
 10
174.25506400564953
 20
57.79861462324547
 11
174.25506400564953
 21
58.48611462324547
  0
LINE
  8
_1-d_
  6
CONTINUOUS
 62
  161
 10
174.25506400564953
 20
58.48611462324547
 11
174.94256400564953
 21
59.173614623245456
  0
LINE
  8
_1-d_
  6
CONTINUOUS
 62
  161
 10
174.94256400564953
 20
59.173614623245456
 11
175.63006402055069
 21
58.486114623245456
  0
LINE
  8
_1-d_
  6
CONTINUOUS
 62
  161
 10
175.63006402055069
 20
58.486114623245456
 11
175.63006402055069
 21
57.79861462324547
  0
LINE
  8
_1-d_
  6
CONTINUOUS
 62
  161
 10
175.63006402055069
 20
57.79861462324547
 11
176.31756400564953
 21
57.111114623245456
  0
LINE
  8
_1-d_
  6
CONTINUOUS
 62
  161
 10
176.31756400564953
 20
57.111114623245456
 11
176.66131400564953
 21
57.111114623245456
  0
LINE
  8
_1-d_
  6
CONTINUOUS
 62
  161
 10
176.66131400564953
 20
57.111114623245456
 11
177.34881400564953
 21
57.798614623245456
  0
LINE
  8
_1-d_
  6
CONTINUOUS
 62
  161
 10
177.34881400564953
 20
57.798614623245456
 11
177.34881400564953
 21
58.486114623245456
  0
LINE
  8
_1-d_
  6
CONTINUOUS
 62
  161
 10
177.34881400564953
 20
58.486114623245456
 11
176.66131400564953
 21
59.173614623245456
  0
LINE
  8
_1-d_
  6
CONTINUOUS
 62
  161
 10
176.66131400564953
 20
59.173614623245456
 11
176.31756400564953
 21
59.173614623245456
  0
LINE
  8
_1-d_
  6
CONTINUOUS
 62
  161
 10
176.31756400564953
 20
59.173614623245456
 11
175.63006402055069
 21
58.486114623245456
  0
LINE
  8
_1-d_
  6
CONTINUOUS
 62
  161
 10
175.63006402055069
 20
57.79861462324547
 11
174.94256400564953
 21
57.11111462324547
  0
LINE
  8
_1-d_
  6
CONTINUOUS
 62
  161
 10
174.94256400564953
 20
57.11111462324547
 11
174.25506400564953
 21
57.79861462324547
  0
LINE
  8
_1-d_
  6
CONTINUOUS
 62
  161
 10
174.97744831385805
 20
117.18229295462294
 11
172.72468826117708
 21
117.18229295462294
  0
LINE
  8
_1-d_
  6
CONTINUOUS
 62
  161
 10
174.70633080544664
 20
121.61712135523481
 11
175.393830745842
 21
121.27337135523481
  0
LINE
  8
_1-d_
  6
CONTINUOUS
 62
  161
 10
175.393830745842
 20
121.27337135523481
 11
176.08133086505129
 21
120.58587123602553
  0
LINE
  8
_1-d_
  6
CONTINUOUS
 62
  161
 10
176.08133086505129
 20
120.58587123602553
 11
176.42508086505129
 21
119.89837129563017
  0
LINE
  8
_1-d_
  6
CONTINUOUS
 62
  161
 10
176.42508086505129
 20
119.89837129563017
 11
176.42508086505129
 21
118.17962129563017
  0
LINE
  8
_1-d_
  6
CONTINUOUS
 62
  161
 10
176.42508086505129
 20
118.17962129563017
 11
176.08133086505129
 21
117.49212123602553
  0
LINE
  8
_1-d_
  6
CONTINUOUS
 62
  161
 10
176.08133086505129
 20
117.49212123602553
 11
175.393830745842
 21
116.80462135523481
  0
LINE
  8
_1-d_
  6
CONTINUOUS
 62
  161
 10
175.393830745842
 20
116.80462135523481
 11
174.70633080544664
 21
116.46087135523481
  0
LINE
  8
_1-d_
  6
CONTINUOUS
 62
  161
 10
174.70633080544664
 20
116.46087135523481
 11
173.33133080544664
 21
116.46087135523481
  0
LINE
  8
_1-d_
  6
CONTINUOUS
 62
  161
 10
173.33133080544664
 20
116.46087135523481
 11
172.643830745842
 21
116.80462135523481
  0
LINE
  8
_1-d_
  6
CONTINUOUS
 62
  161
 10
172.643830745842
 20
116.80462135523481
 11
171.95633086505129
 21
117.49212123602553
  0
LINE
  8
_1-d_
  6
CONTINUOUS
 62
  161
 10
171.95633086505129
 20
117.49212123602553
 11
171.61258086505129
 21
118.17962129563017
  0
LINE
  8
_1-d_
  6
CONTINUOUS
 62
  161
 10
171.61258086505129
 20
118.17962129563017
 11
171.61258086505129
 21
119.89837129563017
  0
LINE
  8
_1-d_
  6
CONTINUOUS
 62
  161
 10
171.61258086505129
 20
119.89837129563017
 11
171.95633086505129
 21
120.58587123602553
  0
LINE
  8
_1-d_
  6
CONTINUOUS
 62
  161
 10
171.95633086505129
 20
120.58587123602553
 11
172.643830745842
 21
121.27337135523481
  0
LINE
  8
_1-d_
  6
CONTINUOUS
 62
  161
 10
172.643830745842
 20
121.27337135523481
 11
173.33133080544664
 21
121.61712135523481
  0
LINE
  8
_1-d_
  6
CONTINUOUS
 62
  161
 10
173.33133080544664
 20
121.61712135523481
 11
174.70633080544664
 21
121.61712135523481
  0
LINE
  8
_1-d_
  6
CONTINUOUS
 62
  161
 10
172.98758080544664
 20
119.55462129563017
 11
173.67508077564432
 21
118.86712126582785
  0
LINE
  8
_1-d_
  6
CONTINUOUS
 62
  161
 10
173.67508077564432
 20
118.86712126582785
 11
174.36258077564432
 21
118.86712126582785
  0
LINE
  8
_1-d_
  6
CONTINUOUS
 62
  161
 10
174.36258077564432
 20
118.86712126582785
 11
175.050080745842
 21
119.55462129563017
  0
LINE
  8
_1-d_
  6
CONTINUOUS
 62
  161
 10
175.050080745842
 20
119.55462129563017
 11
175.050080745842
 21
119.89837129563017
  0
LINE
  8
_1-d_
  6
CONTINUOUS
 62
  161
 10
175.050080745842
 20
119.89837129563017
 11
174.36258077564432
 21
120.58587123602553
  0
LINE
  8
_1-d_
  6
CONTINUOUS
 62
  161
 10
174.36258077564432
 20
120.58587123602553
 11
173.67508077564432
 21
120.58587123602553
  0
LINE
  8
_1-d_
  6
CONTINUOUS
 62
  161
 10
173.67508077564432
 20
120.58587123602553
 11
172.98758080544664
 21
119.89837129563017
  0
LINE
  8
_1-d_
  6
CONTINUOUS
 62
  161
 10
172.98758080544664
 20
119.89837129563017
 11
172.98758080544664
 21
118.86712126582785
  0
LINE
  8
_1-d_
  6
CONTINUOUS
 62
  161
 10
172.98758080544664
 20
118.86712126582785
 11
173.33133080544664
 21
118.17962129563017
  0
LINE
  8
_1-d_
  6
CONTINUOUS
 62
  161
 10
173.33133080544664
 20
118.17962129563017
 11
174.01883078682019
 21
117.49212123602553
  0
LINE
  8
_1-d_
  6
CONTINUOUS
 62
  161
 10
174.01883078682019
 20
117.49212123602553
 11
174.70633080544664
 21
117.49212123602553
  0
LINE
  8
_1-d_
  6
CONTINUOUS
 62
  161
 10
138.99540773473069
 20
111.9883350683169
 11
138.30790767512605
 21
112.3320850683169
  0
LINE
  8
_1-d_
  6
CONTINUOUS
 62
  161
 10
138.30790767512605
 20
112.3320850683169
 11
137.62040779433534
 21
113.0195850683169
  0
LINE
  8
_1-d_
  6
CONTINUOUS
 62
  161
 10
137.62040779433534
 20
113.0195850683169
 11
137.27665779433534
 21
113.70708512792154
  0
LINE
  8
_1-d_
  6
CONTINUOUS
 62
  161
 10
137.27665779433534
 20
113.70708512792154
 11
137.27665779433534
 21
115.42583512792154
  0
LINE
  8
_1-d_
  6
CONTINUOUS
 62
  161
 10
137.27665779433534
 20
115.42583512792154
 11
137.62040779433534
 21
116.1133350683169
  0
LINE
  8
_1-d_
  6
CONTINUOUS
 62
  161
 10
137.62040779433534
 20
116.1133350683169
 11
138.30790767512605
 21
116.8008350683169
  0
LINE
  8
_1-d_
  6
CONTINUOUS
 62
  161
 10
138.30790767512605
 20
116.8008350683169
 11
138.99540773473069
 21
117.1445850683169
  0
LINE
  8
_1-d_
  6
CONTINUOUS
 62
  161
 10
138.99540773473069
 20
117.1445850683169
 11
140.37040773473069
 21
117.1445850683169
  0
LINE
  8
_1-d_
  6
CONTINUOUS
 62
  161
 10
140.37040773473069
 20
117.1445850683169
 11
141.05790767512605
 21
116.8008350683169
  0
LINE
  8
_1-d_
  6
CONTINUOUS
 62
  161
 10
141.05790767512605
 20
116.8008350683169
 11
141.74540779433534
 21
116.1133350683169
  0
LINE
  8
_1-d_
  6
CONTINUOUS
 62
  161
 10
141.74540779433534
 20
116.1133350683169
 11
142.08915779433534
 21
115.42583512792154
  0
LINE
  8
_1-d_
  6
CONTINUOUS
 62
  161
 10
142.08915779433534
 20
115.42583512792154
 11
142.08915779433534
 21
113.70708512792154
  0
LINE
  8
_1-d_
  6
CONTINUOUS
 62
  161
 10
142.08915779433534
 20
113.70708512792154
 11
141.74540779433534
 21
113.0195850683169
  0
LINE
  8
_1-d_
  6
CONTINUOUS
 62
  161
 10
141.74540779433534
 20
113.0195850683169
 11
141.05790767512605
 21
112.3320850683169
  0
LINE
  8
_1-d_
  6
CONTINUOUS
 62
  161
 10
141.05790767512605
 20
112.3320850683169
 11
140.37040773473069
 21
111.9883350683169
  0
LINE
  8
_1-d_
  6
CONTINUOUS
 62
  161
 10
140.37040773473069
 20
111.9883350683169
 11
138.99540773473069
 21
111.9883350683169
  0
LINE
  8
_1-d_
  6
CONTINUOUS
 62
  161
 10
138.30790767512605
 20
113.3633350683169
 11
138.65165767512605
 21
113.0195850683169
  0
LINE
  8
_1-d_
  6
CONTINUOUS
 62
  161
 10
138.65165767512605
 20
113.0195850683169
 11
138.65165767512605
 21
116.1133350683169
  0
LINE
  8
_1-d_
  6
CONTINUOUS
 62
  161
 10
138.30790767512605
 20
116.1133350683169
 11
138.99540773473069
 21
116.1133350683169
  0
LINE
  8
_1-d_
  6
CONTINUOUS
 62
  161
 10
139.6829077310054
 20
115.7695850683169
 11
140.02665773473069
 21
116.1133350683169
  0
LINE
  8
_1-d_
  6
CONTINUOUS
 62
  161
 10
140.02665773473069
 20
116.1133350683169
 11
140.37040773473069
 21
116.1133350683169
  0
LINE
  8
_1-d_
  6
CONTINUOUS
 62
  161
 10
140.37040773473069
 20
116.1133350683169
 11
140.71415773473069
 21
115.7695850683169
  0
LINE
  8
_1-d_
  6
CONTINUOUS
 62
  161
 10
140.71415773473069
 20
115.7695850683169
 11
140.71415773473069
 21
113.3633350683169
  0
LINE
  8
_1-d_
  6
CONTINUOUS
 62
  161
 10
140.71415773473069
 20
113.3633350683169
 11
140.37040773473069
 21
113.0195850683169
  0
LINE
  8
_1-d_
  6
CONTINUOUS
 62
  161
 10
140.37040773473069
 20
113.0195850683169
 11
140.02665773473069
 21
113.0195850683169
  0
LINE
  8
_1-d_
  6
CONTINUOUS
 62
  161
 10
140.02665773473069
 20
113.0195850683169
 11
139.6829077310054
 21
113.3633350683169
  0
LINE
  8
_1-d_
  6
CONTINUOUS
 62
  161
 10
139.6829077310054
 20
113.3633350683169
 11
139.6829077310054
 21
115.7695850683169
  0
LINE
  8
_1-d_
  6
CONTINUOUS
 62
  161
 10
158.75926049641635
 20
110.35183208202912
 11
159.44676055602099
 21
110.00808208202912
  0
LINE
  8
_1-d_
  6
CONTINUOUS
 62
  161
 10
159.44676055602099
 20
110.00808208202912
 11
160.1342604368117
 21
109.32058208202912
  0
LINE
  8
_1-d_
  6
CONTINUOUS
 62
  161
 10
160.1342604368117
 20
109.32058208202912
 11
160.4780104368117
 21
108.63308202242447
  0
LINE
  8
_1-d_
  6
CONTINUOUS
 62
  161
 10
160.4780104368117
 20
108.63308202242447
 11
160.4780104368117
 21
106.91433202242447
  0
LINE
  8
_1-d_
  6
CONTINUOUS
 62
  161
 10
160.4780104368117
 20
106.91433202242447
 11
160.1342604368117
 21
106.22683208202912
  0
LINE
  8
_1-d_
  6
CONTINUOUS
 62
  161
 10
160.1342604368117
 20
106.22683208202912
 11
159.44676055602099
 21
105.53933208202912
  0
LINE
  8
_1-d_
  6
CONTINUOUS
 62
  161
 10
159.44676055602099
 20
105.53933208202912
 11
158.75926049641635
 21
105.19558208202912
  0
LINE
  8
_1-d_
  6
CONTINUOUS
 62
  161
 10
158.75926049641635
 20
105.19558208202912
 11
157.38426049641635
 21
105.19558208202912
  0
LINE
  8
_1-d_
  6
CONTINUOUS
 62
  161
 10
157.38426049641635
 20
105.19558208202912
 11
156.69676055602099
 21
105.53933208202912
  0
LINE
  8
_1-d_
  6
CONTINUOUS
 62
  161
 10
156.69676055602099
 20
105.53933208202912
 11
156.0092604368117
 21
106.22683208202912
  0
LINE
  8
_1-d_
  6
CONTINUOUS
 62
  161
 10
156.0092604368117
 20
106.22683208202912
 11
155.6655104368117
 21
106.91433202242447
  0
LINE
  8
_1-d_
  6
CONTINUOUS
 62
  161
 10
155.6655104368117
 20
106.91433202242447
 11
155.6655104368117
 21
108.63308202242447
  0
LINE
  8
_1-d_
  6
CONTINUOUS
 62
  161
 10
155.6655104368117
 20
108.63308202242447
 11
156.0092604368117
 21
109.32058208202912
  0
LINE
  8
_1-d_
  6
CONTINUOUS
 62
  161
 10
156.0092604368117
 20
109.32058208202912
 11
156.69676055602099
 21
110.00808208202912
  0
LINE
  8
_1-d_
  6
CONTINUOUS
 62
  161
 10
156.69676055602099
 20
110.00808208202912
 11
157.38426049641635
 21
110.35183208202912
  0
LINE
  8
_1-d_
  6
CONTINUOUS
 62
  161
 10
157.38426049641635
 20
110.35183208202912
 11
158.75926049641635
 21
110.35183208202912
  0
LINE
  8
_1-d_
  6
CONTINUOUS
 62
  161
 10
159.44676055602099
 20
108.97683208202912
 11
159.10301055602099
 21
109.32058208202912
  0
LINE
  8
_1-d_
  6
CONTINUOUS
 62
  161
 10
159.10301055602099
 20
109.32058208202912
 11
159.10301055602099
 21
106.22683208202912
  0
LINE
  8
_1-d_
  6
CONTINUOUS
 62
  161
 10
159.44676055602099
 20
106.22683208202912
 11
158.75926049641635
 21
106.22683208202912
  0
LINE
  8
_1-d_
  6
CONTINUOUS
 62
  161
 10
158.07176050014164
 20
106.57058208202912
 11
157.72801049641635
 21
106.22683208202912
  0
LINE
  8
_1-d_
  6
CONTINUOUS
 62
  161
 10
157.72801049641635
 20
106.22683208202912
 11
157.38426049641635
 21
106.22683208202912
  0
LINE
  8
_1-d_
  6
CONTINUOUS
 62
  161
 10
157.38426049641635
 20
106.22683208202912
 11
157.04051049641635
 21
106.57058208202912
  0
LINE
  8
_1-d_
  6
CONTINUOUS
 62
  161
 10
157.04051049641635
 20
106.57058208202912
 11
157.04051049641635
 21
108.97683208202912
  0
LINE
  8
_1-d_
  6
CONTINUOUS
 62
  161
 10
157.04051049641635
 20
108.97683208202912
 11
157.38426049641635
 21
109.32058208202912
  0
LINE
  8
_1-d_
  6
CONTINUOUS
 62
  161
 10
157.38426049641635
 20
109.32058208202912
 11
157.72801049641635
 21
109.32058208202912
  0
LINE
  8
_1-d_
  6
CONTINUOUS
 62
  161
 10
157.72801049641635
 20
109.32058208202912
 11
158.07176050014164
 21
108.97683208202912
  0
LINE
  8
_1-d_
  6
CONTINUOUS
 62
  161
 10
158.07176050014164
 20
108.97683208202912
 11
158.07176050014164
 21
106.57058208202912
  0
LINE
  8
_1-d_
  6
CONTINUOUS
 62
  161
 10
202.04851536242131
 20
187.57680005434429
 11
202.04851536242131
 21
191.57680005434429
  0
LINE
  8
_1-d_
  6
CONTINUOUS
 62
  161
 10
199.04851536242131
 20
189.57680005434429
 11
202.04851536242131
 21
187.57680005434429
  0
LINE
  8
_1-d_
  6
CONTINUOUS
 62
  161
 10
199.04851536242131
 20
189.57680005434429
 11
202.04851536242131
 21
191.57680005434429
  0
LINE
  8
_1-d_
  6
CONTINUOUS
 62
  161
 10
199.04851536242131
 20
189.57680005434429
 11
202.04851536242131
 21
189.57680005434429
  0
LINE
  8
_1-d_
  6
CONTINUOUS
 62
  161
 10
204.07753684997704
 20
189.05566125754959
 11
204.42128684997704
 21
188.71191125754959
  0
LINE
  8
_1-d_
  6
CONTINUOUS
 62
  161
 10
204.07753684997704
 20
190.08691125754959
 11
204.07753684997704
 21
189.05566125754959
  0
LINE
  8
_1-d_
  6
CONTINUOUS
 62
  161
 10
204.76503684997704
 20
190.77441125754959
 11
204.07753684997704
 21
190.08691125754959
  0
LINE
  8
_1-d_
  6
CONTINUOUS
 62
  161
 10
205.45253682017471
 20
190.77441125754959
 11
204.76503684997704
 21
190.77441125754959
  0
LINE
  8
_1-d_
  6
CONTINUOUS
 62
  161
 10
206.14003684997704
 20
190.08691125754959
 11
205.45253682017471
 21
190.77441125754959
  0
LINE
  8
_1-d_
  6
CONTINUOUS
 62
  161
 10
206.14003684997704
 20
189.39941125754959
 11
206.14003684997704
 21
190.08691125754959
  0
LINE
  8
_1-d_
  6
CONTINUOUS
 62
  161
 10
205.79628682017471
 20
188.71191125754959
 11
206.14003684997704
 21
189.39941125754959
  0
LINE
  8
_1-d_
  6
CONTINUOUS
 62
  161
 10
207.17128684997704
 20
188.71191125754959
 11
205.79628682017471
 21
188.71191125754959
  0
LINE
  8
_1-d_
  6
CONTINUOUS
 62
  161
 10
207.17128684997704
 20
190.43066125754959
 11
207.17128684997704
 21
188.71191125754959
  0
LINE
  8
_1-d_
  6
CONTINUOUS
 62
  161
 10
208.20253684997704
 20
190.43066125754959
 11
208.20253684997704
 21
189.05566125754959
  0
LINE
  8
_1-d_
  6
CONTINUOUS
 62
  161
 10
207.85878684997704
 20
191.11816125754959
 11
208.20253684997704
 21
190.43066125754959
  0
LINE
  8
_1-d_
  6
CONTINUOUS
 62
  161
 10
207.17128684997704
 20
191.80566137675888
 11
207.85878684997704
 21
191.11816125754959
  0
LINE
  8
_1-d_
  6
CONTINUOUS
 62
  161
 10
206.48378684997704
 20
192.14941137675888
 11
207.17128684997704
 21
191.80566137675888
  0
LINE
  8
_1-d_
  6
CONTINUOUS
 62
  161
 10
204.76503684997704
 20
192.14941137675888
 11
206.48378684997704
 21
192.14941137675888
  0
LINE
  8
_1-d_
  6
CONTINUOUS
 62
  161
 10
204.07753684997704
 20
191.80566137675888
 11
204.76503684997704
 21
192.14941137675888
  0
LINE
  8
_1-d_
  6
CONTINUOUS
 62
  161
 10
203.39003684997704
 20
191.11816125754959
 11
204.07753684997704
 21
191.80566137675888
  0
LINE
  8
_1-d_
  6
CONTINUOUS
 62
  161
 10
203.04628684997704
 20
190.43066125754959
 11
203.39003684997704
 21
191.11816125754959
  0
LINE
  8
_1-d_
  6
CONTINUOUS
 62
  161
 10
203.04628684997704
 20
189.05566125754959
 11
203.04628684997704
 21
190.43066125754959
  0
LINE
  8
_1-d_
  6
CONTINUOUS
 62
  161
 10
203.39003684997704
 20
188.36816125754959
 11
203.04628684997704
 21
189.05566125754959
  0
LINE
  8
_1-d_
  6
CONTINUOUS
 62
  161
 10
204.07753684997704
 20
187.68066137675888
 11
203.39003684997704
 21
188.36816125754959
  0
LINE
  8
_1-d_
  6
CONTINUOUS
 62
  161
 10
204.76503684997704
 20
187.33691137675888
 11
204.07753684997704
 21
187.68066137675888
  0
LINE
  8
_1-d_
  6
CONTINUOUS
 62
  161
 10
206.48378684997704
 20
187.33691137675888
 11
204.76503684997704
 21
187.33691137675888
  0
LINE
  8
_1-d_
  6
CONTINUOUS
 62
  161
 10
207.17128684997704
 20
187.68066137675888
 11
206.48378684997704
 21
187.33691137675888
  0
LINE
  8
_1-d_
  6
CONTINUOUS
 62
  161
 10
207.85878684997704
 20
188.36816125754959
 11
207.17128684997704
 21
187.68066137675888
  0
LINE
  8
_1-d_
  6
CONTINUOUS
 62
  161
 10
208.20253684997704
 20
189.05566125754959
 11
207.85878684997704
 21
188.36816125754959
  0
LINE
  8
_1-d_
  6
CONTINUOUS
 62
  161
 10
224.25350969691959
 20
204.19728780084753
 11
224.25350969691959
 21
200.19728780084753
  0
LINE
  8
_1-d_
  6
CONTINUOUS
 62
  161
 10
227.25350969691959
 20
202.19728780084753
 11
224.25350969691959
 21
204.19728780084753
  0
LINE
  8
_1-d_
  6
CONTINUOUS
 62
  161
 10
227.25350969691959
 20
202.19728780084753
 11
224.25350969691959
 21
200.19728780084753
  0
LINE
  8
_1-d_
  6
CONTINUOUS
 62
  161
 10
227.25350969691959
 20
202.19728780084753
 11
224.25350969691959
 21
202.19728780084753
  0
LINE
  8
_1-d_
  6
CONTINUOUS
 62
  161
 10
222.22448820936387
 20
202.71842659764221
 11
221.88073820936387
 21
203.06217659764221
  0
LINE
  8
_1-d_
  6
CONTINUOUS
 62
  161
 10
222.22448820936387
 20
201.68717659764221
 11
222.22448820936387
 21
202.71842659764221
  0
LINE
  8
_1-d_
  6
CONTINUOUS
 62
  161
 10
221.53698820936387
 20
200.99967659764221
 11
222.22448820936387
 21
201.68717659764221
  0
LINE
  8
_1-d_
  6
CONTINUOUS
 62
  161
 10
220.84948823916619
 20
200.99967659764221
 11
221.53698820936387
 21
200.99967659764221
  0
LINE
  8
_1-d_
  6
CONTINUOUS
 62
  161
 10
220.16198820936387
 20
201.68717659764221
 11
220.84948823916619
 21
200.99967659764221
  0
LINE
  8
_1-d_
  6
CONTINUOUS
 62
  161
 10
220.16198820936387
 20
202.37467659764221
 11
220.16198820936387
 21
201.68717659764221
  0
LINE
  8
_1-d_
  6
CONTINUOUS
 62
  161
 10
220.50573823916619
 20
203.06217659764221
 11
220.16198820936387
 21
202.37467659764221
  0
LINE
  8
_1-d_
  6
CONTINUOUS
 62
  161
 10
219.13073820936387
 20
203.06217659764221
 11
220.50573823916619
 21
203.06217659764221
  0
LINE
  8
_1-d_
  6
CONTINUOUS
 62
  161
 10
219.13073820936387
 20
201.34342659764221
 11
219.13073820936387
 21
203.06217659764221
  0
LINE
  8
_1-d_
  6
CONTINUOUS
 62
  161
 10
218.09948820936387
 20
201.34342659764221
 11
218.09948820936387
 21
202.71842659764221
  0
LINE
  8
_1-d_
  6
CONTINUOUS
 62
  161
 10
218.44323820936387
 20
200.65592659764221
 11
218.09948820936387
 21
201.34342659764221
  0
LINE
  8
_1-d_
  6
CONTINUOUS
 62
  161
 10
219.13073820936387
 20
199.96842647843292
 11
218.44323820936387
 21
200.65592659764221
  0
LINE
  8
_1-d_
  6
CONTINUOUS
 62
  161
 10
219.81823820936387
 20
199.62467647843292
 11
219.13073820936387
 21
199.96842647843292
  0
LINE
  8
_1-d_
  6
CONTINUOUS
 62
  161
 10
221.53698820936387
 20
199.62467647843292
 11
219.81823820936387
 21
199.62467647843292
  0
LINE
  8
_1-d_
  6
CONTINUOUS
 62
  161
 10
222.22448820936387
 20
199.96842647843292
 11
221.53698820936387
 21
199.62467647843292
  0
LINE
  8
_1-d_
  6
CONTINUOUS
 62
  161
 10
222.91198820936387
 20
200.65592659764221
 11
222.22448820936387
 21
199.96842647843292
  0
LINE
  8
_1-d_
  6
CONTINUOUS
 62
  161
 10
223.25573820936387
 20
201.34342659764221
 11
222.91198820936387
 21
200.65592659764221
  0
LINE
  8
_1-d_
  6
CONTINUOUS
 62
  161
 10
223.25573820936387
 20
202.71842659764221
 11
223.25573820936387
 21
201.34342659764221
  0
LINE
  8
_1-d_
  6
CONTINUOUS
 62
  161
 10
222.91198820936387
 20
203.40592659764221
 11
223.25573820936387
 21
202.71842659764221
  0
LINE
  8
_1-d_
  6
CONTINUOUS
 62
  161
 10
222.22448820936387
 20
204.09342647843292
 11
222.91198820936387
 21
203.40592659764221
  0
LINE
  8
_1-d_
  6
CONTINUOUS
 62
  161
 10
221.53698820936387
 20
204.43717647843292
 11
222.22448820936387
 21
204.09342647843292
  0
LINE
  8
_1-d_
  6
CONTINUOUS
 62
  161
 10
219.81823820936387
 20
204.43717647843292
 11
221.53698820936387
 21
204.43717647843292
  0
LINE
  8
_1-d_
  6
CONTINUOUS
 62
  161
 10
219.13073820936387
 20
204.09342647843292
 11
219.81823820936387
 21
204.43717647843292
  0
LINE
  8
_1-d_
  6
CONTINUOUS
 62
  161
 10
218.44323820936387
 20
203.40592659764221
 11
219.13073820936387
 21
204.09342647843292
  0
LINE
  8
_1-d_
  6
CONTINUOUS
 62
  161
 10
218.09948820936387
 20
202.71842659764221
 11
218.44323820936387
 21
203.40592659764221
  0
LINE
  8
_1-d_
  6
CONTINUOUS
 62
  161
 10
225.56187974097244
 20
183.91755211802814
 11
225.56187974097244
 21
179.91755211802814
  0
LINE
  8
_1-d_
  6
CONTINUOUS
 62
  161
 10
228.56187974097244
 20
181.91755211802814
 11
225.56187974097244
 21
183.91755211802814
  0
LINE
  8
_1-d_
  6
CONTINUOUS
 62
  161
 10
228.56187974097244
 20
181.91755211802814
 11
225.56187974097244
 21
179.91755211802814
  0
LINE
  8
_1-d_
  6
CONTINUOUS
 62
  161
 10
228.56187974097244
 20
181.91755211802814
 11
225.56187974097244
 21
181.91755211802814
  0
LINE
  8
_1-d_
  6
CONTINUOUS
 62
  161
 10
223.53285825341672
 20
182.43869091482284
 11
223.18910825341672
 21
182.78244091482284
  0
LINE
  8
_1-d_
  6
CONTINUOUS
 62
  161
 10
223.53285825341672
 20
181.40744091482284
 11
223.53285825341672
 21
182.43869091482284
  0
LINE
  8
_1-d_
  6
CONTINUOUS
 62
  161
 10
222.84535825341672
 20
180.71994091482284
 11
223.53285825341672
 21
181.40744091482284
  0
LINE
  8
_1-d_
  6
CONTINUOUS
 62
  161
 10
222.15785828321904
 20
180.71994091482284
 11
222.84535825341672
 21
180.71994091482284
  0
LINE
  8
_1-d_
  6
CONTINUOUS
 62
  161
 10
221.47035825341672
 20
181.40744091482284
 11
222.15785828321904
 21
180.71994091482284
  0
LINE
  8
_1-d_
  6
CONTINUOUS
 62
  161
 10
221.47035825341672
 20
182.09494091482284
 11
221.47035825341672
 21
181.40744091482284
  0
LINE
  8
_1-d_
  6
CONTINUOUS
 62
  161
 10
221.81410828321904
 20
182.78244091482284
 11
221.47035825341672
 21
182.09494091482284
  0
LINE
  8
_1-d_
  6
CONTINUOUS
 62
  161
 10
220.43910825341672
 20
182.78244091482284
 11
221.81410828321904
 21
182.78244091482284
  0
LINE
  8
_1-d_
  6
CONTINUOUS
 62
  161
 10
220.43910825341672
 20
181.06369091482284
 11
220.43910825341672
 21
182.78244091482284
  0
LINE
  8
_1-d_
  6
CONTINUOUS
 62
  161
 10
219.40785825341672
 20
181.06369091482284
 11
219.40785825341672
 21
182.43869091482284
  0
LINE
  8
_1-d_
  6
CONTINUOUS
 62
  161
 10
219.75160825341672
 20
180.37619091482284
 11
219.40785825341672
 21
181.06369091482284
  0
LINE
  8
_1-d_
  6
CONTINUOUS
 62
  161
 10
220.43910825341672
 20
179.68869079561355
 11
219.75160825341672
 21
180.37619091482284
  0
LINE
  8
_1-d_
  6
CONTINUOUS
 62
  161
 10
221.12660825341672
 20
179.34494079561355
 11
220.43910825341672
 21
179.68869079561355
  0
LINE
  8
_1-d_
  6
CONTINUOUS
 62
  161
 10
222.84535825341672
 20
179.34494079561355
 11
221.12660825341672
 21
179.34494079561355
  0
LINE
  8
_1-d_
  6
CONTINUOUS
 62
  161
 10
223.53285825341672
 20
179.68869079561355
 11
222.84535825341672
 21
179.34494079561355
  0
LINE
  8
_1-d_
  6
CONTINUOUS
 62
  161
 10
224.22035825341672
 20
180.37619091482284
 11
223.53285825341672
 21
179.68869079561355
  0
LINE
  8
_1-d_
  6
CONTINUOUS
 62
  161
 10
224.56410825341672
 20
181.06369091482284
 11
224.22035825341672
 21
180.37619091482284
  0
LINE
  8
_1-d_
  6
CONTINUOUS
 62
  161
 10
224.56410825341672
 20
182.43869091482284
 11
224.56410825341672
 21
181.06369091482284
  0
LINE
  8
_1-d_
  6
CONTINUOUS
 62
  161
 10
224.22035825341672
 20
183.12619091482284
 11
224.56410825341672
 21
182.43869091482284
  0
LINE
  8
_1-d_
  6
CONTINUOUS
 62
  161
 10
223.53285825341672
 20
183.81369079561355
 11
224.22035825341672
 21
183.12619091482284
  0
LINE
  8
_1-d_
  6
CONTINUOUS
 62
  161
 10
222.84535825341672
 20
184.15744079561355
 11
223.53285825341672
 21
183.81369079561355
  0
LINE
  8
_1-d_
  6
CONTINUOUS
 62
  161
 10
221.12660825341672
 20
184.15744079561355
 11
222.84535825341672
 21
184.15744079561355
  0
LINE
  8
_1-d_
  6
CONTINUOUS
 62
  161
 10
220.43910825341672
 20
183.81369079561355
 11
221.12660825341672
 21
184.15744079561355
  0
LINE
  8
_1-d_
  6
CONTINUOUS
 62
  161
 10
219.75160825341672
 20
183.12619091482284
 11
220.43910825341672
 21
183.81369079561355
  0
LINE
  8
_1-d_
  6
CONTINUOUS
 62
  161
 10
219.40785825341672
 20
182.43869091482284
 11
219.75160825341672
 21
183.12619091482284
  0
LINE
  8
_1-d_
  6
CONTINUOUS
 62
  161
 10
260.1346846784287
 20
215.65455067874387
 11
259.44718464862638
 21
216.34205067874387
  0
LINE
  8
_1-d_
  6
CONTINUOUS
 62
  161
 10
260.8221846784287
 20
215.65455067874387
 11
260.1346846784287
 21
215.65455067874387
  0
LINE
  8
_1-d_
  6
CONTINUOUS
 62
  161
 10
261.50968464862638
 20
216.34205067874387
 11
260.8221846784287
 21
215.65455067874387
  0
LINE
  8
_1-d_
  6
CONTINUOUS
 62
  161
 10
261.50968464862638
 20
216.68580067874387
 11
261.50968464862638
 21
216.34205067874387
  0
LINE
  8
_1-d_
  6
CONTINUOUS
 62
  161
 10
260.8221846784287
 20
217.37330061913923
 11
261.50968464862638
 21
216.68580067874387
  0
LINE
  8
_1-d_
  6
CONTINUOUS
 62
  161
 10
260.1346846784287
 20
217.37330061913923
 11
260.8221846784287
 21
217.37330061913923
  0
LINE
  8
_1-d_
  6
CONTINUOUS
 62
  161
 10
259.44718464862638
 20
216.68580067874387
 11
260.1346846784287
 21
217.37330061913923
  0
LINE
  8
_1-d_
  6
CONTINUOUS
 62
  161
 10
259.44718464862638
 20
215.65455067874387
 11
259.44718464862638
 21
216.68580067874387
  0
LINE
  8
_1-d_
  6
CONTINUOUS
 62
  161
 10
259.79093464862638
 20
214.96705067874387
 11
259.44718464862638
 21
215.65455067874387
  0
LINE
  8
_1-d_
  6
CONTINUOUS
 62
  161
 10
260.4784346784287
 20
214.27955061913923
 11
259.79093464862638
 21
214.96705067874387
  0
LINE
  8
_1-d_
  6
CONTINUOUS
 62
  161
 10
261.16593464862638
 20
214.27955061913923
 11
260.4784346784287
 21
214.27955061913923
  0
LINE
  8
_1-d_
  6
CONTINUOUS
 62
  161
 10
261.16593464862638
 20
213.24830061913923
 11
259.79093464862638
 21
213.24830061913923
  0
LINE
  8
_1-d_
  6
CONTINUOUS
 62
  161
 10
261.85343464862638
 20
213.59205061913923
 11
261.16593464862638
 21
213.24830061913923
  0
LINE
  8
_1-d_
  6
CONTINUOUS
 62
  161
 10
262.54093464862638
 20
214.27955061913923
 11
261.85343464862638
 21
213.59205061913923
  0
LINE
  8
_1-d_
  6
CONTINUOUS
 62
  161
 10
262.88468464862638
 20
214.96705067874387
 11
262.54093464862638
 21
214.27955061913923
  0
LINE
  8
_1-d_
  6
CONTINUOUS
 62
  161
 10
262.88468464862638
 20
216.68580067874387
 11
262.88468464862638
 21
214.96705067874387
  0
LINE
  8
_1-d_
  6
CONTINUOUS
 62
  161
 10
262.54093464862638
 20
217.37330061913923
 11
262.88468464862638
 21
216.68580067874387
  0
LINE
  8
_1-d_
  6
CONTINUOUS
 62
  161
 10
261.85343464862638
 20
218.06080061913923
 11
262.54093464862638
 21
217.37330061913923
  0
LINE
  8
_1-d_
  6
CONTINUOUS
 62
  161
 10
261.16593464862638
 20
218.40455061913923
 11
261.85343464862638
 21
218.06080061913923
  0
LINE
  8
_1-d_
  6
CONTINUOUS
 62
  161
 10
259.79093464862638
 20
218.40455061913923
 11
261.16593464862638
 21
218.40455061913923
  0
LINE
  8
_1-d_
  6
CONTINUOUS
 62
  161
 10
259.10343464862638
 20
218.06080061913923
 11
259.79093464862638
 21
218.40455061913923
  0
LINE
  8
_1-d_
  6
CONTINUOUS
 62
  161
 10
258.41593464862638
 20
217.37330061913923
 11
259.10343464862638
 21
218.06080061913923
  0
LINE
  8
_1-d_
  6
CONTINUOUS
 62
  161
 10
258.07218464862638
 20
216.68580067874387
 11
258.41593464862638
 21
217.37330061913923
  0
LINE
  8
_1-d_
  6
CONTINUOUS
 62
  161
 10
258.07218464862638
 20
214.96705067874387
 11
258.07218464862638
 21
216.68580067874387
  0
LINE
  8
_1-d_
  6
CONTINUOUS
 62
  161
 10
258.41593464862638
 20
214.27955061913923
 11
258.07218464862638
 21
214.96705067874387
  0
LINE
  8
_1-d_
  6
CONTINUOUS
 62
  161
 10
259.10343464862638
 20
213.59205061913923
 11
258.41593464862638
 21
214.27955061913923
  0
LINE
  8
_1-d_
  6
CONTINUOUS
 62
  161
 10
259.79093464862638
 20
213.24830061913923
 11
259.10343464862638
 21
213.59205061913923
  0
LINE
  8
_1-d_
  6
CONTINUOUS
 62
  161
 10
259.41416248332791
 20
217.67780751706556
 11
261.67121848117642
 21
217.67780751706556
  0
LINE
  8
_1-d_
  6
CONTINUOUS
 62
  161
 10
270.73410534091795
 20
215.12191696924879
 11
270.04660531111563
 21
215.80941696924879
  0
LINE
  8
_1-d_
  6
CONTINUOUS
 62
  161
 10
271.42160534091795
 20
215.12191696924879
 11
270.73410534091795
 21
215.12191696924879
  0
LINE
  8
_1-d_
  6
CONTINUOUS
 62
  161
 10
272.10910531111563
 20
215.80941696924879
 11
271.42160534091795
 21
215.12191696924879
  0
LINE
  8
_1-d_
  6
CONTINUOUS
 62
  161
 10
272.10910531111563
 20
216.15316696924879
 11
272.10910531111563
 21
215.80941696924879
  0
LINE
  8
_1-d_
  6
CONTINUOUS
 62
  161
 10
271.42160534091795
 20
216.84066690964414
 11
272.10910531111563
 21
216.15316696924879
  0
LINE
  8
_1-d_
  6
CONTINUOUS
 62
  161
 10
270.73410534091795
 20
216.84066690964414
 11
271.42160534091795
 21
216.84066690964414
  0
LINE
  8
_1-d_
  6
CONTINUOUS
 62
  161
 10
270.04660531111563
 20
216.15316696924879
 11
270.73410534091795
 21
216.84066690964414
  0
LINE
  8
_1-d_
  6
CONTINUOUS
 62
  161
 10
270.04660531111563
 20
215.12191696924879
 11
270.04660531111563
 21
216.15316696924879
  0
LINE
  8
_1-d_
  6
CONTINUOUS
 62
  161
 10
270.39035531111563
 20
214.43441696924879
 11
270.04660531111563
 21
215.12191696924879
  0
LINE
  8
_1-d_
  6
CONTINUOUS
 62
  161
 10
271.07785534091795
 20
213.74691690964414
 11
270.39035531111563
 21
214.43441696924879
  0
LINE
  8
_1-d_
  6
CONTINUOUS
 62
  161
 10
271.76535531111563
 20
213.74691690964414
 11
271.07785534091795
 21
213.74691690964414
  0
LINE
  8
_1-d_
  6
CONTINUOUS
 62
  161
 10
271.76535531111563
 20
212.71566690964414
 11
270.39035531111563
 21
212.71566690964414
  0
LINE
  8
_1-d_
  6
CONTINUOUS
 62
  161
 10
272.45285531111563
 20
213.05941690964414
 11
271.76535531111563
 21
212.71566690964414
  0
LINE
  8
_1-d_
  6
CONTINUOUS
 62
  161
 10
273.14035531111563
 20
213.74691690964414
 11
272.45285531111563
 21
213.05941690964414
  0
LINE
  8
_1-d_
  6
CONTINUOUS
 62
  161
 10
273.48410531111563
 20
214.43441696924879
 11
273.14035531111563
 21
213.74691690964414
  0
LINE
  8
_1-d_
  6
CONTINUOUS
 62
  161
 10
273.48410531111563
 20
216.15316696924879
 11
273.48410531111563
 21
214.43441696924879
  0
LINE
  8
_1-d_
  6
CONTINUOUS
 62
  161
 10
273.14035531111563
 20
216.84066690964414
 11
273.48410531111563
 21
216.15316696924879
  0
LINE
  8
_1-d_
  6
CONTINUOUS
 62
  161
 10
272.45285531111563
 20
217.52816690964414
 11
273.14035531111563
 21
216.84066690964414
  0
LINE
  8
_1-d_
  6
CONTINUOUS
 62
  161
 10
271.76535531111563
 20
217.87191690964414
 11
272.45285531111563
 21
217.52816690964414
  0
LINE
  8
_1-d_
  6
CONTINUOUS
 62
  161
 10
270.39035531111563
 20
217.87191690964414
 11
271.76535531111563
 21
217.87191690964414
  0
LINE
  8
_1-d_
  6
CONTINUOUS
 62
  161
 10
269.70285531111563
 20
217.52816690964414
 11
270.39035531111563
 21
217.87191690964414
  0
LINE
  8
_1-d_
  6
CONTINUOUS
 62
  161
 10
269.01535531111563
 20
216.84066690964414
 11
269.70285531111563
 21
217.52816690964414
  0
LINE
  8
_1-d_
  6
CONTINUOUS
 62
  161
 10
268.67160531111563
 20
216.15316696924879
 11
269.01535531111563
 21
216.84066690964414
  0
LINE
  8
_1-d_
  6
CONTINUOUS
 62
  161
 10
268.67160531111563
 20
214.43441696924879
 11
268.67160531111563
 21
216.15316696924879
  0
LINE
  8
_1-d_
  6
CONTINUOUS
 62
  161
 10
269.01535531111563
 20
213.74691690964414
 11
268.67160531111563
 21
214.43441696924879
  0
LINE
  8
_1-d_
  6
CONTINUOUS
 62
  161
 10
269.70285531111563
 20
213.05941690964414
 11
269.01535531111563
 21
213.74691690964414
  0
LINE
  8
_1-d_
  6
CONTINUOUS
 62
  161
 10
270.39035531111563
 20
212.71566690964414
 11
269.70285531111563
 21
213.05941690964414
  0
LINE
  8
_1-d_
  6
CONTINUOUS
 62
  161
 10
270.01358314581717
 20
217.14517380757047
 11
272.27063914366568
 21
217.14517380757047
  0
LINE
  8
_1-d_
  6
CONTINUOUS
 62
  161
 10
268.86971495422137
 20
133.6723502760006
 11
269.55721498402369
 21
132.9848502760006
  0
LINE
  8
_1-d_
  6
CONTINUOUS
 62
  161
 10
268.18221495422137
 20
133.6723502760006
 11
268.86971495422137
 21
133.6723502760006
  0
LINE
  8
_1-d_
  6
CONTINUOUS
 62
  161
 10
267.49471498402369
 20
132.9848502760006
 11
268.18221495422137
 21
133.6723502760006
  0
LINE
  8
_1-d_
  6
CONTINUOUS
 62
  161
 10
267.49471498402369
 20
132.6411002760006
 11
267.49471498402369
 21
132.9848502760006
  0
LINE
  8
_1-d_
  6
CONTINUOUS
 62
  161
 10
268.18221495422137
 20
131.95360033560524
 11
267.49471498402369
 21
132.6411002760006
  0
LINE
  8
_1-d_
  6
CONTINUOUS
 62
  161
 10
268.86971495422137
 20
131.95360033560524
 11
268.18221495422137
 21
131.95360033560524
  0
LINE
  8
_1-d_
  6
CONTINUOUS
 62
  161
 10
269.55721498402369
 20
132.6411002760006
 11
268.86971495422137
 21
131.95360033560524
  0
LINE
  8
_1-d_
  6
CONTINUOUS
 62
  161
 10
269.55721498402369
 20
133.6723502760006
 11
269.55721498402369
 21
132.6411002760006
  0
LINE
  8
_1-d_
  6
CONTINUOUS
 62
  161
 10
269.21346498402369
 20
134.3598502760006
 11
269.55721498402369
 21
133.6723502760006
  0
LINE
  8
_1-d_
  6
CONTINUOUS
 62
  161
 10
268.52596495422137
 20
135.04735033560524
 11
269.21346498402369
 21
134.3598502760006
  0
LINE
  8
_1-d_
  6
CONTINUOUS
 62
  161
 10
267.83846498402369
 20
135.04735033560524
 11
268.52596495422137
 21
135.04735033560524
  0
LINE
  8
_1-d_
  6
CONTINUOUS
 62
  161
 10
267.83846498402369
 20
136.07860033560524
 11
269.21346498402369
 21
136.07860033560524
  0
LINE
  8
_1-d_
  6
CONTINUOUS
 62
  161
 10
267.15096498402369
 20
135.73485033560524
 11
267.83846498402369
 21
136.07860033560524
  0
LINE
  8
_1-d_
  6
CONTINUOUS
 62
  161
 10
266.46346498402369
 20
135.04735033560524
 11
267.15096498402369
 21
135.73485033560524
  0
LINE
  8
_1-d_
  6
CONTINUOUS
 62
  161
 10
266.11971498402369
 20
134.3598502760006
 11
266.46346498402369
 21
135.04735033560524
  0
LINE
  8
_1-d_
  6
CONTINUOUS
 62
  161
 10
266.11971498402369
 20
132.6411002760006
 11
266.11971498402369
 21
134.3598502760006
  0
LINE
  8
_1-d_
  6
CONTINUOUS
 62
  161
 10
266.46346498402369
 20
131.95360033560524
 11
266.11971498402369
 21
132.6411002760006
  0
LINE
  8
_1-d_
  6
CONTINUOUS
 62
  161
 10
267.15096498402369
 20
131.26610033560524
 11
266.46346498402369
 21
131.95360033560524
  0
LINE
  8
_1-d_
  6
CONTINUOUS
 62
  161
 10
267.83846498402369
 20
130.92235033560524
 11
267.15096498402369
 21
131.26610033560524
  0
LINE
  8
_1-d_
  6
CONTINUOUS
 62
  161
 10
269.21346498402369
 20
130.92235033560524
 11
267.83846498402369
 21
130.92235033560524
  0
LINE
  8
_1-d_
  6
CONTINUOUS
 62
  161
 10
269.90096498402369
 20
131.26610033560524
 11
269.21346498402369
 21
130.92235033560524
  0
LINE
  8
_1-d_
  6
CONTINUOUS
 62
  161
 10
270.58846498402369
 20
131.95360033560524
 11
269.90096498402369
 21
131.26610033560524
  0
LINE
  8
_1-d_
  6
CONTINUOUS
 62
  161
 10
270.93221498402369
 20
132.6411002760006
 11
270.58846498402369
 21
131.95360033560524
  0
LINE
  8
_1-d_
  6
CONTINUOUS
 62
  161
 10
270.93221498402369
 20
134.3598502760006
 11
270.93221498402369
 21
132.6411002760006
  0
LINE
  8
_1-d_
  6
CONTINUOUS
 62
  161
 10
270.58846498402369
 20
135.04735033560524
 11
270.93221498402369
 21
134.3598502760006
  0
LINE
  8
_1-d_
  6
CONTINUOUS
 62
  161
 10
269.90096498402369
 20
135.73485033560524
 11
270.58846498402369
 21
135.04735033560524
  0
LINE
  8
_1-d_
  6
CONTINUOUS
 62
  161
 10
269.21346498402369
 20
136.07860033560524
 11
269.90096498402369
 21
135.73485033560524
  0
LINE
  8
_1-d_
  6
CONTINUOUS
 62
  161
 10
269.59023714932215
 20
131.64909343767891
 11
267.33318115147364
 21
131.64909343767891
  0
LINE
  8
_1-d_
  6
CONTINUOUS
 62
  161
 10
258.25114822224168
 20
134.08616480788828
 11
258.938648252044
 21
133.39866480788828
  0
LINE
  8
_1-d_
  6
CONTINUOUS
 62
  161
 10
257.56364822224168
 20
134.08616480788828
 11
258.25114822224168
 21
134.08616480788828
  0
LINE
  8
_1-d_
  6
CONTINUOUS
 62
  161
 10
256.876148252044
 20
133.39866480788828
 11
257.56364822224168
 21
134.08616480788828
  0
LINE
  8
_1-d_
  6
CONTINUOUS
 62
  161
 10
256.876148252044
 20
133.05491480788828
 11
256.876148252044
 21
133.39866480788828
  0
LINE
  8
_1-d_
  6
CONTINUOUS
 62
  161
 10
257.56364822224168
 20
132.36741486749293
 11
256.876148252044
 21
133.05491480788828
  0
LINE
  8
_1-d_
  6
CONTINUOUS
 62
  161
 10
258.25114822224168
 20
132.36741486749293
 11
257.56364822224168
 21
132.36741486749293
  0
LINE
  8
_1-d_
  6
CONTINUOUS
 62
  161
 10
258.938648252044
 20
133.05491480788828
 11
258.25114822224168
 21
132.36741486749293
  0
LINE
  8
_1-d_
  6
CONTINUOUS
 62
  161
 10
258.938648252044
 20
134.08616480788828
 11
258.938648252044
 21
133.05491480788828
  0
LINE
  8
_1-d_
  6
CONTINUOUS
 62
  161
 10
258.594898252044
 20
134.77366480788828
 11
258.938648252044
 21
134.08616480788828
  0
LINE
  8
_1-d_
  6
CONTINUOUS
 62
  161
 10
257.90739822224168
 20
135.46116486749293
 11
258.594898252044
 21
134.77366480788828
  0
LINE
  8
_1-d_
  6
CONTINUOUS
 62
  161
 10
257.219898252044
 20
135.46116486749293
 11
257.90739822224168
 21
135.46116486749293
  0
LINE
  8
_1-d_
  6
CONTINUOUS
 62
  161
 10
257.219898252044
 20
136.49241486749293
 11
258.594898252044
 21
136.49241486749293
  0
LINE
  8
_1-d_
  6
CONTINUOUS
 62
  161
 10
256.532398252044
 20
136.14866486749293
 11
257.219898252044
 21
136.49241486749293
  0
LINE
  8
_1-d_
  6
CONTINUOUS
 62
  161
 10
255.844898252044
 20
135.46116486749293
 11
256.532398252044
 21
136.14866486749293
  0
LINE
  8
_1-d_
  6
CONTINUOUS
 62
  161
 10
255.501148252044
 20
134.77366480788828
 11
255.844898252044
 21
135.46116486749293
  0
LINE
  8
_1-d_
  6
CONTINUOUS
 62
  161
 10
255.501148252044
 20
133.05491480788828
 11
255.501148252044
 21
134.77366480788828
  0
LINE
  8
_1-d_
  6
CONTINUOUS
 62
  161
 10
255.844898252044
 20
132.36741486749293
 11
255.501148252044
 21
133.05491480788828
  0
LINE
  8
_1-d_
  6
CONTINUOUS
 62
  161
 10
256.532398252044
 20
131.67991486749293
 11
255.844898252044
 21
132.36741486749293
  0
LINE
  8
_1-d_
  6
CONTINUOUS
 62
  161
 10
257.219898252044
 20
131.33616486749293
 11
256.532398252044
 21
131.67991486749293
  0
LINE
  8
_1-d_
  6
CONTINUOUS
 62
  161
 10
258.594898252044
 20
131.33616486749293
 11
257.219898252044
 21
131.33616486749293
  0
LINE
  8
_1-d_
  6
CONTINUOUS
 62
  161
 10
259.282398252044
 20
131.67991486749293
 11
258.594898252044
 21
131.33616486749293
  0
LINE
  8
_1-d_
  6
CONTINUOUS
 62
  161
 10
259.969898252044
 20
132.36741486749293
 11
259.282398252044
 21
131.67991486749293
  0
LINE
  8
_1-d_
  6
CONTINUOUS
 62
  161
 10
260.313648252044
 20
133.05491480788828
 11
259.969898252044
 21
132.36741486749293
  0
LINE
  8
_1-d_
  6
CONTINUOUS
 62
  161
 10
260.313648252044
 20
134.77366480788828
 11
260.313648252044
 21
133.05491480788828
  0
LINE
  8
_1-d_
  6
CONTINUOUS
 62
  161
 10
259.969898252044
 20
135.46116486749293
 11
260.313648252044
 21
134.77366480788828
  0
LINE
  8
_1-d_
  6
CONTINUOUS
 62
  161
 10
259.282398252044
 20
136.14866486749293
 11
259.969898252044
 21
135.46116486749293
  0
LINE
  8
_1-d_
  6
CONTINUOUS
 62
  161
 10
258.594898252044
 20
136.49241486749293
 11
259.282398252044
 21
136.14866486749293
  0
LINE
  8
_1-d_
  6
CONTINUOUS
 62
  161
 10
258.97167041734247
 20
132.0629079695666
 11
256.71461441949396
 21
132.0629079695666
  0
LINE
  8
_1-d_
  6
CONTINUOUS
 62
  161
 10
84.081690330082182
 20
116.88507926379711
 11
83.394190330082182
 21
117.22882926379711
  0
LINE
  8
_1-d_
  6
CONTINUOUS
 62
  161
 10
83.394190330082182
 20
117.22882926379711
 11
82.706690330082182
 21
117.91632926379711
  0
LINE
  8
_1-d_
  6
CONTINUOUS
 62
  161
 10
82.706690330082182
 20
117.91632926379711
 11
82.362940330082182
 21
118.60382926379711
  0
LINE
  8
_1-d_
  6
CONTINUOUS
 62
  161
 10
82.362940330082182
 20
118.60382926379711
 11
82.362940330082182
 21
120.32257926379711
  0
LINE
  8
_1-d_
  6
CONTINUOUS
 62
  161
 10
82.362940330082182
 20
120.32257926379711
 11
82.706690330082182
 21
121.01007926379711
  0
LINE
  8
_1-d_
  6
CONTINUOUS
 62
  161
 10
82.706690330082182
 20
121.01007926379711
 11
83.394190330082182
 21
121.69757926379711
  0
LINE
  8
_1-d_
  6
CONTINUOUS
 62
  161
 10
83.394190330082182
 20
121.69757926379711
 11
84.081690330082182
 21
122.04132926379711
  0
LINE
  8
_1-d_
  6
CONTINUOUS
 62
  161
 10
84.081690330082182
 20
122.04132926379711
 11
85.456690330082182
 21
122.04132926379711
  0
LINE
  8
_1-d_
  6
CONTINUOUS
 62
  161
 10
85.456690330082182
 20
122.04132926379711
 11
86.144190330082182
 21
121.69757926379711
  0
LINE
  8
_1-d_
  6
CONTINUOUS
 62
  161
 10
86.144190330082182
 20
121.69757926379711
 11
86.831690330082182
 21
121.01007926379711
  0
LINE
  8
_1-d_
  6
CONTINUOUS
 62
  161
 10
86.831690330082182
 20
121.01007926379711
 11
87.175440330082182
 21
120.32257926379711
  0
LINE
  8
_1-d_
  6
CONTINUOUS
 62
  161
 10
87.175440330082182
 20
120.32257926379711
 11
87.175440330082182
 21
118.60382926379711
  0
LINE
  8
_1-d_
  6
CONTINUOUS
 62
  161
 10
87.175440330082182
 20
118.60382926379711
 11
86.831690330082182
 21
117.91632926379711
  0
LINE
  8
_1-d_
  6
CONTINUOUS
 62
  161
 10
86.831690330082182
 20
117.91632926379711
 11
86.144190330082182
 21
117.22882926379711
  0
LINE
  8
_1-d_
  6
CONTINUOUS
 62
  161
 10
86.144190330082182
 20
117.22882926379711
 11
85.456690330082182
 21
116.88507926379711
  0
LINE
  8
_1-d_
  6
CONTINUOUS
 62
  161
 10
85.456690330082182
 20
116.88507926379711
 11
84.081690330082182
 21
116.88507926379711
  0
LINE
  8
_1-d_
  6
CONTINUOUS
 62
  161
 10
83.737940330082182
 20
118.26007926379711
 11
84.081690330082182
 21
117.91632926379711
  0
LINE
  8
_1-d_
  6
CONTINUOUS
 62
  161
 10
84.081690330082182
 20
117.91632926379711
 11
84.081690330082182
 21
121.01007926379711
  0
LINE
  8
_1-d_
  6
CONTINUOUS
 62
  161
 10
83.737940330082182
 20
121.01007926379711
 11
84.425440330082182
 21
121.01007926379711
  0
LINE
  8
_1-d_
  6
CONTINUOUS
 62
  161
 10
85.112940330082182
 20
121.01007926379711
 11
85.800440330082182
 21
121.01007926379711
  0
LINE
  8
_1-d_
  6
CONTINUOUS
 62
  161
 10
85.456690330082182
 20
121.01007926379711
 11
85.456690330082182
 21
117.91632926379711
  0
LINE
  8
_1-d_
  6
CONTINUOUS
 62
  161
 10
85.456690330082182
 20
117.91632926379711
 11
85.112940330082182
 21
118.26007926379711
  0
LINE
  8
_1-d_
  6
CONTINUOUS
 62
  161
 10
145.99141117916224
 20
131.21244008547168
 11
143.56126775728711
 21
130.54550459450047
  0
LINE
  8
_1-d_
  6
CONTINUOUS
 62
  161
 10
25.819516231943965
 20
130.54550459450047
 11
23.389372810068835
 21
131.21244008547171
  0
LINE
  8
_1-d_
  6
CONTINUOUS
 62
  161
 10
137.29039199461553
 20
214.18356025521831
 11
134.59039199461554
 21
214.18356025521831
  0
LINE
  8
_1-d_
  6
CONTINUOUS
 62
  161
 10
83.955718397659041
 20
176.97020640200904
 11
83.268218338054396
 21
177.31395640200904
  0
LINE
  8
_1-d_
  6
CONTINUOUS
 62
  161
 10
83.268218338054396
 20
177.31395640200904
 11
82.580718457263686
 21
178.00145652121833
  0
LINE
  8
_1-d_
  6
CONTINUOUS
 62
  161
 10
82.580718457263686
 20
178.00145652121833
 11
82.236968457263657
 21
178.68895646161369
  0
LINE
  8
_1-d_
  6
CONTINUOUS
 62
  161
 10
82.236968457263657
 20
178.68895646161369
 11
82.236968457263657
 21
180.40770646161369
  0
LINE
  8
_1-d_
  6
CONTINUOUS
 62
  161
 10
82.236968457263657
 20
180.40770646161369
 11
82.580718457263686
 21
181.09520652121833
  0
LINE
  8
_1-d_
  6
CONTINUOUS
 62
  161
 10
82.580718457263686
 20
181.09520652121833
 11
83.268218338054396
 21
181.78270640200904
  0
LINE
  8
_1-d_
  6
CONTINUOUS
 62
  161
 10
83.268218338054396
 20
181.78270640200904
 11
83.955718397659041
 21
182.12645640200904
  0
LINE
  8
_1-d_
  6
CONTINUOUS
 62
  161
 10
83.955718397659041
 20
182.12645640200904
 11
85.330718397659041
 21
182.12645640200904
  0
LINE
  8
_1-d_
  6
CONTINUOUS
 62
  161
 10
85.330718397659041
 20
182.12645640200904
 11
86.018218338054396
 21
181.78270640200904
  0
LINE
  8
_1-d_
  6
CONTINUOUS
 62
  161
 10
86.018218338054396
 20
181.78270640200904
 11
86.705718457263686
 21
181.09520652121833
  0
LINE
  8
_1-d_
  6
CONTINUOUS
 62
  161
 10
86.705718457263686
 20
181.09520652121833
 11
87.049468457263686
 21
180.40770646161369
  0
LINE
  8
_1-d_
  6
CONTINUOUS
 62
  161
 10
87.049468457263686
 20
180.40770646161369
 11
87.049468457263686
 21
178.68895646161369
  0
LINE
  8
_1-d_
  6
CONTINUOUS
 62
  161
 10
87.049468457263686
 20
178.68895646161369
 11
86.705718457263686
 21
178.00145652121833
  0
LINE
  8
_1-d_
  6
CONTINUOUS
 62
  161
 10
86.705718457263686
 20
178.00145652121833
 11
86.018218338054396
 21
177.31395640200904
  0
LINE
  8
_1-d_
  6
CONTINUOUS
 62
  161
 10
86.018218338054396
 20
177.31395640200904
 11
85.330718397659041
 21
176.97020640200904
  0
LINE
  8
_1-d_
  6
CONTINUOUS
 62
  161
 10
85.330718397659041
 20
176.97020640200904
 11
83.955718397659041
 21
176.97020640200904
  0
LINE
  8
_1-d_
  6
CONTINUOUS
 62
  161
 10
83.268218338054396
 20
178.34520652121833
 11
83.611968338054396
 21
178.00145652121833
  0
LINE
  8
_1-d_
  6
CONTINUOUS
 62
  161
 10
83.611968338054396
 20
178.00145652121833
 11
83.611968338054396
 21
181.09520652121833
  0
LINE
  8
_1-d_
  6
CONTINUOUS
 62
  161
 10
83.268218338054396
 20
181.09520652121833
 11
83.955718397659041
 21
181.09520652121833
  0
LINE
  8
_1-d_
  6
CONTINUOUS
 62
  161
 10
84.64321839020846
 20
178.68895646161369
 11
84.64321839020846
 21
178.34520652121833
  0
LINE
  8
_1-d_
  6
CONTINUOUS
 62
  161
 10
84.64321839020846
 20
178.34520652121833
 11
84.986968397659041
 21
178.00145652121833
  0
LINE
  8
_1-d_
  6
CONTINUOUS
 62
  161
 10
84.986968397659041
 20
178.00145652121833
 11
85.330718397659041
 21
178.00145652121833
  0
LINE
  8
_1-d_
  6
CONTINUOUS
 62
  161
 10
85.330718397659041
 20
178.00145652121833
 11
85.674468397659041
 21
178.34520652121833
  0
LINE
  8
_1-d_
  6
CONTINUOUS
 62
  161
 10
85.674468397659041
 20
178.34520652121833
 11
85.674468397659041
 21
179.03270646161369
  0
LINE
  8
_1-d_
  6
CONTINUOUS
 62
  161
 10
85.674468397659041
 20
179.03270646161369
 11
84.64321839020846
 21
180.75145652121833
  0
LINE
  8
_1-d_
  6
CONTINUOUS
 62
  161
 10
84.64321839020846
 20
180.75145652121833
 11
84.64321839020846
 21
181.09520652121833
  0
LINE
  8
_1-d_
  6
CONTINUOUS
 62
  161
 10
84.64321839020846
 20
181.09520652121833
 11
85.674468397659041
 21
181.09520652121833
  0
LINE
  8
_1-d_
  6
CONTINUOUS
 62
  161
 10
85.674468397659041
 20
181.09520652121833
 11
85.674468397659041
 21
180.75145652121833
  0
LINE
  8
_1-d_
  6
CONTINUOUS
 62
  161
 10
41.011591446771263
 20
166.27471186032494
 11
41.011591446771263
 21
170.39971186032494
  0
LINE
  8
_1-d_
  6
CONTINUOUS
 62
  161
 10
41.011591446771263
 20
168.33721186032494
 11
41.699091446771263
 21
167.64971186032494
  0
LINE
  8
_1-d_
  6
CONTINUOUS
 62
  161
 10
41.699091446771263
 20
167.64971186032494
 11
42.042841446771263
 21
167.64971186032494
  0
LINE
  8
_1-d_
  6
CONTINUOUS
 62
  161
 10
42.042841446771263
 20
167.64971186032494
 11
42.730341446771263
 21
168.33721186032494
  0
LINE
  8
_1-d_
  6
CONTINUOUS
 62
  161
 10
42.730341446771263
 20
168.33721186032494
 11
42.730341446771263
 21
170.39971186032494
  0
LINE
  8
_1-d_
  6
CONTINUOUS
 62
  161
 10
43.761591446771263
 20
167.64971186032494
 11
45.136591446771263
 21
167.64971186032494
  0
LINE
  8
_1-d_
  6
CONTINUOUS
 62
  161
 10
44.449091446771263
 20
166.96221186032494
 11
44.449091446771263
 21
170.05596186032494
  0
LINE
  8
_1-d_
  6
CONTINUOUS
 62
  161
 10
44.449091446771263
 20
170.05596186032494
 11
44.792841446771263
 21
170.39971186032494
  0
LINE
  8
_1-d_
  6
CONTINUOUS
 62
  161
 10
44.792841446771263
 20
170.39971186032494
 11
45.136591446771263
 21
170.39971186032494
  0
LINE
  8
_1-d_
  6
CONTINUOUS
 62
  161
 10
45.136591446771263
 20
170.39971186032494
 11
45.480341446771263
 21
170.05596186032494
  0
LINE
  8
_1-d_
  6
CONTINUOUS
 62
  161
 10
45.480341446771263
 20
170.05596186032494
 11
45.480341446771263
 21
169.71221186032494
  0
LINE
  8
_1-d_
  6
CONTINUOUS
 62
  161
 10
46.511591446771263
 20
167.64971186032494
 11
47.886591446771263
 21
167.64971186032494
  0
LINE
  8
_1-d_
  6
CONTINUOUS
 62
  161
 10
47.199091446771263
 20
166.96221186032494
 11
47.199091446771263
 21
170.05596186032494
  0
LINE
  8
_1-d_
  6
CONTINUOUS
 62
  161
 10
47.199091446771263
 20
170.05596186032494
 11
47.542841446771263
 21
170.39971186032494
  0
LINE
  8
_1-d_
  6
CONTINUOUS
 62
  161
 10
47.542841446771263
 20
170.39971186032494
 11
47.886591446771263
 21
170.39971186032494
  0
LINE
  8
_1-d_
  6
CONTINUOUS
 62
  161
 10
47.886591446771263
 20
170.39971186032494
 11
48.230341446771263
 21
170.05596186032494
  0
LINE
  8
_1-d_
  6
CONTINUOUS
 62
  161
 10
48.230341446771263
 20
170.05596186032494
 11
48.230341446771263
 21
169.71221186032494
  0
LINE
  8
_1-d_
  6
CONTINUOUS
 62
  161
 10
49.261591446771263
 20
167.64971186032494
 11
49.261591446771263
 21
171.08721186032494
  0
LINE
  8
_1-d_
  6
CONTINUOUS
 62
  161
 10
49.261591446771263
 20
168.33721186032494
 11
49.949091446771263
 21
167.64971186032494
  0
LINE
  8
_1-d_
  6
CONTINUOUS
 62
  161
 10
49.949091446771263
 20
167.64971186032494
 11
50.292841446771263
 21
167.64971186032494
  0
LINE
  8
_1-d_
  6
CONTINUOUS
 62
  161
 10
50.292841446771263
 20
167.64971186032494
 11
50.980341446771263
 21
168.33721186032494
  0
LINE
  8
_1-d_
  6
CONTINUOUS
 62
  161
 10
50.980341446771263
 20
168.33721186032494
 11
50.980341446771263
 21
169.36846186032494
  0
LINE
  8
_1-d_
  6
CONTINUOUS
 62
  161
 10
50.980341446771263
 20
169.36846186032494
 11
50.292841446771263
 21
170.05596186032494
  0
LINE
  8
_1-d_
  6
CONTINUOUS
 62
  161
 10
50.292841446771263
 20
170.05596186032494
 11
49.949091446771263
 21
170.05596186032494
  0
LINE
  8
_1-d_
  6
CONTINUOUS
 62
  161
 10
49.949091446771263
 20
170.05596186032494
 11
49.261591446771263
 21
169.36846186032494
  0
LINE
  8
_1-d_
  6
CONTINUOUS
 62
  161
 10
53.042841446771263
 20
167.30596186032494
 11
52.699091446771263
 21
167.30596186032494
  0
LINE
  8
_1-d_
  6
CONTINUOUS
 62
  161
 10
52.699091446771263
 20
167.30596186032494
 11
52.699091446771263
 21
167.64971186032494
  0
LINE
  8
_1-d_
  6
CONTINUOUS
 62
  161
 10
52.699091446771263
 20
167.64971186032494
 11
53.042841446771263
 21
167.64971186032494
  0
LINE
  8
_1-d_
  6
CONTINUOUS
 62
  161
 10
53.042841446771263
 20
167.64971186032494
 11
53.042841446771263
 21
167.30596186032494
  0
LINE
  8
_1-d_
  6
CONTINUOUS
 62
  161
 10
53.042841446771263
 20
170.05596186032494
 11
52.699091446771263
 21
170.05596186032494
  0
LINE
  8
_1-d_
  6
CONTINUOUS
 62
  161
 10
52.699091446771263
 20
170.05596186032494
 11
52.699091446771263
 21
170.39971186032494
  0
LINE
  8
_1-d_
  6
CONTINUOUS
 62
  161
 10
52.699091446771263
 20
170.39971186032494
 11
53.042841446771263
 21
170.39971186032494
  0
LINE
  8
_1-d_
  6
CONTINUOUS
 62
  161
 10
53.042841446771263
 20
170.39971186032494
 11
53.042841446771263
 21
170.05596186032494
  0
LINE
  8
_1-d_
  6
CONTINUOUS
 62
  161
 10
56.480341446771263
 20
166.27471186032494
 11
54.761591446771263
 21
170.74346186032494
  0
LINE
  8
_1-d_
  6
CONTINUOUS
 62
  161
 10
59.230341446771263
 20
166.27471186032494
 11
57.511591446771263
 21
170.74346186032494
  0
LINE
  8
_1-d_
  6
CONTINUOUS
 62
  161
 10
61.980341446771263
 20
168.33721186032494
 11
61.292841446771263
 21
167.64971186032494
  0
LINE
  8
_1-d_
  6
CONTINUOUS
 62
  161
 10
61.292841446771263
 20
167.64971186032494
 11
60.949091446771263
 21
167.64971186032494
  0
LINE
  8
_1-d_
  6
CONTINUOUS
 62
  161
 10
60.949091446771263
 20
167.64971186032494
 11
60.261591446771263
 21
168.33721186032494
  0
LINE
  8
_1-d_
  6
CONTINUOUS
 62
  161
 10
60.261591446771263
 20
168.33721186032494
 11
60.261591446771263
 21
169.71221186032494
  0
LINE
  8
_1-d_
  6
CONTINUOUS
 62
  161
 10
60.261591446771263
 20
169.71221186032494
 11
60.949091446771263
 21
170.39971186032494
  0
LINE
  8
_1-d_
  6
CONTINUOUS
 62
  161
 10
60.949091446771263
 20
170.39971186032494
 11
61.292841446771263
 21
170.39971186032494
  0
LINE
  8
_1-d_
  6
CONTINUOUS
 62
  161
 10
61.292841446771263
 20
170.39971186032494
 11
61.980341446771263
 21
169.71221186032494
  0
LINE
  8
_1-d_
  6
CONTINUOUS
 62
  161
 10
63.355341446771263
 20
166.27471186032494
 11
63.699091446771263
 21
166.27471186032494
  0
LINE
  8
_1-d_
  6
CONTINUOUS
 62
  161
 10
63.699091446771263
 20
166.27471186032494
 11
63.699091446771263
 21
170.39971186032494
  0
LINE
  8
_1-d_
  6
CONTINUOUS
 62
  161
 10
66.792841446771263
 20
167.64971186032494
 11
66.449091446771263
 21
167.64971186032494
  0
LINE
  8
_1-d_
  6
CONTINUOUS
 62
  161
 10
66.449091446771263
 20
167.64971186032494
 11
65.761591446771263
 21
168.33721186032494
  0
LINE
  8
_1-d_
  6
CONTINUOUS
 62
  161
 10
65.761591446771263
 20
168.33721186032494
 11
65.761591446771263
 21
169.71221186032494
  0
LINE
  8
_1-d_
  6
CONTINUOUS
 62
  161
 10
65.761591446771263
 20
169.71221186032494
 11
66.449091446771263
 21
170.39971186032494
  0
LINE
  8
_1-d_
  6
CONTINUOUS
 62
  161
 10
66.449091446771263
 20
170.39971186032494
 11
66.792841446771263
 21
170.39971186032494
  0
LINE
  8
_1-d_
  6
CONTINUOUS
 62
  161
 10
66.792841446771263
 20
170.39971186032494
 11
67.480341446771263
 21
169.71221186032494
  0
LINE
  8
_1-d_
  6
CONTINUOUS
 62
  161
 10
67.480341446771263
 20
169.71221186032494
 11
67.480341446771263
 21
168.33721186032494
  0
LINE
  8
_1-d_
  6
CONTINUOUS
 62
  161
 10
67.480341446771263
 20
168.33721186032494
 11
66.792841446771263
 21
167.64971186032494
  0
LINE
  8
_1-d_
  6
CONTINUOUS
 62
  161
 10
70.230341446771263
 20
168.33721186032494
 11
69.542841446771263
 21
167.64971186032494
  0
LINE
  8
_1-d_
  6
CONTINUOUS
 62
  161
 10
69.542841446771263
 20
167.64971186032494
 11
69.199091446771263
 21
167.64971186032494
  0
LINE
  8
_1-d_
  6
CONTINUOUS
 62
  161
 10
69.199091446771263
 20
167.64971186032494
 11
68.511591446771263
 21
168.33721186032494
  0
LINE
  8
_1-d_
  6
CONTINUOUS
 62
  161
 10
68.511591446771263
 20
168.33721186032494
 11
68.511591446771263
 21
169.71221186032494
  0
LINE
  8
_1-d_
  6
CONTINUOUS
 62
  161
 10
68.511591446771263
 20
169.71221186032494
 11
69.199091446771263
 21
170.39971186032494
  0
LINE
  8
_1-d_
  6
CONTINUOUS
 62
  161
 10
69.199091446771263
 20
170.39971186032494
 11
69.542841446771263
 21
170.39971186032494
  0
LINE
  8
_1-d_
  6
CONTINUOUS
 62
  161
 10
69.542841446771263
 20
170.39971186032494
 11
70.230341446771263
 21
169.71221186032494
  0
LINE
  8
_1-d_
  6
CONTINUOUS
 62
  161
 10
71.261590493096946
 20
166.27471186032494
 11
71.261590493096946
 21
170.39971186032494
  0
LINE
  8
_1-d_
  6
CONTINUOUS
 62
  161
 10
72.980340493096946
 20
167.64971186032494
 11
71.261590493096946
 21
169.36846186032494
  0
LINE
  8
_1-d_
  6
CONTINUOUS
 62
  161
 10
71.605340493096946
 20
169.02471185473701
 11
72.980340493096946
 21
170.39971186032494
  0
LINE
  8
_1-d_
  6
CONTINUOUS
 62
  161
 10
74.011590493096946
 20
167.64971186032494
 11
74.355340493096946
 21
170.39971186032494
  0
LINE
  8
_1-d_
  6
CONTINUOUS
 62
  161
 10
74.355340493096946
 20
170.39971186032494
 11
75.042840493096946
 21
167.99346186032494
  0
LINE
  8
_1-d_
  6
CONTINUOUS
 62
  161
 10
75.042840493096946
 20
167.99346186032494
 11
75.730340493096946
 21
170.39971186032494
  0
LINE
  8
_1-d_
  6
CONTINUOUS
 62
  161
 10
75.730340493096946
 20
170.39971186032494
 11
76.074090493096946
 21
167.64971186032494
  0
LINE
  8
_1-d_
  6
CONTINUOUS
 62
  161
 10
77.792840493096946
 20
167.64971186032494
 11
77.449090493096946
 21
167.64971186032494
  0
LINE
  8
_1-d_
  6
CONTINUOUS
 62
  161
 10
77.449090493096946
 20
167.64971186032494
 11
76.761590493096946
 21
168.33721186032494
  0
LINE
  8
_1-d_
  6
CONTINUOUS
 62
  161
 10
76.761590493096946
 20
168.33721186032494
 11
76.761590493096946
 21
169.71221186032494
  0
LINE
  8
_1-d_
  6
CONTINUOUS
 62
  161
 10
76.761590493096946
 20
169.71221186032494
 11
77.449090493096946
 21
170.39971186032494
  0
LINE
  8
_1-d_
  6
CONTINUOUS
 62
  161
 10
77.449090493096946
 20
170.39971186032494
 11
77.792840493096946
 21
170.39971186032494
  0
LINE
  8
_1-d_
  6
CONTINUOUS
 62
  161
 10
77.792840493096946
 20
170.39971186032494
 11
78.480340493096946
 21
169.71221186032494
  0
LINE
  8
_1-d_
  6
CONTINUOUS
 62
  161
 10
78.480340493096946
 20
169.71221186032494
 11
78.480340493096946
 21
168.33721186032494
  0
LINE
  8
_1-d_
  6
CONTINUOUS
 62
  161
 10
78.480340493096946
 20
168.33721186032494
 11
77.792840493096946
 21
167.64971186032494
  0
LINE
  8
_1-d_
  6
CONTINUOUS
 62
  161
 10
79.855340493096975
 20
167.64971186032494
 11
79.855340493096975
 21
170.39971186032494
  0
LINE
  8
_1-d_
  6
CONTINUOUS
 62
  161
 10
79.855340493096975
 20
168.33721186032494
 11
80.542840493096975
 21
167.64971186032494
  0
LINE
  8
_1-d_
  6
CONTINUOUS
 62
  161
 10
80.542840493096975
 20
167.64971186032494
 11
80.886590493096975
 21
167.64971186032494
  0
LINE
  8
_1-d_
  6
CONTINUOUS
 62
  161
 10
80.886590493096975
 20
167.64971186032494
 11
81.230340493096975
 21
167.99346186032494
  0
LINE
  8
_1-d_
  6
CONTINUOUS
 62
  161
 10
81.230340493096975
 20
167.99346186032494
 11
81.230340493096975
 21
168.33721186032494
  0
LINE
  8
_1-d_
  6
CONTINUOUS
 62
  161
 10
82.261590493096975
 20
166.27471186032494
 11
82.261590493096975
 21
170.39971186032494
  0
LINE
  8
_1-d_
  6
CONTINUOUS
 62
  161
 10
83.980340731515554
 20
167.64971186032494
 11
82.261590493096975
 21
169.36846186032494
  0
LINE
  8
_1-d_
  6
CONTINUOUS
 62
  161
 10
82.605340731515554
 20
169.02471185473701
 11
83.980340731515554
 21
170.39971186032494
  0
LINE
  8
_1-d_
  6
CONTINUOUS
 62
  161
 10
86.730340671910909
 20
168.33721186032494
 11
86.042840671910909
 21
167.64971186032494
  0
LINE
  8
_1-d_
  6
CONTINUOUS
 62
  161
 10
86.042840671910909
 20
167.64971186032494
 11
85.699090671910909
 21
167.64971186032494
  0
LINE
  8
_1-d_
  6
CONTINUOUS
 62
  161
 10
85.699090671910909
 20
167.64971186032494
 11
85.011590731515554
 21
168.33721186032494
  0
LINE
  8
_1-d_
  6
CONTINUOUS
 62
  161
 10
85.011590731515554
 20
168.33721186032494
 11
85.011590731515554
 21
168.68096186032494
  0
LINE
  8
_1-d_
  6
CONTINUOUS
 62
  161
 10
85.011590731515554
 20
168.68096186032494
 11
85.355340671910909
 21
169.02471185473701
  0
LINE
  8
_1-d_
  6
CONTINUOUS
 62
  161
 10
85.355340671910909
 20
169.02471185473701
 11
86.38659067936149
 21
169.02471185473701
  0
LINE
  8
_1-d_
  6
CONTINUOUS
 62
  161
 10
86.38659067936149
 20
169.02471185473701
 11
86.730340671910909
 21
169.36846186032494
  0
LINE
  8
_1-d_
  6
CONTINUOUS
 62
  161
 10
86.730340671910909
 20
169.36846186032494
 11
86.730340671910909
 21
169.71221186032494
  0
LINE
  8
_1-d_
  6
CONTINUOUS
 62
  161
 10
86.730340671910909
 20
169.71221186032494
 11
86.042840671910909
 21
170.39971186032494
  0
LINE
  8
_1-d_
  6
CONTINUOUS
 62
  161
 10
86.042840671910909
 20
170.39971186032494
 11
85.699090671910909
 21
170.39971186032494
  0
LINE
  8
_1-d_
  6
CONTINUOUS
 62
  161
 10
85.699090671910909
 20
170.39971186032494
 11
85.011590731515554
 21
169.71221186032494
  0
LINE
  8
_1-d_
  6
CONTINUOUS
 62
  161
 10
88.105340731515554
 20
166.27471186032494
 11
87.761590731515554
 21
166.61846186032494
  0
LINE
  8
_1-d_
  6
CONTINUOUS
 62
  161
 10
87.761590731515554
 20
166.61846186032494
 11
87.761590731515554
 21
170.39971186032494
  0
LINE
  8
_1-d_
  6
CONTINUOUS
 62
  161
 10
87.761590731515554
 20
170.39971186032494
 11
88.105340731515554
 21
170.74346186032494
  0
LINE
  8
_1-d_
  6
CONTINUOUS
 62
  161
 10
88.105340731515554
 20
170.74346186032494
 11
89.136590731515554
 21
170.74346186032494
  0
LINE
  8
_1-d_
  6
CONTINUOUS
 62
  161
 10
89.136590731515554
 20
170.74346186032494
 11
89.480340731515554
 21
170.39971186032494
  0
LINE
  8
_1-d_
  6
CONTINUOUS
 62
  161
 10
89.480340731515554
 20
170.39971186032494
 11
89.480340731515554
 21
166.61846186032494
  0
LINE
  8
_1-d_
  6
CONTINUOUS
 62
  161
 10
89.480340731515554
 20
166.61846186032494
 11
89.136590731515554
 21
166.27471186032494
  0
LINE
  8
_1-d_
  6
CONTINUOUS
 62
  161
 10
89.136590731515554
 20
166.27471186032494
 11
88.105340731515554
 21
166.27471186032494
  0
LINE
  8
_1-d_
  6
CONTINUOUS
 62
  161
 10
90.855340493096975
 20
166.96221186032494
 11
91.542840493096975
 21
166.27471186032494
  0
LINE
  8
_1-d_
  6
CONTINUOUS
 62
  161
 10
91.542840493096975
 20
166.27471186032494
 11
91.542840493096975
 21
170.74346186032494
  0
LINE
  8
_1-d_
  6
CONTINUOUS
 62
  161
 10
91.199090493096975
 20
170.74346186032494
 11
91.886590493096975
 21
170.74346186032494
  0
LINE
  8
_1-d_
  6
CONTINUOUS
 62
  161
 10
93.605340493096975
 20
170.39971186032494
 11
93.261590493096975
 21
170.39971186032494
  0
LINE
  8
_1-d_
  6
CONTINUOUS
 62
  161
 10
93.261590493096975
 20
170.39971186032494
 11
93.261590493096975
 21
170.74346186032494
  0
LINE
  8
_1-d_
  6
CONTINUOUS
 62
  161
 10
93.261590493096975
 20
170.74346186032494
 11
93.605340493096975
 21
170.74346186032494
  0
LINE
  8
_1-d_
  6
CONTINUOUS
 62
  161
 10
93.605340493096975
 20
170.74346186032494
 11
93.605340493096975
 21
170.39971186032494
  0
LINE
  8
_1-d_
  6
CONTINUOUS
 62
  161
 10
96.011590493096975
 20
166.27471186032494
 11
96.011590493096975
 21
170.39971186032494
  0
LINE
  8
_1-d_
  6
CONTINUOUS
 62
  161
 10
96.011590493096975
 20
168.33721186032494
 11
96.699090493096975
 21
167.64971186032494
  0
LINE
  8
_1-d_
  6
CONTINUOUS
 62
  161
 10
96.699090493096975
 20
167.64971186032494
 11
97.042840493096975
 21
167.64971186032494
  0
LINE
  8
_1-d_
  6
CONTINUOUS
 62
  161
 10
97.042840493096975
 20
167.64971186032494
 11
97.730340493096975
 21
168.33721186032494
  0
LINE
  8
_1-d_
  6
CONTINUOUS
 62
  161
 10
97.730340493096975
 20
168.33721186032494
 11
97.730340493096975
 21
169.71221186032494
  0
LINE
  8
_1-d_
  6
CONTINUOUS
 62
  161
 10
97.730340493096975
 20
169.71221186032494
 11
97.042840493096975
 21
170.39971186032494
  0
LINE
  8
_1-d_
  6
CONTINUOUS
 62
  161
 10
97.042840493096975
 20
170.39971186032494
 11
96.699090493096975
 21
170.39971186032494
  0
LINE
  8
_1-d_
  6
CONTINUOUS
 62
  161
 10
96.699090493096975
 20
170.39971186032494
 11
96.011590493096975
 21
169.71221186032494
  0
LINE
  8
_1-d_
  6
CONTINUOUS
 62
  161
 10
99.105340493096975
 20
166.27471186032494
 11
99.449090493096975
 21
166.27471186032494
  0
LINE
  8
_1-d_
  6
CONTINUOUS
 62
  161
 10
99.449090493096975
 20
166.27471186032494
 11
99.449090493096975
 21
170.39971186032494
  0
LINE
  8
_1-d_
  6
CONTINUOUS
 62
  161
 10
102.54284144677129
 20
167.64971186032494
 11
102.19909049309697
 21
167.64971186032494
  0
LINE
  8
_1-d_
  6
CONTINUOUS
 62
  161
 10
102.19909049309697
 20
167.64971186032494
 11
101.51159049309697
 21
168.33721186032494
  0
LINE
  8
_1-d_
  6
CONTINUOUS
 62
  161
 10
101.51159049309697
 20
168.33721186032494
 11
101.51159049309697
 21
169.71221186032494
  0
LINE
  8
_1-d_
  6
CONTINUOUS
 62
  161
 10
101.51159049309697
 20
169.71221186032494
 11
102.19909049309697
 21
170.39971186032494
  0
LINE
  8
_1-d_
  6
CONTINUOUS
 62
  161
 10
102.19909049309697
 20
170.39971186032494
 11
102.54284144677129
 21
170.39971186032494
  0
LINE
  8
_1-d_
  6
CONTINUOUS
 62
  161
 10
102.54284144677129
 20
170.39971186032494
 11
103.23034144677129
 21
169.71221186032494
  0
LINE
  8
_1-d_
  6
CONTINUOUS
 62
  161
 10
103.23034144677129
 20
169.71221186032494
 11
103.23034144677129
 21
168.33721186032494
  0
LINE
  8
_1-d_
  6
CONTINUOUS
 62
  161
 10
103.23034144677129
 20
168.33721186032494
 11
102.54284144677129
 21
167.64971186032494
  0
LINE
  8
_1-d_
  6
CONTINUOUS
 62
  161
 10
105.98034144677129
 20
168.33721186032494
 11
105.29284144677129
 21
167.64971186032494
  0
LINE
  8
_1-d_
  6
CONTINUOUS
 62
  161
 10
105.29284144677129
 20
167.64971186032494
 11
104.94909144677129
 21
167.64971186032494
  0
LINE
  8
_1-d_
  6
CONTINUOUS
 62
  161
 10
104.94909144677129
 20
167.64971186032494
 11
104.26159144677129
 21
168.33721186032494
  0
LINE
  8
_1-d_
  6
CONTINUOUS
 62
  161
 10
104.26159144677129
 20
168.33721186032494
 11
104.26159144677129
 21
169.36846186032494
  0
LINE
  8
_1-d_
  6
CONTINUOUS
 62
  161
 10
104.26159144677129
 20
169.36846186032494
 11
104.94909144677129
 21
170.05596186032494
  0
LINE
  8
_1-d_
  6
CONTINUOUS
 62
  161
 10
104.94909144677129
 20
170.05596186032494
 11
105.29284144677129
 21
170.05596186032494
  0
LINE
  8
_1-d_
  6
CONTINUOUS
 62
  161
 10
105.29284144677129
 20
170.05596186032494
 11
105.98034144677129
 21
169.36846186032494
  0
LINE
  8
_1-d_
  6
CONTINUOUS
 62
  161
 10
105.98034144677129
 20
167.64971186032494
 11
105.98034144677129
 21
170.39971186032494
  0
LINE
  8
_1-d_
  6
CONTINUOUS
 62
  161
 10
105.98034144677129
 20
170.39971186032494
 11
105.29284144677129
 21
171.08721186032494
  0
LINE
  8
_1-d_
  6
CONTINUOUS
 62
  161
 10
105.29284144677129
 20
171.08721186032494
 11
104.60534144677129
 21
171.08721186032494
  0
LINE
  8
_1-d_
  6
CONTINUOUS
 62
  161
 10
104.60534144677129
 20
171.08721186032494
 11
104.26159144677129
 21
170.74346186032494
  0
LINE
  8
_1-d_
  6
CONTINUOUS
 62
  161
 10
108.73034144677132
 20
168.33721186032494
 11
108.04284144677132
 21
167.64971186032494
  0
LINE
  8
_1-d_
  6
CONTINUOUS
 62
  161
 10
108.04284144677132
 20
167.64971186032494
 11
107.69909144677132
 21
167.64971186032494
  0
LINE
  8
_1-d_
  6
CONTINUOUS
 62
  161
 10
107.69909144677132
 20
167.64971186032494
 11
107.01159144677132
 21
168.33721186032494
  0
LINE
  8
_1-d_
  6
CONTINUOUS
 62
  161
 10
107.01159144677132
 20
168.33721186032494
 11
107.01159144677132
 21
168.68096186032494
  0
LINE
  8
_1-d_
  6
CONTINUOUS
 62
  161
 10
107.01159144677132
 20
168.68096186032494
 11
107.35534144677132
 21
169.02471185473701
  0
LINE
  8
_1-d_
  6
CONTINUOUS
 62
  161
 10
107.35534144677132
 20
169.02471185473701
 11
108.38659144677132
 21
169.02471185473701
  0
LINE
  8
_1-d_
  6
CONTINUOUS
 62
  161
 10
108.38659144677132
 20
169.02471185473701
 11
108.73034144677132
 21
169.36846186032494
  0
LINE
  8
_1-d_
  6
CONTINUOUS
 62
  161
 10
108.73034144677132
 20
169.36846186032494
 11
108.73034144677132
 21
169.71221186032494
  0
LINE
  8
_1-d_
  6
CONTINUOUS
 62
  161
 10
108.73034144677132
 20
169.71221186032494
 11
108.04284144677132
 21
170.39971186032494
  0
LINE
  8
_1-d_
  6
CONTINUOUS
 62
  161
 10
108.04284144677132
 20
170.39971186032494
 11
107.69909144677132
 21
170.39971186032494
  0
LINE
  8
_1-d_
  6
CONTINUOUS
 62
  161
 10
107.69909144677132
 20
170.39971186032494
 11
107.01159144677132
 21
169.71221186032494
  0
LINE
  8
_1-d_
  6
CONTINUOUS
 62
  161
 10
109.76159144677132
 20
167.64971186032494
 11
109.76159144677132
 21
171.08721186032494
  0
LINE
  8
_1-d_
  6
CONTINUOUS
 62
  161
 10
109.76159144677132
 20
168.33721186032494
 11
110.44909144677132
 21
167.64971186032494
  0
LINE
  8
_1-d_
  6
CONTINUOUS
 62
  161
 10
110.44909144677132
 20
167.64971186032494
 11
110.79284144677132
 21
167.64971186032494
  0
LINE
  8
_1-d_
  6
CONTINUOUS
 62
  161
 10
110.79284144677132
 20
167.64971186032494
 11
111.48034144677132
 21
168.33721186032494
  0
LINE
  8
_1-d_
  6
CONTINUOUS
 62
  161
 10
111.48034144677132
 20
168.33721186032494
 11
111.48034144677132
 21
169.36846186032494
  0
LINE
  8
_1-d_
  6
CONTINUOUS
 62
  161
 10
111.48034144677132
 20
169.36846186032494
 11
110.79284144677132
 21
170.05596186032494
  0
LINE
  8
_1-d_
  6
CONTINUOUS
 62
  161
 10
110.79284144677132
 20
170.05596186032494
 11
110.44909144677132
 21
170.05596186032494
  0
LINE
  8
_1-d_
  6
CONTINUOUS
 62
  161
 10
110.44909144677132
 20
170.05596186032494
 11
109.76159144677132
 21
169.36846186032494
  0
LINE
  8
_1-d_
  6
CONTINUOUS
 62
  161
 10
113.54284144677132
 20
167.64971186032494
 11
113.19909144677132
 21
167.64971186032494
  0
LINE
  8
_1-d_
  6
CONTINUOUS
 62
  161
 10
113.19909144677132
 20
167.64971186032494
 11
112.51159144677132
 21
168.33721186032494
  0
LINE
  8
_1-d_
  6
CONTINUOUS
 62
  161
 10
112.51159144677132
 20
168.33721186032494
 11
112.51159144677132
 21
169.71221186032494
  0
LINE
  8
_1-d_
  6
CONTINUOUS
 62
  161
 10
112.51159144677132
 20
169.71221186032494
 11
113.19909144677132
 21
170.39971186032494
  0
LINE
  8
_1-d_
  6
CONTINUOUS
 62
  161
 10
113.19909144677132
 20
170.39971186032494
 11
113.54284144677132
 21
170.39971186032494
  0
LINE
  8
_1-d_
  6
CONTINUOUS
 62
  161
 10
113.54284144677132
 20
170.39971186032494
 11
114.23034144677132
 21
169.71221186032494
  0
LINE
  8
_1-d_
  6
CONTINUOUS
 62
  161
 10
114.23034144677132
 20
169.71221186032494
 11
114.23034144677132
 21
168.33721186032494
  0
LINE
  8
_1-d_
  6
CONTINUOUS
 62
  161
 10
114.23034144677132
 20
168.33721186032494
 11
113.54284144677132
 21
167.64971186032494
  0
LINE
  8
_1-d_
  6
CONTINUOUS
 62
  161
 10
115.26159144677132
 20
167.64971186032494
 11
116.63659144677132
 21
167.64971186032494
  0
LINE
  8
_1-d_
  6
CONTINUOUS
 62
  161
 10
115.94909144677132
 20
166.96221186032494
 11
115.94909144677132
 21
170.05596186032494
  0
LINE
  8
_1-d_
  6
CONTINUOUS
 62
  161
 10
115.94909144677132
 20
170.05596186032494
 11
116.29284144677132
 21
170.39971186032494
  0
LINE
  8
_1-d_
  6
CONTINUOUS
 62
  161
 10
116.29284144677132
 20
170.39971186032494
 11
116.63659144677132
 21
170.39971186032494
  0
LINE
  8
_1-d_
  6
CONTINUOUS
 62
  161
 10
116.63659144677132
 20
170.39971186032494
 11
116.98034144677132
 21
170.05596186032494
  0
LINE
  8
_1-d_
  6
CONTINUOUS
 62
  161
 10
116.98034144677132
 20
170.05596186032494
 11
116.98034144677132
 21
169.71221186032494
  0
LINE
  8
_1-d_
  6
CONTINUOUS
 62
  161
 10
118.35534144677132
 20
170.39971186032494
 11
118.01159144677132
 21
170.39971186032494
  0
LINE
  8
_1-d_
  6
CONTINUOUS
 62
  161
 10
118.01159144677132
 20
170.39971186032494
 11
118.01159144677132
 21
170.74346186032494
  0
LINE
  8
_1-d_
  6
CONTINUOUS
 62
  161
 10
118.01159144677132
 20
170.74346186032494
 11
118.35534144677132
 21
170.74346186032494
  0
LINE
  8
_1-d_
  6
CONTINUOUS
 62
  161
 10
118.35534144677132
 20
170.74346186032494
 11
118.35534144677132
 21
170.39971186032494
  0
LINE
  8
_1-d_
  6
CONTINUOUS
 62
  161
 10
122.13659144677132
 20
166.61846186032494
 11
122.13659144677132
 21
166.96221186032494
  0
LINE
  8
_1-d_
  6
CONTINUOUS
 62
  161
 10
122.13659144677132
 20
167.99346186032494
 11
122.13659144677132
 21
170.74346186032494
  0
LINE
  8
_1-d_
  6
CONTINUOUS
 62
  161
 10
122.13659144677132
 20
170.74346186032494
 11
121.79284144677132
 21
171.08721186032494
  0
LINE
  8
_1-d_
  6
CONTINUOUS
 62
  161
 10
121.79284144677132
 20
171.08721186032494
 11
121.44909144677132
 21
171.08721186032494
  0
LINE
  8
_1-d_
  6
CONTINUOUS
 62
  161
 10
121.44909144677132
 20
171.08721186032494
 11
121.10534144677132
 21
170.74346186032494
  0
LINE
  8
_1-d_
  6
CONTINUOUS
 62
  161
 10
121.10534144677132
 20
170.74346186032494
 11
121.10534144677132
 21
170.39971186032494
  0
LINE
  8
_1-d_
  6
CONTINUOUS
 62
  161
 10
123.51159144677132
 20
167.64971186032494
 11
123.51159144677132
 21
171.08721186032494
  0
LINE
  8
_1-d_
  6
CONTINUOUS
 62
  161
 10
123.51159144677132
 20
168.33721186032494
 11
124.19909144677132
 21
167.64971186032494
  0
LINE
  8
_1-d_
  6
CONTINUOUS
 62
  161
 10
124.19909144677132
 20
167.64971186032494
 11
124.54284144677132
 21
167.64971186032494
  0
LINE
  8
_1-d_
  6
CONTINUOUS
 62
  161
 10
124.54284144677132
 20
167.64971186032494
 11
125.23034144677132
 21
168.33721186032494
  0
LINE
  8
_1-d_
  6
CONTINUOUS
 62
  161
 10
125.23034144677132
 20
168.33721186032494
 11
125.23034144677132
 21
169.36846186032494
  0
LINE
  8
_1-d_
  6
CONTINUOUS
 62
  161
 10
125.23034144677132
 20
169.36846186032494
 11
124.54284144677132
 21
170.05596186032494
  0
LINE
  8
_1-d_
  6
CONTINUOUS
 62
  161
 10
124.54284144677132
 20
170.05596186032494
 11
124.19909144677132
 21
170.05596186032494
  0
LINE
  8
_1-d_
  6
CONTINUOUS
 62
  161
 10
124.19909144677132
 20
170.05596186032494
 11
123.51159144677132
 21
169.36846186032494
  0
LINE
  8
_1-d_
  6
CONTINUOUS
 62
  161
 10
127.98034144677132
 20
166.27471186032494
 11
126.26159144677132
 21
170.74346186032494
  0
LINE
  8
_1-d_
  6
CONTINUOUS
 62
  161
 10
128.2945624766208
 20
75.134844791126966
 11
128.98206253622544
 21
74.791094791126966
  0
LINE
  8
_1-d_
  6
CONTINUOUS
 62
  161
 10
128.98206253622544
 20
74.791094791126966
 11
129.66956241701615
 21
74.103594791126966
  0
LINE
  8
_1-d_
  6
CONTINUOUS
 62
  161
 10
129.66956241701615
 20
74.103594791126966
 11
130.01331241701615
 21
73.416094731522321
  0
LINE
  8
_1-d_
  6
CONTINUOUS
 62
  161
 10
130.01331241701615
 20
73.416094731522321
 11
130.01331241701615
 21
71.697344731522321
  0
LINE
  8
_1-d_
  6
CONTINUOUS
 62
  161
 10
130.01331241701615
 20
71.697344731522321
 11
129.66956241701615
 21
71.009844791126966
  0
LINE
  8
_1-d_
  6
CONTINUOUS
 62
  161
 10
129.66956241701615
 20
71.009844791126966
 11
128.98206253622544
 21
70.322344791126966
  0
LINE
  8
_1-d_
  6
CONTINUOUS
 62
  161
 10
128.98206253622544
 20
70.322344791126966
 11
128.2945624766208
 21
69.978594791126966
  0
LINE
  8
_1-d_
  6
CONTINUOUS
 62
  161
 10
128.2945624766208
 20
69.978594791126966
 11
126.9195624766208
 21
69.978594791126966
  0
LINE
  8
_1-d_
  6
CONTINUOUS
 62
  161
 10
126.9195624766208
 20
69.978594791126966
 11
126.23206253622544
 21
70.322344791126966
  0
LINE
  8
_1-d_
  6
CONTINUOUS
 62
  161
 10
126.23206253622544
 20
70.322344791126966
 11
125.54456241701615
 21
71.009844791126966
  0
LINE
  8
_1-d_
  6
CONTINUOUS
 62
  161
 10
125.54456241701615
 20
71.009844791126966
 11
125.20081241701615
 21
71.697344731522321
  0
LINE
  8
_1-d_
  6
CONTINUOUS
 62
  161
 10
125.20081241701615
 20
71.697344731522321
 11
125.20081241701615
 21
73.416094731522321
  0
LINE
  8
_1-d_
  6
CONTINUOUS
 62
  161
 10
125.20081241701615
 20
73.416094731522321
 11
125.54456241701615
 21
74.103594791126966
  0
LINE
  8
_1-d_
  6
CONTINUOUS
 62
  161
 10
125.54456241701615
 20
74.103594791126966
 11
126.23206253622544
 21
74.791094791126966
  0
LINE
  8
_1-d_
  6
CONTINUOUS
 62
  161
 10
126.23206253622544
 20
74.791094791126966
 11
126.9195624766208
 21
75.134844791126966
  0
LINE
  8
_1-d_
  6
CONTINUOUS
 62
  161
 10
126.9195624766208
 20
75.134844791126966
 11
128.2945624766208
 21
75.134844791126966
  0
LINE
  8
_1-d_
  6
CONTINUOUS
 62
  161
 10
128.98206253622544
 20
73.759844791126966
 11
128.63831253622544
 21
74.103594791126966
  0
LINE
  8
_1-d_
  6
CONTINUOUS
 62
  161
 10
128.63831253622544
 20
74.103594791126966
 11
128.63831253622544
 21
71.009844791126966
  0
LINE
  8
_1-d_
  6
CONTINUOUS
 62
  161
 10
128.98206253622544
 20
71.009844791126966
 11
128.2945624766208
 21
71.009844791126966
  0
LINE
  8
_1-d_
  6
CONTINUOUS
 62
  161
 10
127.60706248034609
 20
71.353594791126966
 11
127.2633124766208
 21
71.009844791126966
  0
LINE
  8
_1-d_
  6
CONTINUOUS
 62
  161
 10
127.2633124766208
 20
71.009844791126966
 11
126.9195624766208
 21
71.009844791126966
  0
LINE
  8
_1-d_
  6
CONTINUOUS
 62
  161
 10
126.9195624766208
 20
71.009844791126966
 11
126.5758124766208
 21
71.353594791126966
  0
LINE
  8
_1-d_
  6
CONTINUOUS
 62
  161
 10
126.5758124766208
 20
71.353594791126966
 11
126.5758124766208
 21
73.759844791126966
  0
LINE
  8
_1-d_
  6
CONTINUOUS
 62
  161
 10
126.5758124766208
 20
73.759844791126966
 11
126.9195624766208
 21
74.103594791126966
  0
LINE
  8
_1-d_
  6
CONTINUOUS
 62
  161
 10
126.9195624766208
 20
74.103594791126966
 11
127.2633124766208
 21
74.103594791126966
  0
LINE
  8
_1-d_
  6
CONTINUOUS
 62
  161
 10
127.2633124766208
 20
74.103594791126966
 11
127.60706248034609
 21
73.759844791126966
  0
LINE
  8
_1-d_
  6
CONTINUOUS
 62
  161
 10
127.60706248034609
 20
73.759844791126966
 11
127.60706248034609
 21
71.353594791126966
  0
LINE
  8
_1-d_
  6
CONTINUOUS
 62
  161
 10
134.81862105402666
 20
67.678777845520258
 11
135.50612111363131
 21
67.335027845520258
  0
LINE
  8
_1-d_
  6
CONTINUOUS
 62
  161
 10
135.50612111363131
 20
67.335027845520258
 11
136.19362099442202
 21
66.647527845520258
  0
LINE
  8
_1-d_
  6
CONTINUOUS
 62
  161
 10
136.19362099442202
 20
66.647527845520258
 11
136.53737099442202
 21
65.960027785915614
  0
LINE
  8
_1-d_
  6
CONTINUOUS
 62
  161
 10
136.53737099442202
 20
65.960027785915614
 11
136.53737099442202
 21
64.241277785915614
  0
LINE
  8
_1-d_
  6
CONTINUOUS
 62
  161
 10
136.53737099442202
 20
64.241277785915614
 11
136.19362099442202
 21
63.553777845520258
  0
LINE
  8
_1-d_
  6
CONTINUOUS
 62
  161
 10
136.19362099442202
 20
63.553777845520258
 11
135.50612111363131
 21
62.866277845520258
  0
LINE
  8
_1-d_
  6
CONTINUOUS
 62
  161
 10
135.50612111363131
 20
62.866277845520258
 11
134.81862105402666
 21
62.522527845520258
  0
LINE
  8
_1-d_
  6
CONTINUOUS
 62
  161
 10
134.81862105402666
 20
62.522527845520258
 11
133.44362105402666
 21
62.522527845520258
  0
LINE
  8
_1-d_
  6
CONTINUOUS
 62
  161
 10
133.44362105402666
 20
62.522527845520258
 11
132.75612111363131
 21
62.866277845520258
  0
LINE
  8
_1-d_
  6
CONTINUOUS
 62
  161
 10
132.75612111363131
 20
62.866277845520258
 11
132.06862099442202
 21
63.553777845520258
  0
LINE
  8
_1-d_
  6
CONTINUOUS
 62
  161
 10
132.06862099442202
 20
63.553777845520258
 11
131.72487099442202
 21
64.241277785915614
  0
LINE
  8
_1-d_
  6
CONTINUOUS
 62
  161
 10
131.72487099442202
 20
64.241277785915614
 11
131.72487099442202
 21
65.960027785915614
  0
LINE
  8
_1-d_
  6
CONTINUOUS
 62
  161
 10
131.72487099442202
 20
65.960027785915614
 11
132.06862099442202
 21
66.647527845520258
  0
LINE
  8
_1-d_
  6
CONTINUOUS
 62
  161
 10
132.06862099442202
 20
66.647527845520258
 11
132.75612111363131
 21
67.335027845520258
  0
LINE
  8
_1-d_
  6
CONTINUOUS
 62
  161
 10
132.75612111363131
 20
67.335027845520258
 11
133.44362105402666
 21
67.678777845520258
  0
LINE
  8
_1-d_
  6
CONTINUOUS
 62
  161
 10
133.44362105402666
 20
67.678777845520258
 11
134.81862105402666
 21
67.678777845520258
  0
LINE
  8
_1-d_
  6
CONTINUOUS
 62
  161
 10
135.50612111363131
 20
66.303777845520258
 11
135.16237111363131
 21
66.647527845520258
  0
LINE
  8
_1-d_
  6
CONTINUOUS
 62
  161
 10
135.16237111363131
 20
66.647527845520258
 11
135.16237111363131
 21
63.553777845520258
  0
LINE
  8
_1-d_
  6
CONTINUOUS
 62
  161
 10
135.50612111363131
 20
63.553777845520258
 11
134.81862105402666
 21
63.553777845520258
  0
LINE
  8
_1-d_
  6
CONTINUOUS
 62
  161
 10
134.13112105775195
 20
63.897527845520258
 11
133.78737105402666
 21
63.553777845520258
  0
LINE
  8
_1-d_
  6
CONTINUOUS
 62
  161
 10
133.78737105402666
 20
63.553777845520258
 11
133.44362105402666
 21
63.553777845520258
  0
LINE
  8
_1-d_
  6
CONTINUOUS
 62
  161
 10
133.44362105402666
 20
63.553777845520258
 11
133.09987105402666
 21
63.897527845520258
  0
LINE
  8
_1-d_
  6
CONTINUOUS
 62
  161
 10
133.09987105402666
 20
63.897527845520258
 11
133.09987105402666
 21
66.303777845520258
  0
LINE
  8
_1-d_
  6
CONTINUOUS
 62
  161
 10
133.09987105402666
 20
66.303777845520258
 11
133.44362105402666
 21
66.647527845520258
  0
LINE
  8
_1-d_
  6
CONTINUOUS
 62
  161
 10
133.44362105402666
 20
66.647527845520258
 11
133.78737105402666
 21
66.647527845520258
  0
LINE
  8
_1-d_
  6
CONTINUOUS
 62
  161
 10
133.78737105402666
 20
66.647527845520258
 11
134.13112105775195
 21
66.303777845520258
  0
LINE
  8
_1-d_
  6
CONTINUOUS
 62
  161
 10
134.13112105775195
 20
66.303777845520258
 11
134.13112105775195
 21
63.897527845520258
  0
LINE
  8
_1-d_
  6
CONTINUOUS
 62
  161
 10
230.27918669512269
 20
6.4072478197126657
 11
229.93543669512269
 21
5.7197478197126657
  0
LINE
  8
_1-d_
  6
CONTINUOUS
 62
  161
 10
229.93543669512269
 20
5.7197478197126657
 11
229.2479365759134
 21
5.0322478197126657
  0
LINE
  8
_1-d_
  6
CONTINUOUS
 62
  161
 10
229.2479365759134
 20
5.0322478197126657
 11
228.56043663551804
 21
4.6884978197126657
  0
LINE
  8
_1-d_
  6
CONTINUOUS
 62
  161
 10
228.56043663551804
 20
4.6884978197126657
 11
226.84168663551804
 21
4.6884978197126657
  0
LINE
  8
_1-d_
  6
CONTINUOUS
 62
  161
 10
226.84168663551804
 20
4.6884978197126657
 11
226.1541865759134
 21
5.0322478197126657
  0
LINE
  8
_1-d_
  6
CONTINUOUS
 62
  161
 10
226.1541865759134
 20
5.0322478197126657
 11
225.46668669512269
 21
5.7197478197126657
  0
LINE
  8
_1-d_
  6
CONTINUOUS
 62
  161
 10
225.46668669512269
 20
5.7197478197126657
 11
225.12293669512269
 21
6.4072478197126657
  0
LINE
  8
_1-d_
  6
CONTINUOUS
 62
  161
 10
225.12293669512269
 20
6.4072478197126657
 11
225.12293669512269
 21
7.7822478197126657
  0
LINE
  8
_1-d_
  6
CONTINUOUS
 62
  161
 10
225.12293669512269
 20
7.7822478197126657
 11
225.46668669512269
 21
8.4697478197126657
  0
LINE
  8
_1-d_
  6
CONTINUOUS
 62
  161
 10
225.46668669512269
 20
8.4697478197126657
 11
226.1541865759134
 21
9.1572478197126657
  0
LINE
  8
_1-d_
  6
CONTINUOUS
 62
  161
 10
226.1541865759134
 20
9.1572478197126657
 11
226.84168663551804
 21
9.5009978197126657
  0
LINE
  8
_1-d_
  6
CONTINUOUS
 62
  161
 10
226.84168663551804
 20
9.5009978197126657
 11
228.56043663551804
 21
9.5009978197126657
  0
LINE
  8
_1-d_
  6
CONTINUOUS
 62
  161
 10
228.56043663551804
 20
9.5009978197126657
 11
229.2479365759134
 21
9.1572478197126657
  0
LINE
  8
_1-d_
  6
CONTINUOUS
 62
  161
 10
229.2479365759134
 20
9.1572478197126657
 11
229.93543669512269
 21
8.4697478197126657
  0
LINE
  8
_1-d_
  6
CONTINUOUS
 62
  161
 10
229.93543669512269
 20
8.4697478197126657
 11
230.27918669512269
 21
7.7822478197126657
  0
LINE
  8
_1-d_
  6
CONTINUOUS
 62
  161
 10
230.27918669512269
 20
7.7822478197126657
 11
230.27918669512269
 21
6.4072478197126657
  0
LINE
  8
_1-d_
  6
CONTINUOUS
 62
  161
 10
228.56043663551804
 20
6.0634978197126657
 11
229.2479365759134
 21
6.7509978197126657
  0
LINE
  8
_1-d_
  6
CONTINUOUS
 62
  161
 10
229.2479365759134
 20
6.7509978197126657
 11
229.2479365759134
 21
7.4384978197126657
  0
LINE
  8
_1-d_
  6
CONTINUOUS
 62
  161
 10
229.2479365759134
 20
7.4384978197126657
 11
228.56043663551804
 21
8.1259978197126657
  0
LINE
  8
_1-d_
  6
CONTINUOUS
 62
  161
 10
228.56043663551804
 20
8.1259978197126657
 11
228.21668663551804
 21
8.1259978197126657
  0
LINE
  8
_1-d_
  6
CONTINUOUS
 62
  161
 10
228.21668663551804
 20
8.1259978197126657
 11
226.4979365759134
 21
6.0634978197126657
  0
LINE
  8
_1-d_
  6
CONTINUOUS
 62
  161
 10
226.4979365759134
 20
6.0634978197126657
 11
226.1541865759134
 21
6.0634978197126657
  0
LINE
  8
_1-d_
  6
CONTINUOUS
 62
  161
 10
226.1541865759134
 20
6.0634978197126657
 11
226.1541865759134
 21
8.1259978197126657
  0
LINE
  8
_1-d_
  6
CONTINUOUS
 62
  161
 10
226.1541865759134
 20
8.1259978197126657
 11
226.84168663551804
 21
8.1259978197126657
  0
LINE
  8
_1-d_
  6
CONTINUOUS
 62
  161
 10
212.22742494626416
 20
221.84549364306758
 11
212.91492494626416
 21
221.50174364306758
  0
LINE
  8
_1-d_
  6
CONTINUOUS
 62
  161
 10
212.91492494626416
 20
221.50174364306758
 11
213.60242494626416
 21
220.81424364306758
  0
LINE
  8
_1-d_
  6
CONTINUOUS
 62
  161
 10
213.60242494626416
 20
220.81424364306758
 11
213.94617494626416
 21
220.12674358346294
  0
LINE
  8
_1-d_
  6
CONTINUOUS
 62
  161
 10
213.94617494626416
 20
220.12674358346294
 11
213.94617494626416
 21
218.40799358346294
  0
LINE
  8
_1-d_
  6
CONTINUOUS
 62
  161
 10
213.94617494626416
 20
218.40799358346294
 11
213.60242494626416
 21
217.72049364306758
  0
LINE
  8
_1-d_
  6
CONTINUOUS
 62
  161
 10
213.60242494626416
 20
217.72049364306758
 11
212.91492494626416
 21
217.03299364306758
  0
LINE
  8
_1-d_
  6
CONTINUOUS
 62
  161
 10
212.91492494626416
 20
217.03299364306758
 11
212.22742494626416
 21
216.68924364306758
  0
LINE
  8
_1-d_
  6
CONTINUOUS
 62
  161
 10
212.22742494626416
 20
216.68924364306758
 11
210.85242494626416
 21
216.68924364306758
  0
LINE
  8
_1-d_
  6
CONTINUOUS
 62
  161
 10
210.85242494626416
 20
216.68924364306758
 11
210.16492494626416
 21
217.03299364306758
  0
LINE
  8
_1-d_
  6
CONTINUOUS
 62
  161
 10
210.16492494626416
 20
217.03299364306758
 11
209.47742494626416
 21
217.72049364306758
  0
LINE
  8
_1-d_
  6
CONTINUOUS
 62
  161
 10
209.47742494626416
 20
217.72049364306758
 11
209.13367494626416
 21
218.40799358346294
  0
LINE
  8
_1-d_
  6
CONTINUOUS
 62
  161
 10
209.13367494626416
 20
218.40799358346294
 11
209.13367494626416
 21
220.12674358346294
  0
LINE
  8
_1-d_
  6
CONTINUOUS
 62
  161
 10
209.13367494626416
 20
220.12674358346294
 11
209.47742494626416
 21
220.81424364306758
  0
LINE
  8
_1-d_
  6
CONTINUOUS
 62
  161
 10
209.47742494626416
 20
220.81424364306758
 11
210.16492494626416
 21
221.50174364306758
  0
LINE
  8
_1-d_
  6
CONTINUOUS
 62
  161
 10
210.16492494626416
 20
221.50174364306758
 11
210.85242494626416
 21
221.84549364306758
  0
LINE
  8
_1-d_
  6
CONTINUOUS
 62
  161
 10
210.85242494626416
 20
221.84549364306758
 11
212.22742494626416
 21
221.84549364306758
  0
LINE
  8
_1-d_
  6
CONTINUOUS
 62
  161
 10
210.50867494626416
 20
218.75174358346294
 11
212.91492494626416
 21
218.75174358346294
  0
LINE
  8
_1-d_
  6
CONTINUOUS
 62
  161
 10
212.91492494626416
 20
218.75174358346294
 11
212.91492494626416
 21
219.0954935983641
  0
LINE
  8
_1-d_
  6
CONTINUOUS
 62
  161
 10
212.91492494626416
 20
219.0954935983641
 11
211.19617494626416
 21
220.81424364306758
  0
LINE
  8
_1-d_
  6
CONTINUOUS
 62
  161
 10
211.19617494626416
 20
220.81424364306758
 11
211.19617494626416
 21
217.72049364306758
  0
LINE
  8
_1-d_
  6
CONTINUOUS
 62
  161
 10
211.88367494626416
 20
217.72049364306758
 11
210.50867494626416
 21
217.72049364306758
  0
LINE
  8
_1-d_
  6
CONTINUOUS
 62
  161
 10
27.44039199461551
 20
223.28356025521833
 11
27.44039199461551
 21
212.23138618409507
  0
LINE
  8
_1-d_
  6
CONTINUOUS
 62
  161
 10
32.090391994615544
 20
223.28356025521833
 11
27.44039199461551
 21
223.28356025521833
  0
LINE
  8
_1-d_
  6
CONTINUOUS
 62
  161
 10
32.090391994615544
 20
214.18356025521834
 11
32.090391994615544
 21
223.28356025521833
  0
LINE
  8
_1-d_
  6
CONTINUOUS
 62
  161
 10
34.790391994615533
 20
214.18356025521834
 11
32.090391994615544
 21
214.18356025521834
  0
LINE
  8
_1-d_
  6
CONTINUOUS
 62
  161
 10
34.790391994615533
 20
223.28356025521833
 11
34.790391994615533
 21
214.18356025521834
  0
LINE
  8
_1-d_
  6
CONTINUOUS
 62
  161
 10
39.44039199461551
 20
223.28356025521833
 11
34.790391994615533
 21
223.28356025521833
  0
LINE
  8
_1-d_
  6
CONTINUOUS
 62
  161
 10
39.44039199461551
 20
212.28356025521833
 11
39.44039199461551
 21
223.28356025521833
  0
LINE
  8
_1-d_
  6
CONTINUOUS
 62
  161
 10
129.94039199461554
 20
223.2835602552183
 11
129.94039199461554
 21
212.2835602552183
  0
LINE
  8
_1-d_
  6
CONTINUOUS
 62
  161
 10
134.59039199461554
 20
223.2835602552183
 11
129.94039199461554
 21
223.2835602552183
  0
LINE
  8
_1-d_
  6
CONTINUOUS
 62
  161
 10
134.59039199461554
 20
214.18356025521831
 11
134.59039199461554
 21
223.2835602552183
  0
LINE
  8
_1-d_
  6
CONTINUOUS
 62
  161
 10
137.29039199461553
 20
223.2835602552183
 11
137.29039199461553
 21
214.18356025521831
  0
LINE
  8
_1-d_
  6
CONTINUOUS
 62
  161
 10
141.94039199461554
 20
223.2835602552183
 11
137.29039199461553
 21
223.2835602552183
  0
LINE
  8
_1-d_
  6
CONTINUOUS
 62
  161
 10
141.94039199461554
 20
212.23138618409504
 11
141.94039199461554
 21
223.2835602552183
  0
LINE
  8
_1-d_
  6
CONTINUOUS
 62
  161
 10
149.74031680154965
 20
135.46235885707131
 11
152.88689550192154
 21
123.99702580216668
  0
LINE
  8
_1-d_
  6
CONTINUOUS
 62
  161
 10
152.88689550192154
 20
123.99702580216668
 11
148.31591144648974
 21
122.74255190248272
  0
LINE
  8
_1-d_
  6
CONTINUOUS
 62
  161
 10
148.31591144648974
 20
122.74255190248272
 11
145.99141117916224
 21
131.21244008547168
  0
LINE
  8
_1-d_
  6
CONTINUOUS
 62
  161
 10
143.56126775728711
 20
130.54550459450047
 11
145.96964591912757
 21
121.76998668217362
  0
LINE
  8
_1-d_
  6
CONTINUOUS
 62
  161
 10
145.96964591912757
 20
121.76998668217362
 11
141.39866186369574
 21
120.51551278248968
  0
LINE
  8
_1-d_
  6
CONTINUOUS
 62
  161
 10
141.39866186369574
 20
120.51551278248968
 11
138.46627173955696
 21
131.20039710341598
  0
LINE
  8
_1-d_
  6
CONTINUOUS
 62
  161
 10
30.91451224967409
 20
131.20039710341595
 11
27.982122125535341
 21
120.51551278248968
  0
LINE
  8
_1-d_
  6
CONTINUOUS
 62
  161
 10
27.982122125535341
 20
120.51551278248968
 11
23.411138070103505
 21
121.76998668217362
  0
LINE
  8
_1-d_
  6
CONTINUOUS
 62
  161
 10
23.411138070103505
 20
121.76998668217362
 11
25.819516231943965
 21
130.54550459450047
  0
LINE
  8
_1-d_
  6
CONTINUOUS
 62
  161
 10
23.389372810068835
 20
131.21244008547171
 11
20.980994648228403
 21
122.43692217314481
  0
LINE
  8
_1-d_
  6
CONTINUOUS
 62
  161
 10
20.980994648228403
 20
122.43692217314481
 11
16.410010592796596
 21
123.69139607282875
  0
LINE
  8
_1-d_
  6
CONTINUOUS
 62
  161
 10
16.410010592796596
 20
123.69139607282875
 11
19.640467187681423
 21
135.46235885707131
  0
LINE
  8
_1-d_
  6
CONTINUOUS
 62
  161
 10
105.31219164741925
 20
24.001798076453966
 11
105.99969158781461
 21
23.658048076453966
  0
LINE
  8
_1-d_
  6
CONTINUOUS
 62
  161
 10
105.99969158781461
 20
23.658048076453966
 11
106.68719158781461
 21
22.970548076453966
  0
LINE
  8
_1-d_
  6
CONTINUOUS
 62
  161
 10
106.68719158781461
 20
22.970548076453966
 11
107.03094158781461
 21
22.283048076453966
  0
LINE
  8
_1-d_
  6
CONTINUOUS
 62
  161
 10
107.03094158781455
 20
22.283048076453966
 11
107.03094158781455
 21
20.56429807645398
  0
LINE
  8
_1-d_
  6
CONTINUOUS
 62
  161
 10
107.03094158781455
 20
20.56429807645398
 11
106.68719158781455
 21
19.87679807645398
  0
LINE
  8
_1-d_
  6
CONTINUOUS
 62
  161
 10
106.68719158781455
 20
19.87679807645398
 11
105.99969158781455
 21
19.18929807645398
  0
LINE
  8
_1-d_
  6
CONTINUOUS
 62
  161
 10
105.99969158781455
 20
19.18929807645398
 11
105.3121916474192
 21
18.84554807645398
  0
LINE
  8
_1-d_
  6
CONTINUOUS
 62
  161
 10
105.3121916474192
 20
18.84554807645398
 11
103.9371916474192
 21
18.84554807645398
  0
LINE
  8
_1-d_
  6
CONTINUOUS
 62
  161
 10
103.9371916474192
 20
18.84554807645398
 11
103.24969158781455
 21
19.18929807645398
  0
LINE
  8
_1-d_
  6
CONTINUOUS
 62
  161
 10
103.24969158781455
 20
19.18929807645398
 11
102.56219158781455
 21
19.87679807645398
  0
LINE
  8
_1-d_
  6
CONTINUOUS
 62
  161
 10
102.56219158781455
 20
19.87679807645398
 11
102.21844158781455
 21
20.56429807645398
  0
LINE
  8
_1-d_
  6
CONTINUOUS
 62
  161
 10
102.21844158781455
 20
20.56429807645398
 11
102.21844158781455
 21
22.283048076453966
  0
LINE
  8
_1-d_
  6
CONTINUOUS
 62
  161
 10
102.21844158781461
 20
22.283048076453966
 11
102.56219158781461
 21
22.970548076453966
  0
LINE
  8
_1-d_
  6
CONTINUOUS
 62
  161
 10
102.56219158781461
 20
22.970548076453966
 11
103.24969158781461
 21
23.658048076453966
  0
LINE
  8
_1-d_
  6
CONTINUOUS
 62
  161
 10
103.24969158781461
 20
23.658048076453966
 11
103.93719164741925
 21
24.001798076453966
  0
LINE
  8
_1-d_
  6
CONTINUOUS
 62
  161
 10
103.93719164741925
 20
24.001798076453966
 11
105.31219164741925
 21
24.001798076453966
  0
LINE
  8
_1-d_
  6
CONTINUOUS
 62
  161
 10
105.31219164741925
 20
22.626798076453966
 11
104.62469163810603
 21
22.970548076453966
  0
LINE
  8
_1-d_
  6
CONTINUOUS
 62
  161
 10
104.62469163810597
 20
22.970548076453966
 11
104.62469163810597
 21
19.87679807645398
  0
LINE
  8
_1-d_
  6
CONTINUOUS
 62
  161
 10
105.65594158781455
 20
19.87679807645398
 11
103.59344158781455
 21
19.87679807645398
  0
LINE
  8
_1-d_
  6
CONTINUOUS
 62
  161
 10
97.551163308522703
 20
26.21242134076671
 11
88.801163308522703
 21
26.21242134076671
  0
LINE
  8
_1-d_
  6
CONTINUOUS
 62
  161
 10
93.176163504100444
 20
26.83742134076671
 11
93.176163504100444
 21
26.21242134076671
  0
LINE
  8
_1-d_
  6
CONTINUOUS
 62
  161
 10
93.176163504100387
 20
24.962421102348131
 11
93.176163504100387
 21
19.962421102348145
  0
LINE
  8
_1-d_
  6
CONTINUOUS
 62
  161
 10
90.051163546941282
 20
22.462421102348131
 11
90.051163546941282
 21
24.962421102348131
  0
LINE
  8
_1-d_
  6
CONTINUOUS
 62
  161
 10
90.051163546941282
 20
24.962421102348131
 11
96.301163546941282
 21
24.962421102348131
  0
LINE
  8
_1-d_
  6
CONTINUOUS
 62
  161
 10
96.301163546941282
 20
24.962421102348131
 11
96.301163546941282
 21
22.462421102348131
  0
LINE
  8
_1-d_
  6
CONTINUOUS
 62
  161
 10
96.301163546941282
 20
22.462421102348131
 11
90.051163546941282
 21
22.462421102348131
  0
LINE
  8
_1-d_
  6
CONTINUOUS
 62
  161
 10
90.051163546941282
 20
23.712421102348131
 11
96.301163546941282
 21
23.712421102348131
  0
LINE
  8
_1-d_
  6
CONTINUOUS
 62
  161
 10
96.926163546941225
 20
21.212421117249292
 11
89.426163546941282
 21
21.212421117249292
  0
LINE
  8
_1-d_
  6
CONTINUOUS
 62
  161
 10
88.801163308522703
 20
19.962421102348145
 11
97.551163308522646
 21
19.962421102348145
  0
LINE
  8
_1-d_
  6
CONTINUOUS
 62
  161
 10
97.551163308522646
 20
18.087421102348145
 11
93.801163487336581
 21
19.962421102348145
  0
LINE
  8
_1-d_
  6
CONTINUOUS
 62
  161
 10
95.051163546941225
 20
19.337421102348145
 11
95.051163546941225
 21
17.462421102348145
  0
LINE
  8
_1-d_
  6
CONTINUOUS
 62
  161
 10
96.301163546941225
 20
17.462421102348145
 11
95.051163546941225
 21
17.462421102348145
  0
LINE
  8
_1-d_
  6
CONTINUOUS
 62
  161
 10
95.051163546941225
 20
17.462421102348145
 11
92.551163487336581
 21
18.087421102348145
  0
LINE
  8
_1-d_
  6
CONTINUOUS
 62
  161
 10
92.551163487336581
 20
19.962421102348145
 11
91.301163546941282
 21
18.712421102348145
  0
LINE
  8
_1-d_
  6
CONTINUOUS
 62
  161
 10
91.301163546941282
 20
18.712421102348145
 11
88.801163308522703
 21
17.462421102348145
  0
LINE
  8
_1-d_
  6
CONTINUOUS
 62
  161
 10
89.426163546941282
 20
19.337421102348145
 11
91.301163546941282
 21
18.712421102348145
  0
LINE
  8
_1-d_
  6
CONTINUOUS
 62
  161
 10
10.077299464354667
 20
38.89924464866786
 11
10.46800786410526
 21
41.115062092945337
  0
LINE
  8
_1-d_
  6
CONTINUOUS
 62
  161
 10
9.8163763884234356
 20
40.658784834401189
 11
10.46800786410526
 21
41.115062092945337
  0
LINE
  8
_1-d_
  6
CONTINUOUS
 62
  161
 10
10.46800786410526
 20
41.115062092945337
 11
10.924285139911746
 21
40.463430629350754
  0
LINE
  8
_1-d_
  6
CONTINUOUS
 62
  161
 10
8.7523305641566083
 20
37.863589149515221
 11
10.577439549984348
 21
35.257063315837399
  0
LINE
  8
_1-d_
  6
CONTINUOUS
 62
  161
 10
8.3616221644060147
 20
35.647771705237744
 11
10.968147949734941
 21
37.472880760114876
  0
LINE
  8
_1-d_
  6
CONTINUOUS
 62
  161
 10
8.5569763642812973
 20
36.75568042737649
 11
8.7741868512836163
 21
36.907772847753733
  0
LINE
  8
_1-d_
  6
CONTINUOUS
 62
  161
 10
8.7741868512836163
 20
36.907772847753733
 11
8.9262792129617594
 21
36.690562371101635
  0
LINE
  8
_1-d_
  6
CONTINUOUS
 62
  161
 10
8.9262792129617594
 20
36.690562371101635
 11
8.7090687846585411
 21
36.538469940374142
  0
LINE
  8
_1-d_
  6
CONTINUOUS
 62
  161
 10
8.7090687846585411
 20
36.538469940374142
 11
8.5569763642812973
 21
36.75568042737649
  0
LINE
  8
_1-d_
  6
CONTINUOUS
 62
  161
 10
8.5569763642812973
 20
36.75568042737649
 11
8.9262792129617594
 21
36.690562371101635
  0
LINE
  8
_1-d_
  6
CONTINUOUS
 62
  161
 10
8.7741868512836163
 20
36.907772847753733
 11
8.7090687846585411
 21
36.538469940374142
  0
LINE
  8
_1-d_
  6
CONTINUOUS
 62
  161
 10
9.6430287699434416
 20
37.516142534437805
 11
9.8602392422710068
 21
37.668234957402603
  0
LINE
  8
_1-d_
  6
CONTINUOUS
 62
  161
 10
9.8602392422710068
 20
37.668234957402603
 11
10.012331666316925
 21
37.451024469753378
  0
LINE
  8
_1-d_
  6
CONTINUOUS
 62
  161
 10
10.012331666316925
 20
37.451024469753378
 11
9.7951211756459031
 21
37.298932050023026
  0
LINE
  8
_1-d_
  6
CONTINUOUS
 62
  161
 10
9.7951211756459031
 20
37.298932050023026
 11
9.6430287699434416
 21
37.516142534437805
  0
LINE
  8
_1-d_
  6
CONTINUOUS
 62
  161
 10
9.6430287699434416
 20
37.516142534437805
 11
10.012331666316925
 21
37.451024469753378
  0
LINE
  8
_1-d_
  6
CONTINUOUS
 62
  161
 10
9.8602392422710068
 20
37.668234957402603
 11
9.7951211756459031
 21
37.298932050023026
  0
LINE
  8
_1-d_
  6
CONTINUOUS
 62
  161
 10
10.403490842480068
 20
36.430090104601248
 11
10.620701329482415
 21
36.582182524978478
  0
LINE
  8
_1-d_
  6
CONTINUOUS
 62
  161
 10
10.620701329482415
 20
36.582182524978478
 11
10.772793749859659
 21
36.364972037976131
  0
LINE
  8
_1-d_
  6
CONTINUOUS
 62
  161
 10
10.772793749859659
 20
36.364972037976131
 11
10.555583262857311
 21
36.212879617598901
  0
LINE
  8
_1-d_
  6
CONTINUOUS
 62
  161
 10
10.555583262857311
 20
36.212879617598901
 11
10.403490842480068
 21
36.430090104601248
  0
LINE
  8
_1-d_
  6
CONTINUOUS
 62
  161
 10
10.403490842480068
 20
36.430090104601248
 11
10.772793749859659
 21
36.364972037976131
  0
LINE
  8
_1-d_
  6
CONTINUOUS
 62
  161
 10
10.620701329482415
 20
36.582182524978478
 11
10.555583262857311
 21
36.212879617598901
  0
LINE
  8
_1-d_
  6
CONTINUOUS
 62
  161
 10
9.3174384368179517
 20
35.669627997539919
 11
9.5346489091454885
 21
35.821720420504718
  0
LINE
  8
_1-d_
  6
CONTINUOUS
 62
  161
 10
9.5346489091454885
 20
35.821720420504718
 11
9.6867413331914349
 21
35.604509932855493
  0
LINE
  8
_1-d_
  6
CONTINUOUS
 62
  161
 10
9.6867413331914349
 20
35.604509932855493
 11
9.4695308425204132
 21
35.452417513125141
  0
LINE
  8
_1-d_
  6
CONTINUOUS
 62
  161
 10
9.4695308425204132
 20
35.452417513125141
 11
9.3174384368179517
 21
35.669627997539919
  0
LINE
  8
_1-d_
  6
CONTINUOUS
 62
  161
 10
9.3174384368179517
 20
35.669627997539919
 11
9.6867413331914349
 21
35.604509932855493
  0
LINE
  8
_1-d_
  6
CONTINUOUS
 62
  161
 10
9.5346489091454885
 20
35.821720420504718
 11
9.4695308425204132
 21
35.452417513125141
  0
LINE
  8
_1-d_
  6
CONTINUOUS
 62
  161
 10
7.9599104886325449
 20
34.449321047285039
 11
8.2640953293870325
 21
34.014900073280359
  0
LINE
  8
_1-d_
  6
CONTINUOUS
 62
  161
 10
8.7310752780051359
 20
34.503736378074876
 11
9.0352601481091881
 21
34.069315398895071
  0
LINE
  8
_1-d_
  6
CONTINUOUS
 62
  161
 10
9.5566554611912125
 20
33.786986847855204
 11
10.762241327291918
 21
34.1455870012866
  0
LINE
  8
_1-d_
  6
CONTINUOUS
 62
  161
 10
10.632005194041739
 20
33.406981186527446
 11
10.306414860916249
 21
31.560466649629547
  0
LINE
  8
_1-d_
  6
CONTINUOUS
 62
  161
 10
9.2636241613782602
 20
32.1251237646471
 11
9.4589783612535427
 21
33.233032486785845
  0
LINE
  8
_1-d_
  6
CONTINUOUS
 62
  161
 10
8.568280111442391
 20
33.580479109625927
 11
8.3078078449420047
 21
32.103267480107633
  0
LINE
  8
_1-d_
  6
CONTINUOUS
 62
  161
 10
8.2208334911898646
 20
32.689780874489529
 11
7.7645562887572623
 21
33.341412325146308
  0
LINE
  8
_1-d_
  6
CONTINUOUS
 62
  161
 10
8.4380439781921837
 20
32.841873294866787
 11
10.469210027478994
 21
32.483723918078496
  0
LINE
  8
_1-d_
  6
CONTINUOUS
 62
  161
 10
7.1567876669229804
 20
29.894585189603589
 11
7.5260905743025717
 21
29.829467122978485
  0
LINE
  8
_1-d_
  6
CONTINUOUS
 62
  161
 10
7.7214447741778542
 20
30.937375845117231
 11
7.3307363744272607
 21
28.721558400839754
  0
LINE
  8
_1-d_
  6
CONTINUOUS
 62
  161
 10
7.6237676742402414
 20
30.383421484047858
 11
8.1451629432979189
 21
30.101092940770656
  0
LINE
  8
_1-d_
  6
CONTINUOUS
 62
  161
 10
7.4284134743649304
 20
29.275512761909113
 11
8.01492681004774
 21
29.362487126011501
  0
LINE
  8
_1-d_
  6
CONTINUOUS
 62
  161
 10
8.3079581098606639
 20
31.024350209219591
 11
7.8521316434849666
 21
28.439229857562552
  0
LINE
  8
_1-d_
  6
CONTINUOUS
 62
  161
 10
8.5795839319773961
 20
30.405277778937574
 11
9.3181897320617679
 21
30.275041648274936
  0
LINE
  8
_1-d_
  6
CONTINUOUS
 62
  161
 10
9.3181897320617679
 20
30.275041648274936
 11
9.0577174655613533
 21
28.797830018756628
  0
LINE
  8
_1-d_
  6
CONTINUOUS
 62
  161
 10
9.0577174655613533
 20
28.797830018756628
 11
8.3191116654769814
 21
28.928066149419266
  0
LINE
  8
_1-d_
  6
CONTINUOUS
 62
  161
 10
8.3191116654769814
 20
28.928066149419266
 11
8.5795839319773961
 21
30.405277778937574
  0
LINE
  8
_1-d_
  6
CONTINUOUS
 62
  161
 10
8.9488868393569589
 20
30.34015971231247
 11
8.6884145728565727
 21
28.862948082794162
  0
LINE
  8
_1-d_
  6
CONTINUOUS
 62
  161
 10
9.7526107060664344
 20
30.579226489029409
 11
10.154472705457664
 21
30.698759865743867
  0
LINE
  8
_1-d_
  6
CONTINUOUS
 62
  161
 10
9.4702821524390117
 20
30.057831161272588
 11
9.8395851185177037
 21
29.992713084297264
  0
LINE
  8
_1-d_
  6
CONTINUOUS
 62
  161
 10
9.8395851185177037
 20
29.992713084297264
 11
9.9916775388949191
 21
29.775502597294931
  0
LINE
  8
_1-d_
  6
CONTINUOUS
 62
  161
 10
9.9916775388949191
 20
29.775502597294931
 11
9.8288823723321741
 21
28.852245328845981
  0
LINE
  8
_1-d_
  6
CONTINUOUS
 62
  161
 10
9.8288823723321741
 20
28.852245328845981
 11
9.4270203729409445
 21
28.732711952131524
  0
LINE
  8
_1-d_
  6
CONTINUOUS
 62
  161
 10
9.372605052501342
 20
29.50387680020323
 11
9.5246974728785858
 21
29.286666313200897
  0
LINE
  8
_1-d_
  6
CONTINUOUS
 62
  161
 10
9.3619023063158409
 20
28.363409044751933
 11
9.6986462390819668
 21
28.113639514086827
  0
LINE
  8
_1-d_
  6
CONTINUOUS
 62
  161
 10
233.19476319483726
 20
168.65592703024643
 11
233.88226319483726
 21
169.34342706004875
  0
LINE
  8
_1-d_
  6
CONTINUOUS
 62
  161
 10
233.19476319483726
 20
167.96842703024643
 11
233.19476319483726
 21
168.65592703024643
  0
LINE
  8
_1-d_
  6
CONTINUOUS
 62
  161
 10
233.88226319483726
 20
167.28092706004875
 11
233.19476319483726
 21
167.96842703024643
  0
LINE
  8
_1-d_
  6
CONTINUOUS
 62
  161
 10
234.22601319483726
 20
167.28092706004875
 11
233.88226319483726
 21
167.28092706004875
  0
LINE
  8
_1-d_
  6
CONTINUOUS
 62
  161
 10
234.91351313523262
 20
167.96842703024643
 11
234.22601319483726
 21
167.28092706004875
  0
LINE
  8
_1-d_
  6
CONTINUOUS
 62
  161
 10
234.91351313523262
 20
168.65592703024643
 11
234.91351313523262
 21
167.96842703024643
  0
LINE
  8
_1-d_
  6
CONTINUOUS
 62
  161
 10
234.22601319483726
 20
169.34342706004875
 11
234.91351313523262
 21
168.65592703024643
  0
LINE
  8
_1-d_
  6
CONTINUOUS
 62
  161
 10
233.19476319483726
 20
169.34342706004875
 11
234.22601319483726
 21
169.34342706004875
  0
LINE
  8
_1-d_
  6
CONTINUOUS
 62
  161
 10
232.50726319483726
 20
168.99967706004875
 11
233.19476319483726
 21
169.34342706004875
  0
LINE
  8
_1-d_
  6
CONTINUOUS
 62
  161
 10
231.81976313523262
 20
168.31217703024643
 11
232.50726319483726
 21
168.99967706004875
  0
LINE
  8
_1-d_
  6
CONTINUOUS
 62
  161
 10
231.81976313523262
 20
167.62467706004875
 11
231.81976313523262
 21
168.31217703024643
  0
LINE
  8
_1-d_
  6
CONTINUOUS
 62
  161
 10
230.78851313523262
 20
167.62467706004875
 11
230.78851313523262
 21
168.99967706004875
  0
LINE
  8
_1-d_
  6
CONTINUOUS
 62
  161
 10
231.13226313523262
 20
166.93717706004875
 11
230.78851313523262
 21
167.62467706004875
  0
LINE
  8
_1-d_
  6
CONTINUOUS
 62
  161
 10
231.81976313523262
 20
166.24967706004875
 11
231.13226313523262
 21
166.93717706004875
  0
LINE
  8
_1-d_
  6
CONTINUOUS
 62
  161
 10
232.50726319483726
 20
165.90592706004875
 11
231.81976313523262
 21
166.24967706004875
  0
LINE
  8
_1-d_
  6
CONTINUOUS
 62
  161
 10
234.22601319483726
 20
165.90592706004875
 11
232.50726319483726
 21
165.90592706004875
  0
LINE
  8
_1-d_
  6
CONTINUOUS
 62
  161
 10
234.91351313523262
 20
166.24967706004875
 11
234.22601319483726
 21
165.90592706004875
  0
LINE
  8
_1-d_
  6
CONTINUOUS
 62
  161
 10
235.60101313523262
 20
166.93717706004875
 11
234.91351313523262
 21
166.24967706004875
  0
LINE
  8
_1-d_
  6
CONTINUOUS
 62
  161
 10
235.94476313523262
 20
167.62467706004875
 11
235.60101313523262
 21
166.93717706004875
  0
LINE
  8
_1-d_
  6
CONTINUOUS
 62
  161
 10
235.94476313523262
 20
168.99967706004875
 11
235.94476313523262
 21
167.62467706004875
  0
LINE
  8
_1-d_
  6
CONTINUOUS
 62
  161
 10
235.60101313523262
 20
169.68717706004875
 11
235.94476313523262
 21
168.99967706004875
  0
LINE
  8
_1-d_
  6
CONTINUOUS
 62
  161
 10
234.91351313523262
 20
170.37467706004875
 11
235.60101313523262
 21
169.68717706004875
  0
LINE
  8
_1-d_
  6
CONTINUOUS
 62
  161
 10
234.22601319483726
 20
170.71842706004875
 11
234.91351313523262
 21
170.37467706004875
  0
LINE
  8
_1-d_
  6
CONTINUOUS
 62
  161
 10
232.50726319483726
 20
170.71842706004875
 11
234.22601319483726
 21
170.71842706004875
  0
LINE
  8
_1-d_
  6
CONTINUOUS
 62
  161
 10
231.81976313523262
 20
170.37467706004875
 11
232.50726319483726
 21
170.71842706004875
  0
LINE
  8
_1-d_
  6
CONTINUOUS
 62
  161
 10
231.13226313523262
 20
169.68717706004875
 11
231.81976313523262
 21
170.37467706004875
  0
LINE
  8
_1-d_
  6
CONTINUOUS
 62
  161
 10
230.78851313523262
 20
168.99967706004875
 11
231.13226313523262
 21
169.68717706004875
  0
LINE
  8
_1-d_
  6
CONTINUOUS
 62
  161
 10
235.21802003315895
 20
169.37644922534722
 11
235.21802003315895
 21
167.1193932274987
  0
LINE
  8
_1-d_
  6
CONTINUOUS
 62
  161
 10
30.267038247672872
 20
26.820280055062653
 11
30.954538247672872
 21
27.507780084864976
  0
LINE
  8
_1-d_
  6
CONTINUOUS
 62
  161
 10
30.267038247672872
 20
26.132780055062653
 11
30.267038247672872
 21
26.820280055062653
  0
LINE
  8
_1-d_
  6
CONTINUOUS
 62
  161
 10
30.954538247672872
 20
25.445280084864976
 11
30.267038247672872
 21
26.132780055062653
  0
LINE
  8
_1-d_
  6
CONTINUOUS
 62
  161
 10
31.298288247672872
 20
25.445280084864976
 11
30.954538247672872
 21
25.445280084864976
  0
LINE
  8
_1-d_
  6
CONTINUOUS
 62
  161
 10
31.985788188068227
 20
26.132780055062653
 11
31.298288247672872
 21
25.445280084864976
  0
LINE
  8
_1-d_
  6
CONTINUOUS
 62
  161
 10
31.985788188068227
 20
26.820280055062653
 11
31.985788188068227
 21
26.132780055062653
  0
LINE
  8
_1-d_
  6
CONTINUOUS
 62
  161
 10
31.298288247672872
 20
27.507780084864976
 11
31.985788188068227
 21
26.820280055062653
  0
LINE
  8
_1-d_
  6
CONTINUOUS
 62
  161
 10
30.267038247672872
 20
27.507780084864976
 11
31.298288247672872
 21
27.507780084864976
  0
LINE
  8
_1-d_
  6
CONTINUOUS
 62
  161
 10
29.579538247672872
 20
27.164030084864976
 11
30.267038247672872
 21
27.507780084864976
  0
LINE
  8
_1-d_
  6
CONTINUOUS
 62
  161
 10
28.892038188068227
 20
26.476530055062653
 11
29.579538247672872
 21
27.164030084864976
  0
LINE
  8
_1-d_
  6
CONTINUOUS
 62
  161
 10
28.892038188068227
 20
25.789030084864976
 11
28.892038188068227
 21
26.476530055062653
  0
LINE
  8
_1-d_
  6
CONTINUOUS
 62
  161
 10
27.860788188068227
 20
25.789030084864976
 11
27.860788188068227
 21
27.164030084864976
  0
LINE
  8
_1-d_
  6
CONTINUOUS
 62
  161
 10
28.204538188068227
 20
25.101530084864976
 11
27.860788188068227
 21
25.789030084864976
  0
LINE
  8
_1-d_
  6
CONTINUOUS
 62
  161
 10
28.892038188068227
 20
24.414030084864976
 11
28.204538188068227
 21
25.101530084864976
  0
LINE
  8
_1-d_
  6
CONTINUOUS
 62
  161
 10
29.579538247672872
 20
24.070280084864976
 11
28.892038188068227
 21
24.414030084864976
  0
LINE
  8
_1-d_
  6
CONTINUOUS
 62
  161
 10
31.298288247672872
 20
24.070280084864976
 11
29.579538247672872
 21
24.070280084864976
  0
LINE
  8
_1-d_
  6
CONTINUOUS
 62
  161
 10
31.985788188068227
 20
24.414030084864976
 11
31.298288247672872
 21
24.070280084864976
  0
LINE
  8
_1-d_
  6
CONTINUOUS
 62
  161
 10
32.673288188068227
 20
25.101530084864976
 11
31.985788188068227
 21
24.414030084864976
  0
LINE
  8
_1-d_
  6
CONTINUOUS
 62
  161
 10
33.017038188068227
 20
25.789030084864976
 11
32.673288188068227
 21
25.101530084864976
  0
LINE
  8
_1-d_
  6
CONTINUOUS
 62
  161
 10
33.017038188068227
 20
27.164030084864976
 11
33.017038188068227
 21
25.789030084864976
  0
LINE
  8
_1-d_
  6
CONTINUOUS
 62
  161
 10
32.673288188068227
 20
27.851530084864976
 11
33.017038188068227
 21
27.164030084864976
  0
LINE
  8
_1-d_
  6
CONTINUOUS
 62
  161
 10
31.985788188068227
 20
28.539030084864976
 11
32.673288188068227
 21
27.851530084864976
  0
LINE
  8
_1-d_
  6
CONTINUOUS
 62
  161
 10
31.298288247672872
 20
28.882780084864976
 11
31.985788188068227
 21
28.539030084864976
  0
LINE
  8
_1-d_
  6
CONTINUOUS
 62
  161
 10
29.579538247672872
 20
28.882780084864976
 11
31.298288247672872
 21
28.882780084864976
  0
LINE
  8
_1-d_
  6
CONTINUOUS
 62
  161
 10
28.892038188068227
 20
28.539030084864976
 11
29.579538247672872
 21
28.882780084864976
  0
LINE
  8
_1-d_
  6
CONTINUOUS
 62
  161
 10
28.204538188068227
 20
27.851530084864976
 11
28.892038188068227
 21
28.539030084864976
  0
LINE
  8
_1-d_
  6
CONTINUOUS
 62
  161
 10
27.860788188068227
 20
27.164030084864976
 11
28.204538188068227
 21
27.851530084864976
  0
LINE
  8
_1-d_
  6
CONTINUOUS
 62
  161
 10
32.290295085994558
 20
27.540802250163438
 11
32.290295085994558
 21
25.283746252314927
  0
LINE
  8
_1-d_
  6
CONTINUOUS
 62
  161
 10
26.941315221115218
 20
53.817325800060118
 11
27.628815221115218
 21
54.50482582986244
  0
LINE
  8
_1-d_
  6
CONTINUOUS
 62
  161
 10
26.941315221115218
 20
53.129825800060118
 11
26.941315221115218
 21
53.817325800060118
  0
LINE
  8
_1-d_
  6
CONTINUOUS
 62
  161
 10
27.628815221115218
 20
52.44232582986244
 11
26.941315221115218
 21
53.129825800060118
  0
LINE
  8
_1-d_
  6
CONTINUOUS
 62
  161
 10
27.972565221115218
 20
52.44232582986244
 11
27.628815221115218
 21
52.44232582986244
  0
LINE
  8
_1-d_
  6
CONTINUOUS
 62
  161
 10
28.660065161510573
 20
53.129825800060118
 11
27.972565221115218
 21
52.44232582986244
  0
LINE
  8
_1-d_
  6
CONTINUOUS
 62
  161
 10
28.660065161510573
 20
53.817325800060118
 11
28.660065161510573
 21
53.129825800060118
  0
LINE
  8
_1-d_
  6
CONTINUOUS
 62
  161
 10
27.972565221115218
 20
54.50482582986244
 11
28.660065161510573
 21
53.817325800060118
  0
LINE
  8
_1-d_
  6
CONTINUOUS
 62
  161
 10
26.941315221115218
 20
54.50482582986244
 11
27.972565221115218
 21
54.50482582986244
  0
LINE
  8
_1-d_
  6
CONTINUOUS
 62
  161
 10
26.253815221115218
 20
54.16107582986244
 11
26.941315221115218
 21
54.50482582986244
  0
LINE
  8
_1-d_
  6
CONTINUOUS
 62
  161
 10
25.566315161510573
 20
53.473575800060118
 11
26.253815221115218
 21
54.16107582986244
  0
LINE
  8
_1-d_
  6
CONTINUOUS
 62
  161
 10
25.566315161510573
 20
52.78607582986244
 11
25.566315161510573
 21
53.473575800060118
  0
LINE
  8
_1-d_
  6
CONTINUOUS
 62
  161
 10
24.535065161510573
 20
52.78607582986244
 11
24.535065161510573
 21
54.16107582986244
  0
LINE
  8
_1-d_
  6
CONTINUOUS
 62
  161
 10
24.878815161510573
 20
52.09857582986244
 11
24.535065161510573
 21
52.78607582986244
  0
LINE
  8
_1-d_
  6
CONTINUOUS
 62
  161
 10
25.566315161510573
 20
51.41107582986244
 11
24.878815161510573
 21
52.09857582986244
  0
LINE
  8
_1-d_
  6
CONTINUOUS
 62
  161
 10
26.253815221115218
 20
51.06732582986244
 11
25.566315161510573
 21
51.41107582986244
  0
LINE
  8
_1-d_
  6
CONTINUOUS
 62
  161
 10
27.972565221115218
 20
51.06732582986244
 11
26.253815221115218
 21
51.06732582986244
  0
LINE
  8
_1-d_
  6
CONTINUOUS
 62
  161
 10
28.660065161510573
 20
51.41107582986244
 11
27.972565221115218
 21
51.06732582986244
  0
LINE
  8
_1-d_
  6
CONTINUOUS
 62
  161
 10
29.347565161510573
 20
52.09857582986244
 11
28.660065161510573
 21
51.41107582986244
  0
LINE
  8
_1-d_
  6
CONTINUOUS
 62
  161
 10
29.691315161510573
 20
52.78607582986244
 11
29.347565161510573
 21
52.09857582986244
  0
LINE
  8
_1-d_
  6
CONTINUOUS
 62
  161
 10
29.691315161510573
 20
54.16107582986244
 11
29.691315161510573
 21
52.78607582986244
  0
LINE
  8
_1-d_
  6
CONTINUOUS
 62
  161
 10
29.347565161510573
 20
54.84857582986244
 11
29.691315161510573
 21
54.16107582986244
  0
LINE
  8
_1-d_
  6
CONTINUOUS
 62
  161
 10
28.660065161510573
 20
55.53607582986244
 11
29.347565161510573
 21
54.84857582986244
  0
LINE
  8
_1-d_
  6
CONTINUOUS
 62
  161
 10
27.972565221115218
 20
55.87982582986244
 11
28.660065161510573
 21
55.53607582986244
  0
LINE
  8
_1-d_
  6
CONTINUOUS
 62
  161
 10
26.253815221115218
 20
55.87982582986244
 11
27.972565221115218
 21
55.87982582986244
  0
LINE
  8
_1-d_
  6
CONTINUOUS
 62
  161
 10
25.566315161510573
 20
55.53607582986244
 11
26.253815221115218
 21
55.87982582986244
  0
LINE
  8
_1-d_
  6
CONTINUOUS
 62
  161
 10
24.878815161510573
 20
54.84857582986244
 11
25.566315161510573
 21
55.53607582986244
  0
LINE
  8
_1-d_
  6
CONTINUOUS
 62
  161
 10
24.535065161510573
 20
54.16107582986244
 11
24.878815161510573
 21
54.84857582986244
  0
LINE
  8
_1-d_
  6
CONTINUOUS
 62
  161
 10
28.964572059436904
 20
54.537847995160902
 11
28.964572059436904
 21
52.280791997312392
  0
LINE
  8
_1-d_
  6
CONTINUOUS
 62
  161
 10
70.395489170575047
 20
45.165758658198655
 11
69.707989170575047
 21
44.478258628396333
  0
LINE
  8
_1-d_
  6
CONTINUOUS
 62
  161
 10
70.395489170575047
 20
45.853258658198655
 11
70.395489170575047
 21
45.165758658198655
  0
LINE
  8
_1-d_
  6
CONTINUOUS
 62
  161
 10
69.707989170575047
 20
46.540758628396333
 11
70.395489170575047
 21
45.853258658198655
  0
LINE
  8
_1-d_
  6
CONTINUOUS
 62
  161
 10
69.364239170575047
 20
46.540758628396333
 11
69.707989170575047
 21
46.540758628396333
  0
LINE
  8
_1-d_
  6
CONTINUOUS
 62
  161
 10
68.676739230179692
 20
45.853258658198655
 11
69.364239170575047
 21
46.540758628396333
  0
LINE
  8
_1-d_
  6
CONTINUOUS
 62
  161
 10
68.676739230179692
 20
45.165758658198655
 11
68.676739230179692
 21
45.853258658198655
  0
LINE
  8
_1-d_
  6
CONTINUOUS
 62
  161
 10
69.364239170575047
 20
44.478258628396333
 11
68.676739230179692
 21
45.165758658198655
  0
LINE
  8
_1-d_
  6
CONTINUOUS
 62
  161
 10
70.395489170575047
 20
44.478258628396333
 11
69.364239170575047
 21
44.478258628396333
  0
LINE
  8
_1-d_
  6
CONTINUOUS
 62
  161
 10
71.082989170575047
 20
44.822008628396333
 11
70.395489170575047
 21
44.478258628396333
  0
LINE
  8
_1-d_
  6
CONTINUOUS
 62
  161
 10
71.770489230179692
 20
45.509508658198655
 11
71.082989170575047
 21
44.822008628396333
  0
LINE
  8
_1-d_
  6
CONTINUOUS
 62
  161
 10
71.770489230179692
 20
46.197008628396333
 11
71.770489230179692
 21
45.509508658198655
  0
LINE
  8
_1-d_
  6
CONTINUOUS
 62
  161
 10
72.801739230179692
 20
46.197008628396333
 11
72.801739230179692
 21
44.822008628396333
  0
LINE
  8
_1-d_
  6
CONTINUOUS
 62
  161
 10
72.457989230179692
 20
46.884508628396333
 11
72.801739230179692
 21
46.197008628396333
  0
LINE
  8
_1-d_
  6
CONTINUOUS
 62
  161
 10
71.770489230179692
 20
47.572008628396333
 11
72.457989230179692
 21
46.884508628396333
  0
LINE
  8
_1-d_
  6
CONTINUOUS
 62
  161
 10
71.082989170575047
 20
47.915758628396333
 11
71.770489230179692
 21
47.572008628396333
  0
LINE
  8
_1-d_
  6
CONTINUOUS
 62
  161
 10
69.364239170575047
 20
47.915758628396333
 11
71.082989170575047
 21
47.915758628396333
  0
LINE
  8
_1-d_
  6
CONTINUOUS
 62
  161
 10
68.676739230179692
 20
47.572008628396333
 11
69.364239170575047
 21
47.915758628396333
  0
LINE
  8
_1-d_
  6
CONTINUOUS
 62
  161
 10
67.989239230179692
 20
46.884508628396333
 11
68.676739230179692
 21
47.572008628396333
  0
LINE
  8
_1-d_
  6
CONTINUOUS
 62
  161
 10
67.645489230179692
 20
46.197008628396333
 11
67.989239230179692
 21
46.884508628396333
  0
LINE
  8
_1-d_
  6
CONTINUOUS
 62
  161
 10
67.645489230179692
 20
44.822008628396333
 11
67.645489230179692
 21
46.197008628396333
  0
LINE
  8
_1-d_
  6
CONTINUOUS
 62
  161
 10
67.989239230179692
 20
44.134508628396333
 11
67.645489230179692
 21
44.822008628396333
  0
LINE
  8
_1-d_
  6
CONTINUOUS
 62
  161
 10
68.676739230179692
 20
43.447008628396333
 11
67.989239230179692
 21
44.134508628396333
  0
LINE
  8
_1-d_
  6
CONTINUOUS
 62
  161
 10
69.364239170575047
 20
43.103258628396333
 11
68.676739230179692
 21
43.447008628396333
  0
LINE
  8
_1-d_
  6
CONTINUOUS
 62
  161
 10
71.082989170575047
 20
43.103258628396333
 11
69.364239170575047
 21
43.103258628396333
  0
LINE
  8
_1-d_
  6
CONTINUOUS
 62
  161
 10
71.770489230179692
 20
43.447008628396333
 11
71.082989170575047
 21
43.103258628396333
  0
LINE
  8
_1-d_
  6
CONTINUOUS
 62
  161
 10
72.457989230179692
 20
44.134508628396333
 11
71.770489230179692
 21
43.447008628396333
  0
LINE
  8
_1-d_
  6
CONTINUOUS
 62
  161
 10
72.801739230179692
 20
44.822008628396333
 11
72.457989230179692
 21
44.134508628396333
  0
LINE
  8
_1-d_
  6
CONTINUOUS
 62
  161
 10
68.372232332253361
 20
44.445236463097871
 11
68.372232332253361
 21
46.702292460946381
  0
LINE
  8
_1-d_
  6
CONTINUOUS
 62
  161
 10
62.081181604180898
 20
34.50388189658733
 11
61.393681604180898
 21
33.816381866785008
  0
LINE
  8
_1-d_
  6
CONTINUOUS
 62
  161
 10
62.081181604180898
 20
35.19138189658733
 11
62.081181604180898
 21
34.50388189658733
  0
LINE
  8
_1-d_
  6
CONTINUOUS
 62
  161
 10
61.393681604180898
 20
35.878881866785008
 11
62.081181604180898
 21
35.19138189658733
  0
LINE
  8
_1-d_
  6
CONTINUOUS
 62
  161
 10
61.049931604180898
 20
35.878881866785008
 11
61.393681604180898
 21
35.878881866785008
  0
LINE
  8
_1-d_
  6
CONTINUOUS
 62
  161
 10
60.362431663785543
 20
35.19138189658733
 11
61.049931604180898
 21
35.878881866785008
  0
LINE
  8
_1-d_
  6
CONTINUOUS
 62
  161
 10
60.362431663785543
 20
34.50388189658733
 11
60.362431663785543
 21
35.19138189658733
  0
LINE
  8
_1-d_
  6
CONTINUOUS
 62
  161
 10
61.049931604180898
 20
33.816381866785008
 11
60.362431663785543
 21
34.50388189658733
  0
LINE
  8
_1-d_
  6
CONTINUOUS
 62
  161
 10
62.081181604180898
 20
33.816381866785008
 11
61.049931604180898
 21
33.816381866785008
  0
LINE
  8
_1-d_
  6
CONTINUOUS
 62
  161
 10
62.768681604180898
 20
34.160131866785008
 11
62.081181604180898
 21
33.816381866785008
  0
LINE
  8
_1-d_
  6
CONTINUOUS
 62
  161
 10
63.456181663785543
 20
34.84763189658733
 11
62.768681604180898
 21
34.160131866785008
  0
LINE
  8
_1-d_
  6
CONTINUOUS
 62
  161
 10
63.456181663785543
 20
35.535131866785008
 11
63.456181663785543
 21
34.84763189658733
  0
LINE
  8
_1-d_
  6
CONTINUOUS
 62
  161
 10
64.487431663785543
 20
35.535131866785008
 11
64.487431663785543
 21
34.160131866785008
  0
LINE
  8
_1-d_
  6
CONTINUOUS
 62
  161
 10
64.143681663785543
 20
36.222631866785008
 11
64.487431663785543
 21
35.535131866785008
  0
LINE
  8
_1-d_
  6
CONTINUOUS
 62
  161
 10
63.456181663785543
 20
36.910131866785008
 11
64.143681663785543
 21
36.222631866785008
  0
LINE
  8
_1-d_
  6
CONTINUOUS
 62
  161
 10
62.768681604180898
 20
37.253881866785008
 11
63.456181663785543
 21
36.910131866785008
  0
LINE
  8
_1-d_
  6
CONTINUOUS
 62
  161
 10
61.049931604180898
 20
37.253881866785008
 11
62.768681604180898
 21
37.253881866785008
  0
LINE
  8
_1-d_
  6
CONTINUOUS
 62
  161
 10
60.362431663785543
 20
36.910131866785008
 11
61.049931604180898
 21
37.253881866785008
  0
LINE
  8
_1-d_
  6
CONTINUOUS
 62
  161
 10
59.674931663785543
 20
36.222631866785008
 11
60.362431663785543
 21
36.910131866785008
  0
LINE
  8
_1-d_
  6
CONTINUOUS
 62
  161
 10
59.331181663785543
 20
35.535131866785008
 11
59.674931663785543
 21
36.222631866785008
  0
LINE
  8
_1-d_
  6
CONTINUOUS
 62
  161
 10
59.331181663785543
 20
34.160131866785008
 11
59.331181663785543
 21
35.535131866785008
  0
LINE
  8
_1-d_
  6
CONTINUOUS
 62
  161
 10
59.674931663785543
 20
33.472631866785008
 11
59.331181663785543
 21
34.160131866785008
  0
LINE
  8
_1-d_
  6
CONTINUOUS
 62
  161
 10
60.362431663785543
 20
32.785131866785008
 11
59.674931663785543
 21
33.472631866785008
  0
LINE
  8
_1-d_
  6
CONTINUOUS
 62
  161
 10
61.049931604180898
 20
32.441381866785008
 11
60.362431663785543
 21
32.785131866785008
  0
LINE
  8
_1-d_
  6
CONTINUOUS
 62
  161
 10
62.768681604180898
 20
32.441381866785008
 11
61.049931604180898
 21
32.441381866785008
  0
LINE
  8
_1-d_
  6
CONTINUOUS
 62
  161
 10
63.456181663785543
 20
32.785131866785008
 11
62.768681604180898
 21
32.441381866785008
  0
LINE
  8
_1-d_
  6
CONTINUOUS
 62
  161
 10
64.143681663785543
 20
33.472631866785008
 11
63.456181663785543
 21
32.785131866785008
  0
LINE
  8
_1-d_
  6
CONTINUOUS
 62
  161
 10
64.487431663785543
 20
34.160131866785008
 11
64.143681663785543
 21
33.472631866785008
  0
LINE
  8
_1-d_
  6
CONTINUOUS
 62
  161
 10
60.057924765859212
 20
33.783359701486546
 11
60.057924765859212
 21
36.040415699335057
  0
LINE
  8
_1-d_
  6
CONTINUOUS
 62
  161
 10
74.245053370245046
 20
63.73560647012556
 11
73.557553370245046
 21
63.048106440323238
  0
LINE
  8
_1-d_
  6
CONTINUOUS
 62
  161
 10
74.245053370245046
 20
64.42310647012556
 11
74.245053370245046
 21
63.73560647012556
  0
LINE
  8
_1-d_
  6
CONTINUOUS
 62
  161
 10
73.557553370245046
 20
65.110606440323238
 11
74.245053370245046
 21
64.42310647012556
  0
LINE
  8
_1-d_
  6
CONTINUOUS
 62
  161
 10
73.213803370245046
 20
65.110606440323238
 11
73.557553370245046
 21
65.110606440323238
  0
LINE
  8
_1-d_
  6
CONTINUOUS
 62
  161
 10
72.52630342984969
 20
64.42310647012556
 11
73.213803370245046
 21
65.110606440323238
  0
LINE
  8
_1-d_
  6
CONTINUOUS
 62
  161
 10
72.52630342984969
 20
63.73560647012556
 11
72.52630342984969
 21
64.42310647012556
  0
LINE
  8
_1-d_
  6
CONTINUOUS
 62
  161
 10
73.213803370245046
 20
63.048106440323238
 11
72.52630342984969
 21
63.73560647012556
  0
LINE
  8
_1-d_
  6
CONTINUOUS
 62
  161
 10
74.245053370245046
 20
63.048106440323238
 11
73.213803370245046
 21
63.048106440323238
  0
LINE
  8
_1-d_
  6
CONTINUOUS
 62
  161
 10
74.932553370245046
 20
63.391856440323238
 11
74.245053370245046
 21
63.048106440323238
  0
LINE
  8
_1-d_
  6
CONTINUOUS
 62
  161
 10
75.62005342984969
 20
64.07935647012556
 11
74.932553370245046
 21
63.391856440323238
  0
LINE
  8
_1-d_
  6
CONTINUOUS
 62
  161
 10
75.62005342984969
 20
64.766856440323238
 11
75.62005342984969
 21
64.07935647012556
  0
LINE
  8
_1-d_
  6
CONTINUOUS
 62
  161
 10
76.65130342984969
 20
64.766856440323238
 11
76.65130342984969
 21
63.391856440323238
  0
LINE
  8
_1-d_
  6
CONTINUOUS
 62
  161
 10
76.30755342984969
 20
65.454356440323238
 11
76.65130342984969
 21
64.766856440323238
  0
LINE
  8
_1-d_
  6
CONTINUOUS
 62
  161
 10
75.62005342984969
 20
66.141856440323238
 11
76.30755342984969
 21
65.454356440323238
  0
LINE
  8
_1-d_
  6
CONTINUOUS
 62
  161
 10
74.932553370245046
 20
66.485606440323238
 11
75.62005342984969
 21
66.141856440323238
  0
LINE
  8
_1-d_
  6
CONTINUOUS
 62
  161
 10
73.213803370245046
 20
66.485606440323238
 11
74.932553370245046
 21
66.485606440323238
  0
LINE
  8
_1-d_
  6
CONTINUOUS
 62
  161
 10
72.52630342984969
 20
66.141856440323238
 11
73.213803370245046
 21
66.485606440323238
  0
LINE
  8
_1-d_
  6
CONTINUOUS
 62
  161
 10
71.83880342984969
 20
65.454356440323238
 11
72.52630342984969
 21
66.141856440323238
  0
LINE
  8
_1-d_
  6
CONTINUOUS
 62
  161
 10
71.49505342984969
 20
64.766856440323238
 11
71.83880342984969
 21
65.454356440323238
  0
LINE
  8
_1-d_
  6
CONTINUOUS
 62
  161
 10
71.49505342984969
 20
63.391856440323238
 11
71.49505342984969
 21
64.766856440323238
  0
LINE
  8
_1-d_
  6
CONTINUOUS
 62
  161
 10
71.83880342984969
 20
62.704356440323238
 11
71.49505342984969
 21
63.391856440323238
  0
LINE
  8
_1-d_
  6
CONTINUOUS
 62
  161
 10
72.52630342984969
 20
62.016856440323238
 11
71.83880342984969
 21
62.704356440323238
  0
LINE
  8
_1-d_
  6
CONTINUOUS
 62
  161
 10
73.213803370245046
 20
61.673106440323238
 11
72.52630342984969
 21
62.016856440323238
  0
LINE
  8
_1-d_
  6
CONTINUOUS
 62
  161
 10
74.932553370245046
 20
61.673106440323238
 11
73.213803370245046
 21
61.673106440323238
  0
LINE
  8
_1-d_
  6
CONTINUOUS
 62
  161
 10
75.62005342984969
 20
62.016856440323238
 11
74.932553370245046
 21
61.673106440323238
  0
LINE
  8
_1-d_
  6
CONTINUOUS
 62
  161
 10
76.30755342984969
 20
62.704356440323238
 11
75.62005342984969
 21
62.016856440323238
  0
LINE
  8
_1-d_
  6
CONTINUOUS
 62
  161
 10
76.65130342984969
 20
63.391856440323238
 11
76.30755342984969
 21
62.704356440323238
  0
LINE
  8
_1-d_
  6
CONTINUOUS
 62
  161
 10
72.22179653192336
 20
63.015084275024776
 11
72.22179653192336
 21
65.272140272873287
  0
LINE
  8
_1-d_
  6
CONTINUOUS
 62
  161
 10
30.062968650433874
 20
71.531199085278956
 11
30.750468650433874
 21
72.218699115081279
  0
LINE
  8
_1-d_
  6
CONTINUOUS
 62
  161
 10
30.062968650433874
 20
70.843699085278956
 11
30.062968650433874
 21
71.531199085278956
  0
LINE
  8
_1-d_
  6
CONTINUOUS
 62
  161
 10
30.750468650433874
 20
70.156199115081279
 11
30.062968650433874
 21
70.843699085278956
  0
LINE
  8
_1-d_
  6
CONTINUOUS
 62
  161
 10
31.094218650433874
 20
70.156199115081279
 11
30.750468650433874
 21
70.156199115081279
  0
LINE
  8
_1-d_
  6
CONTINUOUS
 62
  161
 10
31.781718590829229
 20
70.843699085278956
 11
31.094218650433874
 21
70.156199115081279
  0
LINE
  8
_1-d_
  6
CONTINUOUS
 62
  161
 10
31.781718590829229
 20
71.531199085278956
 11
31.781718590829229
 21
70.843699085278956
  0
LINE
  8
_1-d_
  6
CONTINUOUS
 62
  161
 10
31.094218650433874
 20
72.218699115081279
 11
31.781718590829229
 21
71.531199085278956
  0
LINE
  8
_1-d_
  6
CONTINUOUS
 62
  161
 10
30.062968650433874
 20
72.218699115081279
 11
31.094218650433874
 21
72.218699115081279
  0
LINE
  8
_1-d_
  6
CONTINUOUS
 62
  161
 10
29.375468650433874
 20
71.874949115081279
 11
30.062968650433874
 21
72.218699115081279
  0
LINE
  8
_1-d_
  6
CONTINUOUS
 62
  161
 10
28.687968590829229
 20
71.187449085278956
 11
29.375468650433874
 21
71.874949115081279
  0
LINE
  8
_1-d_
  6
CONTINUOUS
 62
  161
 10
28.687968590829229
 20
70.499949115081279
 11
28.687968590829229
 21
71.187449085278956
  0
LINE
  8
_1-d_
  6
CONTINUOUS
 62
  161
 10
27.656718590829229
 20
70.499949115081279
 11
27.656718590829229
 21
71.874949115081279
  0
LINE
  8
_1-d_
  6
CONTINUOUS
 62
  161
 10
28.000468590829229
 20
69.812449115081279
 11
27.656718590829229
 21
70.499949115081279
  0
LINE
  8
_1-d_
  6
CONTINUOUS
 62
  161
 10
28.687968590829229
 20
69.124949115081279
 11
28.000468590829229
 21
69.812449115081279
  0
LINE
  8
_1-d_
  6
CONTINUOUS
 62
  161
 10
29.375468650433874
 20
68.781199115081279
 11
28.687968590829229
 21
69.124949115081279
  0
LINE
  8
_1-d_
  6
CONTINUOUS
 62
  161
 10
31.094218650433874
 20
68.781199115081279
 11
29.375468650433874
 21
68.781199115081279
  0
LINE
  8
_1-d_
  6
CONTINUOUS
 62
  161
 10
31.781718590829229
 20
69.124949115081279
 11
31.094218650433874
 21
68.781199115081279
  0
LINE
  8
_1-d_
  6
CONTINUOUS
 62
  161
 10
32.469218590829229
 20
69.812449115081279
 11
31.781718590829229
 21
69.124949115081279
  0
LINE
  8
_1-d_
  6
CONTINUOUS
 62
  161
 10
32.812968590829229
 20
70.499949115081279
 11
32.469218590829229
 21
69.812449115081279
  0
LINE
  8
_1-d_
  6
CONTINUOUS
 62
  161
 10
32.812968590829229
 20
71.874949115081279
 11
32.812968590829229
 21
70.499949115081279
  0
LINE
  8
_1-d_
  6
CONTINUOUS
 62
  161
 10
32.469218590829229
 20
72.562449115081279
 11
32.812968590829229
 21
71.874949115081279
  0
LINE
  8
_1-d_
  6
CONTINUOUS
 62
  161
 10
31.781718590829229
 20
73.249949115081279
 11
32.469218590829229
 21
72.562449115081279
  0
LINE
  8
_1-d_
  6
CONTINUOUS
 62
  161
 10
31.094218650433874
 20
73.593699115081279
 11
31.781718590829229
 21
73.249949115081279
  0
LINE
  8
_1-d_
  6
CONTINUOUS
 62
  161
 10
29.375468650433874
 20
73.593699115081279
 11
31.094218650433874
 21
73.593699115081279
  0
LINE
  8
_1-d_
  6
CONTINUOUS
 62
  161
 10
28.687968590829229
 20
73.249949115081279
 11
29.375468650433874
 21
73.593699115081279
  0
LINE
  8
_1-d_
  6
CONTINUOUS
 62
  161
 10
28.000468590829229
 20
72.562449115081279
 11
28.687968590829229
 21
73.249949115081279
  0
LINE
  8
_1-d_
  6
CONTINUOUS
 62
  161
 10
27.656718590829229
 20
71.874949115081279
 11
28.000468590829229
 21
72.562449115081279
  0
LINE
  8
_1-d_
  6
CONTINUOUS
 62
  161
 10
32.086225488755559
 20
72.251721280379741
 11
32.086225488755559
 21
69.99466528253123
  0
LINE
  8
_1-d_
  6
CONTINUOUS
 62
  161
 10
195.94042691466393
 20
86.161590494313984
 11
195.25292691466393
 21
86.505340494313984
  0
LINE
  8
_1-d_
  6
CONTINUOUS
 62
  161
 10
195.25292691466393
 20
86.505340494313984
 11
194.56542691466393
 21
87.192840613523273
  0
LINE
  8
_1-d_
  6
CONTINUOUS
 62
  161
 10
194.56542691466393
 20
87.192840613523273
 11
194.22167691466393
 21
87.880340553918629
  0
LINE
  8
_1-d_
  6
CONTINUOUS
 62
  161
 10
194.22167691466393
 20
87.880340553918629
 11
194.22167691466393
 21
89.599090553918629
  0
LINE
  8
_1-d_
  6
CONTINUOUS
 62
  161
 10
194.22167691466393
 20
89.599090553918629
 11
194.56542691466393
 21
90.286590613523273
  0
LINE
  8
_1-d_
  6
CONTINUOUS
 62
  161
 10
194.56542691466393
 20
90.286590613523273
 11
195.25292691466393
 21
90.974090494313984
  0
LINE
  8
_1-d_
  6
CONTINUOUS
 62
  161
 10
195.25292691466393
 20
90.974090494313984
 11
195.94042691466393
 21
91.317840494313984
  0
LINE
  8
_1-d_
  6
CONTINUOUS
 62
  161
 10
195.94042691466393
 20
91.317840494313984
 11
197.31542691466393
 21
91.317840494313984
  0
LINE
  8
_1-d_
  6
CONTINUOUS
 62
  161
 10
197.31542691466393
 20
91.317840494313984
 11
198.00292691466393
 21
90.974090494313984
  0
LINE
  8
_1-d_
  6
CONTINUOUS
 62
  161
 10
198.00292691466393
 20
90.974090494313984
 11
198.69042691466393
 21
90.286590613523273
  0
LINE
  8
_1-d_
  6
CONTINUOUS
 62
  161
 10
198.69042691466393
 20
90.286590613523273
 11
199.03417691466393
 21
89.599090553918629
  0
LINE
  8
_1-d_
  6
CONTINUOUS
 62
  161
 10
199.03417691466393
 20
89.599090553918629
 11
199.03417691466393
 21
87.880340553918629
  0
LINE
  8
_1-d_
  6
CONTINUOUS
 62
  161
 10
199.03417691466393
 20
87.880340553918629
 11
198.69042691466393
 21
87.192840613523273
  0
LINE
  8
_1-d_
  6
CONTINUOUS
 62
  161
 10
198.69042691466393
 20
87.192840613523273
 11
198.00292691466393
 21
86.505340494313984
  0
LINE
  8
_1-d_
  6
CONTINUOUS
 62
  161
 10
198.00292691466393
 20
86.505340494313984
 11
197.31542691466393
 21
86.161590494313984
  0
LINE
  8
_1-d_
  6
CONTINUOUS
 62
  161
 10
197.31542691466393
 20
86.161590494313984
 11
195.94042691466393
 21
86.161590494313984
  0
LINE
  8
_1-d_
  6
CONTINUOUS
 62
  161
 10
195.59667691466393
 20
87.880340553918629
 11
196.28417691466393
 21
87.192840613523273
  0
LINE
  8
_1-d_
  6
CONTINUOUS
 62
  161
 10
196.28417691466393
 20
87.192840613523273
 11
196.97167691466393
 21
87.192840613523273
  0
LINE
  8
_1-d_
  6
CONTINUOUS
 62
  161
 10
196.97167691466393
 20
87.192840613523273
 11
197.65917691466393
 21
87.880340553918629
  0
LINE
  8
_1-d_
  6
CONTINUOUS
 62
  161
 10
197.65917691466393
 20
87.880340553918629
 11
197.65917691466393
 21
88.224090553918629
  0
LINE
  8
_1-d_
  6
CONTINUOUS
 62
  161
 10
197.65917691466393
 20
88.224090553918629
 11
195.59667691466393
 21
89.942840613523273
  0
LINE
  8
_1-d_
  6
CONTINUOUS
 62
  161
 10
195.59667691466393
 20
89.942840613523273
 11
195.59667691466393
 21
90.286590613523273
  0
LINE
  8
_1-d_
  6
CONTINUOUS
 62
  161
 10
195.59667691466393
 20
90.286590613523273
 11
197.65917691466393
 21
90.286590613523273
  0
LINE
  8
_1-d_
  6
CONTINUOUS
 62
  161
 10
197.65917691466393
 20
90.286590613523273
 11
197.65917691466393
 21
89.599090553918629
  0
LINE
  8
_1-d_
  6
CONTINUOUS
 62
  161
 10
254.64753902992607
 20
118.53117606004461
 11
254.64753902992607
 21
118.18742606004461
  0
LINE
  8
_1-d_
  6
CONTINUOUS
 62
  161
 10
254.99128902992607
 20
118.87492606004461
 11
254.64753902992607
 21
118.53117606004461
  0
LINE
  8
_1-d_
  6
CONTINUOUS
 62
  161
 10
255.33503902992607
 20
118.87492606004461
 11
254.99128902992607
 21
118.87492606004461
  0
LINE
  8
_1-d_
  6
CONTINUOUS
 62
  161
 10
255.67878902992607
 20
118.53117606004461
 11
255.33503902992607
 21
118.87492606004461
  0
LINE
  8
_1-d_
  6
CONTINUOUS
 62
  161
 10
255.67878902992607
 20
117.49992606004461
 11
255.67878902992607
 21
118.53117606004461
  0
LINE
  8
_1-d_
  6
CONTINUOUS
 62
  161
 10
255.33503902992607
 20
117.1561760600446
 11
255.67878902992607
 21
117.49992606004461
  0
LINE
  8
_1-d_
  6
CONTINUOUS
 62
  161
 10
255.33503902992607
 20
117.1561760600446
 11
254.99128902992607
 21
117.1561760600446
  0
LINE
  8
_1-d_
  6
CONTINUOUS
 62
  161
 10
255.67878902992607
 20
116.8124260600446
 11
255.33503902992607
 21
117.1561760600446
  0
LINE
  8
_1-d_
  6
CONTINUOUS
 62
  161
 10
255.67878902992607
 20
116.1249260600446
 11
255.67878902992607
 21
116.8124260600446
  0
LINE
  8
_1-d_
  6
CONTINUOUS
 62
  161
 10
255.33503902992607
 20
115.7811760600446
 11
255.67878902992607
 21
116.1249260600446
  0
LINE
  8
_1-d_
  6
CONTINUOUS
 62
  161
 10
254.99128902992607
 20
115.7811760600446
 11
255.33503902992607
 21
115.7811760600446
  0
LINE
  8
_1-d_
  6
CONTINUOUS
 62
  161
 10
254.64753902992607
 20
116.1249260600446
 11
254.99128902992607
 21
115.7811760600446
  0
LINE
  8
_1-d_
  6
CONTINUOUS
 62
  161
 10
254.64753902992607
 20
116.4686760600446
 11
254.64753902992607
 21
116.1249260600446
  0
LINE
  8
_1-d_
  6
CONTINUOUS
 62
  161
 10
253.27253902992607
 20
118.87492606004461
 11
253.96003902992607
 21
118.87492606004461
  0
LINE
  8
_1-d_
  6
CONTINUOUS
 62
  161
 10
253.61628902992607
 20
115.7811760600446
 11
253.61628902992607
 21
118.87492606004461
  0
LINE
  8
_1-d_
  6
CONTINUOUS
 62
  161
 10
253.27253902992607
 20
116.1249260600446
 11
253.61628902992607
 21
115.7811760600446
  0
LINE
  8
_1-d_
  6
CONTINUOUS
 62
  161
 10
255.33503902992607
 20
114.7499260600446
 11
253.96003902992607
 21
114.7499260600446
  0
LINE
  8
_1-d_
  6
CONTINUOUS
 62
  161
 10
256.02253902992607
 20
115.0936760600446
 11
255.33503902992607
 21
114.7499260600446
  0
LINE
  8
_1-d_
  6
CONTINUOUS
 62
  161
 10
256.71003902992607
 20
115.7811760600446
 11
256.02253902992607
 21
115.0936760600446
  0
LINE
  8
_1-d_
  6
CONTINUOUS
 62
  161
 10
257.05378902992607
 20
116.4686760600446
 11
256.71003902992607
 21
115.7811760600446
  0
LINE
  8
_1-d_
  6
CONTINUOUS
 62
  161
 10
257.05378902992607
 20
118.18742606004461
 11
257.05378902992607
 21
116.4686760600446
  0
LINE
  8
_1-d_
  6
CONTINUOUS
 62
  161
 10
256.71003902992607
 20
118.87492606004461
 11
257.05378902992607
 21
118.18742606004461
  0
LINE
  8
_1-d_
  6
CONTINUOUS
 62
  161
 10
256.02253902992607
 20
119.56242606004461
 11
256.71003902992607
 21
118.87492606004461
  0
LINE
  8
_1-d_
  6
CONTINUOUS
 62
  161
 10
255.33503902992607
 20
119.90617606004461
 11
256.02253902992607
 21
119.56242606004461
  0
LINE
  8
_1-d_
  6
CONTINUOUS
 62
  161
 10
253.96003902992607
 20
119.90617606004461
 11
255.33503902992607
 21
119.90617606004461
  0
LINE
  8
_1-d_
  6
CONTINUOUS
 62
  161
 10
253.27253902992607
 20
119.56242606004461
 11
253.96003902992607
 21
119.90617606004461
  0
LINE
  8
_1-d_
  6
CONTINUOUS
 62
  161
 10
252.58503902992607
 20
118.8749260600446
 11
253.27253902992607
 21
119.56242606004461
  0
LINE
  8
_1-d_
  6
CONTINUOUS
 62
  161
 10
252.24128902992607
 20
118.1874260600446
 11
252.58503902992607
 21
118.8749260600446
  0
LINE
  8
_1-d_
  6
CONTINUOUS
 62
  161
 10
252.24128902992607
 20
116.4686760600446
 11
252.24128902992607
 21
118.1874260600446
  0
LINE
  8
_1-d_
  6
CONTINUOUS
 62
  161
 10
252.58503902992607
 20
115.7811760600446
 11
252.24128902992607
 21
116.4686760600446
  0
LINE
  8
_1-d_
  6
CONTINUOUS
 62
  161
 10
253.27253902992607
 20
115.0936760600446
 11
252.58503902992607
 21
115.7811760600446
  0
LINE
  8
_1-d_
  6
CONTINUOUS
 62
  161
 10
253.96003902992607
 20
114.7499260600446
 11
253.27253902992607
 21
115.0936760600446
  0
LINE
  8
_1-d_
  6
CONTINUOUS
 62
  161
 10
261.91444871800729
 20
45.492720799074434
 11
261.91444871800729
 21
45.148970799074434
  0
LINE
  8
_1-d_
  6
CONTINUOUS
 62
  161
 10
262.25819871800729
 20
45.836470799074434
 11
261.91444871800729
 21
45.492720799074434
  0
LINE
  8
_1-d_
  6
CONTINUOUS
 62
  161
 10
262.60194871800729
 20
45.836470799074434
 11
262.25819871800729
 21
45.836470799074434
  0
LINE
  8
_1-d_
  6
CONTINUOUS
 62
  161
 10
262.94569871800729
 20
45.492720799074434
 11
262.60194871800729
 21
45.836470799074434
  0
LINE
  8
_1-d_
  6
CONTINUOUS
 62
  161
 10
262.94569871800729
 20
44.461470799074434
 11
262.94569871800729
 21
45.492720799074434
  0
LINE
  8
_1-d_
  6
CONTINUOUS
 62
  161
 10
262.60194871800729
 20
44.117720799074434
 11
262.94569871800729
 21
44.461470799074434
  0
LINE
  8
_1-d_
  6
CONTINUOUS
 62
  161
 10
262.60194871800729
 20
44.117720799074434
 11
262.25819871800729
 21
44.117720799074434
  0
LINE
  8
_1-d_
  6
CONTINUOUS
 62
  161
 10
262.94569871800729
 20
43.773970799074434
 11
262.60194871800729
 21
44.117720799074434
  0
LINE
  8
_1-d_
  6
CONTINUOUS
 62
  161
 10
262.94569871800729
 20
43.086470799074434
 11
262.94569871800729
 21
43.773970799074434
  0
LINE
  8
_1-d_
  6
CONTINUOUS
 62
  161
 10
262.60194871800729
 20
42.742720799074434
 11
262.94569871800729
 21
43.086470799074434
  0
LINE
  8
_1-d_
  6
CONTINUOUS
 62
  161
 10
262.25819871800729
 20
42.742720799074434
 11
262.60194871800729
 21
42.742720799074434
  0
LINE
  8
_1-d_
  6
CONTINUOUS
 62
  161
 10
261.91444871800729
 20
43.086470799074434
 11
262.25819871800729
 21
42.742720799074434
  0
LINE
  8
_1-d_
  6
CONTINUOUS
 62
  161
 10
261.91444871800729
 20
43.430220799074434
 11
261.91444871800729
 21
43.086470799074434
  0
LINE
  8
_1-d_
  6
CONTINUOUS
 62
  161
 10
260.53944871800729
 20
45.836470799074434
 11
261.22694871800729
 21
45.836470799074434
  0
LINE
  8
_1-d_
  6
CONTINUOUS
 62
  161
 10
260.88319871800729
 20
42.742720799074434
 11
260.88319871800729
 21
45.836470799074434
  0
LINE
  8
_1-d_
  6
CONTINUOUS
 62
  161
 10
260.53944871800729
 20
43.086470799074434
 11
260.88319871800729
 21
42.742720799074434
  0
LINE
  8
_1-d_
  6
CONTINUOUS
 62
  161
 10
262.60194871800729
 20
41.711470799074434
 11
261.22694871800729
 21
41.711470799074434
  0
LINE
  8
_1-d_
  6
CONTINUOUS
 62
  161
 10
263.28944871800729
 20
42.055220799074434
 11
262.60194871800729
 21
41.711470799074434
  0
LINE
  8
_1-d_
  6
CONTINUOUS
 62
  161
 10
263.97694871800729
 20
42.742720799074434
 11
263.28944871800729
 21
42.055220799074434
  0
LINE
  8
_1-d_
  6
CONTINUOUS
 62
  161
 10
264.32069871800729
 20
43.430220799074434
 11
263.97694871800729
 21
42.742720799074434
  0
LINE
  8
_1-d_
  6
CONTINUOUS
 62
  161
 10
264.32069871800729
 20
45.148970799074434
 11
264.32069871800729
 21
43.430220799074434
  0
LINE
  8
_1-d_
  6
CONTINUOUS
 62
  161
 10
263.97694871800729
 20
45.836470799074434
 11
264.32069871800729
 21
45.148970799074434
  0
LINE
  8
_1-d_
  6
CONTINUOUS
 62
  161
 10
263.28944871800729
 20
46.523970799074434
 11
263.97694871800729
 21
45.836470799074434
  0
LINE
  8
_1-d_
  6
CONTINUOUS
 62
  161
 10
262.60194871800729
 20
46.867720799074434
 11
263.28944871800729
 21
46.523970799074434
  0
LINE
  8
_1-d_
  6
CONTINUOUS
 62
  161
 10
261.22694871800729
 20
46.867720799074434
 11
262.60194871800729
 21
46.867720799074434
  0
LINE
  8
_1-d_
  6
CONTINUOUS
 62
  161
 10
260.53944871800729
 20
46.523970799074434
 11
261.22694871800729
 21
46.867720799074434
  0
LINE
  8
_1-d_
  6
CONTINUOUS
 62
  161
 10
259.85194871800729
 20
45.836470799074434
 11
260.53944871800729
 21
46.523970799074434
  0
LINE
  8
_1-d_
  6
CONTINUOUS
 62
  161
 10
259.50819871800729
 20
45.148970799074434
 11
259.85194871800729
 21
45.836470799074434
  0
LINE
  8
_1-d_
  6
CONTINUOUS
 62
  161
 10
259.50819871800729
 20
43.430220799074434
 11
259.50819871800729
 21
45.148970799074434
  0
LINE
  8
_1-d_
  6
CONTINUOUS
 62
  161
 10
259.85194871800729
 20
42.742720799074434
 11
259.50819871800729
 21
43.430220799074434
  0
LINE
  8
_1-d_
  6
CONTINUOUS
 62
  161
 10
260.53944871800729
 20
42.055220799074434
 11
259.85194871800729
 21
42.742720799074434
  0
LINE
  8
_1-d_
  6
CONTINUOUS
 62
  161
 10
261.22694871800729
 20
41.711470799074434
 11
260.53944871800729
 21
42.055220799074434
  0
LINE
  8
_1-d_
  6
CONTINUOUS
 62
  161
 10
257.25853042419988
 20
99.730942421384299
 11
257.25853042419988
 21
99.387192421384299
  0
LINE
  8
_1-d_
  6
CONTINUOUS
 62
  161
 10
257.60228042419988
 20
100.0746924213843
 11
257.25853042419988
 21
99.730942421384299
  0
LINE
  8
_1-d_
  6
CONTINUOUS
 62
  161
 10
257.94603042419988
 20
100.0746924213843
 11
257.60228042419988
 21
100.0746924213843
  0
LINE
  8
_1-d_
  6
CONTINUOUS
 62
  161
 10
258.28978042419988
 20
99.730942421384299
 11
257.94603042419988
 21
100.0746924213843
  0
LINE
  8
_1-d_
  6
CONTINUOUS
 62
  161
 10
258.28978042419988
 20
98.699692421384299
 11
258.28978042419988
 21
99.730942421384299
  0
LINE
  8
_1-d_
  6
CONTINUOUS
 62
  161
 10
257.94603042419988
 20
98.355942421384299
 11
258.28978042419988
 21
98.699692421384299
  0
LINE
  8
_1-d_
  6
CONTINUOUS
 62
  161
 10
257.94603042419988
 20
98.355942421384299
 11
257.60228042419988
 21
98.355942421384299
  0
LINE
  8
_1-d_
  6
CONTINUOUS
 62
  161
 10
258.28978042419988
 20
98.012192421384299
 11
257.94603042419988
 21
98.355942421384299
  0
LINE
  8
_1-d_
  6
CONTINUOUS
 62
  161
 10
258.28978042419988
 20
97.324692421384299
 11
258.28978042419988
 21
98.012192421384299
  0
LINE
  8
_1-d_
  6
CONTINUOUS
 62
  161
 10
257.94603042419988
 20
96.980942421384299
 11
258.28978042419988
 21
97.324692421384299
  0
LINE
  8
_1-d_
  6
CONTINUOUS
 62
  161
 10
257.60228042419988
 20
96.980942421384299
 11
257.94603042419988
 21
96.980942421384299
  0
LINE
  8
_1-d_
  6
CONTINUOUS
 62
  161
 10
257.25853042419988
 20
97.324692421384299
 11
257.60228042419988
 21
96.980942421384299
  0
LINE
  8
_1-d_
  6
CONTINUOUS
 62
  161
 10
257.25853042419988
 20
97.668442421384299
 11
257.25853042419988
 21
97.324692421384299
  0
LINE
  8
_1-d_
  6
CONTINUOUS
 62
  161
 10
255.88353042419988
 20
100.0746924213843
 11
256.57103042419988
 21
100.0746924213843
  0
LINE
  8
_1-d_
  6
CONTINUOUS
 62
  161
 10
256.22728042419988
 20
96.980942421384299
 11
256.22728042419988
 21
100.0746924213843
  0
LINE
  8
_1-d_
  6
CONTINUOUS
 62
  161
 10
255.88353042419988
 20
97.324692421384299
 11
256.22728042419988
 21
96.980942421384299
  0
LINE
  8
_1-d_
  6
CONTINUOUS
 62
  161
 10
257.94603042419988
 20
95.949692421384299
 11
256.57103042419988
 21
95.949692421384299
  0
LINE
  8
_1-d_
  6
CONTINUOUS
 62
  161
 10
258.63353042419988
 20
96.293442421384299
 11
257.94603042419988
 21
95.949692421384299
  0
LINE
  8
_1-d_
  6
CONTINUOUS
 62
  161
 10
259.32103042419988
 20
96.980942421384299
 11
258.63353042419988
 21
96.293442421384299
  0
LINE
  8
_1-d_
  6
CONTINUOUS
 62
  161
 10
259.66478042419988
 20
97.668442421384299
 11
259.32103042419988
 21
96.980942421384299
  0
LINE
  8
_1-d_
  6
CONTINUOUS
 62
  161
 10
259.66478042419988
 20
99.387192421384299
 11
259.66478042419988
 21
97.668442421384299
  0
LINE
  8
_1-d_
  6
CONTINUOUS
 62
  161
 10
259.32103042419988
 20
100.0746924213843
 11
259.66478042419988
 21
99.387192421384299
  0
LINE
  8
_1-d_
  6
CONTINUOUS
 62
  161
 10
258.63353042419988
 20
100.7621924213843
 11
259.32103042419988
 21
100.0746924213843
  0
LINE
  8
_1-d_
  6
CONTINUOUS
 62
  161
 10
257.94603042419988
 20
101.1059424213843
 11
258.63353042419988
 21
100.7621924213843
  0
LINE
  8
_1-d_
  6
CONTINUOUS
 62
  161
 10
256.57103042419988
 20
101.1059424213843
 11
257.94603042419988
 21
101.1059424213843
  0
LINE
  8
_1-d_
  6
CONTINUOUS
 62
  161
 10
255.88353042419988
 20
100.7621924213843
 11
256.57103042419988
 21
101.1059424213843
  0
LINE
  8
_1-d_
  6
CONTINUOUS
 62
  161
 10
255.19603042419988
 20
100.0746924213843
 11
255.88353042419988
 21
100.7621924213843
  0
LINE
  8
_1-d_
  6
CONTINUOUS
 62
  161
 10
254.85228042419988
 20
99.387192421384299
 11
255.19603042419988
 21
100.0746924213843
  0
LINE
  8
_1-d_
  6
CONTINUOUS
 62
  161
 10
254.85228042419988
 20
97.668442421384299
 11
254.85228042419988
 21
99.387192421384299
  0
LINE
  8
_1-d_
  6
CONTINUOUS
 62
  161
 10
255.19603042419988
 20
96.980942421384299
 11
254.85228042419988
 21
97.668442421384299
  0
LINE
  8
_1-d_
  6
CONTINUOUS
 62
  161
 10
255.88353042419988
 20
96.293442421384299
 11
255.19603042419988
 21
96.980942421384299
  0
LINE
  8
_1-d_
  6
CONTINUOUS
 62
  161
 10
256.57103042419988
 20
95.949692421384299
 11
255.88353042419988
 21
96.293442421384299
  0
LINE
  8
_1-d_
  6
CONTINUOUS
 62
  161
 10
249.33976620051794
 20
27.044043377041746
 11
249.33976620051794
 21
26.700293377041746
  0
LINE
  8
_1-d_
  6
CONTINUOUS
 62
  161
 10
249.68351620051794
 20
27.387793377041746
 11
249.33976620051794
 21
27.044043377041746
  0
LINE
  8
_1-d_
  6
CONTINUOUS
 62
  161
 10
250.02726620051794
 20
27.387793377041746
 11
249.68351620051794
 21
27.387793377041746
  0
LINE
  8
_1-d_
  6
CONTINUOUS
 62
  161
 10
250.37101620051794
 20
27.044043377041746
 11
250.02726620051794
 21
27.387793377041746
  0
LINE
  8
_1-d_
  6
CONTINUOUS
 62
  161
 10
250.37101620051794
 20
26.012793377041746
 11
250.37101620051794
 21
27.044043377041746
  0
LINE
  8
_1-d_
  6
CONTINUOUS
 62
  161
 10
250.02726620051794
 20
25.669043377041746
 11
250.37101620051794
 21
26.012793377041746
  0
LINE
  8
_1-d_
  6
CONTINUOUS
 62
  161
 10
250.02726620051794
 20
25.669043377041746
 11
249.68351620051794
 21
25.669043377041746
  0
LINE
  8
_1-d_
  6
CONTINUOUS
 62
  161
 10
250.37101620051794
 20
25.325293377041746
 11
250.02726620051794
 21
25.669043377041746
  0
LINE
  8
_1-d_
  6
CONTINUOUS
 62
  161
 10
250.37101620051794
 20
24.637793377041746
 11
250.37101620051794
 21
25.325293377041746
  0
LINE
  8
_1-d_
  6
CONTINUOUS
 62
  161
 10
250.02726620051794
 20
24.294043377041746
 11
250.37101620051794
 21
24.637793377041746
  0
LINE
  8
_1-d_
  6
CONTINUOUS
 62
  161
 10
249.68351620051794
 20
24.294043377041746
 11
250.02726620051794
 21
24.294043377041746
  0
LINE
  8
_1-d_
  6
CONTINUOUS
 62
  161
 10
249.33976620051794
 20
24.637793377041746
 11
249.68351620051794
 21
24.294043377041746
  0
LINE
  8
_1-d_
  6
CONTINUOUS
 62
  161
 10
249.33976620051794
 20
24.981543377041746
 11
249.33976620051794
 21
24.637793377041746
  0
LINE
  8
_1-d_
  6
CONTINUOUS
 62
  161
 10
247.96476620051794
 20
27.387793377041746
 11
248.65226620051794
 21
27.387793377041746
  0
LINE
  8
_1-d_
  6
CONTINUOUS
 62
  161
 10
248.30851620051794
 20
24.294043377041746
 11
248.30851620051794
 21
27.387793377041746
  0
LINE
  8
_1-d_
  6
CONTINUOUS
 62
  161
 10
247.96476620051794
 20
24.637793377041746
 11
248.30851620051794
 21
24.294043377041746
  0
LINE
  8
_1-d_
  6
CONTINUOUS
 62
  161
 10
250.02726620051794
 20
23.262793377041746
 11
248.65226620051794
 21
23.262793377041746
  0
LINE
  8
_1-d_
  6
CONTINUOUS
 62
  161
 10
250.71476620051794
 20
23.606543377041746
 11
250.02726620051794
 21
23.262793377041746
  0
LINE
  8
_1-d_
  6
CONTINUOUS
 62
  161
 10
251.40226620051794
 20
24.294043377041746
 11
250.71476620051794
 21
23.606543377041746
  0
LINE
  8
_1-d_
  6
CONTINUOUS
 62
  161
 10
251.74601620051794
 20
24.981543377041746
 11
251.40226620051794
 21
24.294043377041746
  0
LINE
  8
_1-d_
  6
CONTINUOUS
 62
  161
 10
251.74601620051794
 20
26.700293377041746
 11
251.74601620051794
 21
24.981543377041746
  0
LINE
  8
_1-d_
  6
CONTINUOUS
 62
  161
 10
251.40226620051794
 20
27.387793377041746
 11
251.74601620051794
 21
26.700293377041746
  0
LINE
  8
_1-d_
  6
CONTINUOUS
 62
  161
 10
250.71476620051794
 20
28.075293377041746
 11
251.40226620051794
 21
27.387793377041746
  0
LINE
  8
_1-d_
  6
CONTINUOUS
 62
  161
 10
250.02726620051794
 20
28.419043377041746
 11
250.71476620051794
 21
28.075293377041746
  0
LINE
  8
_1-d_
  6
CONTINUOUS
 62
  161
 10
248.65226620051794
 20
28.419043377041746
 11
250.02726620051794
 21
28.419043377041746
  0
LINE
  8
_1-d_
  6
CONTINUOUS
 62
  161
 10
247.96476620051794
 20
28.075293377041746
 11
248.65226620051794
 21
28.419043377041746
  0
LINE
  8
_1-d_
  6
CONTINUOUS
 62
  161
 10
247.27726620051794
 20
27.387793377041746
 11
247.96476620051794
 21
28.075293377041746
  0
LINE
  8
_1-d_
  6
CONTINUOUS
 62
  161
 10
246.93351620051794
 20
26.700293377041746
 11
247.27726620051794
 21
27.387793377041746
  0
LINE
  8
_1-d_
  6
CONTINUOUS
 62
  161
 10
246.93351620051794
 20
24.981543377041746
 11
246.93351620051794
 21
26.700293377041746
  0
LINE
  8
_1-d_
  6
CONTINUOUS
 62
  161
 10
247.27726620051794
 20
24.294043377041746
 11
246.93351620051794
 21
24.981543377041746
  0
LINE
  8
_1-d_
  6
CONTINUOUS
 62
  161
 10
247.96476620051794
 20
23.606543377041746
 11
247.27726620051794
 21
24.294043377041746
  0
LINE
  8
_1-d_
  6
CONTINUOUS
 62
  161
 10
248.65226620051794
 20
23.262793377041746
 11
247.96476620051794
 21
23.606543377041746
  0
LINE
  8
_1-d_
  6
CONTINUOUS
 62
  161
 10
230.36022614717444
 20
86.506756362549027
 11
231.04772614717444
 21
86.163006362549027
  0
LINE
  8
_1-d_
  6
CONTINUOUS
 62
  161
 10
231.04772614717444
 20
86.163006362549027
 11
231.73522614717444
 21
85.475506243339737
  0
LINE
  8
_1-d_
  6
CONTINUOUS
 62
  161
 10
231.73522614717444
 20
85.475506243339737
 11
232.07897614717444
 21
84.788006302944382
  0
LINE
  8
_1-d_
  6
CONTINUOUS
 62
  161
 10
232.07897614717444
 20
84.788006302944382
 11
232.07897614717444
 21
83.069256302944382
  0
LINE
  8
_1-d_
  6
CONTINUOUS
 62
  161
 10
232.07897614717444
 20
83.069256302944382
 11
231.73522614717444
 21
82.381756243339737
  0
LINE
  8
_1-d_
  6
CONTINUOUS
 62
  161
 10
231.73522614717444
 20
82.381756243339737
 11
231.04772614717444
 21
81.694256362549027
  0
LINE
  8
_1-d_
  6
CONTINUOUS
 62
  161
 10
231.04772614717444
 20
81.694256362549027
 11
230.36022614717444
 21
81.350506362549027
  0
LINE
  8
_1-d_
  6
CONTINUOUS
 62
  161
 10
230.36022614717444
 20
81.350506362549027
 11
228.98522614717444
 21
81.350506362549027
  0
LINE
  8
_1-d_
  6
CONTINUOUS
 62
  161
 10
228.98522614717444
 20
81.350506362549027
 11
228.29772614717444
 21
81.694256362549027
  0
LINE
  8
_1-d_
  6
CONTINUOUS
 62
  161
 10
228.29772614717444
 20
81.694256362549027
 11
227.61022614717444
 21
82.381756243339737
  0
LINE
  8
_1-d_
  6
CONTINUOUS
 62
  161
 10
227.61022614717444
 20
82.381756243339737
 11
227.26647614717444
 21
83.069256302944382
  0
LINE
  8
_1-d_
  6
CONTINUOUS
 62
  161
 10
227.26647614717444
 20
83.069256302944382
 11
227.26647614717444
 21
84.788006302944382
  0
LINE
  8
_1-d_
  6
CONTINUOUS
 62
  161
 10
227.26647614717444
 20
84.788006302944382
 11
227.61022614717444
 21
85.475506243339737
  0
LINE
  8
_1-d_
  6
CONTINUOUS
 62
  161
 10
227.61022614717444
 20
85.475506243339737
 11
228.29772614717444
 21
86.163006362549027
  0
LINE
  8
_1-d_
  6
CONTINUOUS
 62
  161
 10
228.29772614717444
 20
86.163006362549027
 11
228.98522614717444
 21
86.506756362549027
  0
LINE
  8
_1-d_
  6
CONTINUOUS
 62
  161
 10
228.98522614717444
 20
86.506756362549027
 11
230.36022614717444
 21
86.506756362549027
  0
LINE
  8
_1-d_
  6
CONTINUOUS
 62
  161
 10
230.70397614717444
 20
84.788006302944382
 11
230.01647614717444
 21
85.475506243339737
  0
LINE
  8
_1-d_
  6
CONTINUOUS
 62
  161
 10
230.01647614717444
 20
85.475506243339737
 11
229.32897614717444
 21
85.475506243339737
  0
LINE
  8
_1-d_
  6
CONTINUOUS
 62
  161
 10
229.32897614717444
 20
85.475506243339737
 11
228.64147614717444
 21
84.788006302944382
  0
LINE
  8
_1-d_
  6
CONTINUOUS
 62
  161
 10
228.64147614717444
 20
84.788006302944382
 11
228.64147614717444
 21
84.444256302944382
  0
LINE
  8
_1-d_
  6
CONTINUOUS
 62
  161
 10
228.64147614717444
 20
84.444256302944382
 11
230.70397614717444
 21
82.725506243339737
  0
LINE
  8
_1-d_
  6
CONTINUOUS
 62
  161
 10
230.70397614717444
 20
82.725506243339737
 11
230.70397614717444
 21
82.381756243339737
  0
LINE
  8
_1-d_
  6
CONTINUOUS
 62
  161
 10
230.70397614717444
 20
82.381756243339737
 11
228.64147614717444
 21
82.381756243339737
  0
LINE
  8
_1-d_
  6
CONTINUOUS
 62
  161
 10
228.64147614717444
 20
82.381756243339737
 11
228.64147614717444
 21
83.069256302944382
  0
LINE
  8
_1-d_
  6
CONTINUOUS
 62
  161
 10
217.04322927543296
 20
36.645442493935874
 11
217.73072927543296
 21
36.301692493935874
  0
LINE
  8
_1-d_
  6
CONTINUOUS
 62
  161
 10
217.73072927543296
 20
36.301692493935874
 11
218.41822927543296
 21
35.614192374726585
  0
LINE
  8
_1-d_
  6
CONTINUOUS
 62
  161
 10
218.41822927543296
 20
35.614192374726585
 11
218.76197927543296
 21
34.92669243433123
  0
LINE
  8
_1-d_
  6
CONTINUOUS
 62
  161
 10
218.76197927543296
 20
34.92669243433123
 11
218.76197927543296
 21
33.20794243433123
  0
LINE
  8
_1-d_
  6
CONTINUOUS
 62
  161
 10
218.76197927543296
 20
33.20794243433123
 11
218.41822927543296
 21
32.520442374726585
  0
LINE
  8
_1-d_
  6
CONTINUOUS
 62
  161
 10
218.41822927543296
 20
32.520442374726585
 11
217.73072927543296
 21
31.832942493935874
  0
LINE
  8
_1-d_
  6
CONTINUOUS
 62
  161
 10
217.73072927543296
 20
31.832942493935874
 11
217.04322927543296
 21
31.489192493935874
  0
LINE
  8
_1-d_
  6
CONTINUOUS
 62
  161
 10
217.04322927543296
 20
31.489192493935874
 11
215.66822927543296
 21
31.489192493935874
  0
LINE
  8
_1-d_
  6
CONTINUOUS
 62
  161
 10
215.66822927543296
 20
31.489192493935874
 11
214.98072927543296
 21
31.832942493935874
  0
LINE
  8
_1-d_
  6
CONTINUOUS
 62
  161
 10
214.98072927543296
 20
31.832942493935874
 11
214.29322927543296
 21
32.520442374726585
  0
LINE
  8
_1-d_
  6
CONTINUOUS
 62
  161
 10
214.29322927543296
 20
32.520442374726585
 11
213.94947927543296
 21
33.20794243433123
  0
LINE
  8
_1-d_
  6
CONTINUOUS
 62
  161
 10
213.94947927543296
 20
33.20794243433123
 11
213.94947927543296
 21
34.92669243433123
  0
LINE
  8
_1-d_
  6
CONTINUOUS
 62
  161
 10
213.94947927543296
 20
34.92669243433123
 11
214.29322927543296
 21
35.614192374726585
  0
LINE
  8
_1-d_
  6
CONTINUOUS
 62
  161
 10
214.29322927543296
 20
35.614192374726585
 11
214.98072927543296
 21
36.301692493935874
  0
LINE
  8
_1-d_
  6
CONTINUOUS
 62
  161
 10
214.98072927543296
 20
36.301692493935874
 11
215.66822927543296
 21
36.645442493935874
  0
LINE
  8
_1-d_
  6
CONTINUOUS
 62
  161
 10
215.66822927543296
 20
36.645442493935874
 11
217.04322927543296
 21
36.645442493935874
  0
LINE
  8
_1-d_
  6
CONTINUOUS
 62
  161
 10
217.38697927543296
 20
34.92669243433123
 11
216.69947927543296
 21
35.614192374726585
  0
LINE
  8
_1-d_
  6
CONTINUOUS
 62
  161
 10
216.69947927543296
 20
35.614192374726585
 11
216.01197927543296
 21
35.614192374726585
  0
LINE
  8
_1-d_
  6
CONTINUOUS
 62
  161
 10
216.01197927543296
 20
35.614192374726585
 11
215.32447927543296
 21
34.92669243433123
  0
LINE
  8
_1-d_
  6
CONTINUOUS
 62
  161
 10
215.32447927543296
 20
34.92669243433123
 11
215.32447927543296
 21
34.58294243433123
  0
LINE
  8
_1-d_
  6
CONTINUOUS
 62
  161
 10
215.32447927543296
 20
34.58294243433123
 11
217.38697927543296
 21
32.864192374726585
  0
LINE
  8
_1-d_
  6
CONTINUOUS
 62
  161
 10
217.38697927543296
 20
32.864192374726585
 11
217.38697927543296
 21
32.520442374726585
  0
LINE
  8
_1-d_
  6
CONTINUOUS
 62
  161
 10
217.38697927543296
 20
32.520442374726585
 11
215.32447927543296
 21
32.520442374726585
  0
LINE
  8
_1-d_
  6
CONTINUOUS
 62
  161
 10
215.32447927543296
 20
32.520442374726585
 11
215.32447927543296
 21
33.20794243433123
  0
LINE
  8
_1-d_
  6
CONTINUOUS
 62
  161
 10
229.79506358497775
 20
63.610300212564056
 11
229.10756355517543
 21
64.297800212564056
  0
LINE
  8
_1-d_
  6
CONTINUOUS
 62
  161
 10
230.48256358497775
 20
63.610300212564056
 11
229.79506358497775
 21
63.610300212564056
  0
LINE
  8
_1-d_
  6
CONTINUOUS
 62
  161
 10
231.17006355517543
 20
64.297800212564056
 11
230.48256358497775
 21
63.610300212564056
  0
LINE
  8
_1-d_
  6
CONTINUOUS
 62
  161
 10
231.17006355517543
 20
64.641550212564056
 11
231.17006355517543
 21
64.297800212564056
  0
LINE
  8
_1-d_
  6
CONTINUOUS
 62
  161
 10
230.48256358497775
 20
65.329050152959411
 11
231.17006355517543
 21
64.641550212564056
  0
LINE
  8
_1-d_
  6
CONTINUOUS
 62
  161
 10
229.79506358497775
 20
65.329050152959411
 11
230.48256358497775
 21
65.329050152959411
  0
LINE
  8
_1-d_
  6
CONTINUOUS
 62
  161
 10
229.10756355517543
 20
64.641550212564056
 11
229.79506358497775
 21
65.329050152959411
  0
LINE
  8
_1-d_
  6
CONTINUOUS
 62
  161
 10
229.10756355517543
 20
63.610300212564056
 11
229.10756355517543
 21
64.641550212564056
  0
LINE
  8
_1-d_
  6
CONTINUOUS
 62
  161
 10
229.45131355517543
 20
62.922800212564056
 11
229.10756355517543
 21
63.610300212564056
  0
LINE
  8
_1-d_
  6
CONTINUOUS
 62
  161
 10
230.13881358497775
 20
62.235300152959411
 11
229.45131355517543
 21
62.922800212564056
  0
LINE
  8
_1-d_
  6
CONTINUOUS
 62
  161
 10
230.82631355517543
 20
62.235300152959411
 11
230.13881358497775
 21
62.235300152959411
  0
LINE
  8
_1-d_
  6
CONTINUOUS
 62
  161
 10
230.82631355517543
 20
61.204050152959425
 11
229.45131355517543
 21
61.204050152959425
  0
LINE
  8
_1-d_
  6
CONTINUOUS
 62
  161
 10
231.51381355517543
 20
61.547800152959411
 11
230.82631355517543
 21
61.204050152959425
  0
LINE
  8
_1-d_
  6
CONTINUOUS
 62
  161
 10
232.20131355517543
 20
62.235300152959411
 11
231.51381355517543
 21
61.547800152959411
  0
LINE
  8
_1-d_
  6
CONTINUOUS
 62
  161
 10
232.54506355517543
 20
62.922800212564056
 11
232.20131355517543
 21
62.235300152959411
  0
LINE
  8
_1-d_
  6
CONTINUOUS
 62
  161
 10
232.54506355517543
 20
64.641550212564056
 11
232.54506355517543
 21
62.922800212564056
  0
LINE
  8
_1-d_
  6
CONTINUOUS
 62
  161
 10
232.20131355517543
 20
65.329050152959411
 11
232.54506355517543
 21
64.641550212564056
  0
LINE
  8
_1-d_
  6
CONTINUOUS
 62
  161
 10
231.51381355517543
 20
66.016550152959425
 11
232.20131355517543
 21
65.329050152959411
  0
LINE
  8
_1-d_
  6
CONTINUOUS
 62
  161
 10
230.82631355517543
 20
66.360300152959425
 11
231.51381355517543
 21
66.016550152959425
  0
LINE
  8
_1-d_
  6
CONTINUOUS
 62
  161
 10
229.45131355517543
 20
66.360300152959425
 11
230.82631355517543
 21
66.360300152959425
  0
LINE
  8
_1-d_
  6
CONTINUOUS
 62
  161
 10
228.76381355517543
 20
66.016550152959425
 11
229.45131355517543
 21
66.360300152959425
  0
LINE
  8
_1-d_
  6
CONTINUOUS
 62
  161
 10
228.07631355517543
 20
65.329050152959411
 11
228.76381355517543
 21
66.016550152959425
  0
LINE
  8
_1-d_
  6
CONTINUOUS
 62
  161
 10
227.73256355517543
 20
64.641550212564056
 11
228.07631355517543
 21
65.329050152959411
  0
LINE
  8
_1-d_
  6
CONTINUOUS
 62
  161
 10
227.73256355517543
 20
62.922800212564056
 11
227.73256355517543
 21
64.641550212564056
  0
LINE
  8
_1-d_
  6
CONTINUOUS
 62
  161
 10
228.07631355517543
 20
62.235300152959411
 11
227.73256355517543
 21
62.922800212564056
  0
LINE
  8
_1-d_
  6
CONTINUOUS
 62
  161
 10
228.76381355517543
 20
61.547800152959411
 11
228.07631355517543
 21
62.235300152959411
  0
LINE
  8
_1-d_
  6
CONTINUOUS
 62
  161
 10
229.45131355517543
 20
61.204050152959425
 11
228.76381355517543
 21
61.547800152959411
  0
LINE
  8
_1-d_
  6
CONTINUOUS
 62
  161
 10
229.07454138987697
 20
65.633557050885742
 11
231.33159738772548
 21
65.633557050885742
  0
ENDSEC
  0
EOF
