  0
SECTION
  2
HEADER
  9
$ACADVER
  1
AC1009
  9
$INSBASE
 10
0
 20
0
 30
0
  9
$EXTMIN
 10
0
 20
0
  9
$EXTMAX
 10
420
 20
297
  9
$LIMMIN
 10
0
 20
0
  9
$LIMMAX
 10
420
 20
297
  9
$LTSCALE
 40
1
  0
ENDSEC
  0
SECTION
  2
TABLES
  0
TABLE
  2
LTYPE
 70
     9
  0
LTYPE
  2
CONTINUOUS
 70
    64
  3
実線
 72
    65
 73
     0
 40
0.0
  0
LTYPE
  2
DASHED1
 70
    64
  3
--  --  --  --  --  --  --  --  
 72
    65
 73
     2
 40
2.5
 49
1.25
 49
-1.25
  0
LTYPE
  2
DASHED2
 70
    64
  3
----    ----    ----    ----    
 72
    65
 73
     2
 40
5.0
 49
2.5
 49
-2.5
  0
LTYPE
  2
DASHED3
 70
    64
  3
------  ------  ------  ------  
 72
    65
 73
     2
 40
5.0
 49
3.75
 49
-1.25
  0
LTYPE
  2
CENTER1
 70
    64
  3
----- - ----- - ----- - ----- - 
 72
    65
 73
     4
 40
10.0
 49
6.25
 49
-1.25
 49
1.25
 49
-1.25
  0
LTYPE
  2
CENTER2
 70
    64
  3
----------  --  ----------  --  
 72
    65
 73
     4
 40
20.0
 49
12.5
 49
-2.5
 49
2.5
 49
-2.5
  0
LTYPE
  2
PHANTOM1
 70
    64
  3
--- - - --- - - --- - - --- - - 
 72
    65
 73
     6
 40
10.0
 49
3.25
 49
-1.25
 49
1.25
 49
-1.25
 49
1.25
 49
-1.25
  0
LTYPE
  2
PHANTOM2
 70
    64
  3
--------  -  -  --------  -  -  
 72
    65
 73
     6
 40
20.0
 49
10.0
 49
-2.5
 49
1.25
 49
-2.5
 49
1.25
 49
-2.5
  0
LTYPE
  2
DOT
 70
    64
  3
-   -   -   -   -   -   -   -   
 72
    65
 73
     2
 40
2.5
 49
0.625
 49
-1.875
  0
LTYPE
  2
DUMMY
 70
    64
  3
ダミー
 72
    65
 73
     0
 40
0.0
  0
LTYPE
  2
RAND1
 70
    64
  3
ランダム線1
 72
    65
 73
     4
 40
10.0
 49
1.0
 49
-2.0
 49
3.0
 49
-4.0
  0
LTYPE
  2
RAND2
 70
    64
  3
ランダム線2
 72
    65
 73
     4
 40
14.0
 49
2.0
 49
-3.0
 49
4.0
 49
-5.0
  0
LTYPE
  2
RAND3
 70
    64
  3
ランダム線3
 72
    65
 73
     4
 40
18.0
 49
3.0
 49
-4.0
 49
5.0
 49
-6.0
  0
LTYPE
  2
RAND4
 70
    64
  3
ランダム線4
 72
    65
 73
     4
 40
22.0
 49
4.0
 49
-5.0
 49
6.0
 49
-7.0
  0
LTYPE
  2
RAND5
 70
    64
  3
ランダム線5
 72
    65
 73
     4
 40
26.0
 49
5.0
 49
-6.0
 49
7.0
 49
-8.0
  0
LTYPE
  2
LONG1
 70
    64
  3
----------  --  ----------  --  
 72
    65
 73
     4
 40
40.0
 49
32.5
 49
-2.5
 49
2.5
 49
-2.5
  0
LTYPE
  2
LONG2
 70
    64
  3
--------  -  -  --------  -  -  
 72
    65
 73
     6
 40
40.0
 49
30.0
 49
-2.5
 49
1.25
 49
-2.5
 49
1.25
 49
-2.5
  0
LTYPE
  2
LONG3
 70
    64
  3
+++++++++++++++..+++++++++++++++
 72
    65
 73
     2
 40
40.0
 49
37.5
 49
-2.5
  0
LTYPE
  2
LONG4
 70
    64
  3
+++++++++++++++..+++++++++++++++
 72
    65
 73
     2
 40
80.0
 49
75.0
 49
-5.0
  0
LTYPE
  2
LONG5
 70
    64
  3
----------  --  ----------  --  
 72
    65
 73
     4
 40
60.0
 49
37.5
 49
-7.5
 49
7.5
 49
-7.5
  0
LTYPE
  2
dashed
 70
   64
  3
-------   -------------   ------
 72
   65
 73
    2
 40
7.5
 49
6
 49
-1.5
  0
LTYPE
  2
dashed_spaced
 70
   64
  3
----        --------        ----
 72
   65
 73
    2
 40
12
 49
6
 49
-6
  0
LTYPE
  2
long_dashed_dotted
 70
   64
  3
------------- --- --------------
 72
   65
 73
    4
 40
15.25
 49
12
 49
-1.5
 49
0.25
 49
-1.5
  0
LTYPE
  2
long_dashed_double-dotted
 70
   64
  3
----------- --- --- ------------
 72
   65
 73
    6
 40
17
 49
12
 49
-1.5
 49
0.25
 49
-1.5
 49
0.25
 49
-1.5
  0
LTYPE
  2
long_dashed_triplicate-dotted
 70
   64
  3
--------- --- --- --- ----------
 72
   65
 73
    8
 40
18.75
 49
12
 49
-1.5
 49
0.25
 49
-1.5
 49
0.25
 49
-1.5
 49
0.25
 49
-1.5
  0
LTYPE
  2
dotted
 70
   64
  3
   -       -       -       -    
 72
   65
 73
    2
 40
1.75
 49
0.25
 49
-1.5
  0
LTYPE
  2
chain
 70
   64
  3
-------------- -- --------------
 72
   65
 73
    4
 40
18.5
 49
12
 49
-1.5
 49
3.5
 49
-1.5
  0
LTYPE
  2
chain_double_dash
 70
   64
  3
------------ -- -- -------------
 72
   65
 73
    6
 40
23.5
 49
12
 49
-1.5
 49
3.5
 49
-1.5
 49
3.5
 49
-1.5
  0
LTYPE
  2
dashed_dotted
 70
   64
  3
-----------     -     ----------
 72
   65
 73
    4
 40
9.25
 49
6
 49
-1.5
 49
0.25
 49
-1.5
  0
LTYPE
  2
double-dashed_dotted
 70
   64
  3
------   -----------   -   -----
 72
   65
 73
    6
 40
16.75
 49
6
 49
-1.5
 49
6
 49
-1.5
 49
0.25
 49
-1.5
  0
LTYPE
  2
dashed_double-dotted
 70
   64
  3
---------    -    -    ---------
 72
   65
 73
    6
 40
11
 49
6
 49
-1.5
 49
0.25
 49
-1.5
 49
0.25
 49
-1.5
  0
LTYPE
  2
double-dashed_double-dotted
 70
   64
  3
-----   ---------   -   -   ----
 72
   65
 73
    8
 40
18.5
 49
6
 49
-1.5
 49
6
 49
-1.5
 49
0.25
 49
-1.5
 49
0.25
 49
-1.5
  0
LTYPE
  2
dashed_triplicate-dotted
 70
   64
  3
-------    -    -    -    ------
 72
   65
 73
    8
 40
12.75
 49
6
 49
-1.5
 49
0.25
 49
-1.5
 49
0.25
 49
-1.5
 49
0.25
 49
-1.5
  0
LTYPE
  2
double-dashed_triplicate-dotted
 70
   64
  3
-----  ---------  -  -  -  -----
 72
   65
 73
   10
 40
20.25
 49
6
 49
-1.5
 49
6
 49
-1.5
 49
0.25
 49
-1.5
 49
0.25
 49
-1.5
 49
0.25
 49
-1.5
  0
LTYPE
  2
undefined
 70
   64
  3
--------------------------------
 72
   65
 73
    0
 40
0
  0
LTYPE
  2
_
 70
   64
  3
                                
 72
   65
 73
    0
 40
0
  0
LTYPE
  2
__18
 70
   64
  3
                                
 72
   65
 73
    0
 40
0
  0
LTYPE
  2
__19
 70
   64
  3
                                
 72
   65
 73
    0
 40
0
  0
LTYPE
  2
__20
 70
   64
  3
                                
 72
   65
 73
    0
 40
0
  0
LTYPE
  2
__21
 70
   64
  3
                                
 72
   65
 73
    0
 40
0
  0
LTYPE
  2
__22
 70
   64
  3
                                
 72
   65
 73
    0
 40
0
  0
LTYPE
  2
__23
 70
   64
  3
                                
 72
   65
 73
    0
 40
0
  0
LTYPE
  2
__24
 70
   64
  3
                                
 72
   65
 73
    0
 40
0
  0
LTYPE
  2
__25
 70
   64
  3
                                
 72
   65
 73
    0
 40
0
  0
LTYPE
  2
__26
 70
   64
  3
                                
 72
   65
 73
    0
 40
0
  0
LTYPE
  2
__27
 70
   64
  3
                                
 72
   65
 73
    0
 40
0
  0
LTYPE
  2
__28
 70
   64
  3
                                
 72
   65
 73
    0
 40
0
  0
LTYPE
  2
__29
 70
   64
  3
                                
 72
   65
 73
    0
 40
0
  0
LTYPE
  2
__30
 70
   64
  3
                                
 72
   65
 73
    0
 40
0
  0
LTYPE
  2
__31
 70
   64
  3
                                
 72
   65
 73
    0
 40
0
  0
LTYPE
  2
__32
 70
   64
  3
                                
 72
   65
 73
    0
 40
0
  0
ENDTAB
  0
TABLE
  2
STYLE
  5
3
100
AcDbSymbolTable
 70
     1
  0
STYLE
  5
10
100
AcDbSymbolTableRecord
100
AcDbTextStyleTableRecord
  2
STANDARD
 70
     0
 40
0.0
 41
1.0
 50
0.0
 71
     0
 42
0.2
  3
txt
  4
bigfont.shx
  0
STYLE
  5
26
100
AcDbSymbolTableRecord
100
AcDbTextStyleTableRecord
  2
TATEGAKI
 70
    68
 40
0.0
 41
1.0
 50
0.0
 71
     0
 42
1.0
  3
txt
  4
bigfont.shx
  0
ENDTAB
  0
TABLE
  2
LAYER
 70
    2
  0
LAYER
  2
_1-3_1-3___
 70
   64
 62
    7
  6
CONTINUOUS
  0
LAYER
  2
ADD_LINE
 70
   64
 62
    7
  6
CONTINUOUS
  0
ENDTAB
  0
ENDSEC
  0
SECTION
  2
BLOCKS
  0
ENDSEC
  0
SECTION
  2
ENTITIES
  0
ARC
  8
_1-3_1-3___
  6
CONTINUOUS
 62
   18
 10
110.14177045173317
 20
74.517393892053946
 40
3
 50
90
 51
180
  0
LINE
  8
_1-3_1-3___
  6
CONTINUOUS
 62
   18
 10
107.14177045173317
 20
63.185800152040827
 11
107.14177045173317
 21
74.517393892053946
  0
ARC
  8
_1-3_1-3___
  6
CONTINUOUS
 62
   18
 10
110.14177045173317
 20
63.185800152040827
 40
3
 50
180
 51
270
  0
LINE
  8
_1-3_1-3___
  6
CONTINUOUS
 62
   18
 10
143.79214267882691
 20
60.185800152040827
 11
110.14177045173317
 21
60.185800152040827
  0
ARC
  8
_1-3_1-3___
  6
CONTINUOUS
 62
   18
 10
143.79214267882691
 20
63.185800152040827
 40
3
 50
270
 51
0
  0
LINE
  8
_1-3_1-3___
  6
CONTINUOUS
 62
   18
 10
146.79214267882691
 20
74.517393892053946
 11
146.79214267882691
 21
63.185800152040827
  0
LINE
  8
_1-3_1-3___
  6
CONTINUOUS
 62
   18
 10
143.79214267882691
 20
77.517393892053946
 11
110.14177045173317
 21
77.517393892053946
  0
ARC
  8
_1-3_1-3___
  6
CONTINUOUS
 62
   18
 10
143.79214267882691
 20
74.517393892053946
 40
3
 50
0
 51
90.000000000000014
  0
LINE
  8
_1-3_1-3___
  6
CONTINUOUS
 62
   18
 10
134.89039199461553
 20
19.340697644074368
 11
136.09039199461552
 21
19.340697644074368
  0
LINE
  8
_1-3_1-3___
  6
CONTINUOUS
 62
   18
 10
136.09039199461552
 20
19.340697644074368
 11
136.09039199461552
 21
16.540697644074385
  0
LINE
  8
_1-3_1-3___
  6
CONTINUOUS
 62
   18
 10
136.09039199461552
 20
16.540697644074385
 11
134.89039199461553
 21
16.540697644074385
  0
LINE
  8
_1-3_1-3___
  6
CONTINUOUS
 62
   18
 10
134.89039199461553
 20
16.540697644074385
 11
134.89039199461553
 21
19.340697644074368
  0
CIRCLE
  8
_1-3_1-3___
  6
CONTINUOUS
 62
   18
 10
127.69039199461551
 20
17.94069764407439
 40
3.5
  0
LINE
  8
_1-3_1-3___
  6
CONTINUOUS
 62
   18
 10
114.43039199461553
 20
83.53069764407438
 11
114.43039199461553
 21
85.850697644074373
  0
LINE
  8
_1-3_1-3___
  6
CONTINUOUS
 62
   18
 10
120.23039199461553
 20
87.550697644074376
 11
135.15039199461552
 21
87.550697644074376
  0
LINE
  8
_1-3_1-3___
  6
CONTINUOUS
 62
   18
 10
140.95039199461553
 20
85.850697644074373
 11
140.95039199461553
 21
83.53069764407438
  0
LINE
  8
_1-3_1-3___
  6
CONTINUOUS
 62
   18
 10
140.95039199461553
 20
83.53069764407438
 11
114.43039199461553
 21
83.53069764407438
  0
LINE
  8
_1-3_1-3___
  6
CONTINUOUS
 62
   18
 10
120.23039199461553
 20
85.850697644074373
 11
120.23039199461553
 21
87.550697644074376
  0
LINE
  8
_1-3_1-3___
  6
CONTINUOUS
 62
   18
 10
120.23039199461553
 20
85.850697644074373
 11
114.43039199461553
 21
85.850697644074373
  0
LINE
  8
_1-3_1-3___
  6
CONTINUOUS
 62
   18
 10
135.15039199461552
 20
87.550697644074376
 11
135.15039199461552
 21
85.850697644074373
  0
LINE
  8
_1-3_1-3___
  6
CONTINUOUS
 62
   18
 10
140.95039199461553
 20
85.850697644074373
 11
135.15039199461552
 21
85.850697644074373
  0
CIRCLE
  8
_1-3_1-3___
  6
CONTINUOUS
 62
   18
 10
79.088876804450535
 20
79.089182453909373
 40
2.2999999999999998
  0
CIRCLE
  8
_1-3_1-3___
  6
CONTINUOUS
 62
   18
 10
19.691907184780518
 20
79.089182453909373
 40
2.2999999999999998
  0
CIRCLE
  8
_1-3_1-3___
  6
CONTINUOUS
 62
   18
 10
19.691907184780518
 20
19.692212834239371
 40
2.2999999999999998
  0
CIRCLE
  8
_1-3_1-3___
  6
CONTINUOUS
 62
   18
 10
79.088876804450507
 20
19.692212834239371
 40
2.2999999999999998
  0
LINE
  8
_1-3_1-3___
  6
CONTINUOUS
 62
   18
 10
108.24039199461552
 20
43.390697644074379
 11
111.14039199461553
 21
43.390697644074379
  0
LINE
  8
_1-3_1-3___
  6
CONTINUOUS
 62
   18
 10
111.14039199461553
 20
36.990697644074373
 11
111.14039199461553
 21
43.390697644074379
  0
LINE
  8
_1-3_1-3___
  6
CONTINUOUS
 62
   18
 10
120.24039199461552
 20
36.990697644074373
 11
120.24039199461552
 21
43.390697644074379
  0
LINE
  8
_1-3_1-3___
  6
CONTINUOUS
 62
   18
 10
120.24039199461552
 20
43.390697644074379
 11
123.14039199461553
 21
43.390697644074379
  0
LINE
  8
_1-3_1-3___
  6
CONTINUOUS
 62
   18
 10
123.14039199461553
 20
36.990697644074373
 11
123.14039199461553
 21
43.390697644074379
  0
LINE
  8
_1-3_1-3___
  6
CONTINUOUS
 62
   18
 10
132.24039199461555
 20
36.990697644074373
 11
132.24039199461555
 21
43.390697644074379
  0
LINE
  8
_1-3_1-3___
  6
CONTINUOUS
 62
   18
 10
132.24039199461555
 20
43.390697644074379
 11
135.14039199461553
 21
43.390697644074379
  0
LINE
  8
_1-3_1-3___
  6
CONTINUOUS
 62
   18
 10
135.14039199461553
 20
36.990697644074373
 11
135.14039199461553
 21
43.390697644074379
  0
LINE
  8
_1-3_1-3___
  6
CONTINUOUS
 62
   18
 10
144.24039199461552
 20
36.990697644074373
 11
144.24039199461552
 21
43.390697644074379
  0
LINE
  8
_1-3_1-3___
  6
CONTINUOUS
 62
   18
 10
144.24039199461552
 20
43.390697644074379
 11
147.14039199461553
 21
43.390697644074379
  0
LINE
  8
_1-3_1-3___
  6
CONTINUOUS
 62
   18
 10
120.24039199461552
 20
36.990697644074373
 11
123.14039199461553
 21
36.990697644074373
  0
LINE
  8
_1-3_1-3___
  6
CONTINUOUS
 62
   18
 10
132.24039199461555
 20
36.990697644074373
 11
135.14039199461553
 21
36.990697644074373
  0
LINE
  8
_1-3_1-3___
  6
CONTINUOUS
 62
   18
 10
108.24039199461552
 20
36.990697644074373
 11
108.24039199461552
 21
43.390697644074379
  0
LINE
  8
_1-3_1-3___
  6
CONTINUOUS
 62
   18
 10
108.24039199461552
 20
36.990697644074373
 11
111.14039199461553
 21
36.990697644074373
  0
LINE
  8
_1-3_1-3___
  6
CONTINUOUS
 62
   18
 10
147.14039199461553
 20
36.990697644074373
 11
147.14039199461553
 21
43.390697644074379
  0
LINE
  8
_1-3_1-3___
  6
CONTINUOUS
 62
   18
 10
144.24039199461552
 20
36.990697644074373
 11
147.14039199461553
 21
36.990697644074373
  0
LINE
  8
_1-3_1-3___
  6
CONTINUOUS
 62
   18
 10
105.34039199461553
 20
42.590697644074368
 11
105.34039199461553
 21
45.290697644074385
  0
LINE
  8
_1-3_1-3___
  6
CONTINUOUS
 62
   18
 10
150.04039199461553
 20
42.590697644074368
 11
150.04039199461553
 21
45.290697644074385
  0
LINE
  8
_1-3_1-3___
  6
CONTINUOUS
 62
   18
 10
138.59039199461552
 20
34.590697644074368
 11
141.29039199461553
 21
34.590697644074368
  0
LINE
  8
_1-3_1-3___
  6
CONTINUOUS
 62
   18
 10
116.79039199461553
 20
34.590697644074368
 11
114.19039199461552
 21
34.590697644074368
  0
LINE
  8
_1-3_1-3___
  6
CONTINUOUS
 62
   18
 10
14.290391994615504
 20
3.6906976440743904
 11
14.290391994615504
 21
1.0906976440743676
  0
LINE
  8
_1-3_1-3___
  6
CONTINUOUS
 62
   18
 10
1.6903919946155099
 20
10.990697644074373
 11
4.2903919946155042
 21
10.990697644074373
  0
LINE
  8
_1-3_1-3___
  6
CONTINUOUS
 62
   18
 10
1.6903919946155099
 20
3.6906976440743904
 11
4.2903919946155042
 21
3.6906976440743904
  0
LINE
  8
_1-3_1-3___
  6
CONTINUOUS
 62
   18
 10
4.2903919946155042
 20
3.6906976440743904
 11
4.2903919946155042
 21
1.0906976440743676
  0
LINE
  8
_1-3_1-3___
  6
CONTINUOUS
 62
   18
 10
1.6903919946155099
 20
10.990697644074373
 11
1.6903919946155099
 21
3.6906976440743904
  0
LINE
  8
_1-3_1-3___
  6
CONTINUOUS
 62
   18
 10
167.69039199461551
 20
10.990697644074373
 11
165.09039199461552
 21
10.990697644074373
  0
LINE
  8
_1-3_1-3___
  6
CONTINUOUS
 62
   18
 10
165.09039199461552
 20
3.6906976440743904
 11
167.69039199461551
 21
3.6906976440743904
  0
LINE
  8
_1-3_1-3___
  6
CONTINUOUS
 62
   18
 10
165.09039199461552
 20
1.0906976440743676
 11
165.09039199461552
 21
3.6906976440743904
  0
LINE
  8
_1-3_1-3___
  6
CONTINUOUS
 62
   18
 10
155.09039199461552
 20
3.6906976440743904
 11
155.09039199461552
 21
1.0906976440743676
  0
LINE
  8
_1-3_1-3___
  6
CONTINUOUS
 62
   18
 10
167.69039199461551
 20
10.990697644074345
 11
167.69039199461551
 21
3.6906976440743904
  0
LINE
  8
_1-3_1-3___
  6
CONTINUOUS
 62
   18
 10
165.09039199461552
 20
75.090697644074382
 11
167.69039199461551
 21
75.090697644074382
  0
LINE
  8
_1-3_1-3___
  6
CONTINUOUS
 62
   18
 10
165.09039199461552
 20
41.79069764407437
 11
167.69039199461551
 21
41.79069764407437
  0
LINE
  8
_1-3_1-3___
  6
CONTINUOUS
 62
   18
 10
160.77897451960854
 20
91.712254105646807
 11
162.84506918675825
 21
93.287719432312514
  0
LINE
  8
_1-3_1-3___
  6
CONTINUOUS
 62
   18
 10
148.05453200248425
 20
101.33924286037073
 11
148.74247034287467
 21
103.84591532747991
  0
LINE
  8
_1-3_1-3___
  6
CONTINUOUS
 62
   18
 10
117.34371172996765
 20
107.80702556927838
 11
117.69080607411357
 21
110.38323692353357
  0
LINE
  8
_1-3_1-3___
  6
CONTINUOUS
 62
   18
 10
51.689977915125894
 20
110.38323692353471
 11
52.037072259263397
 21
107.80702556927832
  0
LINE
  8
_1-3_1-3___
  6
CONTINUOUS
 62
   18
 10
20.63831364635638
 20
103.84591532747991
 11
21.326251986746769
 21
101.33924286037073
  0
LINE
  8
_1-3_1-3___
  6
CONTINUOUS
 62
   18
 10
8.6018094696225091
 20
91.712254105646807
 11
6.5357148024727394
 21
93.287719432312457
  0
LINE
  8
_1-3_1-3___
  6
CONTINUOUS
 62
   18
 10
4.2903919946155042
 20
41.79069764407437
 11
1.6903919946155099
 21
41.79069764407437
  0
LINE
  8
_1-3_1-3___
  6
CONTINUOUS
 62
   18
 10
4.2903919946155042
 20
44.490697644074373
 11
4.2903919946155042
 21
41.79069764407437
  0
LINE
  8
_1-3_1-3___
  6
CONTINUOUS
 62
   18
 10
1.6903919946155099
 20
44.490697644074373
 11
4.2903919946155042
 21
44.490697644074373
  0
LINE
  8
_1-3_1-3___
  6
CONTINUOUS
 62
   18
 10
1.6903919946155099
 20
75.090697644074382
 11
1.6903919946155099
 21
44.490697644074373
  0
LINE
  8
_1-3_1-3___
  6
CONTINUOUS
 62
   18
 10
4.2903919946155327
 20
75.090697644074382
 11
1.6903919946155099
 21
75.090697644074382
  0
LINE
  8
_1-3_1-3___
  6
CONTINUOUS
 62
   18
 10
83.340391994615501
 20
115.28685483812723
 11
83.34039199461553
 21
110.08740306116545
  0
LINE
  8
_1-3_1-3___
  6
CONTINUOUS
 62
   18
 10
83.34039199461553
 20
110.08740306116545
 11
86.040391994615533
 21
110.08740306116545
  0
LINE
  8
_1-3_1-3___
  6
CONTINUOUS
 62
   18
 10
86.040391994615533
 20
110.08740306116545
 11
86.04039199461549
 21
115.28685483812723
  0
LINE
  8
_1-3_1-3___
  6
CONTINUOUS
 62
   18
 10
86.040391994615533
 20
8.4906976440743733
 11
86.040391994615533
 21
11.19069764407439
  0
LINE
  8
_1-3_1-3___
  6
CONTINUOUS
 62
   18
 10
83.34039199461553
 20
8.4906976440743733
 11
86.040391994615533
 21
8.4906976440743733
  0
LINE
  8
_1-3_1-3___
  6
CONTINUOUS
 62
   18
 10
83.34039199461553
 20
11.19069764407439
 11
83.34039199461553
 21
8.4906976440743733
  0
LINE
  8
_1-3_1-3___
  6
CONTINUOUS
 62
   18
 10
86.040391994615533
 20
11.19069764407439
 11
83.34039199461553
 21
11.19069764407439
  0
LINE
  8
_1-3_1-3___
  6
CONTINUOUS
 62
   18
 10
34.790391994615533
 20
1.0906976440743676
 11
57.090391994615544
 21
1.0906976440743676
  0
LINE
  8
_1-3_1-3___
  6
CONTINUOUS
 62
   18
 10
59.790391994615533
 20
1.0906976440743676
 11
109.59039199461552
 21
1.0906976440743676
  0
LINE
  8
_1-3_1-3___
  6
CONTINUOUS
 62
   18
 10
112.19039199461552
 20
3.690697644074362
 11
109.59039199461552
 21
3.690697644074362
  0
LINE
  8
_1-3_1-3___
  6
CONTINUOUS
 62
   18
 10
109.59039199461552
 20
3.690697644074362
 11
109.59039199461552
 21
1.0906976440743676
  0
LINE
  8
_1-3_1-3___
  6
CONTINUOUS
 62
   18
 10
137.19039199461554
 20
3.690697644074362
 11
134.59039199461552
 21
3.690697644074362
  0
LINE
  8
_1-3_1-3___
  6
CONTINUOUS
 62
   18
 10
134.59039199461552
 20
3.690697644074362
 11
134.59039199461552
 21
1.0906976440743676
  0
LINE
  8
_1-3_1-3___
  6
CONTINUOUS
 62
   18
 10
112.19039199461552
 20
1.0906976440743676
 11
112.19039199461552
 21
3.690697644074362
  0
LINE
  8
_1-3_1-3___
  6
CONTINUOUS
 62
   18
 10
112.19039199461552
 20
1.0906976440743676
 11
134.59039199461552
 21
1.0906976440743676
  0
LINE
  8
_1-3_1-3___
  6
CONTINUOUS
 62
   18
 10
137.19039199461554
 20
1.0906976440743676
 11
137.19039199461554
 21
3.690697644074362
  0
LINE
  8
_1-3_1-3___
  6
CONTINUOUS
 62
   18
 10
137.19039199461554
 20
1.0906976440743676
 11
155.09039199461552
 21
1.0906976440743676
  0
LINE
  8
_1-3_1-3___
  6
CONTINUOUS
 62
   18
 10
157.69039199461551
 20
3.690697644074362
 11
155.09039199461552
 21
3.690697644074362
  0
LINE
  8
_1-3_1-3___
  6
CONTINUOUS
 62
   18
 10
157.69039199461551
 20
1.0906976440743676
 11
157.69039199461551
 21
3.690697644074362
  0
LINE
  8
_1-3_1-3___
  6
CONTINUOUS
 62
   18
 10
157.69039199461551
 20
1.0906976440743676
 11
165.09039199461552
 21
1.0906976440743676
  0
LINE
  8
_1-3_1-3___
  6
CONTINUOUS
 62
   18
 10
57.19039199461551
 20
1.0906976440743676
 11
57.19039199461551
 21
3.690697644074362
  0
LINE
  8
_1-3_1-3___
  6
CONTINUOUS
 62
   18
 10
57.19039199461551
 20
3.690697644074362
 11
59.790391994615533
 21
3.690697644074362
  0
LINE
  8
_1-3_1-3___
  6
CONTINUOUS
 62
   18
 10
59.790391994615533
 20
3.690697644074362
 11
59.790391994615533
 21
1.0906976440743676
  0
LINE
  8
_1-3_1-3___
  6
CONTINUOUS
 62
   18
 10
11.69039199461551
 20
3.690697644074362
 11
14.290391994615504
 21
3.690697644074362
  0
LINE
  8
_1-3_1-3___
  6
CONTINUOUS
 62
   18
 10
4.2903919946155042
 20
1.0906976440743676
 11
11.69039199461551
 21
1.0906976440743676
  0
LINE
  8
_1-3_1-3___
  6
CONTINUOUS
 62
   18
 10
11.69039199461551
 20
1.0906976440743676
 11
11.69039199461551
 21
3.690697644074362
  0
LINE
  8
_1-3_1-3___
  6
CONTINUOUS
 62
   18
 10
14.290391994615504
 20
1.0906976440743676
 11
32.19039199461551
 21
1.0906976440743676
  0
LINE
  8
_1-3_1-3___
  6
CONTINUOUS
 62
   18
 10
32.19039199461551
 20
1.0906976440743676
 11
32.19039199461551
 21
3.690697644074362
  0
LINE
  8
_1-3_1-3___
  6
CONTINUOUS
 62
   18
 10
32.19039199461551
 20
3.690697644074362
 11
34.790391994615533
 21
3.690697644074362
  0
LINE
  8
_1-3_1-3___
  6
CONTINUOUS
 62
   18
 10
34.790391994615533
 20
3.690697644074362
 11
34.790391994615533
 21
1.0906976440743676
  0
LINE
  8
_1-3_1-3___
  6
CONTINUOUS
 62
   18
 10
4.2903919946155042
 20
13.590697644074368
 11
4.2903919946155042
 21
10.990697644074373
  0
LINE
  8
_1-3_1-3___
  6
CONTINUOUS
 62
   18
 10
1.6903919946155099
 20
41.79069764407437
 11
1.6903919946155099
 21
13.590697644074368
  0
LINE
  8
_1-3_1-3___
  6
CONTINUOUS
 62
   18
 10
1.6903919946155099
 20
13.590697644074368
 11
4.2903919946155042
 21
13.590697644074368
  0
ARC
  8
_1-3_1-3___
  6
CONTINUOUS
 62
   18
 10
29.216343551708945
 20
77.690697644074362
 40
27.525951557093432
 50
145.48446242269029
 51
179.99999999999994
  0
LINE
  8
_1-3_1-3___
  6
CONTINUOUS
 62
   18
 10
1.6903919946155384
 20
77.690697644074376
 11
4.2903919946155327
 21
77.690697644074376
  0
LINE
  8
_1-3_1-3___
  6
CONTINUOUS
 62
   18
 10
4.2903919946155327
 20
77.690697644074376
 11
4.2903919946155327
 21
75.090697644074382
  0
ARC
  8
_1-3_1-3___
  6
CONTINUOUS
 62
   18
 10
140.1644404375221
 20
77.690697644074348
 40
27.525951557093428
 50
0.0000000000000554
 51
34.515537577309871
  0
LINE
  8
_1-3_1-3___
  6
CONTINUOUS
 62
   18
 10
167.69039199461551
 20
77.690697644074376
 11
165.09039199461552
 21
77.690697644074376
  0
LINE
  8
_1-3_1-3___
  6
CONTINUOUS
 62
   18
 10
165.09039199461552
 20
77.690697644074376
 11
165.09039199461552
 21
75.090697644074382
  0
LINE
  8
_1-3_1-3___
  6
CONTINUOUS
 62
   18
 10
167.69039199461551
 20
75.090697644074382
 11
167.69039199461551
 21
44.390697644074379
  0
LINE
  8
_1-3_1-3___
  6
CONTINUOUS
 62
   18
 10
167.69039199461551
 20
44.390697644074379
 11
165.09039199461552
 21
44.390697644074379
  0
LINE
  8
_1-3_1-3___
  6
CONTINUOUS
 62
   18
 10
165.09039199461552
 20
44.390697644074379
 11
165.09039199461552
 21
41.79069764407437
  0
LINE
  8
_1-3_1-3___
  6
CONTINUOUS
 62
   18
 10
167.69039199461551
 20
41.79069764407437
 11
167.69039199461551
 21
13.590697644074368
  0
LINE
  8
_1-3_1-3___
  6
CONTINUOUS
 62
   18
 10
165.09039199461552
 20
13.590697644074368
 11
167.69039199461551
 21
13.590697644074368
  0
LINE
  8
_1-3_1-3___
  6
CONTINUOUS
 62
   18
 10
165.09039199461552
 20
10.990697644074373
 11
165.09039199461552
 21
13.590697644074368
  0
LINE
  8
_1-3_1-3___
  6
CONTINUOUS
 62
   18
 10
159.2024404921014
 20
93.779750287048884
 11
160.77897451960854
 21
91.712254105646807
  0
LINE
  8
_1-3_1-3___
  6
CONTINUOUS
 62
   18
 10
161.27229490075464
 20
95.358082540613154
 11
159.2024404921014
 21
93.779750287048884
  0
ARC
  8
_1-3_1-3___
  6
CONTINUOUS
 62
   18
 10
140.1644404375221
 20
77.690697644074348
 40
27.525951557093428
 50
39.929508748649745
 51
71.842252992103681
  0
LINE
  8
_1-3_1-3___
  6
CONTINUOUS
 62
   18
 10
145.55495663952857
 20
102.05546411519778
 11
148.05453200248425
 21
101.33924286037073
  0
LINE
  8
_1-3_1-3___
  6
CONTINUOUS
 62
   18
 10
146.24307435203232
 20
104.5627901686991
 11
145.55495663952857
 21
102.05546411519778
  0
ARC
  8
_1-3_1-3___
  6
CONTINUOUS
 62
   18
 10
84.690391994615553
 20
-124.44263568925896
 40
237.1333333333333
 50
74.955455243728366
 51
82.000528796150661
  0
LINE
  8
_1-3_1-3___
  6
CONTINUOUS
 62
   18
 10
114.76699325839934
 20
108.15418823760344
 11
117.34371172996765
 21
107.80702556927838
  0
LINE
  8
_1-3_1-3___
  6
CONTINUOUS
 62
   18
 10
115.11416080351748
 20
110.73094290587208
 11
114.76699325839934
 21
108.15418823760344
  0
ARC
  8
_1-3_1-3___
  6
CONTINUOUS
 62
   18
 10
84.690391994615553
 20
-124.44263568925896
 40
237.1333333333333
 50
82.628739828936247
 51
89.673813381358997
  0
LINE
  8
_1-3_1-3___
  6
CONTINUOUS
 62
   18
 10
10.178343497129617
 20
93.77975028704887
 11
8.6018094696225091
 21
91.712254105646807
  0
LINE
  8
_1-3_1-3___
  6
CONTINUOUS
 62
   18
 10
8.1084890884762899
 20
95.358082540613026
 11
10.178343497129617
 21
93.77975028704887
  0
ARC
  8
_1-3_1-3___
  6
CONTINUOUS
 62
   18
 10
29.216343551708945
 20
77.690697644074362
 40
27.525951557093432
 50
108.15774700789633
 51
140.07049125135063
  0
LINE
  8
_1-3_1-3___
  6
CONTINUOUS
 62
   18
 10
21.326251986746769
 20
101.33924286037073
 11
23.82582734970245
 21
102.05546411519781
  0
LINE
  8
_1-3_1-3___
  6
CONTINUOUS
 62
   18
 10
23.82582734970245
 20
102.05546411519781
 11
23.137709637198697
 21
104.56279016869912
  0
ARC
  8
_1-3_1-3___
  6
CONTINUOUS
 62
   18
 10
84.690391994615553
 20
-124.44263568925896
 40
237.1333333333333
 50
97.999471203847307
 51
105.04454475627165
  0
LINE
  8
_1-3_1-3___
  6
CONTINUOUS
 62
   18
 10
52.037072259263397
 20
107.80702556927832
 11
54.61379073083171
 21
108.15418823760341
  0
LINE
  8
_1-3_1-3___
  6
CONTINUOUS
 62
   18
 10
54.61379073083171
 20
108.15418823760341
 11
54.266623185705811
 21
110.73094290587106
  0
ARC
  8
_1-3_1-3___
  6
CONTINUOUS
 62
   18
 10
84.690391994615553
 20
-124.44263568925896
 40
237.1333333333333
 50
90.326185864543589
 51
97.371260171065657
  0
LINE
  8
_1-3_1-3___
  6
CONTINUOUS
 62
   18
 10
105.34039199461553
 20
45.290697644074385
 11
107.94039199461554
 21
45.290697644074385
  0
LINE
  8
_1-3_1-3___
  6
CONTINUOUS
 62
   18
 10
107.94039199461554
 20
45.290697644074385
 11
107.94039199461554
 21
42.590697644074368
  0
LINE
  8
_1-3_1-3___
  6
CONTINUOUS
 62
   18
 10
107.94039199461554
 20
42.590697644074368
 11
105.34039199461553
 21
42.590697644074368
  0
LINE
  8
_1-3_1-3___
  6
CONTINUOUS
 62
   18
 10
114.09039199461553
 20
34.590697644074368
 11
114.09039199461553
 21
37.190697644074376
  0
LINE
  8
_1-3_1-3___
  6
CONTINUOUS
 62
   18
 10
114.09039199461553
 20
37.190697644074376
 11
116.79039199461553
 21
37.190697644074376
  0
LINE
  8
_1-3_1-3___
  6
CONTINUOUS
 62
   18
 10
116.79039199461553
 20
37.190697644074376
 11
116.79039199461553
 21
34.590697644074368
  0
LINE
  8
_1-3_1-3___
  6
CONTINUOUS
 62
   18
 10
138.59039199461552
 20
37.190697644074376
 11
138.59039199461552
 21
34.590697644074368
  0
LINE
  8
_1-3_1-3___
  6
CONTINUOUS
 62
   18
 10
141.29039199461553
 20
37.190697644074376
 11
138.59039199461552
 21
37.190697644074376
  0
LINE
  8
_1-3_1-3___
  6
CONTINUOUS
 62
   18
 10
141.29039199461553
 20
34.590697644074368
 11
141.29039199461553
 21
37.190697644074376
  0
LINE
  8
_1-3_1-3___
  6
CONTINUOUS
 62
   18
 10
150.04039199461553
 20
45.290697644074385
 11
147.44039199461554
 21
45.290697644074385
  0
LINE
  8
_1-3_1-3___
  6
CONTINUOUS
 62
   18
 10
147.44039199461554
 20
45.290697644074385
 11
147.44039199461554
 21
42.590697644074368
  0
LINE
  8
_1-3_1-3___
  6
CONTINUOUS
 62
   18
 10
147.44039199461554
 20
42.590697644074368
 11
150.04039199461553
 21
42.590697644074368
  0
LINE
  8
_1-3_1-3___
  6
CONTINUOUS
 62
   18
 10
155.09039199461552
 20
221.68356025521828
 11
155.09039199461552
 21
224.28356025521828
  0
LINE
  8
_1-3_1-3___
  6
CONTINUOUS
 62
   18
 10
167.69039199461554
 20
214.3835602552183
 11
165.09039199461552
 21
214.3835602552183
  0
LINE
  8
_1-3_1-3___
  6
CONTINUOUS
 62
   18
 10
167.69039199461554
 20
221.68356025521828
 11
165.09039199461552
 21
221.68356025521828
  0
LINE
  8
_1-3_1-3___
  6
CONTINUOUS
 62
   18
 10
165.09039199461552
 20
221.68356025521828
 11
165.09039199461552
 21
224.28356025521828
  0
LINE
  8
_1-3_1-3___
  6
CONTINUOUS
 62
   18
 10
167.69039199461554
 20
214.3835602552183
 11
167.69039199461554
 21
221.68356025521828
  0
LINE
  8
_1-3_1-3___
  6
CONTINUOUS
 62
   18
 10
1.6903919946155099
 20
214.3835602552183
 11
4.2903919946155327
 21
214.3835602552183
  0
LINE
  8
_1-3_1-3___
  6
CONTINUOUS
 62
   18
 10
4.2903919946155327
 20
221.68356025521831
 11
1.6903919946155099
 21
221.68356025521831
  0
LINE
  8
_1-3_1-3___
  6
CONTINUOUS
 62
   18
 10
4.2903919946155327
 20
224.2835602552183
 11
4.2903919946155327
 21
221.68356025521831
  0
LINE
  8
_1-3_1-3___
  6
CONTINUOUS
 62
   18
 10
14.290391994615533
 20
221.68356025521831
 11
14.290391994615533
 21
224.2835602552183
  0
LINE
  8
_1-3_1-3___
  6
CONTINUOUS
 62
   18
 10
1.6903919946155099
 20
214.3835602552183
 11
1.6903919946155099
 21
221.68356025521831
  0
LINE
  8
_1-3_1-3___
  6
CONTINUOUS
 62
   18
 10
4.2903919946155327
 20
150.28356025521828
 11
1.6903919946155099
 21
150.28356025521828
  0
LINE
  8
_1-3_1-3___
  6
CONTINUOUS
 62
   18
 10
4.2903919946155327
 20
183.58356025521832
 11
1.6903919946155099
 21
183.58356025521832
  0
LINE
  8
_1-3_1-3___
  6
CONTINUOUS
 62
   18
 10
8.6018094696224523
 20
133.66200379364585
 11
6.5357148024727678
 21
132.08653846698016
  0
LINE
  8
_1-3_1-3___
  6
CONTINUOUS
 62
   18
 10
21.326251986746769
 20
124.03501503892193
 11
20.638313646356352
 21
121.52834257181274
  0
LINE
  8
_1-3_1-3___
  6
CONTINUOUS
 62
   18
 10
52.03707225926334
 20
117.56723233001429
 11
51.689977915117453
 21
114.99102097575911
  0
LINE
  8
_1-3_1-3___
  6
CONTINUOUS
 62
   18
 10
117.69080607410511
 20
114.99102097575795
 11
117.34371172996761
 21
117.56723233001435
  0
LINE
  8
_1-3_1-3___
  6
CONTINUOUS
 62
   18
 10
148.74247034287464
 20
121.52834257181274
 11
148.05453200248428
 21
124.03501503892193
  0
LINE
  8
_1-3_1-3___
  6
CONTINUOUS
 62
   18
 10
160.77897451960854
 20
133.66200379364585
 11
162.84506918675828
 21
132.08653846698019
  0
LINE
  8
_1-3_1-3___
  6
CONTINUOUS
 62
   18
 10
165.09039199461552
 20
183.58356025521829
 11
167.69039199461554
 21
183.58356025521829
  0
LINE
  8
_1-3_1-3___
  6
CONTINUOUS
 62
   18
 10
165.09039199461552
 20
180.8835602552183
 11
165.09039199461552
 21
183.58356025521829
  0
LINE
  8
_1-3_1-3___
  6
CONTINUOUS
 62
   18
 10
167.69039199461554
 20
180.8835602552183
 11
165.09039199461552
 21
180.8835602552183
  0
LINE
  8
_1-3_1-3___
  6
CONTINUOUS
 62
   18
 10
167.69039199461554
 20
150.28356025521828
 11
167.69039199461554
 21
180.8835602552183
  0
LINE
  8
_1-3_1-3___
  6
CONTINUOUS
 62
   18
 10
165.09039199461552
 20
150.28356025521828
 11
167.69039199461554
 21
150.28356025521828
  0
LINE
  8
_1-3_1-3___
  6
CONTINUOUS
 62
   18
 10
86.04039199461549
 20
115.28685483812723
 11
83.340391994615501
 21
115.28685483812723
  0
LINE
  8
_1-3_1-3___
  6
CONTINUOUS
 62
   18
 10
86.04039199461549
 20
221.68356025521831
 11
86.04039199461549
 21
224.2835602552183
  0
LINE
  8
_1-3_1-3___
  6
CONTINUOUS
 62
   18
 10
83.340391994615501
 20
221.68356025521831
 11
86.04039199461549
 21
221.68356025521831
  0
LINE
  8
_1-3_1-3___
  6
CONTINUOUS
 62
   18
 10
83.340391994615501
 20
224.2835602552183
 11
83.340391994615501
 21
221.68356025521831
  0
ARC
  8
_1-3_1-3___
  6
CONTINUOUS
 62
   18
 10
84.690391994615467
 20
349.81689358855152
 40
225.13333333333316
 50
254.65343082958802
 51
285.34656917041207
  0
ARC
  8
_1-3_1-3___
  6
CONTINUOUS
 62
   18
 10
140.1644404375221
 20
147.68356025521828
 40
15.525951557093421
 50
285.34656917041201
 51
0
  0
ARC
  8
_1-3_1-3___
  6
CONTINUOUS
 62
   18
 10
29.216343551708945
 20
147.68356025521831
 40
15.525951557093428
 50
180
 51
254.65343082958802
  0
LINE
  8
_1-3_1-3___
  6
CONTINUOUS
 62
   18
 10
155.69039199461554
 20
197.28356025521828
 11
155.69039199461554
 21
147.68356025521828
  0
ARC
  8
_1-3_1-3___
  6
CONTINUOUS
 62
   18
 10
140.69039199461548
 20
197.28356025521828
 40
15
 50
0
 51
90
  0
LINE
  8
_1-3_1-3___
  6
CONTINUOUS
 62
   18
 10
13.69039199461551
 20
197.2835602552183
 11
13.69039199461551
 21
147.68356025521831
  0
LINE
  8
_1-3_1-3___
  6
CONTINUOUS
 62
   18
 10
28.69039199461551
 20
212.2835602552183
 11
140.69039199461554
 21
212.2835602552183
  0
ARC
  8
_1-3_1-3___
  6
CONTINUOUS
 62
   18
 10
28.69039199461551
 20
197.2835602552183
 40
15
 50
90
 51
180
  0
CIRCLE
  8
_1-3_1-3___
  6
CONTINUOUS
 62
   18
 10
135.94039199461554
 20
207.28356025521828
 40
1.6000000000000001
  0
CIRCLE
  8
_1-3_1-3___
  6
CONTINUOUS
 62
   18
 10
33.44039199461551
 20
207.2835602552183
 40
1.6000000000000001
  0
CIRCLE
  8
_1-3_1-3___
  6
CONTINUOUS
 62
   18
 10
26.430577412951351
 20
137.53293647131085
 40
1.6000000000000001
  0
CIRCLE
  8
_1-3_1-3___
  6
CONTINUOUS
 62
   18
 10
142.9502065762797
 20
137.53293647131085
 40
1.6000000000000001
  0
LINE
  8
_1-3_1-3___
  6
CONTINUOUS
 62
   18
 10
137.19039199461554
 20
224.28356025521828
 11
137.19039199461554
 21
221.68356025521831
  0
LINE
  8
_1-3_1-3___
  6
CONTINUOUS
 62
   18
 10
137.19039199461554
 20
221.68356025521831
 11
134.59039199461552
 21
221.68356025521831
  0
LINE
  8
_1-3_1-3___
  6
CONTINUOUS
 62
   18
 10
134.59039199461552
 20
221.68356025521831
 11
134.59039199461552
 21
224.28356025521828
  0
LINE
  8
_1-3_1-3___
  6
CONTINUOUS
 62
   18
 10
112.19039199461552
 20
224.28356025521828
 11
112.19039199461552
 21
221.68356025521831
  0
LINE
  8
_1-3_1-3___
  6
CONTINUOUS
 62
   18
 10
112.19039199461552
 20
221.68356025521831
 11
109.5903919946155
 21
221.68356025521831
  0
LINE
  8
_1-3_1-3___
  6
CONTINUOUS
 62
   18
 10
109.5903919946155
 20
221.68356025521831
 11
109.5903919946155
 21
224.28356025521828
  0
LINE
  8
_1-3_1-3___
  6
CONTINUOUS
 62
   18
 10
57.19039199461551
 20
224.2835602552183
 11
57.19039199461551
 21
221.68356025521831
  0
LINE
  8
_1-3_1-3___
  6
CONTINUOUS
 62
   18
 10
57.19039199461551
 20
221.68356025521831
 11
59.790391994615533
 21
221.68356025521831
  0
LINE
  8
_1-3_1-3___
  6
CONTINUOUS
 62
   18
 10
59.790391994615533
 20
221.68356025521831
 11
59.790391994615533
 21
224.2835602552183
  0
LINE
  8
_1-3_1-3___
  6
CONTINUOUS
 62
   18
 10
32.19039199461551
 20
224.2835602552183
 11
32.19039199461551
 21
221.68356025521831
  0
LINE
  8
_1-3_1-3___
  6
CONTINUOUS
 62
   18
 10
32.19039199461551
 20
221.68356025521831
 11
34.790391994615533
 21
221.68356025521831
  0
LINE
  8
_1-3_1-3___
  6
CONTINUOUS
 62
   18
 10
34.790391994615533
 20
221.68356025521831
 11
34.790391994615533
 21
224.2835602552183
  0
LINE
  8
_1-3_1-3___
  6
CONTINUOUS
 62
   18
 10
4.2903919946155327
 20
214.3835602552183
 11
4.2903919946155327
 21
211.7835602552183
  0
LINE
  8
_1-3_1-3___
  6
CONTINUOUS
 62
   18
 10
4.2903919946155327
 20
211.7835602552183
 11
1.6903919946155099
 21
211.7835602552183
  0
LINE
  8
_1-3_1-3___
  6
CONTINUOUS
 62
   18
 10
1.6903919946155099
 20
183.58356025521832
 11
1.6903919946155099
 21
211.7835602552183
  0
LINE
  8
_1-3_1-3___
  6
CONTINUOUS
 62
   18
 10
11.69039199461551
 20
224.2835602552183
 11
4.2903919946155327
 21
224.2835602552183
  0
LINE
  8
_1-3_1-3___
  6
CONTINUOUS
 62
   18
 10
11.69039199461551
 20
224.2835602552183
 11
11.69039199461551
 21
221.68356025521831
  0
LINE
  8
_1-3_1-3___
  6
CONTINUOUS
 62
   18
 10
11.69039199461551
 20
221.68356025521831
 11
14.290391994615533
 21
221.68356025521831
  0
LINE
  8
_1-3_1-3___
  6
CONTINUOUS
 62
   18
 10
157.69039199461554
 20
221.68356025521828
 11
155.09039199461552
 21
221.68356025521828
  0
LINE
  8
_1-3_1-3___
  6
CONTINUOUS
 62
   18
 10
157.69039199461554
 20
221.68356025521828
 11
157.69039199461554
 21
224.28356025521828
  0
LINE
  8
_1-3_1-3___
  6
CONTINUOUS
 62
   18
 10
165.09039199461552
 20
224.28356025521828
 11
157.69039199461554
 21
224.28356025521828
  0
LINE
  8
_1-3_1-3___
  6
CONTINUOUS
 62
   18
 10
167.69039199461554
 20
183.58356025521829
 11
167.69039199461554
 21
211.78356025521828
  0
LINE
  8
_1-3_1-3___
  6
CONTINUOUS
 62
   18
 10
167.69039199461554
 20
211.78356025521828
 11
165.09039199461552
 21
211.78356025521828
  0
LINE
  8
_1-3_1-3___
  6
CONTINUOUS
 62
   18
 10
165.09039199461552
 20
211.78356025521828
 11
165.09039199461552
 21
214.3835602552183
  0
ARC
  8
_1-3_1-3___
  6
CONTINUOUS
 62
   18
 10
140.16444043752205
 20
147.68356025521831
 40
27.525951557093432
 50
325.48446242269034
 51
0
  0
LINE
  8
_1-3_1-3___
  6
CONTINUOUS
 62
   18
 10
167.69039199461548
 20
147.68356025521828
 11
165.09039199461552
 21
147.68356025521828
  0
LINE
  8
_1-3_1-3___
  6
CONTINUOUS
 62
   18
 10
165.09039199461552
 20
147.68356025521828
 11
165.09039199461552
 21
150.28356025521828
  0
ARC
  8
_1-3_1-3___
  6
CONTINUOUS
 62
   18
 10
140.16444043752205
 20
147.68356025521831
 40
27.525951557093432
 50
288.15774700789632
 51
320.07049125135063
  0
LINE
  8
_1-3_1-3___
  6
CONTINUOUS
 62
   18
 10
161.27229490075473
 20
130.01617535867965
 11
159.2024404921014
 21
131.59450761224377
  0
LINE
  8
_1-3_1-3___
  6
CONTINUOUS
 62
   18
 10
159.2024404921014
 20
131.59450761224377
 11
160.77897451960854
 21
133.66200379364585
  0
ARC
  8
_1-3_1-3___
  6
CONTINUOUS
 62
   18
 10
84.690391994615496
 20
349.81689358855158
 40
237.1333333333333
 50
277.99947120384729
 51
285.04454475627159
  0
LINE
  8
_1-3_1-3___
  6
CONTINUOUS
 62
   18
 10
145.5549566395286
 20
123.31879378409485
 11
146.24307435203235
 21
120.81146773059356
  0
LINE
  8
_1-3_1-3___
  6
CONTINUOUS
 62
   18
 10
148.05453200248428
 20
124.03501503892193
 11
145.5549566395286
 21
123.31879378409485
  0
ARC
  8
_1-3_1-3___
  6
CONTINUOUS
 62
   18
 10
84.690391994615496
 20
349.81689358855158
 40
237.1333333333333
 50
270.32618586454362
 51
277.37126017106567
  0
LINE
  8
_1-3_1-3___
  6
CONTINUOUS
 62
   18
 10
114.76699325839932
 20
117.22006966168925
 11
115.11416080352519
 21
114.6433149934216
  0
LINE
  8
_1-3_1-3___
  6
CONTINUOUS
 62
   18
 10
117.34371172996761
 20
117.56723233001435
 11
114.76699325839932
 21
117.22006966168925
  0
ARC
  8
_1-3_1-3___
  6
CONTINUOUS
 62
   18
 10
84.690391994615496
 20
349.81689358855158
 40
237.1333333333333
 50
262.62873982893626
 51
269.67381338135903
  0
LINE
  8
_1-3_1-3___
  6
CONTINUOUS
 62
   18
 10
54.266623185713541
 20
114.64331499342063
 11
54.613790730831653
 21
117.22006966168925
  0
LINE
  8
_1-3_1-3___
  6
CONTINUOUS
 62
   18
 10
54.613790730831653
 20
117.22006966168925
 11
52.03707225926334
 21
117.56723233001429
  0
ARC
  8
_1-3_1-3___
  6
CONTINUOUS
 62
   18
 10
84.690391994615496
 20
349.81689358855158
 40
237.1333333333333
 50
254.95545524372838
 51
262.00052879615066
  0
LINE
  8
_1-3_1-3___
  6
CONTINUOUS
 62
   18
 10
23.137709637198697
 20
120.81146773059356
 11
23.82582734970245
 21
123.31879378409491
  0
LINE
  8
_1-3_1-3___
  6
CONTINUOUS
 62
   18
 10
23.82582734970245
 20
123.31879378409491
 11
21.326251986746769
 21
124.03501503892193
  0
ARC
  8
_1-3_1-3___
  6
CONTINUOUS
 62
   18
 10
29.216343551708945
 20
147.68356025521831
 40
27.525951557093428
 50
219.92950874864974
 51
251.84225299210371
  0
LINE
  8
_1-3_1-3___
  6
CONTINUOUS
 62
   18
 10
8.1084890884763752
 20
130.0161753586795
 11
10.178343497129589
 21
131.59450761224377
  0
LINE
  8
_1-3_1-3___
  6
CONTINUOUS
 62
   18
 10
10.178343497129589
 20
131.59450761224377
 11
8.6018094696224523
 21
133.66200379364585
  0
LINE
  8
_1-3_1-3___
  6
CONTINUOUS
 62
   18
 10
4.2903919946155327
 20
180.98356025521829
 11
4.2903919946155327
 21
183.58356025521832
  0
LINE
  8
_1-3_1-3___
  6
CONTINUOUS
 62
   18
 10
1.6903919946155099
 20
180.98356025521829
 11
4.2903919946155327
 21
180.98356025521829
  0
LINE
  8
_1-3_1-3___
  6
CONTINUOUS
 62
   18
 10
1.6903919946155099
 20
150.28356025521828
 11
1.6903919946155099
 21
180.98356025521829
  0
LINE
  8
_1-3_1-3___
  6
CONTINUOUS
 62
   18
 10
4.2903919946155327
 20
147.68356025521831
 11
4.2903919946155327
 21
150.28356025521828
  0
LINE
  8
_1-3_1-3___
  6
CONTINUOUS
 62
   18
 10
1.6903919946155099
 20
147.68356025521831
 11
4.2903919946155327
 21
147.68356025521831
  0
ARC
  8
_1-3_1-3___
  6
CONTINUOUS
 62
   18
 10
29.216343551708945
 20
147.68356025521831
 40
27.525951557093428
 50
180.00000000000006
 51
214.51553757730986
  0
LINE
  8
_1-3_1-3___
  6
CONTINUOUS
 62
   18
 10
155.09039199461552
 20
224.28356025521828
 11
137.19039199461554
 21
224.28356025521828
  0
LINE
  8
_1-3_1-3___
  6
CONTINUOUS
 62
   18
 10
134.59039199461552
 20
224.28356025521828
 11
112.19039199461552
 21
224.28356025521828
  0
LINE
  8
_1-3_1-3___
  6
CONTINUOUS
 62
   18
 10
109.5903919946155
 20
224.2835602552183
 11
86.04039199461549
 21
224.2835602552183
  0
LINE
  8
_1-3_1-3___
  6
CONTINUOUS
 62
   18
 10
83.340391994615501
 20
224.2835602552183
 11
59.790391994615533
 21
224.2835602552183
  0
LINE
  8
_1-3_1-3___
  6
CONTINUOUS
 62
   18
 10
57.19039199461551
 20
224.2835602552183
 11
34.790391994615533
 21
224.2835602552183
  0
LINE
  8
_1-3_1-3___
  6
CONTINUOUS
 62
   18
 10
32.19039199461551
 20
224.2835602552183
 11
14.290391994615476
 21
224.2835602552183
  0
LINE
  8
_1-3_1-3___
  6
CONTINUOUS
 62
   18
 10
217.16246529093405
 20
3.5145819673732888
 11
214.66246529093405
 21
3.5145819673732888
  0
LINE
  8
_1-3_1-3___
  6
CONTINUOUS
 62
   18
 10
168.16246529093405
 20
112.61458196737328
 11
217.16246529093405
 21
112.61458196737328
  0
LINE
  8
_1-3_1-3___
  6
CONTINUOUS
 62
   18
 10
168.16246529093405
 20
112.61458196737328
 11
168.16246529093405
 21
110.11458196737328
  0
LINE
  8
_1-3_1-3___
  6
CONTINUOUS
 62
   18
 10
217.16246529093405
 20
112.61458196737328
 11
217.16246529093405
 21
110.11458196737328
  0
LINE
  8
_1-3_1-3___
  6
CONTINUOUS
 62
   18
 10
217.16246529093405
 20
110.11458196737328
 11
214.66246529093405
 21
110.11458196737328
  0
LINE
  8
_1-3_1-3___
  6
CONTINUOUS
 62
   18
 10
170.66246529093405
 20
1.0145819673732888
 11
217.16246529093405
 21
1.0145819673732888
  0
LINE
  8
_1-3_1-3___
  6
CONTINUOUS
 62
   18
 10
217.16246529093405
 20
1.0145819673732888
 11
217.16246529093405
 21
3.5145819673732888
  0
LINE
  8
_1-3_1-3___
  6
CONTINUOUS
 62
   18
 10
168.16246529093405
 20
110.11458196737328
 11
170.66246529093405
 21
110.11458196737328
  0
LINE
  8
_1-3_1-3___
  6
CONTINUOUS
 62
   18
 10
170.66246529093405
 20
110.11458196737328
 11
170.66246529093405
 21
97.614581967373297
  0
LINE
  8
_1-3_1-3___
  6
CONTINUOUS
 62
   18
 10
168.16246529093405
 20
11.014581967373289
 11
177.83326368659425
 21
11.014581967373289
  0
LINE
  8
_1-3_1-3___
  6
CONTINUOUS
 62
   18
 10
168.16246529093405
 20
8.5145819673732888
 11
168.16246529093405
 21
11.014581967373289
  0
LINE
  8
_1-3_1-3___
  6
CONTINUOUS
 62
   18
 10
170.66246529093405
 20
8.5145819673732888
 11
168.16246529093405
 21
8.5145819673732888
  0
LINE
  8
_1-3_1-3___
  6
CONTINUOUS
 62
   18
 10
170.66246529093405
 20
8.5145819673732888
 11
170.66246529093405
 21
1.0145819673732888
  0
LINE
  8
_1-3_1-3___
  6
CONTINUOUS
 62
   18
 10
214.66246529093405
 20
3.5145819673732888
 11
214.66246529093405
 21
15.014581967373289
  0
LINE
  8
_1-3_1-3___
  6
CONTINUOUS
 62
   18
 10
214.66246529093405
 20
98.614581967373283
 11
214.66246529093405
 21
110.11458196737328
  0
LINE
  8
_1-3_1-3___
  6
CONTINUOUS
 62
   18
 10
213.14774666517263
 20
98.614581967373283
 11
214.66246529093405
 21
98.614581967373283
  0
ARC
  8
_1-3_1-3___
  6
CONTINUOUS
 62
   18
 10
204.66246529093405
 20
92.614581967373283
 40
10
 50
39.521196358642136
 51
90
  0
ARC
  8
_1-3_1-3___
  6
CONTINUOUS
 62
   18
 10
213.14774666517263
 20
99.614581967373283
 40
1
 50
219.5211963586427
 51
270
  0
LINE
  8
_1-3_1-3___
  6
CONTINUOUS
 62
   18
 10
213.14774666517263
 20
15.014581967373289
 11
214.66246529093405
 21
15.014581967373289
  0
ARC
  8
_1-3_1-3___
  6
CONTINUOUS
 62
   18
 10
204.66246529093405
 20
21.014581967373289
 40
10
 50
270
 51
320.4788036413579
  0
ARC
  8
_1-3_1-3___
  6
CONTINUOUS
 62
   18
 10
213.14774666517263
 20
14.014581967373289
 40
1
 50
90
 51
140.4788036413573
  0
LINE
  8
_1-3_1-3___
  6
CONTINUOUS
 62
   18
 10
188.73326368659428
 20
87.614581967373311
 11
188.73326368659428
 21
27.614581967373311
  0
LINE
  8
_1-3_1-3___
  6
CONTINUOUS
 62
   18
 10
177.83326368659425
 20
97.614581967373297
 11
170.66246529093405
 21
97.614581967373297
  0
ARC
  8
_1-3_1-3___
  6
CONTINUOUS
 62
   18
 10
177.83326368659425
 20
92.614581967373297
 40
5
 50
0
 51
90
  0
LINE
  8
_1-3_1-3___
  6
CONTINUOUS
 62
   18
 10
182.83326368659425
 20
16.014581967373289
 11
182.83326368659425
 21
92.614581967373297
  0
ARC
  8
_1-3_1-3___
  6
CONTINUOUS
 62
   18
 10
177.83326368659425
 20
16.014581967373289
 40
5
 50
270
 51
0
  0
LINE
  8
_1-3_1-3___
  6
CONTINUOUS
 62
   18
 10
191.23326368659428
 20
27.614581967373311
 11
188.73326368659428
 21
27.614581967373311
  0
LINE
  8
_1-3_1-3___
  6
CONTINUOUS
 62
   18
 10
188.73326368659428
 20
87.614581967373311
 11
191.23326368659428
 21
87.614581967373311
  0
LINE
  8
_1-3_1-3___
  6
CONTINUOUS
 62
   18
 10
191.23326368659428
 20
97.614581967373283
 11
191.23326368659428
 21
87.614581967373311
  0
LINE
  8
_1-3_1-3___
  6
CONTINUOUS
 62
   18
 10
196.23326368659428
 20
102.61458196737328
 11
204.66246529093405
 21
102.61458196737328
  0
ARC
  8
_1-3_1-3___
  6
CONTINUOUS
 62
   18
 10
196.23326368659428
 20
97.614581967373283
 40
5
 50
90
 51
180
  0
LINE
  8
_1-3_1-3___
  6
CONTINUOUS
 62
   18
 10
191.23326368659428
 20
16.014581967373289
 11
191.23326368659428
 21
27.614581967373311
  0
LINE
  8
_1-3_1-3___
  6
CONTINUOUS
 62
   18
 10
196.23326368659428
 20
11.014581967373289
 11
204.66246529093405
 21
11.014581967373289
  0
ARC
  8
_1-3_1-3___
  6
CONTINUOUS
 62
   18
 10
196.23326368659428
 20
16.014581967373289
 40
5
 50
180
 51
270
  0
ARC
  8
_1-3_1-3___
  6
CONTINUOUS
 62
   18
 10
191.46478288723438
 20
159.47444153992444
 40
2
 50
0
 51
90.000000000000014
  0
ARC
  8
_1-3_1-3___
  6
CONTINUOUS
 62
   18
 10
235.46478288723438
 20
159.47444153992444
 40
2
 50
90
 51
180
  0
LINE
  8
_1-3_1-3___
  6
CONTINUOUS
 62
   18
 10
238.18632469687199
 20
206.91752515919967
 11
246.36060068490528
 21
206.91752515919967
  0
ARC
  8
_1-3_1-3___
  6
CONTINUOUS
 62
   18
 10
238.18632469687199
 20
208.91752515919967
 40
2
 50
180
 51
270
  0
LINE
  8
_1-3_1-3___
  6
CONTINUOUS
 62
   18
 10
236.18632469687199
 20
213.19598334956206
 11
236.18632469687199
 21
208.91752515919967
  0
ARC
  8
_1-3_1-3___
  6
CONTINUOUS
 62
   18
 10
234.18632469687199
 20
213.19598334956206
 40
2
 50
0
 51
90.000000000000014
  0
LINE
  8
_1-3_1-3___
  6
CONTINUOUS
 62
   18
 10
195.46478288723438
 20
215.19598334956206
 11
234.18632469687199
 21
215.19598334956206
  0
ARC
  8
_1-3_1-3___
  6
CONTINUOUS
 62
   18
 10
195.46478288723438
 20
213.19598334956206
 40
2
 50
90
 51
180
  0
LINE
  8
_1-3_1-3___
  6
CONTINUOUS
 62
   18
 10
193.46478288723438
 20
208.91752515919967
 11
193.46478288723438
 21
213.19598334956206
  0
ARC
  8
_1-3_1-3___
  6
CONTINUOUS
 62
   18
 10
191.46478288723438
 20
208.91752515919967
 40
2
 50
270
 51
0
  0
LINE
  8
_1-3_1-3___
  6
CONTINUOUS
 62
   18
 10
171.71478288723438
 20
154.19598334956208
 11
169.21478288723438
 21
154.19598334956208
  0
LINE
  8
_1-3_1-3___
  6
CONTINUOUS
 62
   18
 10
169.21478288723438
 20
154.19598334956208
 11
169.21478288723438
 21
214.19598334956206
  0
LINE
  8
_1-3_1-3___
  6
CONTINUOUS
 62
   18
 10
169.21478288723438
 20
214.19598334956206
 11
171.71478288723438
 21
214.19598334956206
  0
LINE
  8
_1-3_1-3___
  6
CONTINUOUS
 62
   18
 10
171.71478288723438
 20
214.19598334956206
 11
171.71478288723438
 21
224.19598334956206
  0
LINE
  8
_1-3_1-3___
  6
CONTINUOUS
 62
   18
 10
171.71478288723438
 20
127.59598334956205
 11
171.71478288723438
 21
154.19598334956208
  0
LINE
  8
_1-3_1-3___
  6
CONTINUOUS
 62
   18
 10
180.3106006849053
 20
206.91752515919967
 11
191.46478288723438
 21
206.91752515919967
  0
ARC
  8
_1-3_1-3___
  6
CONTINUOUS
 62
   18
 10
180.3106006849053
 20
204.91752515919967
 40
2
 50
90
 51
180
  0
LINE
  8
_1-3_1-3___
  6
CONTINUOUS
 62
   18
 10
245.75723911844477
 20
217.61046725466156
 11
248.61946007937715
 21
219.79300513780012
  0
LINE
  8
_1-3_1-3___
  6
CONTINUOUS
 62
   18
 10
249.86478288723438
 20
201.59598334956206
 11
253.46478288723438
 21
201.59598334956206
  0
LINE
  8
_1-3_1-3___
  6
CONTINUOUS
 62
   18
 10
249.86478288723438
 20
168.29598334956205
 11
253.46478288723438
 21
168.29598334956205
  0
LINE
  8
_1-3_1-3___
  6
CONTINUOUS
 62
   18
 10
253.46478288723438
 20
168.29598334956205
 11
253.46478288723438
 21
137.59598334956206
  0
LINE
  8
_1-3_1-3___
  6
CONTINUOUS
 62
   18
 10
229.80464738921975
 20
223.38297765318677
 11
232.40837248408599
 21
222.66840391286047
  0
LINE
  8
_1-3_1-3___
  6
CONTINUOUS
 62
   18
 10
171.71478288723438
 20
224.19598334956206
 11
230.02777099105887
 21
224.19598334956206
  0
LINE
  8
_1-3_1-3___
  6
CONTINUOUS
 62
   18
 10
230.02777099105887
 20
224.19598334956206
 11
229.80464738921975
 21
223.38297765318677
  0
LINE
  8
_1-3_1-3___
  6
CONTINUOUS
 62
   18
 10
232.82760574103833
 20
224.19598334956206
 11
244.85120847114183
 21
224.19598334956206
  0
LINE
  8
_1-3_1-3___
  6
CONTINUOUS
 62
   18
 10
232.82760574103833
 20
224.19598334956206
 11
232.40837248408599
 21
222.66840391286047
  0
CIRCLE
  8
_1-3_1-3___
  6
CONTINUOUS
 62
   18
 10
239.46478288723438
 20
158.19598334956206
 40
1.2
  0
CIRCLE
  8
_1-3_1-3___
  6
CONTINUOUS
 62
   18
 10
239.46478288723438
 20
210.19598334956206
 40
1.2
  0
CIRCLE
  8
_1-3_1-3___
  6
CONTINUOUS
 62
   18
 10
187.46478288723438
 20
210.19598334956206
 40
1.2
  0
CIRCLE
  8
_1-3_1-3___
  6
CONTINUOUS
 62
   18
 10
187.46478288723438
 20
158.19598334956206
 40
1.2
  0
LINE
  8
_1-3_1-3___
  6
CONTINUOUS
 62
   18
 10
243.56478288723437
 20
130.19598334956206
 11
250.86478288723438
 21
130.19598334956206
  0
LINE
  8
_1-3_1-3___
  6
CONTINUOUS
 62
   18
 10
250.86478288723438
 20
130.19598334956206
 11
250.86478288723438
 21
137.49598334956204
  0
LINE
  8
_1-3_1-3___
  6
CONTINUOUS
 62
   18
 10
171.71478288723438
 20
127.59598334956205
 11
195.46478288723438
 21
127.59598334956205
  0
LINE
  8
_1-3_1-3___
  6
CONTINUOUS
 62
   18
 10
198.0647828872344
 20
127.59598334956205
 11
220.36478288723438
 21
127.59598334956205
  0
LINE
  8
_1-3_1-3___
  6
CONTINUOUS
 62
   18
 10
222.96478288723438
 20
127.59598334956205
 11
243.46478288723438
 21
127.59598334956205
  0
LINE
  8
_1-3_1-3___
  6
CONTINUOUS
 62
   18
 10
253.46478288723438
 20
137.49598334956204
 11
250.86478288723438
 21
137.49598334956204
  0
LINE
  8
_1-3_1-3___
  6
CONTINUOUS
 62
   18
 10
243.56478288723437
 20
127.59598334956205
 11
243.56478288723437
 21
130.19598334956206
  0
LINE
  8
_1-3_1-3___
  6
CONTINUOUS
 62
   18
 10
220.36478288723438
 20
127.59598334956205
 11
220.36478288723438
 21
133.69598334956203
  0
LINE
  8
_1-3_1-3___
  6
CONTINUOUS
 62
   18
 10
220.36478288723438
 20
133.69598334956203
 11
222.96478288723438
 21
133.69598334956203
  0
LINE
  8
_1-3_1-3___
  6
CONTINUOUS
 62
   18
 10
222.96478288723438
 20
127.59598334956205
 11
222.96478288723438
 21
133.69598334956203
  0
LINE
  8
_1-3_1-3___
  6
CONTINUOUS
 62
   18
 10
193.46478288723438
 20
142.59598334956206
 11
193.46478288723438
 21
159.47444153992444
  0
ARC
  8
_1-3_1-3___
  6
CONTINUOUS
 62
   18
 10
198.46478288723438
 20
142.59598334956206
 40
5
 50
180
 51
270
  0
LINE
  8
_1-3_1-3___
  6
CONTINUOUS
 62
   18
 10
233.46478288723438
 20
142.59598334956206
 11
233.46478288723438
 21
159.47444153992444
  0
LINE
  8
_1-3_1-3___
  6
CONTINUOUS
 62
   18
 10
228.46478288723438
 20
137.59598334956206
 11
198.46478288723438
 21
137.59598334956206
  0
ARC
  8
_1-3_1-3___
  6
CONTINUOUS
 62
   18
 10
228.46478288723438
 20
142.59598334956206
 40
5
 50
270
 51
0
  0
LINE
  8
_1-3_1-3___
  6
CONTINUOUS
 62
   18
 10
246.36060068490528
 20
162.97444153992444
 11
246.36060068490528
 21
206.91752515919967
  0
LINE
  8
_1-3_1-3___
  6
CONTINUOUS
 62
   18
 10
244.86060068490528
 20
161.47444153992444
 11
235.46478288723438
 21
161.47444153992444
  0
ARC
  8
_1-3_1-3___
  6
CONTINUOUS
 62
   18
 10
244.86060068490528
 20
162.97444153992444
 40
1.5
 50
270
 51
0
  0
LINE
  8
_1-3_1-3___
  6
CONTINUOUS
 62
   18
 10
178.3106006849053
 20
162.97444153992444
 11
178.3106006849053
 21
204.91752515919967
  0
LINE
  8
_1-3_1-3___
  6
CONTINUOUS
 62
   18
 10
179.8106006849053
 20
161.47444153992444
 11
191.46478288723438
 21
161.47444153992444
  0
ARC
  8
_1-3_1-3___
  6
CONTINUOUS
 62
   18
 10
179.8106006849053
 20
162.97444153992444
 40
1.5
 50
180
 51
270
  0
LINE
  8
_1-3_1-3___
  6
CONTINUOUS
 62
   18
 10
249.86478288723438
 20
170.89598334956204
 11
249.86478288723438
 21
168.29598334956205
  0
LINE
  8
_1-3_1-3___
  6
CONTINUOUS
 62
   18
 10
253.46478288723438
 20
170.89598334956204
 11
249.86478288723438
 21
170.89598334956204
  0
LINE
  8
_1-3_1-3___
  6
CONTINUOUS
 62
   18
 10
253.46478288723438
 20
201.59598334956206
 11
253.46478288723438
 21
170.89598334956204
  0
LINE
  8
_1-3_1-3___
  6
CONTINUOUS
 62
   18
 10
249.86478288723436
 20
204.19598334956203
 11
249.86478288723438
 21
201.59598334956206
  0
LINE
  8
_1-3_1-3___
  6
CONTINUOUS
 62
   18
 10
253.46478288723438
 20
204.19598334956206
 11
249.86478288723436
 21
204.19598334956203
  0
ARC
  8
_1-3_1-3___
  6
CONTINUOUS
 62
   18
 10
225.93883133014094
 20
204.19598334956203
 40
27.525951557093428
 50
0.0000000000000554
 51
34.515537577309729
  0
LINE
  8
_1-3_1-3___
  6
CONTINUOUS
 62
   18
 10
244.18070509093758
 20
219.67796343606372
 11
245.75723911844477
 21
217.61046725466156
  0
LINE
  8
_1-3_1-3___
  6
CONTINUOUS
 62
   18
 10
247.04668579337351
 20
221.86336824610083
 11
244.18070509093758
 21
219.67796343606372
  0
ARC
  8
_1-3_1-3___
  6
CONTINUOUS
 62
   18
 10
225.93883133014094
 20
204.19598334956203
 40
27.525951557093428
 50
39.929508748649752
 51
46.601032469821348
  0
LINE
  8
_1-3_1-3___
  6
CONTINUOUS
 62
   18
 10
195.36478288723438
 20
133.69598334956203
 11
195.36478288723438
 21
127.59598334956205
  0
LINE
  8
_1-3_1-3___
  6
CONTINUOUS
 62
   18
 10
195.36478288723438
 20
133.69598334956203
 11
197.96478288723438
 21
133.69598334956203
  0
LINE
  8
_1-3_1-3___
  6
CONTINUOUS
 62
   18
 10
197.96478288723438
 20
127.59598334956205
 11
197.96478288723438
 21
133.69598334956203
  0
LINE
  8
_1-3_1-3___
  6
CONTINUOUS
 62
   18
 10
230.70759580661806
 20
205.11518703872147
 11
181.70759580661809
 21
205.11518703872147
  0
ARC
  8
_1-3_1-3___
  6
CONTINUOUS
 62
   18
 10
222.62502011166222
 20
193.11518703872144
 40
5
 50
23.578178478201846
 51
90
  0
LINE
  8
_1-3_1-3___
  6
CONTINUOUS
 62
   18
 10
227.20759580661806
 20
195.11518703872144
 11
228.20759580661806
 21
195.11518703872144
  0
LINE
  8
_1-3_1-3___
  6
CONTINUOUS
 62
   18
 10
185.20759580661809
 20
195.11518703872144
 11
184.20759580661809
 21
195.11518703872144
  0
ARC
  8
_1-3_1-3___
  6
CONTINUOUS
 62
   18
 10
189.79017150157392
 20
193.11518703872144
 40
5
 50
90
 51
156.42182152179817
  0
LINE
  8
_1-3_1-3___
  6
CONTINUOUS
 62
   18
 10
230.70759580661806
 20
205.11518703872147
 11
230.70759580661806
 21
202.61518703872147
  0
LINE
  8
_1-3_1-3___
  6
CONTINUOUS
 62
   18
 10
181.70759580661809
 20
205.11518703872147
 11
181.70759580661809
 21
202.61518703872147
  0
LINE
  8
_1-3_1-3___
  6
CONTINUOUS
 62
   18
 10
230.70759580661806
 20
202.61518703872147
 11
228.20759580661806
 21
202.61518703872147
  0
LINE
  8
_1-3_1-3___
  6
CONTINUOUS
 62
   18
 10
228.20759580661806
 20
195.11518703872144
 11
228.20759580661806
 21
202.61518703872147
  0
LINE
  8
_1-3_1-3___
  6
CONTINUOUS
 62
   18
 10
181.70759580661809
 20
202.61518703872147
 11
184.20759580661809
 21
202.61518703872147
  0
LINE
  8
_1-3_1-3___
  6
CONTINUOUS
 62
   18
 10
184.20759580661809
 20
195.11518703872144
 11
184.20759580661809
 21
202.61518703872147
  0
LINE
  8
_1-3_1-3___
  6
CONTINUOUS
 62
   18
 10
207.63679741095788
 20
201.71518703872147
 11
210.33679741095787
 21
201.71518703872147
  0
LINE
  8
_1-3_1-3___
  6
CONTINUOUS
 62
   18
 10
210.33679741095787
 20
198.11518703872144
 11
222.62502011166222
 21
198.11518703872144
  0
LINE
  8
_1-3_1-3___
  6
CONTINUOUS
 62
   18
 10
210.33679741095787
 20
198.11518703872144
 11
210.33679741095787
 21
201.71518703872147
  0
LINE
  8
_1-3_1-3___
  6
CONTINUOUS
 62
   18
 10
189.79017150157392
 20
198.11518703872144
 11
207.63679741095788
 21
198.11518703872144
  0
LINE
  8
_1-3_1-3___
  6
CONTINUOUS
 62
   18
 10
207.63679741095788
 20
198.11518703872144
 11
207.63679741095788
 21
201.71518703872147
  0
LINE
  8
_1-3_1-3___
  6
CONTINUOUS
 62
   18
 10
232.01596585067094
 20
184.83545135590208
 11
183.01596585067097
 21
184.83545135590208
  0
ARC
  8
_1-3_1-3___
  6
CONTINUOUS
 62
   18
 10
223.9333901557151
 20
172.83545135590208
 40
5
 50
23.578178478201846
 51
90
  0
LINE
  8
_1-3_1-3___
  6
CONTINUOUS
 62
   18
 10
228.51596585067094
 20
174.83545135590208
 11
229.51596585067094
 21
174.83545135590208
  0
LINE
  8
_1-3_1-3___
  6
CONTINUOUS
 62
   18
 10
186.51596585067097
 20
174.83545135590208
 11
185.51596585067097
 21
174.83545135590208
  0
ARC
  8
_1-3_1-3___
  6
CONTINUOUS
 62
   18
 10
191.0985415456268
 20
172.83545135590208
 40
5
 50
90
 51
156.42182152179817
  0
LINE
  8
_1-3_1-3___
  6
CONTINUOUS
 62
   18
 10
232.01596585067094
 20
184.83545135590208
 11
232.01596585067094
 21
182.33545135590208
  0
LINE
  8
_1-3_1-3___
  6
CONTINUOUS
 62
   18
 10
183.01596585067097
 20
184.83545135590208
 11
183.01596585067097
 21
182.33545135590208
  0
LINE
  8
_1-3_1-3___
  6
CONTINUOUS
 62
   18
 10
232.01596585067094
 20
182.33545135590208
 11
229.51596585067094
 21
182.33545135590208
  0
LINE
  8
_1-3_1-3___
  6
CONTINUOUS
 62
   18
 10
229.51596585067094
 20
174.83545135590208
 11
229.51596585067094
 21
182.33545135590208
  0
LINE
  8
_1-3_1-3___
  6
CONTINUOUS
 62
   18
 10
183.01596585067097
 20
182.33545135590208
 11
185.51596585067097
 21
182.33545135590208
  0
LINE
  8
_1-3_1-3___
  6
CONTINUOUS
 62
   18
 10
185.51596585067097
 20
174.83545135590208
 11
185.51596585067097
 21
182.33545135590208
  0
LINE
  8
_1-3_1-3___
  6
CONTINUOUS
 62
   18
 10
208.94516745501076
 20
181.43545135590207
 11
211.64516745501075
 21
181.43545135590207
  0
LINE
  8
_1-3_1-3___
  6
CONTINUOUS
 62
   18
 10
211.64516745501075
 20
177.83545135590208
 11
223.9333901557151
 21
177.83545135590208
  0
LINE
  8
_1-3_1-3___
  6
CONTINUOUS
 62
   18
 10
211.64516745501075
 20
177.83545135590208
 11
211.64516745501075
 21
181.43545135590207
  0
LINE
  8
_1-3_1-3___
  6
CONTINUOUS
 62
   18
 10
191.0985415456268
 20
177.83545135590208
 11
208.94516745501076
 21
177.83545135590208
  0
LINE
  8
_1-3_1-3___
  6
CONTINUOUS
 62
   18
 10
208.94516745501076
 20
177.83545135590208
 11
208.94516745501076
 21
181.43545135590207
  0
LINE
  8
_1-3_1-3___
  6
CONTINUOUS
 62
   18
 10
195.59442925272282
 20
186.65890081647035
 11
244.59442925272282
 21
186.65890081647035
  0
ARC
  8
_1-3_1-3___
  6
CONTINUOUS
 62
   18
 10
203.67700494767865
 20
198.65890081647035
 40
5
 50
203.57817847820183
 51
270
  0
LINE
  8
_1-3_1-3___
  6
CONTINUOUS
 62
   18
 10
199.09442925272282
 20
196.65890081647035
 11
198.09442925272282
 21
196.65890081647035
  0
LINE
  8
_1-3_1-3___
  6
CONTINUOUS
 62
   18
 10
241.09442925272282
 20
196.65890081647035
 11
242.09442925272282
 21
196.65890081647035
  0
ARC
  8
_1-3_1-3___
  6
CONTINUOUS
 62
   18
 10
236.51185355776698
 20
198.65890081647035
 40
5
 50
270
 51
336.42182152179817
  0
LINE
  8
_1-3_1-3___
  6
CONTINUOUS
 62
   18
 10
195.59442925272282
 20
186.65890081647035
 11
195.59442925272282
 21
189.15890081647035
  0
LINE
  8
_1-3_1-3___
  6
CONTINUOUS
 62
   18
 10
244.59442925272282
 20
186.65890081647035
 11
244.59442925272282
 21
189.15890081647035
  0
LINE
  8
_1-3_1-3___
  6
CONTINUOUS
 62
   18
 10
195.59442925272282
 20
189.15890081647035
 11
198.09442925272282
 21
189.15890081647035
  0
LINE
  8
_1-3_1-3___
  6
CONTINUOUS
 62
   18
 10
198.09442925272282
 20
196.65890081647035
 11
198.09442925272282
 21
189.15890081647035
  0
LINE
  8
_1-3_1-3___
  6
CONTINUOUS
 62
   18
 10
244.59442925272282
 20
189.15890081647035
 11
242.09442925272282
 21
189.15890081647035
  0
LINE
  8
_1-3_1-3___
  6
CONTINUOUS
 62
   18
 10
242.09442925272282
 20
196.65890081647035
 11
242.09442925272282
 21
189.15890081647035
  0
LINE
  8
_1-3_1-3___
  6
CONTINUOUS
 62
   18
 10
218.665227648383
 20
190.05890081647036
 11
215.96522764838301
 21
190.05890081647036
  0
LINE
  8
_1-3_1-3___
  6
CONTINUOUS
 62
   18
 10
215.96522764838301
 20
193.65890081647035
 11
203.67700494767865
 21
193.65890081647035
  0
LINE
  8
_1-3_1-3___
  6
CONTINUOUS
 62
   18
 10
215.96522764838301
 20
193.65890081647035
 11
215.96522764838301
 21
190.05890081647036
  0
LINE
  8
_1-3_1-3___
  6
CONTINUOUS
 62
   18
 10
236.51185355776698
 20
193.65890081647035
 11
218.665227648383
 21
193.65890081647035
  0
LINE
  8
_1-3_1-3___
  6
CONTINUOUS
 62
   18
 10
218.665227648383
 20
193.65890081647035
 11
218.665227648383
 21
190.05890081647036
  0
LINE
  8
_1-3_1-3___
  6
CONTINUOUS
 62
   18
 10
265.92481536314347
 20
3.3945810338563263
 11
265.92481536314347
 21
0.8945810338563262
  0
LINE
  8
_1-3_1-3___
  6
CONTINUOUS
 62
   18
 10
230.42481536314347
 20
10.894581033856326
 11
253.42481536314344
 21
10.894581033856326
  0
LINE
  8
_1-3_1-3___
  6
CONTINUOUS
 62
   18
 10
219.42481536314347
 20
20.894581033856326
 11
220.42481536314347
 21
20.894581033856326
  0
LINE
  8
_1-3_1-3___
  6
CONTINUOUS
 62
   18
 10
262.42481536314347
 20
20.894581033856326
 11
263.42481536314347
 21
20.894581033856326
  0
ARC
  8
_1-3_1-3___
  6
CONTINUOUS
 62
   18
 10
230.42481536314347
 20
20.894581033856326
 40
10
 50
180
 51
270
  0
ARC
  8
_1-3_1-3___
  6
CONTINUOUS
 62
   18
 10
252.42481536314344
 20
20.894581033856326
 40
10
 50
270
 51
0
  0
LINE
  8
_1-3_1-3___
  6
CONTINUOUS
 62
   18
 10
252.42481536314344
 20
3.3945810338563263
 11
252.42481536314344
 21
0.8945810338563262
  0
LINE
  8
_1-3_1-3___
  6
CONTINUOUS
 62
   18
 10
241.42481536314347
 20
3.3945810338563263
 11
241.42481536314347
 21
0.8945810338563262
  0
LINE
  8
_1-3_1-3___
  6
CONTINUOUS
 62
   18
 10
230.42481536314347
 20
3.3945810338563263
 11
230.42481536314347
 21
0.8945810338563262
  0
LINE
  8
_1-3_1-3___
  6
CONTINUOUS
 62
   18
 10
216.92481536314347
 20
10.894581033856326
 11
219.42481536314347
 21
10.894581033856326
  0
LINE
  8
_1-3_1-3___
  6
CONTINUOUS
 62
   18
 10
219.42481536314347
 20
13.394581033856326
 11
216.92481536314347
 21
13.394581033856326
  0
LINE
  8
_1-3_1-3___
  6
CONTINUOUS
 62
   18
 10
216.92481536314347
 20
13.394581033856326
 11
216.92481536314347
 21
10.894581033856326
  0
LINE
  8
_1-3_1-3___
  6
CONTINUOUS
 62
   18
 10
263.42481536314347
 20
10.894581033856326
 11
265.92481536314347
 21
10.894581033856326
  0
LINE
  8
_1-3_1-3___
  6
CONTINUOUS
 62
   18
 10
265.92481536314347
 20
10.894581033856326
 11
265.92481536314347
 21
13.394581033856326
  0
LINE
  8
_1-3_1-3___
  6
CONTINUOUS
 62
   18
 10
265.92481536314347
 20
13.394581033856326
 11
263.42481536314347
 21
13.394581033856326
  0
LINE
  8
_1-3_1-3___
  6
CONTINUOUS
 62
   18
 10
263.42481536314347
 20
20.894581033856326
 11
263.42481536314347
 21
13.394581033856326
  0
LINE
  8
_1-3_1-3___
  6
CONTINUOUS
 62
   18
 10
263.42481536314347
 20
10.894581033856326
 11
263.42481536314347
 21
3.3945810338563263
  0
LINE
  8
_1-3_1-3___
  6
CONTINUOUS
 62
   18
 10
219.42481536314347
 20
20.894581033856326
 11
219.42481536314347
 21
13.394581033856326
  0
LINE
  8
_1-3_1-3___
  6
CONTINUOUS
 62
   18
 10
219.42481536314347
 20
10.894581033856326
 11
219.42481536314347
 21
3.3945810338563263
  0
LINE
  8
_1-3_1-3___
  6
CONTINUOUS
 62
   18
 10
265.92481536314347
 20
0.8945810338563262
 11
252.42481536314344
 21
0.8945810338563262
  0
LINE
  8
_1-3_1-3___
  6
CONTINUOUS
 62
   18
 10
241.42481536314347
 20
0.8945810338563262
 11
230.42481536314347
 21
0.8945810338563262
  0
LINE
  8
_1-3_1-3___
  6
CONTINUOUS
 62
   18
 10
263.42481536314347
 20
3.3945810338563263
 11
265.92481536314347
 21
3.3945810338563263
  0
LINE
  8
_1-3_1-3___
  6
CONTINUOUS
 62
   18
 10
241.42481536314347
 20
3.3945810338563263
 11
252.42481536314344
 21
3.3945810338563263
  0
LINE
  8
_1-3_1-3___
  6
CONTINUOUS
 62
   18
 10
219.42481536314347
 20
3.3945810338563263
 11
230.42481536314347
 21
3.3945810338563263
  0
LINE
  8
_1-3_1-3___
  6
CONTINUOUS
 62
   18
 10
254.21769817232547
 20
126.79923006782643
 11
254.21769817232547
 21
175.79923006782641
  0
LINE
  8
_1-3_1-3___
  6
CONTINUOUS
 62
   18
 10
264.21769817232547
 20
130.29923006782644
 11
264.21769817232547
 21
129.29923006782644
  0
LINE
  8
_1-3_1-3___
  6
CONTINUOUS
 62
   18
 10
264.21769817232553
 20
172.29923006782641
 11
264.21769817232553
 21
173.29923006782641
  0
LINE
  8
_1-3_1-3___
  6
CONTINUOUS
 62
   18
 10
254.21769817232547
 20
126.79923006782643
 11
256.71769817232547
 21
126.79923006782643
  0
LINE
  8
_1-3_1-3___
  6
CONTINUOUS
 62
   18
 10
254.21769817232547
 20
175.79923006782641
 11
256.71769817232547
 21
175.79923006782641
  0
LINE
  8
_1-3_1-3___
  6
CONTINUOUS
 62
   18
 10
256.71769817232547
 20
126.79923006782643
 11
256.71769817232547
 21
129.29923006782644
  0
LINE
  8
_1-3_1-3___
  6
CONTINUOUS
 62
   18
 10
264.21769817232547
 20
129.29923006782644
 11
256.71769817232547
 21
129.29923006782644
  0
LINE
  8
_1-3_1-3___
  6
CONTINUOUS
 62
   18
 10
256.71769817232547
 20
175.79923006782641
 11
256.71769817232547
 21
173.29923006782641
  0
LINE
  8
_1-3_1-3___
  6
CONTINUOUS
 62
   18
 10
264.21769817232553
 20
173.29923006782641
 11
256.71769817232547
 21
173.29923006782641
  0
LINE
  8
_1-3_1-3___
  6
CONTINUOUS
 62
   18
 10
260.21769817232547
 20
167.71665437287058
 11
260.21769817232547
 21
134.88180576278228
  0
ARC
  8
_1-3_1-3___
  6
CONTINUOUS
 62
   18
 10
265.21769817232547
 20
135.19820955339279
 40
5
 50
183.62089228256053
 51
258.4630409671845
  0
ARC
  8
_1-3_1-3___
  6
CONTINUOUS
 62
   18
 10
265.21769817232553
 20
167.40025058226007
 40
5
 50
101.53695903281556
 51
176.37910771743947
  0
LINE
  8
_1-3_1-3___
  6
CONTINUOUS
 62
   18
 10
264.83626490430515
 20
126.38541553593875
 11
264.83626490430515
 21
175.38541553593873
  0
LINE
  8
_1-3_1-3___
  6
CONTINUOUS
 62
   18
 10
274.83626490430515
 20
129.88541553593876
 11
274.83626490430515
 21
128.88541553593876
  0
LINE
  8
_1-3_1-3___
  6
CONTINUOUS
 62
   18
 10
274.83626490430515
 20
171.88541553593873
 11
274.83626490430515
 21
172.88541553593873
  0
LINE
  8
_1-3_1-3___
  6
CONTINUOUS
 62
   18
 10
264.83626490430515
 20
126.38541553593875
 11
267.33626490430515
 21
126.38541553593875
  0
LINE
  8
_1-3_1-3___
  6
CONTINUOUS
 62
   18
 10
264.83626490430515
 20
175.38541553593873
 11
267.33626490430515
 21
175.38541553593873
  0
LINE
  8
_1-3_1-3___
  6
CONTINUOUS
 62
   18
 10
267.33626490430515
 20
126.38541553593875
 11
267.33626490430515
 21
128.88541553593876
  0
LINE
  8
_1-3_1-3___
  6
CONTINUOUS
 62
   18
 10
274.83626490430515
 20
128.88541553593876
 11
267.33626490430515
 21
128.88541553593876
  0
LINE
  8
_1-3_1-3___
  6
CONTINUOUS
 62
   18
 10
267.33626490430515
 20
175.38541553593873
 11
267.33626490430515
 21
172.88541553593873
  0
LINE
  8
_1-3_1-3___
  6
CONTINUOUS
 62
   18
 10
274.83626490430515
 20
172.88541553593873
 11
267.33626490430515
 21
172.88541553593873
  0
LINE
  8
_1-3_1-3___
  6
CONTINUOUS
 62
   18
 10
270.83626490430515
 20
167.3028398409829
 11
270.83626490430515
 21
134.4679912308946
  0
ARC
  8
_1-3_1-3___
  6
CONTINUOUS
 62
   18
 10
275.83626490430515
 20
134.78439502150511
 40
5
 50
183.62089228256053
 51
258.4630409671845
  0
ARC
  8
_1-3_1-3___
  6
CONTINUOUS
 62
   18
 10
275.83626490430515
 20
166.98643605037239
 40
5
 50
101.53695903281556
 51
176.37910771743947
  0
LINE
  8
_1-3_1-3___
  6
CONTINUOUS
 62
   18
 10
264.08407349734489
 20
173.87325985172151
 11
264.08407349734489
 21
222.87325985172149
  0
LINE
  8
_1-3_1-3___
  6
CONTINUOUS
 62
   18
 10
254.08407349734489
 20
177.37325985172151
 11
254.08407349734489
 21
176.37325985172151
  0
LINE
  8
_1-3_1-3___
  6
CONTINUOUS
 62
   18
 10
254.08407349734483
 20
219.37325985172149
 11
254.08407349734483
 21
220.37325985172149
  0
LINE
  8
_1-3_1-3___
  6
CONTINUOUS
 62
   18
 10
264.08407349734489
 20
173.87325985172151
 11
261.58407349734489
 21
173.87325985172151
  0
LINE
  8
_1-3_1-3___
  6
CONTINUOUS
 62
   18
 10
264.08407349734489
 20
222.87325985172149
 11
261.58407349734489
 21
222.87325985172149
  0
LINE
  8
_1-3_1-3___
  6
CONTINUOUS
 62
   18
 10
261.58407349734489
 20
173.87325985172151
 11
261.58407349734489
 21
176.37325985172151
  0
LINE
  8
_1-3_1-3___
  6
CONTINUOUS
 62
   18
 10
254.08407349734489
 20
176.37325985172151
 11
261.58407349734489
 21
176.37325985172151
  0
LINE
  8
_1-3_1-3___
  6
CONTINUOUS
 62
   18
 10
261.58407349734489
 20
222.87325985172149
 11
261.58407349734489
 21
220.37325985172149
  0
LINE
  8
_1-3_1-3___
  6
CONTINUOUS
 62
   18
 10
254.08407349734483
 20
220.37325985172149
 11
261.58407349734489
 21
220.37325985172149
  0
LINE
  8
_1-3_1-3___
  6
CONTINUOUS
 62
   18
 10
258.08407349734489
 20
214.79068415676565
 11
258.08407349734489
 21
181.95583554667735
  0
ARC
  8
_1-3_1-3___
  6
CONTINUOUS
 62
   18
 10
253.08407349734489
 20
182.27223933728786
 40
5
 50
281.5369590328155
 51
356.37910771743947
  0
ARC
  8
_1-3_1-3___
  6
CONTINUOUS
 62
   18
 10
253.08407349734483
 20
214.47428036615514
 40
5
 50
3.6208922825605101
 51
78.46304096718444
  0
LINE
  8
_1-3_1-3___
  6
CONTINUOUS
 62
   18
 10
274.70264022932457
 20
173.45944531983383
 11
274.70264022932457
 21
222.4594453198338
  0
LINE
  8
_1-3_1-3___
  6
CONTINUOUS
 62
   18
 10
264.70264022932457
 20
176.95944531983383
 11
264.70264022932457
 21
175.95944531983383
  0
LINE
  8
_1-3_1-3___
  6
CONTINUOUS
 62
   18
 10
264.70264022932452
 20
218.9594453198338
 11
264.70264022932452
 21
219.9594453198338
  0
LINE
  8
_1-3_1-3___
  6
CONTINUOUS
 62
   18
 10
274.70264022932457
 20
173.45944531983383
 11
272.20264022932457
 21
173.45944531983383
  0
LINE
  8
_1-3_1-3___
  6
CONTINUOUS
 62
   18
 10
274.70264022932457
 20
222.4594453198338
 11
272.20264022932457
 21
222.4594453198338
  0
LINE
  8
_1-3_1-3___
  6
CONTINUOUS
 62
   18
 10
272.20264022932457
 20
173.45944531983383
 11
272.20264022932457
 21
175.95944531983383
  0
LINE
  8
_1-3_1-3___
  6
CONTINUOUS
 62
   18
 10
264.70264022932457
 20
175.95944531983383
 11
272.20264022932457
 21
175.95944531983383
  0
LINE
  8
_1-3_1-3___
  6
CONTINUOUS
 62
   18
 10
272.20264022932457
 20
222.4594453198338
 11
272.20264022932457
 21
219.9594453198338
  0
LINE
  8
_1-3_1-3___
  6
CONTINUOUS
 62
   18
 10
264.70264022932452
 20
219.9594453198338
 11
272.20264022932457
 21
219.9594453198338
  0
LINE
  8
_1-3_1-3___
  6
CONTINUOUS
 62
   18
 10
268.70264022932457
 20
214.37686962487797
 11
268.70264022932457
 21
181.54202101478967
  0
ARC
  8
_1-3_1-3___
  6
CONTINUOUS
 62
   18
 10
263.70264022932457
 20
181.85842480540018
 40
5
 50
281.5369590328155
 51
356.37910771743947
  0
ARC
  8
_1-3_1-3___
  6
CONTINUOUS
 62
   18
 10
263.70264022932452
 20
214.06046583426746
 40
5
 50
3.6208922825605101
 51
78.46304096718444
  0
LINE
  8
_1-3_1-3___
  6
CONTINUOUS
 62
   18
 10
169.12410526030442
 20
33.695809241031753
 11
181.62410526030442
 21
33.695809241031753
  0
LINE
  8
_1-3_1-3___
  6
CONTINUOUS
 62
   18
 10
181.62410526030442
 20
33.695809241031753
 11
181.62410526030442
 21
31.195809241031753
  0
LINE
  8
_1-3_1-3___
  6
CONTINUOUS
 62
   18
 10
181.62410526030442
 20
31.195809241031753
 11
179.12410526030442
 21
31.195809241031753
  0
LINE
  8
_1-3_1-3___
  6
CONTINUOUS
 62
   18
 10
179.12410526030442
 20
31.195809241031753
 11
179.12410526030442
 21
23.195809241031753
  0
LINE
  8
_1-3_1-3___
  6
CONTINUOUS
 62
   18
 10
171.62410526030442
 20
31.195809241031753
 11
169.12410526030442
 21
31.195809241031753
  0
LINE
  8
_1-3_1-3___
  6
CONTINUOUS
 62
   18
 10
169.12410526030442
 20
31.195809241031753
 11
169.12410526030442
 21
33.695809241031753
  0
LINE
  8
_1-3_1-3___
  6
CONTINUOUS
 62
   18
 10
171.62410526030442
 20
31.195809241031753
 11
171.62410526030442
 21
23.195809241031753
  0
LINE
  8
_1-3_1-3___
  6
CONTINUOUS
 62
   18
 10
176.62410526030442
 20
25.695809241031753
 11
176.62410526030442
 21
23.195809241031753
  0
LINE
  8
_1-3_1-3___
  6
CONTINUOUS
 62
   18
 10
176.62410526030442
 20
23.195809241031753
 11
179.12410526030442
 21
23.195809241031753
  0
LINE
  8
_1-3_1-3___
  6
CONTINUOUS
 62
   18
 10
176.62410526030442
 20
25.695809241031753
 11
174.12410526030442
 21
25.695809241031753
  0
LINE
  8
_1-3_1-3___
  6
CONTINUOUS
 62
   18
 10
174.12410526030442
 20
25.695809241031753
 11
174.12410526030442
 21
23.195809241031753
  0
LINE
  8
_1-3_1-3___
  6
CONTINUOUS
 62
   18
 10
174.12410526030442
 20
23.195809241031753
 11
171.62410526030442
 21
23.195809241031753
  0
LINE
  8
_1-3_1-3___
  6
CONTINUOUS
 62
   18
 10
168.97238903965729
 20
22.100307748035988
 11
181.47238903965729
 21
22.100307748035988
  0
LINE
  8
_1-3_1-3___
  6
CONTINUOUS
 62
   18
 10
181.47238903965729
 20
22.100307748035988
 11
181.47238903965729
 21
19.600307748035988
  0
LINE
  8
_1-3_1-3___
  6
CONTINUOUS
 62
   18
 10
181.47238903965729
 20
19.600307748035988
 11
178.97238903965729
 21
19.600307748035988
  0
LINE
  8
_1-3_1-3___
  6
CONTINUOUS
 62
   18
 10
178.97238903965729
 20
19.600307748035988
 11
178.97238903965729
 21
11.600307748035988
  0
LINE
  8
_1-3_1-3___
  6
CONTINUOUS
 62
   18
 10
171.47238903965729
 20
19.600307748035988
 11
168.97238903965729
 21
19.600307748035988
  0
LINE
  8
_1-3_1-3___
  6
CONTINUOUS
 62
   18
 10
168.97238903965729
 20
19.600307748035988
 11
168.97238903965729
 21
22.100307748035988
  0
LINE
  8
_1-3_1-3___
  6
CONTINUOUS
 62
   18
 10
171.47238903965729
 20
19.600307748035988
 11
171.47238903965729
 21
11.600307748035988
  0
LINE
  8
_1-3_1-3___
  6
CONTINUOUS
 62
   18
 10
176.47238903965729
 20
14.100307748035988
 11
176.47238903965729
 21
11.600307748035988
  0
LINE
  8
_1-3_1-3___
  6
CONTINUOUS
 62
   18
 10
176.47238903965729
 20
11.600307748035988
 11
178.97238903965729
 21
11.600307748035988
  0
LINE
  8
_1-3_1-3___
  6
CONTINUOUS
 62
   18
 10
176.47238903965729
 20
14.100307748035988
 11
173.97238903965729
 21
14.100307748035988
  0
LINE
  8
_1-3_1-3___
  6
CONTINUOUS
 62
   18
 10
173.97238903965729
 20
14.100307748035988
 11
173.97238903965729
 21
11.600307748035988
  0
LINE
  8
_1-3_1-3___
  6
CONTINUOUS
 62
   18
 10
173.97238903965729
 20
11.600307748035988
 11
171.47238903965729
 21
11.600307748035988
  0
LINE
  8
_1-3_1-3___
  6
CONTINUOUS
 62
   18
 10
170.58402292302213
 20
77.388686360644726
 11
170.58402292302213
 21
37.888686360644726
  0
LINE
  8
_1-3_1-3___
  6
CONTINUOUS
 62
   18
 10
172.38402292302212
 20
77.088686360644715
 11
172.38402292302212
 21
74.188686360644709
  0
LINE
  8
_1-3_1-3___
  6
CONTINUOUS
 62
   18
 10
178.78402292302212
 20
74.188686360644709
 11
172.38402292302212
 21
74.188686360644709
  0
LINE
  8
_1-3_1-3___
  6
CONTINUOUS
 62
   18
 10
178.78402292302212
 20
65.088686360644715
 11
172.38402292302212
 21
65.088686360644715
  0
LINE
  8
_1-3_1-3___
  6
CONTINUOUS
 62
   18
 10
172.38402292302212
 20
65.088686360644715
 11
172.38402292302212
 21
62.188686360644709
  0
LINE
  8
_1-3_1-3___
  6
CONTINUOUS
 62
   18
 10
178.78402292302212
 20
62.188686360644709
 11
172.38402292302212
 21
62.188686360644709
  0
LINE
  8
_1-3_1-3___
  6
CONTINUOUS
 62
   18
 10
178.78402292302212
 20
53.088686360644701
 11
172.38402292302212
 21
53.088686360644701
  0
LINE
  8
_1-3_1-3___
  6
CONTINUOUS
 62
   18
 10
172.38402292302212
 20
53.088686360644701
 11
172.38402292302212
 21
50.188686360644709
  0
LINE
  8
_1-3_1-3___
  6
CONTINUOUS
 62
   18
 10
178.78402292302212
 20
50.188686360644709
 11
172.38402292302212
 21
50.188686360644709
  0
LINE
  8
_1-3_1-3___
  6
CONTINUOUS
 62
   18
 10
178.78402292302212
 20
41.088686360644715
 11
172.38402292302212
 21
41.088686360644715
  0
LINE
  8
_1-3_1-3___
  6
CONTINUOUS
 62
   18
 10
172.38402292302212
 20
41.088686360644715
 11
172.38402292302212
 21
38.188686360644709
  0
LINE
  8
_1-3_1-3___
  6
CONTINUOUS
 62
   18
 10
178.78402292302212
 20
65.088686360644715
 11
178.78402292302212
 21
62.188686360644709
  0
LINE
  8
_1-3_1-3___
  6
CONTINUOUS
 62
   18
 10
178.78402292302212
 20
53.088686360644701
 11
178.78402292302212
 21
50.188686360644709
  0
LINE
  8
_1-3_1-3___
  6
CONTINUOUS
 62
   18
 10
178.78402292302212
 20
77.088686360644715
 11
172.38402292302212
 21
77.088686360644715
  0
LINE
  8
_1-3_1-3___
  6
CONTINUOUS
 62
   18
 10
178.78402292302212
 20
77.088686360644715
 11
178.78402292302212
 21
74.188686360644709
  0
LINE
  8
_1-3_1-3___
  6
CONTINUOUS
 62
   18
 10
178.78402292302212
 20
38.188686360644709
 11
172.38402292302212
 21
38.188686360644709
  0
LINE
  8
_1-3_1-3___
  6
CONTINUOUS
 62
   18
 10
178.78402292302212
 20
41.088686360644715
 11
178.78402292302212
 21
38.188686360644709
  0
LINE
  8
_1-3_1-3___
  6
CONTINUOUS
 62
   18
 10
170.58402292302213
 20
77.388686360644726
 11
173.18402292302213
 21
77.388686360644726
  0
LINE
  8
_1-3_1-3___
  6
CONTINUOUS
 62
   18
 10
173.18402292302213
 20
77.388686360644726
 11
173.18402292302213
 21
79.888686360644726
  0
LINE
  8
_1-3_1-3___
  6
CONTINUOUS
 62
   18
 10
181.08402292302213
 20
79.888686360644726
 11
173.18402292302213
 21
79.888686360644726
  0
LINE
  8
_1-3_1-3___
  6
CONTINUOUS
 62
   18
 10
173.18402292302213
 20
37.888686360644726
 11
170.58402292302213
 21
37.888686360644726
  0
LINE
  8
_1-3_1-3___
  6
CONTINUOUS
 62
   18
 10
173.18402292302213
 20
35.388686360644726
 11
173.18402292302213
 21
37.888686360644726
  0
LINE
  8
_1-3_1-3___
  6
CONTINUOUS
 62
   18
 10
181.08402292302213
 20
35.388686360644726
 11
173.18402292302213
 21
35.388686360644726
  0
LINE
  8
_1-3_1-3___
  6
CONTINUOUS
 62
   18
 10
178.58402292302213
 20
71.138686360644726
 11
178.58402292302213
 21
68.638686360644726
  0
LINE
  8
_1-3_1-3___
  6
CONTINUOUS
 62
   18
 10
178.58402292302213
 20
44.138686360644726
 11
178.58402292302213
 21
46.638686360644726
  0
LINE
  8
_1-3_1-3___
  6
CONTINUOUS
 62
   18
 10
181.08402292302213
 20
71.138686360644726
 11
181.08402292302213
 21
79.888686360644726
  0
LINE
  8
_1-3_1-3___
  6
CONTINUOUS
 62
   18
 10
181.08402292302213
 20
71.138686360644726
 11
178.58402292302213
 21
71.138686360644726
  0
LINE
  8
_1-3_1-3___
  6
CONTINUOUS
 62
   18
 10
178.58402292302213
 20
68.638686360644726
 11
181.08402292302213
 21
68.638686360644726
  0
LINE
  8
_1-3_1-3___
  6
CONTINUOUS
 62
   18
 10
178.58402292302213
 20
46.638686360644726
 11
181.08402292302213
 21
46.638686360644726
  0
LINE
  8
_1-3_1-3___
  6
CONTINUOUS
 62
   18
 10
181.08402292302213
 20
68.638686360644726
 11
181.08402292302213
 21
46.638686360644726
  0
LINE
  8
_1-3_1-3___
  6
CONTINUOUS
 62
   18
 10
181.08402292302213
 20
44.138686360644726
 11
178.58402292302213
 21
44.138686360644726
  0
LINE
  8
_1-3_1-3___
  6
CONTINUOUS
 62
   18
 10
181.08402292302213
 20
44.138686360644726
 11
181.08402292302213
 21
35.388686360644726
  0
ARC
  8
_1-3_1-3___
  6
CONTINUOUS
 62
   18
 10
150.56543755060162
 20
115.66781740879387
 40
1.5
 50
0
 51
90
  0
LINE
  8
_1-3_1-3___
  6
CONTINUOUS
 62
   18
 10
152.06543755060162
 20
112.66781740879387
 11
152.06543755060162
 21
115.66781740879387
  0
ARC
  8
_1-3_1-3___
  6
CONTINUOUS
 62
   18
 10
150.56543755060162
 20
112.66781740879387
 40
1.5
 50
270
 51
0
  0
LINE
  8
_1-3_1-3___
  6
CONTINUOUS
 62
   18
 10
136.56543755060162
 20
109.16781740879387
 11
133.11463915494141
 21
109.16781740879387
  0
LINE
  8
_1-3_1-3___
  6
CONTINUOUS
 62
   18
 10
150.56543755060162
 20
117.16781740879387
 11
133.11463915494141
 21
117.16781740879387
  0
LINE
  8
_1-3_1-3___
  6
CONTINUOUS
 62
   18
 10
133.11463915494141
 20
117.16781740879387
 11
133.11463915494141
 21
109.16781740879387
  0
LINE
  8
_1-3_1-3___
  6
CONTINUOUS
 62
   18
 10
150.56543755060162
 20
111.16781740879387
 11
136.56543755060162
 21
111.16781740879387
  0
LINE
  8
_1-3_1-3___
  6
CONTINUOUS
 62
   18
 10
136.56543755060162
 20
111.16781740879387
 11
136.56543755060162
 21
109.16781740879387
  0
ARC
  8
_1-3_1-3___
  6
CONTINUOUS
 62
   18
 10
149.63168509783583
 20
106.30955615534927
 40
1.5
 50
180
 51
270
  0
LINE
  8
_1-3_1-3___
  6
CONTINUOUS
 62
   18
 10
148.13168509783583
 20
109.30955615534927
 11
148.13168509783583
 21
106.30955615534927
  0
ARC
  8
_1-3_1-3___
  6
CONTINUOUS
 62
   18
 10
149.63168509783583
 20
109.30955615534927
 40
1.5
 50
90
 51
180
  0
LINE
  8
_1-3_1-3___
  6
CONTINUOUS
 62
   18
 10
163.63168509783583
 20
112.80955615534927
 11
167.08248349349603
 21
112.80955615534927
  0
LINE
  8
_1-3_1-3___
  6
CONTINUOUS
 62
   18
 10
149.63168509783583
 20
104.80955615534927
 11
167.08248349349603
 21
104.80955615534927
  0
LINE
  8
_1-3_1-3___
  6
CONTINUOUS
 62
   18
 10
167.08248349349603
 20
104.80955615534927
 11
167.08248349349603
 21
112.80955615534927
  0
LINE
  8
_1-3_1-3___
  6
CONTINUOUS
 62
   18
 10
149.63168509783583
 20
110.80955615534927
 11
163.63168509783583
 21
110.80955615534927
  0
LINE
  8
_1-3_1-3___
  6
CONTINUOUS
 62
   18
 10
163.63168509783583
 20
110.80955615534927
 11
163.63168509783583
 21
112.80955615534927
  0
LINE
  8
_1-3_1-3___
  6
CONTINUOUS
 62
   18
 10
186.05954339331262
 20
125.44784358130485
 11
183.55954339331262
 21
125.44784358130485
  0
LINE
  8
_1-3_1-3___
  6
CONTINUOUS
 62
   18
 10
183.55954339331262
 20
125.44784358130485
 11
183.55954339331262
 21
122.94784358130485
  0
LINE
  8
_1-3_1-3___
  6
CONTINUOUS
 62
   18
 10
186.05954339331262
 20
122.94784358130485
 11
186.05954339331262
 21
125.44784358130485
  0
LINE
  8
_1-3_1-3___
  6
CONTINUOUS
 62
   18
 10
159.05954339331259
 20
125.44784358130485
 11
161.55954339331259
 21
125.44784358130485
  0
LINE
  8
_1-3_1-3___
  6
CONTINUOUS
 62
   18
 10
161.55954339331259
 20
125.44784358130485
 11
161.55954339331259
 21
122.94784358130485
  0
LINE
  8
_1-3_1-3___
  6
CONTINUOUS
 62
   18
 10
159.05954339331259
 20
122.94784358130485
 11
159.05954339331259
 21
125.44784358130485
  0
LINE
  8
_1-3_1-3___
  6
CONTINUOUS
 62
   18
 10
183.55954339331262
 20
122.94784358130485
 11
161.55954339331259
 21
122.94784358130485
  0
LINE
  8
_1-3_1-3___
  6
CONTINUOUS
 62
   18
 10
192.30954339331262
 20
122.94784358130485
 11
186.05954339331262
 21
122.94784358130485
  0
LINE
  8
_1-3_1-3___
  6
CONTINUOUS
 62
   18
 10
159.05954339331259
 20
122.94784358130485
 11
152.80954339331259
 21
122.94784358130485
  0
LINE
  8
_1-3_1-3___
  6
CONTINUOUS
 62
   18
 10
183.55954339331262
 20
115.44784358130485
 11
183.55954339331262
 21
112.94784358130485
  0
LINE
  8
_1-3_1-3___
  6
CONTINUOUS
 62
   18
 10
183.55954339331262
 20
112.94784358130485
 11
186.05954339331262
 21
112.94784358130485
  0
LINE
  8
_1-3_1-3___
  6
CONTINUOUS
 62
   18
 10
186.05954339331262
 20
112.94784358130485
 11
186.05954339331262
 21
115.44784358130485
  0
LINE
  8
_1-3_1-3___
  6
CONTINUOUS
 62
   18
 10
159.05954339331259
 20
115.44784358130485
 11
159.05954339331259
 21
112.94784358130485
  0
LINE
  8
_1-3_1-3___
  6
CONTINUOUS
 62
   18
 10
159.05954339331259
 20
112.94784358130485
 11
161.55954339331259
 21
112.94784358130485
  0
LINE
  8
_1-3_1-3___
  6
CONTINUOUS
 62
   18
 10
161.55954339331259
 20
112.94784358130485
 11
161.55954339331259
 21
115.44784358130485
  0
LINE
  8
_1-3_1-3___
  6
CONTINUOUS
 62
   18
 10
183.55954339331262
 20
115.44784358130485
 11
161.55954339331259
 21
115.44784358130485
  0
LINE
  8
_1-3_1-3___
  6
CONTINUOUS
 62
   18
 10
192.30954339331262
 20
115.44784358130485
 11
186.05954339331262
 21
115.44784358130485
  0
LINE
  8
_1-3_1-3___
  6
CONTINUOUS
 62
   18
 10
159.05954339331259
 20
115.44784358130485
 11
152.80954339331259
 21
115.44784358130485
  0
LINE
  8
_1-3_1-3___
  6
CONTINUOUS
 62
   18
 10
192.30954339331262
 20
117.94784358130485
 11
194.80954339331262
 21
117.94784358130485
  0
LINE
  8
_1-3_1-3___
  6
CONTINUOUS
 62
   18
 10
194.80954339331262
 20
117.94784358130485
 11
194.80954339331262
 21
120.44784358130485
  0
LINE
  8
_1-3_1-3___
  6
CONTINUOUS
 62
   18
 10
194.80954339331262
 20
120.44784358130485
 11
192.30954339331262
 21
120.44784358130485
  0
LINE
  8
_1-3_1-3___
  6
CONTINUOUS
 62
   18
 10
152.80954339331259
 20
117.94784358130485
 11
150.30954339331259
 21
117.94784358130485
  0
LINE
  8
_1-3_1-3___
  6
CONTINUOUS
 62
   18
 10
150.30954339331259
 20
117.94784358130485
 11
150.30954339331259
 21
120.44784358130485
  0
LINE
  8
_1-3_1-3___
  6
CONTINUOUS
 62
   18
 10
150.30954339331259
 20
120.44784358130485
 11
152.80954339331259
 21
120.44784358130485
  0
LINE
  8
_1-3_1-3___
  6
CONTINUOUS
 62
   18
 10
192.30954339331262
 20
122.94784358130485
 11
192.30954339331262
 21
120.44784358130485
  0
LINE
  8
_1-3_1-3___
  6
CONTINUOUS
 62
   18
 10
192.30954339331262
 20
117.94784358130485
 11
192.30954339331262
 21
115.44784358130485
  0
LINE
  8
_1-3_1-3___
  6
CONTINUOUS
 62
   18
 10
152.80954339331259
 20
115.44784358130485
 11
152.80954339331259
 21
117.94784358130485
  0
LINE
  8
_1-3_1-3___
  6
CONTINUOUS
 62
   18
 10
152.80954339331259
 20
120.44784358130485
 11
152.80954339331259
 21
122.94784358130485
  0
ARC
  8
_1-3_1-3___
  6
CONTINUOUS
 62
   18
 10
125.9685776336357
 20
63.798261991346692
 40
1.5
 50
180
 51
270
  0
LINE
  8
_1-3_1-3___
  6
CONTINUOUS
 62
   18
 10
124.4685776336357
 20
66.798261991346692
 11
124.4685776336357
 21
63.798261991346692
  0
ARC
  8
_1-3_1-3___
  6
CONTINUOUS
 62
   18
 10
125.9685776336357
 20
66.798261991346692
 40
1.5
 50
90
 51
180
  0
LINE
  8
_1-3_1-3___
  6
CONTINUOUS
 62
   18
 10
139.9685776336357
 20
70.298261991346692
 11
143.4193760292959
 21
70.298261991346692
  0
LINE
  8
_1-3_1-3___
  6
CONTINUOUS
 62
   18
 10
125.9685776336357
 20
62.298261991346692
 11
143.4193760292959
 21
62.298261991346692
  0
LINE
  8
_1-3_1-3___
  6
CONTINUOUS
 62
   18
 10
143.4193760292959
 20
62.298261991346692
 11
143.4193760292959
 21
70.298261991346692
  0
LINE
  8
_1-3_1-3___
  6
CONTINUOUS
 62
   18
 10
125.9685776336357
 20
68.298261991346692
 11
139.9685776336357
 21
68.298261991346692
  0
LINE
  8
_1-3_1-3___
  6
CONTINUOUS
 62
   18
 10
139.9685776336357
 20
68.298261991346692
 11
139.9685776336357
 21
70.298261991346692
  0
ARC
  8
_1-3_1-3___
  6
CONTINUOUS
 62
   18
 10
136.32728739566738
 20
74.467718058292292
 40
1.5
 50
0
 51
90
  0
LINE
  8
_1-3_1-3___
  6
CONTINUOUS
 62
   18
 10
137.82728739566738
 20
71.467718058292292
 11
137.82728739566738
 21
74.467718058292292
  0
ARC
  8
_1-3_1-3___
  6
CONTINUOUS
 62
   18
 10
136.32728739566738
 20
71.467718058292292
 40
1.5
 50
270
 51
0
  0
LINE
  8
_1-3_1-3___
  6
CONTINUOUS
 62
   18
 10
122.32728739566738
 20
67.967718058292292
 11
118.87648900000718
 21
67.967718058292292
  0
LINE
  8
_1-3_1-3___
  6
CONTINUOUS
 62
   18
 10
136.32728739566738
 20
75.967718058292292
 11
118.87648900000718
 21
75.967718058292292
  0
LINE
  8
_1-3_1-3___
  6
CONTINUOUS
 62
   18
 10
118.87648900000718
 20
75.967718058292292
 11
118.87648900000718
 21
67.967718058292292
  0
LINE
  8
_1-3_1-3___
  6
CONTINUOUS
 62
   18
 10
136.32728739566738
 20
69.967718058292292
 11
122.32728739566738
 21
69.967718058292292
  0
LINE
  8
_1-3_1-3___
  6
CONTINUOUS
 62
   18
 10
122.32728739566738
 20
69.967718058292292
 11
122.32728739566738
 21
67.967718058292292
  0
CIRCLE
  8
_1-3_1-3___
  6
CONTINUOUS
 62
   18
 10
49.390391994615527
 20
49.390697644074379
 40
38.200000000000003
  0
LINE
  8
_1-3_1-3___
  6
CONTINUOUS
 62
   18
 10
191.57320538062851
 20
164.67213264215511
 11
240.57320538062848
 21
164.67213264215511
  0
LINE
  8
_1-3_1-3___
  6
CONTINUOUS
 62
   18
 10
195.07320538062851
 20
174.67213264215511
 11
194.07320538062851
 21
174.67213264215511
  0
LINE
  8
_1-3_1-3___
  6
CONTINUOUS
 62
   18
 10
237.07320538062848
 20
174.67213264215513
 11
238.07320538062848
 21
174.67213264215513
  0
LINE
  8
_1-3_1-3___
  6
CONTINUOUS
 62
   18
 10
191.57320538062851
 20
164.67213264215511
 11
191.57320538062851
 21
167.17213264215511
  0
LINE
  8
_1-3_1-3___
  6
CONTINUOUS
 62
   18
 10
240.57320538062848
 20
164.67213264215511
 11
240.57320538062848
 21
167.17213264215511
  0
LINE
  8
_1-3_1-3___
  6
CONTINUOUS
 62
   18
 10
191.57320538062851
 20
167.17213264215511
 11
194.07320538062851
 21
167.17213264215511
  0
LINE
  8
_1-3_1-3___
  6
CONTINUOUS
 62
   18
 10
194.07320538062851
 20
174.67213264215511
 11
194.07320538062851
 21
167.17213264215511
  0
LINE
  8
_1-3_1-3___
  6
CONTINUOUS
 62
   18
 10
240.57320538062848
 20
167.17213264215511
 11
238.07320538062848
 21
167.17213264215511
  0
LINE
  8
_1-3_1-3___
  6
CONTINUOUS
 62
   18
 10
238.07320538062848
 20
174.67213264215513
 11
238.07320538062848
 21
167.17213264215511
  0
LINE
  8
_1-3_1-3___
  6
CONTINUOUS
 62
   18
 10
232.49062968567264
 20
170.67213264215511
 11
199.65578107558434
 21
170.67213264215511
  0
ARC
  8
_1-3_1-3___
  6
CONTINUOUS
 62
   18
 10
199.97218486619485
 20
175.67213264215511
 40
5
 50
191.53695903281547
 51
266.37910771743947
  0
ARC
  8
_1-3_1-3___
  6
CONTINUOUS
 62
   18
 10
232.17422589506214
 20
175.67213264215513
 40
5
 50
273.62089228256048
 51
348.46304096718444
  0
CIRCLE
  8
_1-3_1-3___
  6
CONTINUOUS
 62
   18
 10
200.77612113595859
 20
144.5879055370994
 40
2.2999999999999998
  0
CIRCLE
  8
_1-3_1-3___
  6
CONTINUOUS
 62
   18
 10
200.77612113595859
 20
144.5879055370994
 40
4.2999999999999998
  0
CIRCLE
  8
_1-3_1-3___
  6
CONTINUOUS
 62
   18
 10
201.19898014831287
 20
154.54245464520105
 40
2.2999999999999998
  0
CIRCLE
  8
_1-3_1-3___
  6
CONTINUOUS
 62
   18
 10
201.19898014831287
 20
154.54245464520105
 40
4.2999999999999998
  0
CIRCLE
  8
_1-3_1-3___
  6
CONTINUOUS
 62
   18
 10
210.84528969038141
 20
144.69302199007564
 40
2.2999999999999998
  0
CIRCLE
  8
_1-3_1-3___
  6
CONTINUOUS
 62
   18
 10
210.84528969038141
 20
144.69302199007564
 40
4.2999999999999998
  0
CIRCLE
  8
_1-3_1-3___
  6
CONTINUOUS
 62
   18
 10
210.44581668237177
 20
154.32275739429787
 40
2.2999999999999998
  0
CIRCLE
  8
_1-3_1-3___
  6
CONTINUOUS
 62
   18
 10
210.44581668237177
 20
154.32275739429787
 40
4.2999999999999998
  0
CIRCLE
  8
_1-3_1-3___
  6
CONTINUOUS
 62
   18
 10
220.16721979440661
 20
144.62714262538287
 40
2.2999999999999998
  0
CIRCLE
  8
_1-3_1-3___
  6
CONTINUOUS
 62
   18
 10
220.16721979440661
 20
144.62714262538287
 40
4.2999999999999998
  0
CIRCLE
  8
_1-3_1-3___
  6
CONTINUOUS
 62
   18
 10
219.76774678639697
 20
154.2568780296051
 40
2.2999999999999998
  0
CIRCLE
  8
_1-3_1-3___
  6
CONTINUOUS
 62
   18
 10
219.76774678639697
 20
154.2568780296051
 40
4.2999999999999998
  0
LINE
  8
_1-3_1-3___
  6
CONTINUOUS
 62
   18
 10
73.237945358604861
 20
29.687184718631656
 11
24.237945358604918
 21
29.68718471863167
  0
LINE
  8
_1-3_1-3___
  6
CONTINUOUS
 62
   18
 10
69.737945358604861
 20
19.68718471863167
 11
70.737945358604861
 21
19.68718471863167
  0
LINE
  8
_1-3_1-3___
  6
CONTINUOUS
 62
   18
 10
27.737945358604918
 20
19.687184718631642
 11
26.737945358604918
 21
19.687184718631642
  0
LINE
  8
_1-3_1-3___
  6
CONTINUOUS
 62
   18
 10
73.237945358604861
 20
29.687184718631656
 11
73.237945358604861
 21
27.187184718631656
  0
LINE
  8
_1-3_1-3___
  6
CONTINUOUS
 62
   18
 10
24.237945358604918
 20
29.68718471863167
 11
24.237945358604918
 21
27.18718471863167
  0
LINE
  8
_1-3_1-3___
  6
CONTINUOUS
 62
   18
 10
73.237945358604861
 20
27.187184718631656
 11
70.737945358604861
 21
27.187184718631656
  0
LINE
  8
_1-3_1-3___
  6
CONTINUOUS
 62
   18
 10
70.737945358604861
 20
19.68718471863167
 11
70.737945358604861
 21
27.187184718631656
  0
LINE
  8
_1-3_1-3___
  6
CONTINUOUS
 62
   18
 10
24.237945358604918
 20
27.18718471863167
 11
26.737945358604918
 21
27.18718471863167
  0
LINE
  8
_1-3_1-3___
  6
CONTINUOUS
 62
   18
 10
26.737945358604918
 20
19.687184718631642
 11
26.737945358604918
 21
27.18718471863167
  0
LINE
  8
_1-3_1-3___
  6
CONTINUOUS
 62
   18
 10
32.320521053560753
 20
23.687184718631656
 11
65.155369663649026
 21
23.687184718631656
  0
ARC
  8
_1-3_1-3___
  6
CONTINUOUS
 62
   18
 10
64.838965873038546
 20
18.68718471863167
 40
5
 50
11.536959032815467
 51
86.379107717439481
  0
ARC
  8
_1-3_1-3___
  6
CONTINUOUS
 62
   18
 10
32.636924844171233
 20
18.687184718631642
 40
5
 50
93.620892282560504
 51
168.46304096718447
  0
LINE
  8
_1-3_1-3___
  6
CONTINUOUS
 62
   18
 10
18.956564605466838
 20
31.467668878822863
 11
67.956564605466781
 21
31.467668878822877
  0
LINE
  8
_1-3_1-3___
  6
CONTINUOUS
 62
   18
 10
22.456564605466838
 20
41.467668878822863
 11
21.456564605466838
 21
41.467668878822863
  0
LINE
  8
_1-3_1-3___
  6
CONTINUOUS
 62
   18
 10
64.456564605466781
 20
41.467668878822906
 11
65.456564605466781
 21
41.467668878822906
  0
LINE
  8
_1-3_1-3___
  6
CONTINUOUS
 62
   18
 10
18.956564605466838
 20
31.467668878822863
 11
18.956564605466838
 21
33.967668878822863
  0
LINE
  8
_1-3_1-3___
  6
CONTINUOUS
 62
   18
 10
67.956564605466781
 20
31.467668878822877
 11
67.956564605466781
 21
33.967668878822877
  0
LINE
  8
_1-3_1-3___
  6
CONTINUOUS
 62
   18
 10
18.956564605466838
 20
33.967668878822863
 11
21.456564605466838
 21
33.967668878822863
  0
LINE
  8
_1-3_1-3___
  6
CONTINUOUS
 62
   18
 10
21.456564605466838
 20
41.467668878822863
 11
21.456564605466838
 21
33.967668878822863
  0
LINE
  8
_1-3_1-3___
  6
CONTINUOUS
 62
   18
 10
67.956564605466781
 20
33.967668878822877
 11
65.456564605466781
 21
33.967668878822877
  0
LINE
  8
_1-3_1-3___
  6
CONTINUOUS
 62
   18
 10
65.456564605466781
 20
41.467668878822906
 11
65.456564605466781
 21
33.967668878822877
  0
LINE
  8
_1-3_1-3___
  6
CONTINUOUS
 62
   18
 10
59.873988910510946
 20
37.467668878822863
 11
27.039140300422673
 21
37.467668878822863
  0
ARC
  8
_1-3_1-3___
  6
CONTINUOUS
 62
   18
 10
27.355544091033153
 20
42.467668878822863
 40
5
 50
191.53695903281547
 51
266.37910771743947
  0
ARC
  8
_1-3_1-3___
  6
CONTINUOUS
 62
   18
 10
59.557585119900466
 20
42.467668878822906
 40
5
 50
273.62089228256048
 51
348.46304096718444
  0
LINE
  8
_1-3_1-3___
  6
CONTINUOUS
 62
   18
 10
76.3446399192743
 20
48.948690994782268
 11
27.344639919274357
 21
48.948690994782282
  0
LINE
  8
_1-3_1-3___
  6
CONTINUOUS
 62
   18
 10
72.8446399192743
 20
38.948690994782268
 11
73.8446399192743
 21
38.948690994782268
  0
LINE
  8
_1-3_1-3___
  6
CONTINUOUS
 62
   18
 10
30.844639919274357
 20
38.948690994782254
 11
29.844639919274357
 21
38.948690994782254
  0
LINE
  8
_1-3_1-3___
  6
CONTINUOUS
 62
   18
 10
76.3446399192743
 20
48.948690994782268
 11
76.3446399192743
 21
46.448690994782268
  0
LINE
  8
_1-3_1-3___
  6
CONTINUOUS
 62
   18
 10
27.344639919274357
 20
48.948690994782282
 11
27.344639919274357
 21
46.448690994782282
  0
LINE
  8
_1-3_1-3___
  6
CONTINUOUS
 62
   18
 10
76.3446399192743
 20
46.448690994782268
 11
73.8446399192743
 21
46.448690994782268
  0
LINE
  8
_1-3_1-3___
  6
CONTINUOUS
 62
   18
 10
73.8446399192743
 20
38.948690994782268
 11
73.8446399192743
 21
46.448690994782268
  0
LINE
  8
_1-3_1-3___
  6
CONTINUOUS
 62
   18
 10
27.344639919274357
 20
46.448690994782282
 11
29.844639919274357
 21
46.448690994782282
  0
LINE
  8
_1-3_1-3___
  6
CONTINUOUS
 62
   18
 10
29.844639919274357
 20
38.948690994782254
 11
29.844639919274357
 21
46.448690994782282
  0
LINE
  8
_1-3_1-3___
  6
CONTINUOUS
 62
   18
 10
35.427215614230192
 20
42.948690994782268
 11
68.262064224318465
 21
42.948690994782268
  0
ARC
  8
_1-3_1-3___
  6
CONTINUOUS
 62
   18
 10
67.945660433707985
 20
37.948690994782268
 40
5
 50
11.536959032815467
 51
86.379107717439481
  0
ARC
  8
_1-3_1-3___
  6
CONTINUOUS
 62
   18
 10
35.743619404840672
 20
37.948690994782254
 40
5
 50
93.620892282560504
 51
168.46304096718447
  0
LINE
  8
_1-3_1-3___
  6
CONTINUOUS
 62
   18
 10
20.509911885801557
 20
50.418505698906543
 11
69.5099118858015
 21
50.418505698906557
  0
LINE
  8
_1-3_1-3___
  6
CONTINUOUS
 62
   18
 10
24.009911885801557
 20
60.418505698906543
 11
23.009911885801557
 21
60.418505698906543
  0
LINE
  8
_1-3_1-3___
  6
CONTINUOUS
 62
   18
 10
66.0099118858015
 20
60.418505698906586
 11
67.0099118858015
 21
60.418505698906586
  0
LINE
  8
_1-3_1-3___
  6
CONTINUOUS
 62
   18
 10
20.509911885801557
 20
50.418505698906543
 11
20.509911885801557
 21
52.918505698906543
  0
LINE
  8
_1-3_1-3___
  6
CONTINUOUS
 62
   18
 10
69.5099118858015
 20
50.418505698906557
 11
69.5099118858015
 21
52.918505698906557
  0
LINE
  8
_1-3_1-3___
  6
CONTINUOUS
 62
   18
 10
20.509911885801557
 20
52.918505698906543
 11
23.009911885801557
 21
52.918505698906543
  0
LINE
  8
_1-3_1-3___
  6
CONTINUOUS
 62
   18
 10
23.009911885801557
 20
60.418505698906543
 11
23.009911885801557
 21
52.918505698906543
  0
LINE
  8
_1-3_1-3___
  6
CONTINUOUS
 62
   18
 10
69.5099118858015
 20
52.918505698906557
 11
67.0099118858015
 21
52.918505698906557
  0
LINE
  8
_1-3_1-3___
  6
CONTINUOUS
 62
   18
 10
67.0099118858015
 20
60.418505698906586
 11
67.0099118858015
 21
52.918505698906557
  0
LINE
  8
_1-3_1-3___
  6
CONTINUOUS
 62
   18
 10
61.427336190845665
 20
56.418505698906543
 11
28.592487580757393
 21
56.418505698906543
  0
ARC
  8
_1-3_1-3___
  6
CONTINUOUS
 62
   18
 10
28.908891371367872
 20
61.418505698906543
 40
5
 50
191.53695903281547
 51
266.37910771743947
  0
ARC
  8
_1-3_1-3___
  6
CONTINUOUS
 62
   18
 10
61.110932400235185
 20
61.418505698906586
 40
5
 50
273.62089228256048
 51
348.46304096718444
  0
LINE
  8
_1-3_1-3___
  6
CONTINUOUS
 62
   18
 10
80.676456705558707
 20
67.134426571279135
 11
31.676456705558763
 21
67.134426571279135
  0
LINE
  8
_1-3_1-3___
  6
CONTINUOUS
 62
   18
 10
77.176456705558707
 20
57.134426571279135
 11
78.176456705558707
 21
57.134426571279135
  0
LINE
  8
_1-3_1-3___
  6
CONTINUOUS
 62
   18
 10
35.176456705558763
 20
57.134426571279093
 11
34.176456705558763
 21
57.134426571279093
  0
LINE
  8
_1-3_1-3___
  6
CONTINUOUS
 62
   18
 10
80.676456705558707
 20
67.134426571279135
 11
80.676456705558707
 21
64.634426571279135
  0
LINE
  8
_1-3_1-3___
  6
CONTINUOUS
 62
   18
 10
31.676456705558763
 20
67.134426571279121
 11
31.676456705558763
 21
64.634426571279121
  0
LINE
  8
_1-3_1-3___
  6
CONTINUOUS
 62
   18
 10
80.676456705558707
 20
64.634426571279135
 11
78.176456705558707
 21
64.634426571279135
  0
LINE
  8
_1-3_1-3___
  6
CONTINUOUS
 62
   18
 10
78.176456705558707
 20
57.134426571279135
 11
78.176456705558707
 21
64.634426571279135
  0
LINE
  8
_1-3_1-3___
  6
CONTINUOUS
 62
   18
 10
31.676456705558763
 20
64.634426571279121
 11
34.176456705558763
 21
64.634426571279121
  0
LINE
  8
_1-3_1-3___
  6
CONTINUOUS
 62
   18
 10
34.176456705558763
 20
57.134426571279093
 11
34.176456705558763
 21
64.634426571279121
  0
LINE
  8
_1-3_1-3___
  6
CONTINUOUS
 62
   18
 10
39.759032400514599
 20
61.134426571279135
 11
72.593881010602871
 21
61.134426571279135
  0
ARC
  8
_1-3_1-3___
  6
CONTINUOUS
 62
   18
 10
72.277477219992392
 20
56.134426571279135
 40
5
 50
11.536959032815467
 51
86.379107717439481
  0
ARC
  8
_1-3_1-3___
  6
CONTINUOUS
 62
   18
 10
40.075436191125078
 20
56.134426571279093
 40
5
 50
93.620892282560504
 51
168.46304096718447
  0
LINE
  8
_1-3_1-3___
  6
CONTINUOUS
 62
   18
 10
23.631565315120213
 20
68.132378984125381
 11
72.631565315120156
 21
68.132378984125396
  0
LINE
  8
_1-3_1-3___
  6
CONTINUOUS
 62
   18
 10
27.131565315120213
 20
78.132378984125381
 11
26.131565315120213
 21
78.132378984125381
  0
LINE
  8
_1-3_1-3___
  6
CONTINUOUS
 62
   18
 10
69.131565315120156
 20
78.132378984125424
 11
70.131565315120156
 21
78.132378984125424
  0
LINE
  8
_1-3_1-3___
  6
CONTINUOUS
 62
   18
 10
23.631565315120213
 20
68.132378984125381
 11
23.631565315120213
 21
70.632378984125381
  0
LINE
  8
_1-3_1-3___
  6
CONTINUOUS
 62
   18
 10
72.631565315120156
 20
68.132378984125396
 11
72.631565315120156
 21
70.632378984125396
  0
LINE
  8
_1-3_1-3___
  6
CONTINUOUS
 62
   18
 10
23.631565315120213
 20
70.632378984125381
 11
26.131565315120213
 21
70.632378984125381
  0
LINE
  8
_1-3_1-3___
  6
CONTINUOUS
 62
   18
 10
26.131565315120213
 20
78.132378984125381
 11
26.131565315120213
 21
70.632378984125381
  0
LINE
  8
_1-3_1-3___
  6
CONTINUOUS
 62
   18
 10
72.631565315120156
 20
70.632378984125396
 11
70.131565315120156
 21
70.632378984125396
  0
LINE
  8
_1-3_1-3___
  6
CONTINUOUS
 62
   18
 10
70.131565315120156
 20
78.132378984125424
 11
70.131565315120156
 21
70.632378984125396
  0
LINE
  8
_1-3_1-3___
  6
CONTINUOUS
 62
   18
 10
64.548989620164321
 20
74.132378984125381
 11
31.714141010076048
 21
74.132378984125381
  0
ARC
  8
_1-3_1-3___
  6
CONTINUOUS
 62
   18
 10
32.030544800686528
 20
79.132378984125381
 40
5
 50
191.53695903281547
 51
266.37910771743947
  0
ARC
  8
_1-3_1-3___
  6
CONTINUOUS
 62
   18
 10
64.232585829553841
 20
79.132378984125424
 40
5
 50
273.62089228256048
 51
348.46304096718444
  0
LINE
  8
_1-3_1-3___
  6
CONTINUOUS
 62
   18
 10
192.92776012880759
 20
50.515961826293236
 11
190.42776012880759
 21
50.515961826293236
  0
LINE
  8
_1-3_1-3___
  6
CONTINUOUS
 62
   18
 10
200.42776012880759
 20
86.015961826293236
 11
200.42776012880759
 21
63.015961826293236
  0
LINE
  8
_1-3_1-3___
  6
CONTINUOUS
 62
   18
 10
210.42776012880759
 20
97.015961826293221
 11
210.42776012880759
 21
96.015961826293221
  0
LINE
  8
_1-3_1-3___
  6
CONTINUOUS
 62
   18
 10
210.42776012880759
 20
54.015961826293236
 11
210.42776012880759
 21
53.015961826293236
  0
ARC
  8
_1-3_1-3___
  6
CONTINUOUS
 62
   18
 10
210.42776012880759
 20
86.015961826293236
 40
10
 50
90
 51
180
  0
ARC
  8
_1-3_1-3___
  6
CONTINUOUS
 62
   18
 10
210.42776012880759
 20
64.015961826293236
 40
10
 50
180
 51
270
  0
LINE
  8
_1-3_1-3___
  6
CONTINUOUS
 62
   18
 10
192.92776012880759
 20
64.015961826293236
 11
190.42776012880759
 21
64.015961826293236
  0
LINE
  8
_1-3_1-3___
  6
CONTINUOUS
 62
   18
 10
192.92776012880759
 20
75.015961826293221
 11
190.42776012880759
 21
75.015961826293221
  0
LINE
  8
_1-3_1-3___
  6
CONTINUOUS
 62
   18
 10
192.92776012880759
 20
86.015961826293221
 11
190.42776012880759
 21
86.015961826293221
  0
LINE
  8
_1-3_1-3___
  6
CONTINUOUS
 62
   18
 10
200.42776012880759
 20
99.515961826293221
 11
200.42776012880759
 21
97.015961826293221
  0
LINE
  8
_1-3_1-3___
  6
CONTINUOUS
 62
   18
 10
202.92776012880759
 20
97.015961826293221
 11
202.92776012880759
 21
99.515961826293221
  0
LINE
  8
_1-3_1-3___
  6
CONTINUOUS
 62
   18
 10
202.92776012880759
 20
99.515961826293221
 11
200.42776012880759
 21
99.515961826293221
  0
LINE
  8
_1-3_1-3___
  6
CONTINUOUS
 62
   18
 10
200.42776012880759
 20
53.015961826293236
 11
200.42776012880759
 21
50.515961826293236
  0
LINE
  8
_1-3_1-3___
  6
CONTINUOUS
 62
   18
 10
200.42776012880759
 20
50.515961826293236
 11
202.92776012880759
 21
50.515961826293236
  0
LINE
  8
_1-3_1-3___
  6
CONTINUOUS
 62
   18
 10
202.92776012880759
 20
50.515961826293236
 11
202.92776012880759
 21
53.015961826293236
  0
LINE
  8
_1-3_1-3___
  6
CONTINUOUS
 62
   18
 10
210.42776012880759
 20
53.015961826293236
 11
202.92776012880759
 21
53.015961826293236
  0
LINE
  8
_1-3_1-3___
  6
CONTINUOUS
 62
   18
 10
200.42776012880759
 20
53.015961826293236
 11
192.92776012880759
 21
53.015961826293236
  0
LINE
  8
_1-3_1-3___
  6
CONTINUOUS
 62
   18
 10
210.42776012880759
 20
97.015961826293221
 11
202.92776012880759
 21
97.015961826293221
  0
LINE
  8
_1-3_1-3___
  6
CONTINUOUS
 62
   18
 10
200.42776012880759
 20
97.015961826293221
 11
192.92776012880759
 21
97.015961826293221
  0
LINE
  8
_1-3_1-3___
  6
CONTINUOUS
 62
   18
 10
190.42776012880759
 20
50.515961826293236
 11
190.42776012880759
 21
64.015961826293236
  0
LINE
  8
_1-3_1-3___
  6
CONTINUOUS
 62
   18
 10
190.42776012880759
 20
75.015961826293207
 11
190.42776012880759
 21
86.015961826293207
  0
LINE
  8
_1-3_1-3___
  6
CONTINUOUS
 62
   18
 10
192.92776012880759
 20
53.015961826293236
 11
192.92776012880759
 21
50.515961826293236
  0
LINE
  8
_1-3_1-3___
  6
CONTINUOUS
 62
   18
 10
192.92776012880759
 20
75.015961826293236
 11
192.92776012880759
 21
64.015961826293236
  0
LINE
  8
_1-3_1-3___
  6
CONTINUOUS
 62
   18
 10
192.92776012880759
 20
97.015961826293221
 11
192.92776012880759
 21
86.015961826293236
  0
CIRCLE
  8
_1-3_1-3___
  6
CONTINUOUS
 62
   18
 10
250.38918520705897
 20
114.41344574281533
 40
1.2
  0
CIRCLE
  8
_1-3_1-3___
  6
CONTINUOUS
 62
   18
 10
257.39899978872313
 20
44.662821958907884
 40
1.2
  0
LINE
  8
_1-3_1-3___
  6
CONTINUOUS
 62
   18
 10
268.13918520705897
 20
104.41344574281533
 11
268.13918520705897
 21
54.813445742815318
  0
ARC
  8
_1-3_1-3___
  6
CONTINUOUS
 62
   18
 10
255.13918520705897
 20
104.41344574281533
 40
17
 50
0
 51
90
  0
LINE
  8
_1-3_1-3___
  6
CONTINUOUS
 62
   18
 10
255.13918520705897
 20
121.41344574281533
 11
249.03918520705895
 21
121.41344574281533
  0
LINE
  8
_1-3_1-3___
  6
CONTINUOUS
 62
   18
 10
244.38918520705897
 20
114.41344574281533
 11
244.38918520705897
 21
125.41344574281533
  0
LINE
  8
_1-3_1-3___
  6
CONTINUOUS
 62
   18
 10
244.38918520705897
 20
125.41344574281533
 11
249.03918520705895
 21
125.41344574281533
  0
LINE
  8
_1-3_1-3___
  6
CONTINUOUS
 62
   18
 10
249.03918520705895
 20
125.41344574281533
 11
249.03918520705895
 21
121.41344574281533
  0
ARC
  8
_1-3_1-3___
  6
CONTINUOUS
 62
   18
 10
260.58173140991164
 20
110.27678018917037
 40
5
 50
47.131480788751986
 51
157.91012631490977
  0
ARC
  8
_1-3_1-3___
  6
CONTINUOUS
 62
   18
 10
250.38918520705897
 20
114.41344574281533
 40
6
 50
180
 51
337.9101263149098
  0
ARC
  8
_1-3_1-3___
  6
CONTINUOUS
 62
   18
 10
255.13918520705897
 20
104.41344574281533
 40
13
 50
0
 51
47.131480788751844
  0
ARC
  8
_1-3_1-3___
  6
CONTINUOUS
 62
   18
 10
254.61323364996554
 20
54.813445742815318
 40
17.525951557093421
 50
281.22382485395804
 51
0
  0
LINE
  8
_1-3_1-3___
  6
CONTINUOUS
 62
   18
 10
259.09424548765895
 20
33.724897253314538
 11
258.02452407172848
 21
37.62269021433508
  0
LINE
  8
_1-3_1-3___
  6
CONTINUOUS
 62
   18
 10
259.09424548765895
 20
33.724897253314538
 11
254.5035561761666
 21
32.542224298459786
  0
LINE
  8
_1-3_1-3___
  6
CONTINUOUS
 62
   18
 10
254.5035561761666
 20
32.542224298459786
 11
251.61294402235376
 21
43.074880313738362
  0
ARC
  8
_1-3_1-3___
  6
CONTINUOUS
 62
   18
 10
263.10638676193668
 20
54.066317794925055
 40
5
 50
238.74463138037407
 51
354.97273070375195
  0
ARC
  8
_1-3_1-3___
  6
CONTINUOUS
 62
   18
 10
257.39899978872313
 20
44.662821958907884
 40
6
 50
58.744631380373832
 51
195.34656917041201
  0
ARC
  8
_1-3_1-3___
  6
CONTINUOUS
 62
   18
 10
254.61323364996554
 20
54.813445742815318
 40
13.525951557093421
 50
354.97273070375195
 51
0
  0
CIRCLE
  8
_1-3_1-3___
  6
CONTINUOUS
 62
   18
 10
260.85259553004414
 20
95.033511204325706
 40
1.2
  0
CIRCLE
  8
_1-3_1-3___
  6
CONTINUOUS
 62
   18
 10
253.84278094838001
 20
25.282887420418263
 40
1.2
  0
LINE
  8
_1-3_1-3___
  6
CONTINUOUS
 62
   18
 10
243.10259553004417
 20
85.033511204325706
 11
243.10259553004417
 21
35.433511204325697
  0
ARC
  8
_1-3_1-3___
  6
CONTINUOUS
 62
   18
 10
256.10259553004414
 20
85.033511204325706
 40
17
 50
90
 51
180
  0
LINE
  8
_1-3_1-3___
  6
CONTINUOUS
 62
   18
 10
256.10259553004414
 20
102.03351120432571
 11
262.20259553004416
 21
102.03351120432571
  0
LINE
  8
_1-3_1-3___
  6
CONTINUOUS
 62
   18
 10
266.85259553004414
 20
95.033511204325706
 11
266.85259553004414
 21
106.03351120432569
  0
LINE
  8
_1-3_1-3___
  6
CONTINUOUS
 62
   18
 10
266.85259553004414
 20
106.03351120432569
 11
262.20259553004416
 21
106.03351120432569
  0
LINE
  8
_1-3_1-3___
  6
CONTINUOUS
 62
   18
 10
262.20259553004416
 20
106.03351120432569
 11
262.20259553004416
 21
102.03351120432571
  0
ARC
  8
_1-3_1-3___
  6
CONTINUOUS
 62
   18
 10
250.66004932719144
 20
90.896845650680731
 40
5
 50
22.089873685090211
 51
132.86851921124801
  0
ARC
  8
_1-3_1-3___
  6
CONTINUOUS
 62
   18
 10
260.85259553004414
 20
95.033511204325706
 40
6
 50
202.0898736850902
 51
0
  0
ARC
  8
_1-3_1-3___
  6
CONTINUOUS
 62
   18
 10
256.10259553004414
 20
85.033511204325706
 40
13
 50
132.86851921124816
 51
180
  0
ARC
  8
_1-3_1-3___
  6
CONTINUOUS
 62
   18
 10
256.62854708713758
 20
35.433511204325697
 40
17.525951557093421
 50
180
 51
258.77617514604196
  0
LINE
  8
_1-3_1-3___
  6
CONTINUOUS
 62
   18
 10
252.14753524944419
 20
14.344962714824931
 11
253.21725666537466
 21
18.242755675845444
  0
LINE
  8
_1-3_1-3___
  6
CONTINUOUS
 62
   18
 10
252.14753524944419
 20
14.344962714824931
 11
256.73822456093654
 21
13.162289759970179
  0
LINE
  8
_1-3_1-3___
  6
CONTINUOUS
 62
   18
 10
256.73822456093654
 20
13.162289759970179
 11
259.62883671474935
 21
23.69494577524874
  0
ARC
  8
_1-3_1-3___
  6
CONTINUOUS
 62
   18
 10
248.13539397516647
 20
34.686383256435434
 40
5
 50
185.02726929624808
 51
301.25536861962593
  0
ARC
  8
_1-3_1-3___
  6
CONTINUOUS
 62
   18
 10
253.84278094838001
 20
25.282887420418263
 40
6
 50
344.65343082958799
 51
121.25536861962617
  0
ARC
  8
_1-3_1-3___
  6
CONTINUOUS
 62
   18
 10
256.62854708713758
 20
35.433511204325697
 40
13.525951557093421
 50
180
 51
185.02726929624808
  0
LINE
  8
_1-3_1-3___
  6
CONTINUOUS
 62
   18
 10
233.37289293303076
 20
122.15238503056976
 11
235.87289293303076
 21
122.15238503056976
  0
LINE
  8
_1-3_1-3___
  6
CONTINUOUS
 62
   18
 10
225.87289293303076
 20
86.652385030569775
 11
225.87289293303076
 21
109.65238503056977
  0
LINE
  8
_1-3_1-3___
  6
CONTINUOUS
 62
   18
 10
215.87289293303076
 20
75.652385030569775
 11
215.87289293303076
 21
76.652385030569775
  0
LINE
  8
_1-3_1-3___
  6
CONTINUOUS
 62
   18
 10
215.87289293303076
 20
118.65238503056977
 11
215.87289293303076
 21
119.65238503056977
  0
ARC
  8
_1-3_1-3___
  6
CONTINUOUS
 62
   18
 10
215.87289293303076
 20
86.652385030569803
 40
10
 50
270
 51
0
  0
ARC
  8
_1-3_1-3___
  6
CONTINUOUS
 62
   18
 10
215.87289293303076
 20
108.65238503056977
 40
10
 50
0
 51
90
  0
LINE
  8
_1-3_1-3___
  6
CONTINUOUS
 62
   18
 10
233.37289293303076
 20
108.65238503056977
 11
235.87289293303076
 21
108.65238503056977
  0
LINE
  8
_1-3_1-3___
  6
CONTINUOUS
 62
   18
 10
233.37289293303076
 20
97.652385030569775
 11
235.87289293303076
 21
97.652385030569775
  0
LINE
  8
_1-3_1-3___
  6
CONTINUOUS
 62
   18
 10
233.37289293303076
 20
86.652385030569775
 11
235.87289293303076
 21
86.652385030569775
  0
LINE
  8
_1-3_1-3___
  6
CONTINUOUS
 62
   18
 10
225.87289293303076
 20
73.152385030569775
 11
225.87289293303076
 21
75.652385030569775
  0
LINE
  8
_1-3_1-3___
  6
CONTINUOUS
 62
   18
 10
223.37289293303076
 20
75.652385030569775
 11
223.37289293303076
 21
73.152385030569775
  0
LINE
  8
_1-3_1-3___
  6
CONTINUOUS
 62
   18
 10
223.37289293303076
 20
73.152385030569775
 11
225.87289293303076
 21
73.152385030569775
  0
LINE
  8
_1-3_1-3___
  6
CONTINUOUS
 62
   18
 10
225.87289293303076
 20
119.65238503056977
 11
225.87289293303076
 21
122.15238503056976
  0
LINE
  8
_1-3_1-3___
  6
CONTINUOUS
 62
   18
 10
225.87289293303076
 20
122.15238503056976
 11
223.37289293303076
 21
122.15238503056976
  0
LINE
  8
_1-3_1-3___
  6
CONTINUOUS
 62
   18
 10
223.37289293303076
 20
122.15238503056976
 11
223.37289293303076
 21
119.65238503056977
  0
LINE
  8
_1-3_1-3___
  6
CONTINUOUS
 62
   18
 10
215.87289293303076
 20
119.65238503056977
 11
223.37289293303076
 21
119.65238503056977
  0
LINE
  8
_1-3_1-3___
  6
CONTINUOUS
 62
   18
 10
225.87289293303076
 20
119.65238503056977
 11
233.37289293303076
 21
119.65238503056977
  0
LINE
  8
_1-3_1-3___
  6
CONTINUOUS
 62
   18
 10
215.87289293303076
 20
75.652385030569775
 11
223.37289293303076
 21
75.652385030569775
  0
LINE
  8
_1-3_1-3___
  6
CONTINUOUS
 62
   18
 10
225.87289293303076
 20
75.652385030569775
 11
233.37289293303076
 21
75.652385030569775
  0
LINE
  8
_1-3_1-3___
  6
CONTINUOUS
 62
   18
 10
235.87289293303076
 20
122.15238503056976
 11
235.87289293303076
 21
108.65238503056977
  0
LINE
  8
_1-3_1-3___
  6
CONTINUOUS
 62
   18
 10
235.87289293303076
 20
97.652385030569775
 11
235.87289293303076
 21
86.652385030569775
  0
LINE
  8
_1-3_1-3___
  6
CONTINUOUS
 62
   18
 10
233.37289293303076
 20
119.65238503056977
 11
233.37289293303076
 21
122.15238503056976
  0
LINE
  8
_1-3_1-3___
  6
CONTINUOUS
 62
   18
 10
233.37289293303076
 20
97.652385030569775
 11
233.37289293303076
 21
108.65238503056977
  0
LINE
  8
_1-3_1-3___
  6
CONTINUOUS
 62
   18
 10
233.37289293303076
 20
75.652385030569775
 11
233.37289293303076
 21
86.652385030569775
  0
LINE
  8
_1-3_1-3___
  6
CONTINUOUS
 62
   18
 10
220.05589606128927
 20
72.291071161956609
 11
222.55589606128927
 21
72.291071161956609
  0
LINE
  8
_1-3_1-3___
  6
CONTINUOUS
 62
   18
 10
212.55589606128927
 20
36.791071161956623
 11
212.55589606128927
 21
59.791071161956623
  0
LINE
  8
_1-3_1-3___
  6
CONTINUOUS
 62
   18
 10
202.55589606128927
 20
25.791071161956623
 11
202.55589606128927
 21
26.791071161956623
  0
LINE
  8
_1-3_1-3___
  6
CONTINUOUS
 62
   18
 10
202.55589606128927
 20
68.791071161956623
 11
202.55589606128927
 21
69.791071161956623
  0
ARC
  8
_1-3_1-3___
  6
CONTINUOUS
 62
   18
 10
202.55589606128927
 20
36.791071161956651
 40
10
 50
270
 51
0
  0
ARC
  8
_1-3_1-3___
  6
CONTINUOUS
 62
   18
 10
202.55589606128927
 20
58.791071161956623
 40
10
 50
0
 51
90
  0
LINE
  8
_1-3_1-3___
  6
CONTINUOUS
 62
   18
 10
220.05589606128927
 20
58.791071161956623
 11
222.55589606128927
 21
58.791071161956623
  0
LINE
  8
_1-3_1-3___
  6
CONTINUOUS
 62
   18
 10
220.05589606128927
 20
47.791071161956623
 11
222.55589606128927
 21
47.791071161956623
  0
LINE
  8
_1-3_1-3___
  6
CONTINUOUS
 62
   18
 10
220.05589606128927
 20
36.791071161956623
 11
222.55589606128927
 21
36.791071161956623
  0
LINE
  8
_1-3_1-3___
  6
CONTINUOUS
 62
   18
 10
212.55589606128927
 20
23.291071161956623
 11
212.55589606128927
 21
25.791071161956623
  0
LINE
  8
_1-3_1-3___
  6
CONTINUOUS
 62
   18
 10
210.05589606128927
 20
25.791071161956623
 11
210.05589606128927
 21
23.291071161956623
  0
LINE
  8
_1-3_1-3___
  6
CONTINUOUS
 62
   18
 10
210.05589606128927
 20
23.291071161956623
 11
212.55589606128927
 21
23.291071161956623
  0
LINE
  8
_1-3_1-3___
  6
CONTINUOUS
 62
   18
 10
212.55589606128927
 20
69.791071161956623
 11
212.55589606128927
 21
72.291071161956609
  0
LINE
  8
_1-3_1-3___
  6
CONTINUOUS
 62
   18
 10
212.55589606128927
 20
72.291071161956609
 11
210.05589606128927
 21
72.291071161956609
  0
LINE
  8
_1-3_1-3___
  6
CONTINUOUS
 62
   18
 10
210.05589606128927
 20
72.291071161956609
 11
210.05589606128927
 21
69.791071161956623
  0
LINE
  8
_1-3_1-3___
  6
CONTINUOUS
 62
   18
 10
202.55589606128927
 20
69.791071161956623
 11
210.05589606128927
 21
69.791071161956623
  0
LINE
  8
_1-3_1-3___
  6
CONTINUOUS
 62
   18
 10
212.55589606128927
 20
69.791071161956623
 11
220.05589606128927
 21
69.791071161956623
  0
LINE
  8
_1-3_1-3___
  6
CONTINUOUS
 62
   18
 10
202.55589606128927
 20
25.791071161956623
 11
210.05589606128927
 21
25.791071161956623
  0
LINE
  8
_1-3_1-3___
  6
CONTINUOUS
 62
   18
 10
212.55589606128927
 20
25.791071161956623
 11
220.05589606128927
 21
25.791071161956623
  0
LINE
  8
_1-3_1-3___
  6
CONTINUOUS
 62
   18
 10
222.55589606128927
 20
72.291071161956609
 11
222.55589606128927
 21
58.791071161956623
  0
LINE
  8
_1-3_1-3___
  6
CONTINUOUS
 62
   18
 10
222.55589606128927
 20
47.791071161956623
 11
222.55589606128927
 21
36.791071161956623
  0
LINE
  8
_1-3_1-3___
  6
CONTINUOUS
 62
   18
 10
220.05589606128927
 20
69.791071161956623
 11
220.05589606128927
 21
72.291071161956609
  0
LINE
  8
_1-3_1-3___
  6
CONTINUOUS
 62
   18
 10
220.05589606128927
 20
47.791071161956623
 11
220.05589606128927
 21
58.791071161956623
  0
LINE
  8
_1-3_1-3___
  6
CONTINUOUS
 62
   18
 10
220.05589606128927
 20
25.791071161956623
 11
220.05589606128927
 21
36.791071161956623
  0
LINE
  8
_1-3_1-3___
  6
CONTINUOUS
 62
   18
 10
233.77885797306908
 20
21.988742398355313
 11
233.77885797306908
 21
70.988742398355271
  0
LINE
  8
_1-3_1-3___
  6
CONTINUOUS
 62
   18
 10
223.77885797306908
 20
25.488742398355313
 11
223.77885797306908
 21
24.488742398355313
  0
LINE
  8
_1-3_1-3___
  6
CONTINUOUS
 62
   18
 10
223.77885797306905
 20
67.488742398355271
 11
223.77885797306905
 21
68.488742398355271
  0
LINE
  8
_1-3_1-3___
  6
CONTINUOUS
 62
   18
 10
233.77885797306908
 20
21.988742398355313
 11
231.27885797306908
 21
21.988742398355313
  0
LINE
  8
_1-3_1-3___
  6
CONTINUOUS
 62
   18
 10
233.77885797306908
 20
70.988742398355271
 11
231.27885797306908
 21
70.988742398355271
  0
LINE
  8
_1-3_1-3___
  6
CONTINUOUS
 62
   18
 10
231.27885797306908
 20
21.988742398355313
 11
231.27885797306908
 21
24.488742398355313
  0
LINE
  8
_1-3_1-3___
  6
CONTINUOUS
 62
   18
 10
223.77885797306908
 20
24.488742398355313
 11
231.27885797306908
 21
24.488742398355313
  0
LINE
  8
_1-3_1-3___
  6
CONTINUOUS
 62
   18
 10
231.27885797306908
 20
70.988742398355271
 11
231.27885797306908
 21
68.488742398355271
  0
LINE
  8
_1-3_1-3___
  6
CONTINUOUS
 62
   18
 10
223.77885797306905
 20
68.488742398355271
 11
231.27885797306908
 21
68.488742398355271
  0
LINE
  8
_1-3_1-3___
  6
CONTINUOUS
 62
   18
 10
227.77885797306908
 20
62.906166703399435
 11
227.77885797306908
 21
30.071318093311135
  0
ARC
  8
_1-3_1-3___
  6
CONTINUOUS
 62
   18
 10
222.77885797306908
 20
30.387721883921643
 40
5
 50
281.5369590328155
 51
356.37910771743947
  0
ARC
  8
_1-3_1-3___
  6
CONTINUOUS
 62
   18
 10
222.77885797306905
 20
62.589762912788927
 40
5
 50
3.6208922825605101
 51
78.46304096718444
  0
ARC
  8
_1-3_1-3___
  6
CONTINUOUS
 62
   18
 10
237.10259553004417
 20
66.1335112043257
 40
2
 50
90
 51
180
  0
LINE
  8
_1-3_1-3___
  6
CONTINUOUS
 62
   18
 10
235.10259553004417
 20
40.533511204325691
 11
235.10259553004417
 21
66.1335112043257
  0
ARC
  8
_1-3_1-3___
  6
CONTINUOUS
 62
   18
 10
237.10259553004417
 20
40.533511204325691
 40
2
 50
180
 51
270
  0
ARC
  8
_1-3_1-3___
  6
CONTINUOUS
 62
   18
 10
274.13918520705897
 20
59.913445742815313
 40
2
 50
270
 51
0
  0
LINE
  8
_1-3_1-3___
  6
CONTINUOUS
 62
   18
 10
276.13918520705897
 20
85.513445742815321
 11
276.13918520705897
 21
59.913445742815313
  0
ARC
  8
_1-3_1-3___
  6
CONTINUOUS
 62
   18
 10
274.13918520705897
 20
85.513445742815321
 40
2
 50
0
 51
90
  0
LINE
  8
_1-3_1-3___
  6
CONTINUOUS
 62
   18
 10
272.13918520705897
 20
104.41344574281533
 11
272.13918520705897
 21
87.513445742815321
  0
LINE
  8
_1-3_1-3___
  6
CONTINUOUS
 62
   18
 10
274.13918520705897
 20
87.513445742815321
 11
272.13918520705897
 21
87.513445742815321
  0
LINE
  8
_1-3_1-3___
  6
CONTINUOUS
 62
   18
 10
274.13918520705897
 20
57.913445742815313
 11
272.13918520705897
 21
57.913445742815313
  0
LINE
  8
_1-3_1-3___
  6
CONTINUOUS
 62
   18
 10
272.13918520705897
 20
57.913445742815313
 11
272.13918520705897
 21
54.813445742815318
  0
LINE
  8
_1-3_1-3___
  6
CONTINUOUS
 62
   18
 10
237.10259553004417
 20
68.1335112043257
 11
239.10259553004417
 21
68.1335112043257
  0
LINE
  8
_1-3_1-3___
  6
CONTINUOUS
 62
   18
 10
239.10259553004417
 20
85.033511204325706
 11
239.10259553004417
 21
68.1335112043257
  0
LINE
  8
_1-3_1-3___
  6
CONTINUOUS
 62
   18
 10
237.10259553004417
 20
38.533511204325691
 11
239.10259553004417
 21
38.533511204325691
  0
LINE
  8
_1-3_1-3___
  6
CONTINUOUS
 62
   18
 10
239.10259553004417
 20
38.533511204325691
 11
239.10259553004417
 21
35.433511204325697
  0
ENDSEC
  0
EOF
