  0
SECTION
  2
HEADER
  9
$ACADVER
  1
AC1009
  9
$INSBASE
 10
0
 20
0
 30
0
  9
$EXTMIN
 10
0
 20
0
  9
$EXTMAX
 10
420
 20
297
  9
$LIMMIN
 10
0
 20
0
  9
$LIMMAX
 10
420
 20
297
  9
$LTSCALE
 40
1
  0
ENDSEC
  0
SECTION
  2
TABLES
  0
TABLE
  2
LTYPE
 70
     9
  0
LTYPE
  2
CONTINUOUS
 70
    64
  3
実線
 72
    65
 73
     0
 40
0.0
  0
LTYPE
  2
DASHED1
 70
    64
  3
--  --  --  --  --  --  --  --  
 72
    65
 73
     2
 40
2.5
 49
1.25
 49
-1.25
  0
LTYPE
  2
DASHED2
 70
    64
  3
----    ----    ----    ----    
 72
    65
 73
     2
 40
5.0
 49
2.5
 49
-2.5
  0
LTYPE
  2
DASHED3
 70
    64
  3
------  ------  ------  ------  
 72
    65
 73
     2
 40
5.0
 49
3.75
 49
-1.25
  0
LTYPE
  2
CENTER1
 70
    64
  3
----- - ----- - ----- - ----- - 
 72
    65
 73
     4
 40
10.0
 49
6.25
 49
-1.25
 49
1.25
 49
-1.25
  0
LTYPE
  2
CENTER2
 70
    64
  3
----------  --  ----------  --  
 72
    65
 73
     4
 40
20.0
 49
12.5
 49
-2.5
 49
2.5
 49
-2.5
  0
LTYPE
  2
PHANTOM1
 70
    64
  3
--- - - --- - - --- - - --- - - 
 72
    65
 73
     6
 40
10.0
 49
3.25
 49
-1.25
 49
1.25
 49
-1.25
 49
1.25
 49
-1.25
  0
LTYPE
  2
PHANTOM2
 70
    64
  3
--------  -  -  --------  -  -  
 72
    65
 73
     6
 40
20.0
 49
10.0
 49
-2.5
 49
1.25
 49
-2.5
 49
1.25
 49
-2.5
  0
LTYPE
  2
DOT
 70
    64
  3
-   -   -   -   -   -   -   -   
 72
    65
 73
     2
 40
2.5
 49
0.625
 49
-1.875
  0
LTYPE
  2
DUMMY
 70
    64
  3
ダミー
 72
    65
 73
     0
 40
0.0
  0
LTYPE
  2
RAND1
 70
    64
  3
ランダム線1
 72
    65
 73
     4
 40
10.0
 49
1.0
 49
-2.0
 49
3.0
 49
-4.0
  0
LTYPE
  2
RAND2
 70
    64
  3
ランダム線2
 72
    65
 73
     4
 40
14.0
 49
2.0
 49
-3.0
 49
4.0
 49
-5.0
  0
LTYPE
  2
RAND3
 70
    64
  3
ランダム線3
 72
    65
 73
     4
 40
18.0
 49
3.0
 49
-4.0
 49
5.0
 49
-6.0
  0
LTYPE
  2
RAND4
 70
    64
  3
ランダム線4
 72
    65
 73
     4
 40
22.0
 49
4.0
 49
-5.0
 49
6.0
 49
-7.0
  0
LTYPE
  2
RAND5
 70
    64
  3
ランダム線5
 72
    65
 73
     4
 40
26.0
 49
5.0
 49
-6.0
 49
7.0
 49
-8.0
  0
LTYPE
  2
LONG1
 70
    64
  3
----------  --  ----------  --  
 72
    65
 73
     4
 40
40.0
 49
32.5
 49
-2.5
 49
2.5
 49
-2.5
  0
LTYPE
  2
LONG2
 70
    64
  3
--------  -  -  --------  -  -  
 72
    65
 73
     6
 40
40.0
 49
30.0
 49
-2.5
 49
1.25
 49
-2.5
 49
1.25
 49
-2.5
  0
LTYPE
  2
LONG3
 70
    64
  3
+++++++++++++++..+++++++++++++++
 72
    65
 73
     2
 40
40.0
 49
37.5
 49
-2.5
  0
LTYPE
  2
LONG4
 70
    64
  3
+++++++++++++++..+++++++++++++++
 72
    65
 73
     2
 40
80.0
 49
75.0
 49
-5.0
  0
LTYPE
  2
LONG5
 70
    64
  3
----------  --  ----------  --  
 72
    65
 73
     4
 40
60.0
 49
37.5
 49
-7.5
 49
7.5
 49
-7.5
  0
LTYPE
  2
dashed
 70
   64
  3
-------   -------------   ------
 72
   65
 73
    2
 40
7.5
 49
6
 49
-1.5
  0
LTYPE
  2
dashed_spaced
 70
   64
  3
----        --------        ----
 72
   65
 73
    2
 40
12
 49
6
 49
-6
  0
LTYPE
  2
long_dashed_dotted
 70
   64
  3
------------- --- --------------
 72
   65
 73
    4
 40
15.25
 49
12
 49
-1.5
 49
0.25
 49
-1.5
  0
LTYPE
  2
long_dashed_double-dotted
 70
   64
  3
----------- --- --- ------------
 72
   65
 73
    6
 40
17
 49
12
 49
-1.5
 49
0.25
 49
-1.5
 49
0.25
 49
-1.5
  0
LTYPE
  2
long_dashed_triplicate-dotted
 70
   64
  3
--------- --- --- --- ----------
 72
   65
 73
    8
 40
18.75
 49
12
 49
-1.5
 49
0.25
 49
-1.5
 49
0.25
 49
-1.5
 49
0.25
 49
-1.5
  0
LTYPE
  2
dotted
 70
   64
  3
   -       -       -       -    
 72
   65
 73
    2
 40
1.75
 49
0.25
 49
-1.5
  0
LTYPE
  2
chain
 70
   64
  3
-------------- -- --------------
 72
   65
 73
    4
 40
18.5
 49
12
 49
-1.5
 49
3.5
 49
-1.5
  0
LTYPE
  2
chain_double_dash
 70
   64
  3
------------ -- -- -------------
 72
   65
 73
    6
 40
23.5
 49
12
 49
-1.5
 49
3.5
 49
-1.5
 49
3.5
 49
-1.5
  0
LTYPE
  2
dashed_dotted
 70
   64
  3
-----------     -     ----------
 72
   65
 73
    4
 40
9.25
 49
6
 49
-1.5
 49
0.25
 49
-1.5
  0
LTYPE
  2
double-dashed_dotted
 70
   64
  3
------   -----------   -   -----
 72
   65
 73
    6
 40
16.75
 49
6
 49
-1.5
 49
6
 49
-1.5
 49
0.25
 49
-1.5
  0
LTYPE
  2
dashed_double-dotted
 70
   64
  3
---------    -    -    ---------
 72
   65
 73
    6
 40
11
 49
6
 49
-1.5
 49
0.25
 49
-1.5
 49
0.25
 49
-1.5
  0
LTYPE
  2
double-dashed_double-dotted
 70
   64
  3
-----   ---------   -   -   ----
 72
   65
 73
    8
 40
18.5
 49
6
 49
-1.5
 49
6
 49
-1.5
 49
0.25
 49
-1.5
 49
0.25
 49
-1.5
  0
LTYPE
  2
dashed_triplicate-dotted
 70
   64
  3
-------    -    -    -    ------
 72
   65
 73
    8
 40
12.75
 49
6
 49
-1.5
 49
0.25
 49
-1.5
 49
0.25
 49
-1.5
 49
0.25
 49
-1.5
  0
LTYPE
  2
double-dashed_triplicate-dotted
 70
   64
  3
-----  ---------  -  -  -  -----
 72
   65
 73
   10
 40
20.25
 49
6
 49
-1.5
 49
6
 49
-1.5
 49
0.25
 49
-1.5
 49
0.25
 49
-1.5
 49
0.25
 49
-1.5
  0
LTYPE
  2
undefined
 70
   64
  3
--------------------------------
 72
   65
 73
    0
 40
0
  0
LTYPE
  2
_
 70
   64
  3
                                
 72
   65
 73
    0
 40
0
  0
LTYPE
  2
__18
 70
   64
  3
                                
 72
   65
 73
    0
 40
0
  0
LTYPE
  2
__19
 70
   64
  3
                                
 72
   65
 73
    0
 40
0
  0
LTYPE
  2
__20
 70
   64
  3
                                
 72
   65
 73
    0
 40
0
  0
LTYPE
  2
__21
 70
   64
  3
                                
 72
   65
 73
    0
 40
0
  0
LTYPE
  2
__22
 70
   64
  3
                                
 72
   65
 73
    0
 40
0
  0
LTYPE
  2
__23
 70
   64
  3
                                
 72
   65
 73
    0
 40
0
  0
LTYPE
  2
__24
 70
   64
  3
                                
 72
   65
 73
    0
 40
0
  0
LTYPE
  2
__25
 70
   64
  3
                                
 72
   65
 73
    0
 40
0
  0
LTYPE
  2
__26
 70
   64
  3
                                
 72
   65
 73
    0
 40
0
  0
LTYPE
  2
__27
 70
   64
  3
                                
 72
   65
 73
    0
 40
0
  0
LTYPE
  2
__28
 70
   64
  3
                                
 72
   65
 73
    0
 40
0
  0
LTYPE
  2
__29
 70
   64
  3
                                
 72
   65
 73
    0
 40
0
  0
LTYPE
  2
__30
 70
   64
  3
                                
 72
   65
 73
    0
 40
0
  0
LTYPE
  2
__31
 70
   64
  3
                                
 72
   65
 73
    0
 40
0
  0
LTYPE
  2
__32
 70
   64
  3
                                
 72
   65
 73
    0
 40
0
  0
ENDTAB
  0
TABLE
  2
STYLE
  5
3
100
AcDbSymbolTable
 70
     1
  0
STYLE
  5
10
100
AcDbSymbolTableRecord
100
AcDbTextStyleTableRecord
  2
STANDARD
 70
     0
 40
0.0
 41
1.0
 50
0.0
 71
     0
 42
0.2
  3
txt
  4
bigfont.shx
  0
STYLE
  5
26
100
AcDbSymbolTableRecord
100
AcDbTextStyleTableRecord
  2
TATEGAKI
 70
    68
 40
0.0
 41
1.0
 50
0.0
 71
     0
 42
1.0
  3
txt
  4
bigfont.shx
  0
ENDTAB
  0
TABLE
  2
LAYER
 70
    2
  0
LAYER
  2
_0-7_外形7_7_
 70
   64
 62
    7
  6
CONTINUOUS
  0
LAYER
  2
ADD_LINE
 70
   64
 62
    7
  6
CONTINUOUS
  0
ENDTAB
  0
ENDSEC
  0
SECTION
  2
BLOCKS
  0
ENDSEC
  0
SECTION
  2
ENTITIES
  0
ARC
  8
_0-7_外形7_7_
  6
CONTINUOUS
 62
   18
 10
39.976016684045874
 20
38.8670490093848
 40
6
 50
29.999999999999932
 51
150.00000000000003
  0
ARC
  8
_0-7_外形7_7_
  6
CONTINUOUS
 62
   18
 10
33.913838857554822
 20
42.3670490093848
 40
1
 50
270
 51
329.99999999999989
  0
ARC
  8
_0-7_外形7_7_
  6
CONTINUOUS
 62
   18
 10
46.038194510536982
 20
42.3670490093848
 40
1
 50
210.00000000000011
 51
270
  0
ARC
  8
_0-7_外形7_7_
  6
CONTINUOUS
 62
   18
 10
46.038194510536954
 20
35.3670490093848
 40
1
 50
90
 51
149.99999999999989
  0
ARC
  8
_0-7_外形7_7_
  6
CONTINUOUS
 62
   18
 10
39.976016684045874
 20
38.8670490093848
 40
6
 50
210.00000000000003
 51
329.99999999999994
  0
ARC
  8
_0-7_外形7_7_
  6
CONTINUOUS
 62
   18
 10
33.913838857554822
 20
35.3670490093848
 40
1
 50
30.000000000000146
 51
90
  0
CIRCLE
  8
_0-7_外形7_7_
  6
CONTINUOUS
 62
   18
 10
69.674501493880882
 20
68.565533819219795
 40
2.2999999999999998
  0
CIRCLE
  8
_0-7_外形7_7_
  6
CONTINUOUS
 62
   18
 10
10.277531874210865
 20
68.565533819219795
 40
2.2999999999999998
  0
CIRCLE
  8
_0-7_外形7_7_
  6
CONTINUOUS
 62
   18
 10
10.277531874210865
 20
9.1685641995497917
 40
2.2999999999999998
  0
CIRCLE
  8
_0-7_外形7_7_
  6
CONTINUOUS
 62
   18
 10
69.674501493880882
 20
9.1685641995497917
 40
2.2999999999999998
  0
ARC
  8
_0-7_外形7_7_
  6
CONTINUOUS
 62
   18
 10
10.277531874210865
 20
9.1685641995497917
 40
5
 50
135
 51
315
  0
ARC
  8
_0-7_外形7_7_
  6
CONTINUOUS
 62
   18
 10
69.674501493880882
 20
68.565533819219795
 40
5
 50
315
 51
134.99999999999997
  0
ARC
  8
_0-7_外形7_7_
  6
CONTINUOUS
 62
   18
 10
10.277531874210865
 20
68.565533819219795
 40
5
 50
45.000000000000028
 51
224.99999999999997
  0
ARC
  8
_0-7_外形7_7_
  6
CONTINUOUS
 62
   18
 10
69.674501493880882
 20
9.1685641995497917
 40
5
 50
225
 51
45
  0
LINE
  8
_0-7_外形7_7_
  6
CONTINUOUS
 62
   18
 10
6.7419979682781559
 20
65.029999913287057
 11
10.602042422704699
 21
61.169955458860514
  0
ARC
  8
_0-7_外形7_7_
  6
CONTINUOUS
 62
   18
 10
3.5309746108392233
 20
54.098887646995038
 40
10
 50
337.31800194717198
 51
44.999999999999986
  0
LINE
  8
_0-7_外形7_7_
  6
CONTINUOUS
 62
   18
 10
13.813065780143631
 20
72.101067725152532
 11
17.673110234570174
 21
68.241023270725989
  0
ARC
  8
_0-7_外形7_7_
  6
CONTINUOUS
 62
   18
 10
24.74417804643565
 20
75.312091082591465
 40
10
 50
225
 51
292.68199805282802
  0
LINE
  8
_0-7_外形7_7_
  6
CONTINUOUS
 62
   18
 10
66.138967587948144
 20
72.101067725152532
 11
62.278923133521602
 21
68.241023270725989
  0
ARC
  8
_0-7_外形7_7_
  6
CONTINUOUS
 62
   18
 10
39.976016684045874
 20
38.8670490093848
 40
29.5
 50
67.318001947171965
 51
112.68199805282805
  0
ARC
  8
_0-7_外形7_7_
  6
CONTINUOUS
 62
   18
 10
55.207855321656126
 20
75.312091082591465
 40
10
 50
247.31800194717198
 51
315
  0
LINE
  8
_0-7_外形7_7_
  6
CONTINUOUS
 62
   18
 10
73.21003539981362
 20
65.029999913287057
 11
69.349990945387077
 21
61.169955458860514
  0
ARC
  8
_0-7_外形7_7_
  6
CONTINUOUS
 62
   18
 10
76.421058757252553
 20
54.098887646995038
 40
10
 50
135.00000000000003
 51
202.68199805282802
  0
LINE
  8
_0-7_外形7_7_
  6
CONTINUOUS
 62
   18
 10
69.349990945387049
 20
16.564142559909072
 11
73.210035399813592
 21
12.704098105482529
  0
ARC
  8
_0-7_外形7_7_
  6
CONTINUOUS
 62
   18
 10
39.976016684045874
 20
38.8670490093848
 40
29.5
 50
337.31800194717192
 51
22.681998052828021
  0
ARC
  8
_0-7_外形7_7_
  6
CONTINUOUS
 62
   18
 10
76.421058757252524
 20
23.635210371774548
 40
10
 50
157.31800194717195
 51
225
  0
LINE
  8
_0-7_外形7_7_
  6
CONTINUOUS
 62
   18
 10
62.278923133521573
 20
9.4930747480435969
 11
66.138967587948116
 21
5.633030293617054
  0
ARC
  8
_0-7_外形7_7_
  6
CONTINUOUS
 62
   18
 10
55.207855321656098
 20
2.4220069361781498
 40
10
 50
44.999999999999972
 51
112.68199805282799
  0
LINE
  8
_0-7_外形7_7_
  6
CONTINUOUS
 62
   18
 10
10.602042422704699
 20
16.564142559909101
 11
6.7419979682781559
 21
12.704098105482529
  0
ARC
  8
_0-7_外形7_7_
  6
CONTINUOUS
 62
   18
 10
39.976016684045874
 20
38.8670490093848
 40
29.5
 50
157.31800194717198
 51
202.68199805282805
  0
ARC
  8
_0-7_外形7_7_
  6
CONTINUOUS
 62
   18
 10
3.5309746108392233
 20
23.635210371774562
 40
10
 50
315
 51
22.681998052828021
  0
LINE
  8
_0-7_外形7_7_
  6
CONTINUOUS
 62
   18
 10
17.673110234570174
 20
9.4930747480435969
 11
13.813065780143631
 21
5.633030293617054
  0
ARC
  8
_0-7_外形7_7_
  6
CONTINUOUS
 62
   18
 10
39.976016684045874
 20
38.8670490093848
 40
29.5
 50
247.31800194717198
 51
292.68199805282802
  0
ARC
  8
_0-7_外形7_7_
  6
CONTINUOUS
 62
   18
 10
24.74417804643565
 20
2.4220069361781214
 40
10
 50
67.318001947171979
 51
135.00000000000003
  0
ARC
  8
_0-7_外形7_7_
  6
CONTINUOUS
 62
   18
 10
17.420529546765948
 20
34.3670490093848
 40
2
 50
90
 51
191.28282428796908
  0
ARC
  8
_0-7_外形7_7_
  6
CONTINUOUS
 62
   18
 10
17.420529546765948
 20
43.3670490093848
 40
2
 50
168.71717571203092
 51
270
  0
ARC
  8
_0-7_外形7_7_
  6
CONTINUOUS
 62
   18
 10
39.976016684045874
 20
38.8670490093848
 40
25
 50
11.282824287969106
 51
168.71717571203089
  0
ARC
  8
_0-7_外形7_7_
  6
CONTINUOUS
 62
   18
 10
62.531503821325799
 20
43.3670490093848
 40
2
 50
270
 51
11.282824287969081
  0
ARC
  8
_0-7_外形7_7_
  6
CONTINUOUS
 62
   18
 10
39.976016684045874
 20
38.8670490093848
 40
25
 50
191.28282428796911
 51
348.71717571203089
  0
ARC
  8
_0-7_外形7_7_
  6
CONTINUOUS
 62
   18
 10
62.531503821325799
 20
34.3670490093848
 40
2
 50
348.71717571203089
 51
90
  0
LINE
  8
_0-7_外形7_7_
  6
CONTINUOUS
 62
   18
 10
17.420529546765948
 20
41.3670490093848
 11
20.890682000053573
 21
41.3670490093848
  0
ARC
  8
_0-7_外形7_7_
  6
CONTINUOUS
 62
   18
 10
20.890682000053573
 20
42.8670490093848
 40
1.5
 50
270
 51
348.16299584410643
  0
LINE
  8
_0-7_外形7_7_
  6
CONTINUOUS
 62
   18
 10
17.420529546765948
 20
36.3670490093848
 11
20.890682000053573
 21
36.3670490093848
  0
ARC
  8
_0-7_外形7_7_
  6
CONTINUOUS
 62
   18
 10
20.890682000053573
 20
34.8670490093848
 40
1.5
 50
11.837004155893577
 51
90
  0
ARC
  8
_0-7_外形7_7_
  6
CONTINUOUS
 62
   18
 10
27.606699807192911
 20
34.8670490093848
 40
1.5
 50
90
 51
197.92021313939225
  0
ARC
  8
_0-7_外形7_7_
  6
CONTINUOUS
 62
   18
 10
27.606699807192911
 20
42.8670490093848
 40
1.5
 50
162.07978686060764
 51
270
  0
ARC
  8
_0-7_外形7_7_
  6
CONTINUOUS
 62
   18
 10
39.976016684045874
 20
38.867049009384786
 40
14.5
 50
17.920213139392338
 51
162.07978686060767
  0
ARC
  8
_0-7_外形7_7_
  6
CONTINUOUS
 62
   18
 10
52.345333560898865
 20
42.8670490093848
 40
1.5
 50
270
 51
17.92021313939237
  0
LINE
  8
_0-7_外形7_7_
  6
CONTINUOUS
 62
   18
 10
59.061351368038174
 20
41.3670490093848
 11
62.531503821325799
 21
41.3670490093848
  0
ARC
  8
_0-7_外形7_7_
  6
CONTINUOUS
 62
   18
 10
39.976016684045874
 20
38.8670490093848
 40
18
 50
11.837004155893574
 51
168.16299584410643
  0
ARC
  8
_0-7_外形7_7_
  6
CONTINUOUS
 62
   18
 10
59.061351368038174
 20
42.8670490093848
 40
1.5
 50
191.83700415589357
 51
270
  0
LINE
  8
_0-7_外形7_7_
  6
CONTINUOUS
 62
   18
 10
59.061351368038174
 20
36.3670490093848
 11
62.531503821325799
 21
36.3670490093848
  0
ARC
  8
_0-7_外形7_7_
  6
CONTINUOUS
 62
   18
 10
39.976016684045874
 20
38.8670490093848
 40
18
 50
191.83700415589357
 51
348.16299584410643
  0
ARC
  8
_0-7_外形7_7_
  6
CONTINUOUS
 62
   18
 10
59.061351368038174
 20
34.8670490093848
 40
1.5
 50
90
 51
168.16299584410643
  0
ARC
  8
_0-7_外形7_7_
  6
CONTINUOUS
 62
   18
 10
39.976016684045874
 20
38.867049009384786
 40
14.5
 50
197.92021313939222
 51
342.07978686060778
  0
ARC
  8
_0-7_外形7_7_
  6
CONTINUOUS
 62
   18
 10
52.345333560898894
 20
34.8670490093848
 40
1.5
 50
342.07978686060773
 51
90
  0
LINE
  8
_0-7_外形7_7_
  6
CONTINUOUS
 62
   18
 10
27.606699807192911
 20
41.3670490093848
 11
33.913838857554822
 21
41.3670490093848
  0
LINE
  8
_0-7_外形7_7_
  6
CONTINUOUS
 62
   18
 10
27.606699807192911
 20
36.3670490093848
 11
33.913838857554822
 21
36.3670490093848
  0
LINE
  8
_0-7_外形7_7_
  6
CONTINUOUS
 62
   18
 10
46.038194510536982
 20
41.3670490093848
 11
52.345333560898865
 21
41.3670490093848
  0
LINE
  8
_0-7_外形7_7_
  6
CONTINUOUS
 62
   18
 10
46.038194510536954
 20
36.3670490093848
 11
52.345333560898894
 21
36.3670490093848
  0
ARC
  8
_0-7_外形7_7_
  6
CONTINUOUS
 62
   18
 10
115.5422314911366
 20
38.8670490093848
 40
6
 50
29.999999999999932
 51
150.00000000000003
  0
ARC
  8
_0-7_外形7_7_
  6
CONTINUOUS
 62
   18
 10
109.48005366464555
 20
42.3670490093848
 40
1
 50
270
 51
329.99999999999989
  0
ARC
  8
_0-7_外形7_7_
  6
CONTINUOUS
 62
   18
 10
121.60440931762771
 20
42.3670490093848
 40
1
 50
210.00000000000011
 51
270
  0
ARC
  8
_0-7_外形7_7_
  6
CONTINUOUS
 62
   18
 10
121.60440931762768
 20
35.3670490093848
 40
1
 50
90
 51
149.99999999999989
  0
ARC
  8
_0-7_外形7_7_
  6
CONTINUOUS
 62
   18
 10
115.5422314911366
 20
38.8670490093848
 40
6
 50
210.00000000000003
 51
329.99999999999994
  0
ARC
  8
_0-7_外形7_7_
  6
CONTINUOUS
 62
   18
 10
109.48005366464555
 20
35.3670490093848
 40
1
 50
30.000000000000146
 51
90
  0
CIRCLE
  8
_0-7_外形7_7_
  6
CONTINUOUS
 62
   18
 10
145.2407163009716
 20
68.565533819219795
 40
2.2999999999999998
  0
CIRCLE
  8
_0-7_外形7_7_
  6
CONTINUOUS
 62
   18
 10
85.843746681301596
 20
68.565533819219795
 40
2.2999999999999998
  0
CIRCLE
  8
_0-7_外形7_7_
  6
CONTINUOUS
 62
   18
 10
85.843746681301596
 20
9.1685641995497917
 40
2.2999999999999998
  0
CIRCLE
  8
_0-7_外形7_7_
  6
CONTINUOUS
 62
   18
 10
145.2407163009716
 20
9.1685641995497917
 40
2.2999999999999998
  0
ARC
  8
_0-7_外形7_7_
  6
CONTINUOUS
 62
   18
 10
85.843746681301596
 20
9.1685641995497917
 40
5
 50
135
 51
315
  0
ARC
  8
_0-7_外形7_7_
  6
CONTINUOUS
 62
   18
 10
145.2407163009716
 20
68.565533819219795
 40
5
 50
315
 51
134.99999999999997
  0
ARC
  8
_0-7_外形7_7_
  6
CONTINUOUS
 62
   18
 10
85.843746681301596
 20
68.565533819219795
 40
5
 50
45.000000000000028
 51
224.99999999999997
  0
ARC
  8
_0-7_外形7_7_
  6
CONTINUOUS
 62
   18
 10
145.2407163009716
 20
9.1685641995497917
 40
5
 50
225
 51
45
  0
LINE
  8
_0-7_外形7_7_
  6
CONTINUOUS
 62
   18
 10
82.308212775368887
 20
65.029999913287057
 11
86.168257229795429
 21
61.169955458860514
  0
ARC
  8
_0-7_外形7_7_
  6
CONTINUOUS
 62
   18
 10
79.09718941792994
 20
54.098887646995038
 40
10
 50
337.31800194717198
 51
44.999999999999986
  0
LINE
  8
_0-7_外形7_7_
  6
CONTINUOUS
 62
   18
 10
89.379280587234362
 20
72.101067725152532
 11
93.239325041660905
 21
68.241023270725989
  0
ARC
  8
_0-7_外形7_7_
  6
CONTINUOUS
 62
   18
 10
100.31039285352638
 20
75.312091082591465
 40
10
 50
225
 51
292.68199805282802
  0
LINE
  8
_0-7_外形7_7_
  6
CONTINUOUS
 62
   18
 10
141.70518239503889
 20
72.101067725152532
 11
137.84513794061235
 21
68.241023270725989
  0
ARC
  8
_0-7_外形7_7_
  6
CONTINUOUS
 62
   18
 10
115.5422314911366
 20
38.8670490093848
 40
29.5
 50
67.318001947171965
 51
112.68199805282805
  0
ARC
  8
_0-7_外形7_7_
  6
CONTINUOUS
 62
   18
 10
130.77407012874687
 20
75.312091082591465
 40
10
 50
247.31800194717198
 51
315
  0
LINE
  8
_0-7_外形7_7_
  6
CONTINUOUS
 62
   18
 10
148.77625020690436
 20
65.029999913287057
 11
144.91620575247782
 21
61.169955458860514
  0
ARC
  8
_0-7_外形7_7_
  6
CONTINUOUS
 62
   18
 10
151.9872735643433
 20
54.098887646995038
 40
10
 50
135.00000000000003
 51
202.68199805282802
  0
LINE
  8
_0-7_外形7_7_
  6
CONTINUOUS
 62
   18
 10
144.91620575247777
 20
16.564142559909072
 11
148.77625020690431
 21
12.704098105482529
  0
ARC
  8
_0-7_外形7_7_
  6
CONTINUOUS
 62
   18
 10
115.5422314911366
 20
38.8670490093848
 40
29.5
 50
337.31800194717192
 51
22.681998052828021
  0
ARC
  8
_0-7_外形7_7_
  6
CONTINUOUS
 62
   18
 10
151.98727356434324
 20
23.635210371774548
 40
10
 50
157.31800194717195
 51
225
  0
LINE
  8
_0-7_外形7_7_
  6
CONTINUOUS
 62
   18
 10
137.84513794061229
 20
9.4930747480435969
 11
141.70518239503883
 21
5.633030293617054
  0
ARC
  8
_0-7_外形7_7_
  6
CONTINUOUS
 62
   18
 10
130.77407012874681
 20
2.4220069361781498
 40
10
 50
44.999999999999972
 51
112.68199805282799
  0
LINE
  8
_0-7_外形7_7_
  6
CONTINUOUS
 62
   18
 10
86.168257229795429
 20
16.564142559909101
 11
82.308212775368887
 21
12.704098105482529
  0
ARC
  8
_0-7_外形7_7_
  6
CONTINUOUS
 62
   18
 10
115.5422314911366
 20
38.8670490093848
 40
29.5
 50
157.31800194717198
 51
202.68199805282805
  0
ARC
  8
_0-7_外形7_7_
  6
CONTINUOUS
 62
   18
 10
79.09718941792994
 20
23.635210371774562
 40
10
 50
315
 51
22.681998052828021
  0
LINE
  8
_0-7_外形7_7_
  6
CONTINUOUS
 62
   18
 10
93.239325041660905
 20
9.4930747480435969
 11
89.379280587234362
 21
5.633030293617054
  0
ARC
  8
_0-7_外形7_7_
  6
CONTINUOUS
 62
   18
 10
115.5422314911366
 20
38.8670490093848
 40
29.5
 50
247.31800194717198
 51
292.68199805282802
  0
ARC
  8
_0-7_外形7_7_
  6
CONTINUOUS
 62
   18
 10
100.31039285352638
 20
2.4220069361781214
 40
10
 50
67.318001947171979
 51
135.00000000000003
  0
ARC
  8
_0-7_外形7_7_
  6
CONTINUOUS
 62
   18
 10
92.986744353856679
 20
34.3670490093848
 40
2
 50
90
 51
191.28282428796908
  0
ARC
  8
_0-7_外形7_7_
  6
CONTINUOUS
 62
   18
 10
92.986744353856679
 20
43.3670490093848
 40
2
 50
168.71717571203092
 51
270
  0
ARC
  8
_0-7_外形7_7_
  6
CONTINUOUS
 62
   18
 10
115.5422314911366
 20
38.8670490093848
 40
25
 50
11.282824287969106
 51
168.71717571203089
  0
ARC
  8
_0-7_外形7_7_
  6
CONTINUOUS
 62
   18
 10
138.09771862841654
 20
43.3670490093848
 40
2
 50
270
 51
11.282824287969081
  0
ARC
  8
_0-7_外形7_7_
  6
CONTINUOUS
 62
   18
 10
115.5422314911366
 20
38.8670490093848
 40
25
 50
191.28282428796911
 51
348.71717571203089
  0
ARC
  8
_0-7_外形7_7_
  6
CONTINUOUS
 62
   18
 10
138.09771862841654
 20
34.3670490093848
 40
2
 50
348.71717571203089
 51
90
  0
LINE
  8
_0-7_外形7_7_
  6
CONTINUOUS
 62
   18
 10
92.986744353856679
 20
41.3670490093848
 11
96.456896807144304
 21
41.3670490093848
  0
ARC
  8
_0-7_外形7_7_
  6
CONTINUOUS
 62
   18
 10
96.456896807144304
 20
42.8670490093848
 40
1.5
 50
270
 51
348.16299584410643
  0
LINE
  8
_0-7_外形7_7_
  6
CONTINUOUS
 62
   18
 10
92.986744353856679
 20
36.3670490093848
 11
96.456896807144304
 21
36.3670490093848
  0
ARC
  8
_0-7_外形7_7_
  6
CONTINUOUS
 62
   18
 10
96.456896807144304
 20
34.8670490093848
 40
1.5
 50
11.837004155893577
 51
90
  0
ARC
  8
_0-7_外形7_7_
  6
CONTINUOUS
 62
   18
 10
103.17291461428364
 20
34.8670490093848
 40
1.5
 50
90
 51
197.92021313939225
  0
ARC
  8
_0-7_外形7_7_
  6
CONTINUOUS
 62
   18
 10
103.17291461428364
 20
42.8670490093848
 40
1.5
 50
162.07978686060764
 51
270
  0
ARC
  8
_0-7_外形7_7_
  6
CONTINUOUS
 62
   18
 10
115.5422314911366
 20
38.867049009384786
 40
14.5
 50
17.920213139392338
 51
162.07978686060767
  0
ARC
  8
_0-7_外形7_7_
  6
CONTINUOUS
 62
   18
 10
127.9115483679896
 20
42.8670490093848
 40
1.5
 50
270
 51
17.92021313939237
  0
LINE
  8
_0-7_外形7_7_
  6
CONTINUOUS
 62
   18
 10
134.62756617512889
 20
41.3670490093848
 11
138.09771862841654
 21
41.3670490093848
  0
ARC
  8
_0-7_外形7_7_
  6
CONTINUOUS
 62
   18
 10
115.5422314911366
 20
38.8670490093848
 40
18
 50
11.837004155893574
 51
168.16299584410643
  0
ARC
  8
_0-7_外形7_7_
  6
CONTINUOUS
 62
   18
 10
134.62756617512889
 20
42.8670490093848
 40
1.5
 50
191.83700415589357
 51
270
  0
LINE
  8
_0-7_外形7_7_
  6
CONTINUOUS
 62
   18
 10
134.62756617512889
 20
36.3670490093848
 11
138.09771862841654
 21
36.3670490093848
  0
ARC
  8
_0-7_外形7_7_
  6
CONTINUOUS
 62
   18
 10
115.5422314911366
 20
38.8670490093848
 40
18
 50
191.83700415589357
 51
348.16299584410643
  0
ARC
  8
_0-7_外形7_7_
  6
CONTINUOUS
 62
   18
 10
134.62756617512889
 20
34.8670490093848
 40
1.5
 50
90
 51
168.16299584410643
  0
ARC
  8
_0-7_外形7_7_
  6
CONTINUOUS
 62
   18
 10
115.5422314911366
 20
38.867049009384786
 40
14.5
 50
197.92021313939222
 51
342.07978686060778
  0
ARC
  8
_0-7_外形7_7_
  6
CONTINUOUS
 62
   18
 10
127.91154836798962
 20
34.8670490093848
 40
1.5
 50
342.07978686060773
 51
90
  0
LINE
  8
_0-7_外形7_7_
  6
CONTINUOUS
 62
   18
 10
103.17291461428364
 20
41.3670490093848
 11
109.48005366464555
 21
41.3670490093848
  0
LINE
  8
_0-7_外形7_7_
  6
CONTINUOUS
 62
   18
 10
103.17291461428364
 20
36.3670490093848
 11
109.48005366464555
 21
36.3670490093848
  0
LINE
  8
_0-7_外形7_7_
  6
CONTINUOUS
 62
   18
 10
121.60440931762771
 20
41.3670490093848
 11
127.9115483679896
 21
41.3670490093848
  0
LINE
  8
_0-7_外形7_7_
  6
CONTINUOUS
 62
   18
 10
121.60440931762768
 20
36.3670490093848
 11
127.91154836798962
 21
36.3670490093848
  0
ARC
  8
_0-7_外形7_7_
  6
CONTINUOUS
 62
   18
 10
189.55995828988529
 20
38.8670490093848
 40
6
 50
29.999999999999932
 51
150.00000000000003
  0
ARC
  8
_0-7_外形7_7_
  6
CONTINUOUS
 62
   18
 10
183.49778046339424
 20
42.3670490093848
 40
1
 50
270
 51
329.99999999999989
  0
ARC
  8
_0-7_外形7_7_
  6
CONTINUOUS
 62
   18
 10
195.6221361163764
 20
42.3670490093848
 40
1
 50
210.00000000000011
 51
270
  0
ARC
  8
_0-7_外形7_7_
  6
CONTINUOUS
 62
   18
 10
195.62213611637637
 20
35.3670490093848
 40
1
 50
90
 51
149.99999999999989
  0
ARC
  8
_0-7_外形7_7_
  6
CONTINUOUS
 62
   18
 10
189.55995828988529
 20
38.8670490093848
 40
6
 50
210.00000000000003
 51
329.99999999999994
  0
ARC
  8
_0-7_外形7_7_
  6
CONTINUOUS
 62
   18
 10
183.49778046339424
 20
35.3670490093848
 40
1
 50
30.000000000000146
 51
90
  0
CIRCLE
  8
_0-7_外形7_7_
  6
CONTINUOUS
 62
   18
 10
219.2584430997203
 20
68.565533819219795
 40
2.2999999999999998
  0
CIRCLE
  8
_0-7_外形7_7_
  6
CONTINUOUS
 62
   18
 10
159.86147348005028
 20
68.565533819219795
 40
2.2999999999999998
  0
CIRCLE
  8
_0-7_外形7_7_
  6
CONTINUOUS
 62
   18
 10
159.86147348005028
 20
9.1685641995497917
 40
2.2999999999999998
  0
CIRCLE
  8
_0-7_外形7_7_
  6
CONTINUOUS
 62
   18
 10
219.2584430997203
 20
9.1685641995497917
 40
2.2999999999999998
  0
ARC
  8
_0-7_外形7_7_
  6
CONTINUOUS
 62
   18
 10
159.86147348005028
 20
9.1685641995497917
 40
5
 50
135
 51
315
  0
ARC
  8
_0-7_外形7_7_
  6
CONTINUOUS
 62
   18
 10
219.2584430997203
 20
68.565533819219795
 40
5
 50
315
 51
134.99999999999997
  0
ARC
  8
_0-7_外形7_7_
  6
CONTINUOUS
 62
   18
 10
159.86147348005028
 20
68.565533819219795
 40
5
 50
45.000000000000028
 51
224.99999999999997
  0
ARC
  8
_0-7_外形7_7_
  6
CONTINUOUS
 62
   18
 10
219.2584430997203
 20
9.1685641995497917
 40
5
 50
225
 51
45
  0
LINE
  8
_0-7_外形7_7_
  6
CONTINUOUS
 62
   18
 10
156.32593957411757
 20
65.029999913287057
 11
160.18598402854411
 21
61.169955458860514
  0
ARC
  8
_0-7_外形7_7_
  6
CONTINUOUS
 62
   18
 10
153.11491621667864
 20
54.098887646995038
 40
10
 50
337.31800194717198
 51
44.999999999999986
  0
LINE
  8
_0-7_外形7_7_
  6
CONTINUOUS
 62
   18
 10
163.39700738598304
 20
72.101067725152532
 11
167.25705184040959
 21
68.241023270725989
  0
ARC
  8
_0-7_外形7_7_
  6
CONTINUOUS
 62
   18
 10
174.32811965227506
 20
75.312091082591465
 40
10
 50
225
 51
292.68199805282802
  0
LINE
  8
_0-7_外形7_7_
  6
CONTINUOUS
 62
   18
 10
215.72290919378756
 20
72.101067725152532
 11
211.86286473936102
 21
68.241023270725989
  0
ARC
  8
_0-7_外形7_7_
  6
CONTINUOUS
 62
   18
 10
189.55995828988529
 20
38.8670490093848
 40
29.5
 50
67.318001947171965
 51
112.68199805282805
  0
ARC
  8
_0-7_外形7_7_
  6
CONTINUOUS
 62
   18
 10
204.79179692749554
 20
75.312091082591465
 40
10
 50
247.31800194717198
 51
315
  0
LINE
  8
_0-7_外形7_7_
  6
CONTINUOUS
 62
   18
 10
222.79397700565303
 20
65.029999913287057
 11
218.93393255122649
 21
61.169955458860514
  0
ARC
  8
_0-7_外形7_7_
  6
CONTINUOUS
 62
   18
 10
226.00500036309197
 20
54.098887646995038
 40
10
 50
135.00000000000003
 51
202.68199805282802
  0
LINE
  8
_0-7_外形7_7_
  6
CONTINUOUS
 62
   18
 10
218.93393255122646
 20
16.564142559909072
 11
222.79397700565301
 21
12.704098105482529
  0
ARC
  8
_0-7_外形7_7_
  6
CONTINUOUS
 62
   18
 10
189.55995828988529
 20
38.8670490093848
 40
29.5
 50
337.31800194717192
 51
22.681998052828021
  0
ARC
  8
_0-7_外形7_7_
  6
CONTINUOUS
 62
   18
 10
226.00500036309194
 20
23.635210371774548
 40
10
 50
157.31800194717195
 51
225
  0
LINE
  8
_0-7_外形7_7_
  6
CONTINUOUS
 62
   18
 10
211.86286473936099
 20
9.4930747480435969
 11
215.72290919378753
 21
5.633030293617054
  0
ARC
  8
_0-7_外形7_7_
  6
CONTINUOUS
 62
   18
 10
204.79179692749551
 20
2.4220069361781498
 40
10
 50
44.999999999999972
 51
112.68199805282799
  0
LINE
  8
_0-7_外形7_7_
  6
CONTINUOUS
 62
   18
 10
160.18598402854411
 20
16.564142559909101
 11
156.32593957411757
 21
12.704098105482529
  0
ARC
  8
_0-7_外形7_7_
  6
CONTINUOUS
 62
   18
 10
189.55995828988529
 20
38.8670490093848
 40
29.5
 50
157.31800194717198
 51
202.68199805282805
  0
ARC
  8
_0-7_外形7_7_
  6
CONTINUOUS
 62
   18
 10
153.11491621667864
 20
23.635210371774562
 40
10
 50
315
 51
22.681998052828021
  0
LINE
  8
_0-7_外形7_7_
  6
CONTINUOUS
 62
   18
 10
167.25705184040959
 20
9.4930747480435969
 11
163.39700738598304
 21
5.633030293617054
  0
ARC
  8
_0-7_外形7_7_
  6
CONTINUOUS
 62
   18
 10
189.55995828988529
 20
38.8670490093848
 40
29.5
 50
247.31800194717198
 51
292.68199805282802
  0
ARC
  8
_0-7_外形7_7_
  6
CONTINUOUS
 62
   18
 10
174.32811965227506
 20
2.4220069361781214
 40
10
 50
67.318001947171979
 51
135.00000000000003
  0
ARC
  8
_0-7_外形7_7_
  6
CONTINUOUS
 62
   18
 10
167.00447115260536
 20
34.3670490093848
 40
2
 50
90
 51
191.28282428796908
  0
ARC
  8
_0-7_外形7_7_
  6
CONTINUOUS
 62
   18
 10
167.00447115260536
 20
43.3670490093848
 40
2
 50
168.71717571203092
 51
270
  0
ARC
  8
_0-7_外形7_7_
  6
CONTINUOUS
 62
   18
 10
189.55995828988529
 20
38.8670490093848
 40
25
 50
11.282824287969106
 51
168.71717571203089
  0
ARC
  8
_0-7_外形7_7_
  6
CONTINUOUS
 62
   18
 10
212.11544542716521
 20
43.3670490093848
 40
2
 50
270
 51
11.282824287969081
  0
ARC
  8
_0-7_外形7_7_
  6
CONTINUOUS
 62
   18
 10
189.55995828988529
 20
38.8670490093848
 40
25
 50
191.28282428796911
 51
348.71717571203089
  0
ARC
  8
_0-7_外形7_7_
  6
CONTINUOUS
 62
   18
 10
212.11544542716521
 20
34.3670490093848
 40
2
 50
348.71717571203089
 51
90
  0
LINE
  8
_0-7_外形7_7_
  6
CONTINUOUS
 62
   18
 10
167.00447115260536
 20
41.3670490093848
 11
170.47462360589299
 21
41.3670490093848
  0
ARC
  8
_0-7_外形7_7_
  6
CONTINUOUS
 62
   18
 10
170.47462360589299
 20
42.8670490093848
 40
1.5
 50
270
 51
348.16299584410643
  0
LINE
  8
_0-7_外形7_7_
  6
CONTINUOUS
 62
   18
 10
167.00447115260536
 20
36.3670490093848
 11
170.47462360589299
 21
36.3670490093848
  0
ARC
  8
_0-7_外形7_7_
  6
CONTINUOUS
 62
   18
 10
170.47462360589299
 20
34.8670490093848
 40
1.5
 50
11.837004155893577
 51
90
  0
ARC
  8
_0-7_外形7_7_
  6
CONTINUOUS
 62
   18
 10
177.19064141303232
 20
34.8670490093848
 40
1.5
 50
90
 51
197.92021313939225
  0
ARC
  8
_0-7_外形7_7_
  6
CONTINUOUS
 62
   18
 10
177.19064141303232
 20
42.8670490093848
 40
1.5
 50
162.07978686060764
 51
270
  0
ARC
  8
_0-7_外形7_7_
  6
CONTINUOUS
 62
   18
 10
189.55995828988529
 20
38.867049009384786
 40
14.5
 50
17.920213139392338
 51
162.07978686060767
  0
ARC
  8
_0-7_外形7_7_
  6
CONTINUOUS
 62
   18
 10
201.92927516673828
 20
42.8670490093848
 40
1.5
 50
270
 51
17.92021313939237
  0
LINE
  8
_0-7_外形7_7_
  6
CONTINUOUS
 62
   18
 10
208.64529297387759
 20
41.3670490093848
 11
212.11544542716521
 21
41.3670490093848
  0
ARC
  8
_0-7_外形7_7_
  6
CONTINUOUS
 62
   18
 10
189.55995828988529
 20
38.8670490093848
 40
18
 50
11.837004155893574
 51
168.16299584410643
  0
ARC
  8
_0-7_外形7_7_
  6
CONTINUOUS
 62
   18
 10
208.64529297387759
 20
42.8670490093848
 40
1.5
 50
191.83700415589357
 51
270
  0
LINE
  8
_0-7_外形7_7_
  6
CONTINUOUS
 62
   18
 10
208.64529297387759
 20
36.3670490093848
 11
212.11544542716521
 21
36.3670490093848
  0
ARC
  8
_0-7_外形7_7_
  6
CONTINUOUS
 62
   18
 10
189.55995828988529
 20
38.8670490093848
 40
18
 50
191.83700415589357
 51
348.16299584410643
  0
ARC
  8
_0-7_外形7_7_
  6
CONTINUOUS
 62
   18
 10
208.64529297387759
 20
34.8670490093848
 40
1.5
 50
90
 51
168.16299584410643
  0
ARC
  8
_0-7_外形7_7_
  6
CONTINUOUS
 62
   18
 10
189.55995828988529
 20
38.867049009384786
 40
14.5
 50
197.92021313939222
 51
342.07978686060778
  0
ARC
  8
_0-7_外形7_7_
  6
CONTINUOUS
 62
   18
 10
201.92927516673831
 20
34.8670490093848
 40
1.5
 50
342.07978686060773
 51
90
  0
LINE
  8
_0-7_外形7_7_
  6
CONTINUOUS
 62
   18
 10
177.19064141303232
 20
41.3670490093848
 11
183.49778046339424
 21
41.3670490093848
  0
LINE
  8
_0-7_外形7_7_
  6
CONTINUOUS
 62
   18
 10
177.19064141303232
 20
36.3670490093848
 11
183.49778046339424
 21
36.3670490093848
  0
LINE
  8
_0-7_外形7_7_
  6
CONTINUOUS
 62
   18
 10
195.6221361163764
 20
41.3670490093848
 11
201.92927516673828
 21
41.3670490093848
  0
LINE
  8
_0-7_外形7_7_
  6
CONTINUOUS
 62
   18
 10
195.62213611637637
 20
36.3670490093848
 11
201.92927516673831
 21
36.3670490093848
  0
ARC
  8
_0-7_外形7_7_
  6
CONTINUOUS
 62
   18
 10
38.737226277372258
 20
111.02659019812307
 40
6
 50
29.999999999999932
 51
150.00000000000003
  0
ARC
  8
_0-7_外形7_7_
  6
CONTINUOUS
 62
   18
 10
32.675048450881206
 20
114.52659019812307
 40
1
 50
270
 51
329.99999999999989
  0
ARC
  8
_0-7_外形7_7_
  6
CONTINUOUS
 62
   18
 10
44.799404103863367
 20
114.52659019812307
 40
1
 50
210.00000000000011
 51
270
  0
ARC
  8
_0-7_外形7_7_
  6
CONTINUOUS
 62
   18
 10
44.799404103863338
 20
107.52659019812307
 40
1
 50
90
 51
149.99999999999989
  0
ARC
  8
_0-7_外形7_7_
  6
CONTINUOUS
 62
   18
 10
38.737226277372258
 20
111.02659019812307
 40
6
 50
210.00000000000003
 51
329.99999999999994
  0
ARC
  8
_0-7_外形7_7_
  6
CONTINUOUS
 62
   18
 10
32.675048450881206
 20
107.52659019812307
 40
1
 50
30.000000000000146
 51
90
  0
CIRCLE
  8
_0-7_外形7_7_
  6
CONTINUOUS
 62
   18
 10
68.435711087207267
 20
140.72507500795808
 40
2.2999999999999998
  0
CIRCLE
  8
_0-7_外形7_7_
  6
CONTINUOUS
 62
   18
 10
9.0387414675372497
 20
140.72507500795808
 40
2.2999999999999998
  0
CIRCLE
  8
_0-7_外形7_7_
  6
CONTINUOUS
 62
   18
 10
9.0387414675372497
 20
81.328105388288066
 40
2.2999999999999998
  0
CIRCLE
  8
_0-7_外形7_7_
  6
CONTINUOUS
 62
   18
 10
68.435711087207267
 20
81.328105388288066
 40
2.2999999999999998
  0
ARC
  8
_0-7_外形7_7_
  6
CONTINUOUS
 62
   18
 10
9.0387414675372497
 20
81.328105388288066
 40
5
 50
135
 51
315
  0
ARC
  8
_0-7_外形7_7_
  6
CONTINUOUS
 62
   18
 10
68.435711087207267
 20
140.72507500795808
 40
5
 50
315
 51
134.99999999999997
  0
ARC
  8
_0-7_外形7_7_
  6
CONTINUOUS
 62
   18
 10
9.0387414675372497
 20
140.72507500795808
 40
5
 50
45.000000000000028
 51
224.99999999999997
  0
ARC
  8
_0-7_外形7_7_
  6
CONTINUOUS
 62
   18
 10
68.435711087207267
 20
81.328105388288066
 40
5
 50
225
 51
45
  0
LINE
  8
_0-7_外形7_7_
  6
CONTINUOUS
 62
   18
 10
5.5032075616045404
 20
137.18954110202532
 11
9.3632520160310833
 21
133.32949664759877
  0
ARC
  8
_0-7_外形7_7_
  6
CONTINUOUS
 62
   18
 10
2.2921842041656078
 20
126.25842883573331
 40
10
 50
337.31800194717198
 51
44.999999999999986
  0
LINE
  8
_0-7_外形7_7_
  6
CONTINUOUS
 62
   18
 10
12.574275373470016
 20
144.26060891389079
 11
16.434319827896559
 21
140.40056445946425
  0
ARC
  8
_0-7_外形7_7_
  6
CONTINUOUS
 62
   18
 10
23.505387639762034
 20
147.47163227132972
 40
10
 50
225
 51
292.68199805282802
  0
LINE
  8
_0-7_外形7_7_
  6
CONTINUOUS
 62
   18
 10
64.900177181274529
 20
144.26060891389079
 11
61.040132726847986
 21
140.40056445946425
  0
ARC
  8
_0-7_外形7_7_
  6
CONTINUOUS
 62
   18
 10
38.737226277372258
 20
111.02659019812307
 40
29.5
 50
67.318001947171965
 51
112.68199805282805
  0
ARC
  8
_0-7_外形7_7_
  6
CONTINUOUS
 62
   18
 10
53.969064914982511
 20
147.47163227132972
 40
10
 50
247.31800194717198
 51
315
  0
LINE
  8
_0-7_外形7_7_
  6
CONTINUOUS
 62
   18
 10
71.971244993140004
 20
137.18954110202532
 11
68.111200538713462
 21
133.32949664759877
  0
ARC
  8
_0-7_外形7_7_
  6
CONTINUOUS
 62
   18
 10
75.182268350578937
 20
126.25842883573331
 40
10
 50
135.00000000000003
 51
202.68199805282802
  0
LINE
  8
_0-7_外形7_7_
  6
CONTINUOUS
 62
   18
 10
68.111200538713433
 20
88.723683748647346
 11
71.971244993139976
 21
84.863639294220803
  0
ARC
  8
_0-7_外形7_7_
  6
CONTINUOUS
 62
   18
 10
38.737226277372258
 20
111.02659019812307
 40
29.5
 50
337.31800194717192
 51
22.681998052828021
  0
ARC
  8
_0-7_外形7_7_
  6
CONTINUOUS
 62
   18
 10
75.182268350578909
 20
95.794751560512822
 40
10
 50
157.31800194717195
 51
225
  0
LINE
  8
_0-7_外形7_7_
  6
CONTINUOUS
 62
   18
 10
61.040132726847958
 20
81.652615936781871
 11
64.900177181274501
 21
77.792571482355328
  0
ARC
  8
_0-7_外形7_7_
  6
CONTINUOUS
 62
   18
 10
53.969064914982482
 20
74.581548124916424
 40
10
 50
44.999999999999972
 51
112.68199805282799
  0
LINE
  8
_0-7_外形7_7_
  6
CONTINUOUS
 62
   18
 10
9.3632520160310833
 20
88.723683748647375
 11
5.5032075616045404
 21
84.863639294220803
  0
ARC
  8
_0-7_外形7_7_
  6
CONTINUOUS
 62
   18
 10
38.737226277372258
 20
111.02659019812307
 40
29.5
 50
157.31800194717198
 51
202.68199805282805
  0
ARC
  8
_0-7_外形7_7_
  6
CONTINUOUS
 62
   18
 10
2.2921842041656078
 20
95.794751560512836
 40
10
 50
315
 51
22.681998052828021
  0
LINE
  8
_0-7_外形7_7_
  6
CONTINUOUS
 62
   18
 10
16.434319827896559
 20
81.652615936781871
 11
12.574275373470016
 21
77.792571482355328
  0
ARC
  8
_0-7_外形7_7_
  6
CONTINUOUS
 62
   18
 10
38.737226277372258
 20
111.02659019812307
 40
29.5
 50
247.31800194717198
 51
292.68199805282802
  0
ARC
  8
_0-7_外形7_7_
  6
CONTINUOUS
 62
   18
 10
23.505387639762034
 20
74.581548124916395
 40
10
 50
67.318001947171979
 51
135.00000000000003
  0
ARC
  8
_0-7_外形7_7_
  6
CONTINUOUS
 62
   18
 10
16.181739140092333
 20
106.52659019812307
 40
2
 50
90
 51
191.28282428796908
  0
ARC
  8
_0-7_外形7_7_
  6
CONTINUOUS
 62
   18
 10
16.181739140092333
 20
115.52659019812307
 40
2
 50
168.71717571203092
 51
270
  0
ARC
  8
_0-7_外形7_7_
  6
CONTINUOUS
 62
   18
 10
38.737226277372258
 20
111.02659019812307
 40
25
 50
11.282824287969106
 51
168.71717571203089
  0
ARC
  8
_0-7_外形7_7_
  6
CONTINUOUS
 62
   18
 10
61.292713414652184
 20
115.52659019812307
 40
2
 50
270
 51
11.282824287969081
  0
ARC
  8
_0-7_外形7_7_
  6
CONTINUOUS
 62
   18
 10
38.737226277372258
 20
111.02659019812307
 40
25
 50
191.28282428796911
 51
348.71717571203089
  0
ARC
  8
_0-7_外形7_7_
  6
CONTINUOUS
 62
   18
 10
61.292713414652184
 20
106.52659019812307
 40
2
 50
348.71717571203089
 51
90
  0
LINE
  8
_0-7_外形7_7_
  6
CONTINUOUS
 62
   18
 10
16.181739140092333
 20
113.52659019812307
 11
19.651891593379958
 21
113.52659019812307
  0
ARC
  8
_0-7_外形7_7_
  6
CONTINUOUS
 62
   18
 10
19.651891593379958
 20
115.02659019812307
 40
1.5
 50
270
 51
348.16299584410643
  0
LINE
  8
_0-7_外形7_7_
  6
CONTINUOUS
 62
   18
 10
16.181739140092333
 20
108.52659019812307
 11
19.651891593379958
 21
108.52659019812307
  0
ARC
  8
_0-7_外形7_7_
  6
CONTINUOUS
 62
   18
 10
19.651891593379958
 20
107.02659019812307
 40
1.5
 50
11.837004155893577
 51
90
  0
ARC
  8
_0-7_外形7_7_
  6
CONTINUOUS
 62
   18
 10
26.367909400519295
 20
107.02659019812307
 40
1.5
 50
90
 51
197.92021313939225
  0
ARC
  8
_0-7_外形7_7_
  6
CONTINUOUS
 62
   18
 10
26.367909400519295
 20
115.02659019812307
 40
1.5
 50
162.07978686060764
 51
270
  0
ARC
  8
_0-7_外形7_7_
  6
CONTINUOUS
 62
   18
 10
38.737226277372258
 20
111.02659019812306
 40
14.5
 50
17.920213139392338
 51
162.07978686060767
  0
ARC
  8
_0-7_外形7_7_
  6
CONTINUOUS
 62
   18
 10
51.10654315422525
 20
115.02659019812307
 40
1.5
 50
270
 51
17.92021313939237
  0
LINE
  8
_0-7_外形7_7_
  6
CONTINUOUS
 62
   18
 10
57.822560961364559
 20
113.52659019812307
 11
61.292713414652184
 21
113.52659019812307
  0
ARC
  8
_0-7_外形7_7_
  6
CONTINUOUS
 62
   18
 10
38.737226277372258
 20
111.02659019812307
 40
18
 50
11.837004155893574
 51
168.16299584410643
  0
ARC
  8
_0-7_外形7_7_
  6
CONTINUOUS
 62
   18
 10
57.822560961364559
 20
115.02659019812307
 40
1.5
 50
191.83700415589357
 51
270
  0
LINE
  8
_0-7_外形7_7_
  6
CONTINUOUS
 62
   18
 10
57.822560961364559
 20
108.52659019812307
 11
61.292713414652184
 21
108.52659019812307
  0
ARC
  8
_0-7_外形7_7_
  6
CONTINUOUS
 62
   18
 10
38.737226277372258
 20
111.02659019812307
 40
18
 50
191.83700415589357
 51
348.16299584410643
  0
ARC
  8
_0-7_外形7_7_
  6
CONTINUOUS
 62
   18
 10
57.822560961364559
 20
107.02659019812307
 40
1.5
 50
90
 51
168.16299584410643
  0
ARC
  8
_0-7_外形7_7_
  6
CONTINUOUS
 62
   18
 10
38.737226277372258
 20
111.02659019812306
 40
14.5
 50
197.92021313939222
 51
342.07978686060778
  0
ARC
  8
_0-7_外形7_7_
  6
CONTINUOUS
 62
   18
 10
51.106543154225278
 20
107.02659019812307
 40
1.5
 50
342.07978686060773
 51
90
  0
LINE
  8
_0-7_外形7_7_
  6
CONTINUOUS
 62
   18
 10
26.367909400519295
 20
113.52659019812307
 11
32.675048450881206
 21
113.52659019812307
  0
LINE
  8
_0-7_外形7_7_
  6
CONTINUOUS
 62
   18
 10
26.367909400519295
 20
108.52659019812307
 11
32.675048450881206
 21
108.52659019812307
  0
LINE
  8
_0-7_外形7_7_
  6
CONTINUOUS
 62
   18
 10
44.799404103863367
 20
113.52659019812307
 11
51.10654315422525
 21
113.52659019812307
  0
LINE
  8
_0-7_外形7_7_
  6
CONTINUOUS
 62
   18
 10
44.799404103863338
 20
108.52659019812307
 11
51.106543154225278
 21
108.52659019812307
  0
ARC
  8
_0-7_外形7_7_
  6
CONTINUOUS
 62
   18
 10
115.85192909280501
 20
111.33628779979148
 40
6
 50
29.999999999999932
 51
150.00000000000003
  0
ARC
  8
_0-7_外形7_7_
  6
CONTINUOUS
 62
   18
 10
109.78975126631396
 20
114.83628779979148
 40
1
 50
270
 51
329.99999999999989
  0
ARC
  8
_0-7_外形7_7_
  6
CONTINUOUS
 62
   18
 10
121.91410691929612
 20
114.83628779979148
 40
1
 50
210.00000000000011
 51
270
  0
ARC
  8
_0-7_外形7_7_
  6
CONTINUOUS
 62
   18
 10
121.91410691929609
 20
107.83628779979148
 40
1
 50
90
 51
149.99999999999989
  0
ARC
  8
_0-7_外形7_7_
  6
CONTINUOUS
 62
   18
 10
115.85192909280501
 20
111.33628779979148
 40
6
 50
210.00000000000003
 51
329.99999999999994
  0
ARC
  8
_0-7_外形7_7_
  6
CONTINUOUS
 62
   18
 10
109.78975126631396
 20
107.83628779979148
 40
1
 50
30.000000000000146
 51
90
  0
CIRCLE
  8
_0-7_外形7_7_
  6
CONTINUOUS
 62
   18
 10
145.55041390264
 20
141.03477260962649
 40
2.2999999999999998
  0
CIRCLE
  8
_0-7_外形7_7_
  6
CONTINUOUS
 62
   18
 10
86.15344428297
 20
141.03477260962649
 40
2.2999999999999998
  0
CIRCLE
  8
_0-7_外形7_7_
  6
CONTINUOUS
 62
   18
 10
86.15344428297
 20
81.637802989956469
 40
2.2999999999999998
  0
CIRCLE
  8
_0-7_外形7_7_
  6
CONTINUOUS
 62
   18
 10
145.55041390264
 20
81.637802989956469
 40
2.2999999999999998
  0
ARC
  8
_0-7_外形7_7_
  6
CONTINUOUS
 62
   18
 10
86.15344428297
 20
81.637802989956469
 40
5
 50
135
 51
315
  0
ARC
  8
_0-7_外形7_7_
  6
CONTINUOUS
 62
   18
 10
145.55041390264
 20
141.03477260962649
 40
5
 50
315
 51
134.99999999999997
  0
ARC
  8
_0-7_外形7_7_
  6
CONTINUOUS
 62
   18
 10
86.15344428297
 20
141.03477260962649
 40
5
 50
45.000000000000028
 51
224.99999999999997
  0
ARC
  8
_0-7_外形7_7_
  6
CONTINUOUS
 62
   18
 10
145.55041390264
 20
81.637802989956469
 40
5
 50
225
 51
45
  0
LINE
  8
_0-7_外形7_7_
  6
CONTINUOUS
 62
   18
 10
82.61791037703729
 20
137.49923870369372
 11
86.477954831463833
 21
133.63919424926718
  0
ARC
  8
_0-7_外形7_7_
  6
CONTINUOUS
 62
   18
 10
79.406887019598344
 20
126.56812643740172
 40
10
 50
337.31800194717198
 51
44.999999999999986
  0
LINE
  8
_0-7_外形7_7_
  6
CONTINUOUS
 62
   18
 10
89.688978188902766
 20
144.5703065155592
 11
93.549022643329309
 21
140.71026206113265
  0
ARC
  8
_0-7_外形7_7_
  6
CONTINUOUS
 62
   18
 10
100.62009045519478
 20
147.78132987299813
 40
10
 50
225
 51
292.68199805282802
  0
LINE
  8
_0-7_外形7_7_
  6
CONTINUOUS
 62
   18
 10
142.01487999670729
 20
144.5703065155592
 11
138.15483554228075
 21
140.71026206113265
  0
ARC
  8
_0-7_外形7_7_
  6
CONTINUOUS
 62
   18
 10
115.85192909280501
 20
111.33628779979148
 40
29.5
 50
67.318001947171965
 51
112.68199805282805
  0
ARC
  8
_0-7_外形7_7_
  6
CONTINUOUS
 62
   18
 10
131.08376773041527
 20
147.78132987299813
 40
10
 50
247.31800194717198
 51
315
  0
LINE
  8
_0-7_外形7_7_
  6
CONTINUOUS
 62
   18
 10
149.08594780857277
 20
137.49923870369372
 11
145.22590335414623
 21
133.63919424926718
  0
ARC
  8
_0-7_外形7_7_
  6
CONTINUOUS
 62
   18
 10
152.2969711660117
 20
126.56812643740172
 40
10
 50
135.00000000000003
 51
202.68199805282802
  0
LINE
  8
_0-7_外形7_7_
  6
CONTINUOUS
 62
   18
 10
145.22590335414617
 20
89.03338135031575
 11
149.08594780857271
 21
85.173336895889207
  0
ARC
  8
_0-7_外形7_7_
  6
CONTINUOUS
 62
   18
 10
115.85192909280501
 20
111.33628779979148
 40
29.5
 50
337.31800194717192
 51
22.681998052828021
  0
ARC
  8
_0-7_外形7_7_
  6
CONTINUOUS
 62
   18
 10
152.29697116601164
 20
96.104449162181226
 40
10
 50
157.31800194717195
 51
225
  0
LINE
  8
_0-7_外形7_7_
  6
CONTINUOUS
 62
   18
 10
138.15483554228069
 20
81.962313538450275
 11
142.01487999670724
 21
78.102269084023732
  0
ARC
  8
_0-7_外形7_7_
  6
CONTINUOUS
 62
   18
 10
131.08376773041522
 20
74.891245726584827
 40
10
 50
44.999999999999972
 51
112.68199805282799
  0
LINE
  8
_0-7_外形7_7_
  6
CONTINUOUS
 62
   18
 10
86.477954831463833
 20
89.033381350315778
 11
82.61791037703729
 21
85.173336895889207
  0
ARC
  8
_0-7_外形7_7_
  6
CONTINUOUS
 62
   18
 10
115.85192909280501
 20
111.33628779979148
 40
29.5
 50
157.31800194717198
 51
202.68199805282805
  0
ARC
  8
_0-7_外形7_7_
  6
CONTINUOUS
 62
   18
 10
79.406887019598344
 20
96.10444916218124
 40
10
 50
315
 51
22.681998052828021
  0
LINE
  8
_0-7_外形7_7_
  6
CONTINUOUS
 62
   18
 10
93.549022643329309
 20
81.962313538450275
 11
89.688978188902766
 21
78.102269084023732
  0
ARC
  8
_0-7_外形7_7_
  6
CONTINUOUS
 62
   18
 10
115.85192909280501
 20
111.33628779979148
 40
29.5
 50
247.31800194717198
 51
292.68199805282802
  0
ARC
  8
_0-7_外形7_7_
  6
CONTINUOUS
 62
   18
 10
100.62009045519478
 20
74.891245726584799
 40
10
 50
67.318001947171979
 51
135.00000000000003
  0
ARC
  8
_0-7_外形7_7_
  6
CONTINUOUS
 62
   18
 10
93.296441955525083
 20
106.83628779979148
 40
2
 50
90
 51
191.28282428796908
  0
ARC
  8
_0-7_外形7_7_
  6
CONTINUOUS
 62
   18
 10
93.296441955525083
 20
115.83628779979148
 40
2
 50
168.71717571203092
 51
270
  0
ARC
  8
_0-7_外形7_7_
  6
CONTINUOUS
 62
   18
 10
115.85192909280501
 20
111.33628779979148
 40
25
 50
11.282824287969106
 51
168.71717571203089
  0
ARC
  8
_0-7_外形7_7_
  6
CONTINUOUS
 62
   18
 10
138.40741623008495
 20
115.83628779979148
 40
2
 50
270
 51
11.282824287969081
  0
ARC
  8
_0-7_外形7_7_
  6
CONTINUOUS
 62
   18
 10
115.85192909280501
 20
111.33628779979148
 40
25
 50
191.28282428796911
 51
348.71717571203089
  0
ARC
  8
_0-7_外形7_7_
  6
CONTINUOUS
 62
   18
 10
138.40741623008495
 20
106.83628779979148
 40
2
 50
348.71717571203089
 51
90
  0
LINE
  8
_0-7_外形7_7_
  6
CONTINUOUS
 62
   18
 10
93.296441955525083
 20
113.83628779979148
 11
96.766594408812708
 21
113.83628779979148
  0
ARC
  8
_0-7_外形7_7_
  6
CONTINUOUS
 62
   18
 10
96.766594408812708
 20
115.33628779979148
 40
1.5
 50
270
 51
348.16299584410643
  0
LINE
  8
_0-7_外形7_7_
  6
CONTINUOUS
 62
   18
 10
93.296441955525083
 20
108.83628779979148
 11
96.766594408812708
 21
108.83628779979148
  0
ARC
  8
_0-7_外形7_7_
  6
CONTINUOUS
 62
   18
 10
96.766594408812708
 20
107.33628779979148
 40
1.5
 50
11.837004155893577
 51
90
  0
ARC
  8
_0-7_外形7_7_
  6
CONTINUOUS
 62
   18
 10
103.48261221595205
 20
107.33628779979148
 40
1.5
 50
90
 51
197.92021313939225
  0
ARC
  8
_0-7_外形7_7_
  6
CONTINUOUS
 62
   18
 10
103.48261221595205
 20
115.33628779979148
 40
1.5
 50
162.07978686060764
 51
270
  0
ARC
  8
_0-7_外形7_7_
  6
CONTINUOUS
 62
   18
 10
115.85192909280501
 20
111.33628779979146
 40
14.5
 50
17.920213139392338
 51
162.07978686060767
  0
ARC
  8
_0-7_外形7_7_
  6
CONTINUOUS
 62
   18
 10
128.22124596965801
 20
115.33628779979148
 40
1.5
 50
270
 51
17.92021313939237
  0
LINE
  8
_0-7_外形7_7_
  6
CONTINUOUS
 62
   18
 10
134.93726377679729
 20
113.83628779979148
 11
138.40741623008495
 21
113.83628779979148
  0
ARC
  8
_0-7_外形7_7_
  6
CONTINUOUS
 62
   18
 10
115.85192909280501
 20
111.33628779979148
 40
18
 50
11.837004155893574
 51
168.16299584410643
  0
ARC
  8
_0-7_外形7_7_
  6
CONTINUOUS
 62
   18
 10
134.93726377679729
 20
115.33628779979148
 40
1.5
 50
191.83700415589357
 51
270
  0
LINE
  8
_0-7_外形7_7_
  6
CONTINUOUS
 62
   18
 10
134.93726377679729
 20
108.83628779979148
 11
138.40741623008495
 21
108.83628779979148
  0
ARC
  8
_0-7_外形7_7_
  6
CONTINUOUS
 62
   18
 10
115.85192909280501
 20
111.33628779979148
 40
18
 50
191.83700415589357
 51
348.16299584410643
  0
ARC
  8
_0-7_外形7_7_
  6
CONTINUOUS
 62
   18
 10
134.93726377679729
 20
107.33628779979148
 40
1.5
 50
90
 51
168.16299584410643
  0
ARC
  8
_0-7_外形7_7_
  6
CONTINUOUS
 62
   18
 10
115.85192909280501
 20
111.33628779979146
 40
14.5
 50
197.92021313939222
 51
342.07978686060778
  0
ARC
  8
_0-7_外形7_7_
  6
CONTINUOUS
 62
   18
 10
128.22124596965801
 20
107.33628779979148
 40
1.5
 50
342.07978686060773
 51
90
  0
LINE
  8
_0-7_外形7_7_
  6
CONTINUOUS
 62
   18
 10
103.48261221595205
 20
113.83628779979148
 11
109.78975126631396
 21
113.83628779979148
  0
LINE
  8
_0-7_外形7_7_
  6
CONTINUOUS
 62
   18
 10
103.48261221595205
 20
108.83628779979148
 11
109.78975126631396
 21
108.83628779979148
  0
LINE
  8
_0-7_外形7_7_
  6
CONTINUOUS
 62
   18
 10
121.91410691929612
 20
113.83628779979148
 11
128.22124596965801
 21
113.83628779979148
  0
LINE
  8
_0-7_外形7_7_
  6
CONTINUOUS
 62
   18
 10
121.91410691929609
 20
108.83628779979148
 11
128.22124596965801
 21
108.83628779979148
  0
ARC
  8
_0-7_外形7_7_
  6
CONTINUOUS
 62
   18
 10
189.55995828988529
 20
111.33628779979148
 40
6
 50
29.999999999999932
 51
150.00000000000003
  0
ARC
  8
_0-7_外形7_7_
  6
CONTINUOUS
 62
   18
 10
183.49778046339424
 20
114.83628779979148
 40
1
 50
270
 51
329.99999999999989
  0
ARC
  8
_0-7_外形7_7_
  6
CONTINUOUS
 62
   18
 10
195.6221361163764
 20
114.83628779979148
 40
1
 50
210.00000000000011
 51
270
  0
ARC
  8
_0-7_外形7_7_
  6
CONTINUOUS
 62
   18
 10
195.62213611637637
 20
107.83628779979148
 40
1
 50
90
 51
149.99999999999989
  0
ARC
  8
_0-7_外形7_7_
  6
CONTINUOUS
 62
   18
 10
189.55995828988529
 20
111.33628779979148
 40
6
 50
210.00000000000003
 51
329.99999999999994
  0
ARC
  8
_0-7_外形7_7_
  6
CONTINUOUS
 62
   18
 10
183.49778046339424
 20
107.83628779979148
 40
1
 50
30.000000000000146
 51
90
  0
CIRCLE
  8
_0-7_外形7_7_
  6
CONTINUOUS
 62
   18
 10
219.2584430997203
 20
141.03477260962649
 40
2.2999999999999998
  0
CIRCLE
  8
_0-7_外形7_7_
  6
CONTINUOUS
 62
   18
 10
159.86147348005028
 20
141.03477260962649
 40
2.2999999999999998
  0
CIRCLE
  8
_0-7_外形7_7_
  6
CONTINUOUS
 62
   18
 10
159.86147348005028
 20
81.637802989956469
 40
2.2999999999999998
  0
CIRCLE
  8
_0-7_外形7_7_
  6
CONTINUOUS
 62
   18
 10
219.2584430997203
 20
81.637802989956469
 40
2.2999999999999998
  0
ARC
  8
_0-7_外形7_7_
  6
CONTINUOUS
 62
   18
 10
159.86147348005028
 20
81.637802989956469
 40
5
 50
135
 51
315
  0
ARC
  8
_0-7_外形7_7_
  6
CONTINUOUS
 62
   18
 10
219.2584430997203
 20
141.03477260962649
 40
5
 50
315
 51
134.99999999999997
  0
ARC
  8
_0-7_外形7_7_
  6
CONTINUOUS
 62
   18
 10
159.86147348005028
 20
141.03477260962649
 40
5
 50
45.000000000000028
 51
224.99999999999997
  0
ARC
  8
_0-7_外形7_7_
  6
CONTINUOUS
 62
   18
 10
219.2584430997203
 20
81.637802989956469
 40
5
 50
225
 51
45
  0
LINE
  8
_0-7_外形7_7_
  6
CONTINUOUS
 62
   18
 10
156.32593957411757
 20
137.49923870369372
 11
160.18598402854411
 21
133.63919424926718
  0
ARC
  8
_0-7_外形7_7_
  6
CONTINUOUS
 62
   18
 10
153.11491621667864
 20
126.56812643740172
 40
10
 50
337.31800194717198
 51
44.999999999999986
  0
LINE
  8
_0-7_外形7_7_
  6
CONTINUOUS
 62
   18
 10
163.39700738598304
 20
144.5703065155592
 11
167.25705184040959
 21
140.71026206113265
  0
ARC
  8
_0-7_外形7_7_
  6
CONTINUOUS
 62
   18
 10
174.32811965227506
 20
147.78132987299813
 40
10
 50
225
 51
292.68199805282802
  0
LINE
  8
_0-7_外形7_7_
  6
CONTINUOUS
 62
   18
 10
215.72290919378756
 20
144.5703065155592
 11
211.86286473936102
 21
140.71026206113265
  0
ARC
  8
_0-7_外形7_7_
  6
CONTINUOUS
 62
   18
 10
189.55995828988529
 20
111.33628779979148
 40
29.5
 50
67.318001947171965
 51
112.68199805282805
  0
ARC
  8
_0-7_外形7_7_
  6
CONTINUOUS
 62
   18
 10
204.79179692749554
 20
147.78132987299813
 40
10
 50
247.31800194717198
 51
315
  0
LINE
  8
_0-7_外形7_7_
  6
CONTINUOUS
 62
   18
 10
222.79397700565303
 20
137.49923870369372
 11
218.93393255122649
 21
133.63919424926718
  0
ARC
  8
_0-7_外形7_7_
  6
CONTINUOUS
 62
   18
 10
226.00500036309197
 20
126.56812643740172
 40
10
 50
135.00000000000003
 51
202.68199805282802
  0
LINE
  8
_0-7_外形7_7_
  6
CONTINUOUS
 62
   18
 10
218.93393255122646
 20
89.03338135031575
 11
222.79397700565301
 21
85.173336895889207
  0
ARC
  8
_0-7_外形7_7_
  6
CONTINUOUS
 62
   18
 10
189.55995828988529
 20
111.33628779979148
 40
29.5
 50
337.31800194717192
 51
22.681998052828021
  0
ARC
  8
_0-7_外形7_7_
  6
CONTINUOUS
 62
   18
 10
226.00500036309194
 20
96.104449162181226
 40
10
 50
157.31800194717195
 51
225
  0
LINE
  8
_0-7_外形7_7_
  6
CONTINUOUS
 62
   18
 10
211.86286473936099
 20
81.962313538450275
 11
215.72290919378753
 21
78.102269084023732
  0
ARC
  8
_0-7_外形7_7_
  6
CONTINUOUS
 62
   18
 10
204.79179692749551
 20
74.891245726584827
 40
10
 50
44.999999999999972
 51
112.68199805282799
  0
LINE
  8
_0-7_外形7_7_
  6
CONTINUOUS
 62
   18
 10
160.18598402854411
 20
89.033381350315778
 11
156.32593957411757
 21
85.173336895889207
  0
ARC
  8
_0-7_外形7_7_
  6
CONTINUOUS
 62
   18
 10
189.55995828988529
 20
111.33628779979148
 40
29.5
 50
157.31800194717198
 51
202.68199805282805
  0
ARC
  8
_0-7_外形7_7_
  6
CONTINUOUS
 62
   18
 10
153.11491621667864
 20
96.10444916218124
 40
10
 50
315
 51
22.681998052828021
  0
LINE
  8
_0-7_外形7_7_
  6
CONTINUOUS
 62
   18
 10
167.25705184040959
 20
81.962313538450275
 11
163.39700738598304
 21
78.102269084023732
  0
ARC
  8
_0-7_外形7_7_
  6
CONTINUOUS
 62
   18
 10
189.55995828988529
 20
111.33628779979148
 40
29.5
 50
247.31800194717198
 51
292.68199805282802
  0
ARC
  8
_0-7_外形7_7_
  6
CONTINUOUS
 62
   18
 10
174.32811965227506
 20
74.891245726584799
 40
10
 50
67.318001947171979
 51
135.00000000000003
  0
ARC
  8
_0-7_外形7_7_
  6
CONTINUOUS
 62
   18
 10
167.00447115260536
 20
106.83628779979148
 40
2
 50
90
 51
191.28282428796908
  0
ARC
  8
_0-7_外形7_7_
  6
CONTINUOUS
 62
   18
 10
167.00447115260536
 20
115.83628779979148
 40
2
 50
168.71717571203092
 51
270
  0
ARC
  8
_0-7_外形7_7_
  6
CONTINUOUS
 62
   18
 10
189.55995828988529
 20
111.33628779979148
 40
25
 50
11.282824287969106
 51
168.71717571203089
  0
ARC
  8
_0-7_外形7_7_
  6
CONTINUOUS
 62
   18
 10
212.11544542716521
 20
115.83628779979148
 40
2
 50
270
 51
11.282824287969081
  0
ARC
  8
_0-7_外形7_7_
  6
CONTINUOUS
 62
   18
 10
189.55995828988529
 20
111.33628779979148
 40
25
 50
191.28282428796911
 51
348.71717571203089
  0
ARC
  8
_0-7_外形7_7_
  6
CONTINUOUS
 62
   18
 10
212.11544542716521
 20
106.83628779979148
 40
2
 50
348.71717571203089
 51
90
  0
LINE
  8
_0-7_外形7_7_
  6
CONTINUOUS
 62
   18
 10
167.00447115260536
 20
113.83628779979148
 11
170.47462360589299
 21
113.83628779979148
  0
ARC
  8
_0-7_外形7_7_
  6
CONTINUOUS
 62
   18
 10
170.47462360589299
 20
115.33628779979148
 40
1.5
 50
270
 51
348.16299584410643
  0
LINE
  8
_0-7_外形7_7_
  6
CONTINUOUS
 62
   18
 10
167.00447115260536
 20
108.83628779979148
 11
170.47462360589299
 21
108.83628779979148
  0
ARC
  8
_0-7_外形7_7_
  6
CONTINUOUS
 62
   18
 10
170.47462360589299
 20
107.33628779979148
 40
1.5
 50
11.837004155893577
 51
90
  0
ARC
  8
_0-7_外形7_7_
  6
CONTINUOUS
 62
   18
 10
177.19064141303232
 20
107.33628779979148
 40
1.5
 50
90
 51
197.92021313939225
  0
ARC
  8
_0-7_外形7_7_
  6
CONTINUOUS
 62
   18
 10
177.19064141303232
 20
115.33628779979148
 40
1.5
 50
162.07978686060764
 51
270
  0
ARC
  8
_0-7_外形7_7_
  6
CONTINUOUS
 62
   18
 10
189.55995828988529
 20
111.33628779979146
 40
14.5
 50
17.920213139392338
 51
162.07978686060767
  0
ARC
  8
_0-7_外形7_7_
  6
CONTINUOUS
 62
   18
 10
201.92927516673828
 20
115.33628779979148
 40
1.5
 50
270
 51
17.92021313939237
  0
LINE
  8
_0-7_外形7_7_
  6
CONTINUOUS
 62
   18
 10
208.64529297387759
 20
113.83628779979148
 11
212.11544542716521
 21
113.83628779979148
  0
ARC
  8
_0-7_外形7_7_
  6
CONTINUOUS
 62
   18
 10
189.55995828988529
 20
111.33628779979148
 40
18
 50
11.837004155893574
 51
168.16299584410643
  0
ARC
  8
_0-7_外形7_7_
  6
CONTINUOUS
 62
   18
 10
208.64529297387759
 20
115.33628779979148
 40
1.5
 50
191.83700415589357
 51
270
  0
LINE
  8
_0-7_外形7_7_
  6
CONTINUOUS
 62
   18
 10
208.64529297387759
 20
108.83628779979148
 11
212.11544542716521
 21
108.83628779979148
  0
ARC
  8
_0-7_外形7_7_
  6
CONTINUOUS
 62
   18
 10
189.55995828988529
 20
111.33628779979148
 40
18
 50
191.83700415589357
 51
348.16299584410643
  0
ARC
  8
_0-7_外形7_7_
  6
CONTINUOUS
 62
   18
 10
208.64529297387759
 20
107.33628779979148
 40
1.5
 50
90
 51
168.16299584410643
  0
ARC
  8
_0-7_外形7_7_
  6
CONTINUOUS
 62
   18
 10
189.55995828988529
 20
111.33628779979146
 40
14.5
 50
197.92021313939222
 51
342.07978686060778
  0
ARC
  8
_0-7_外形7_7_
  6
CONTINUOUS
 62
   18
 10
201.92927516673831
 20
107.33628779979148
 40
1.5
 50
342.07978686060773
 51
90
  0
LINE
  8
_0-7_外形7_7_
  6
CONTINUOUS
 62
   18
 10
177.19064141303232
 20
113.83628779979148
 11
183.49778046339424
 21
113.83628779979148
  0
LINE
  8
_0-7_外形7_7_
  6
CONTINUOUS
 62
   18
 10
177.19064141303232
 20
108.83628779979148
 11
183.49778046339424
 21
108.83628779979148
  0
LINE
  8
_0-7_外形7_7_
  6
CONTINUOUS
 62
   18
 10
195.6221361163764
 20
113.83628779979148
 11
201.92927516673828
 21
113.83628779979148
  0
LINE
  8
_0-7_外形7_7_
  6
CONTINUOUS
 62
   18
 10
195.62213611637637
 20
108.83628779979148
 11
201.92927516673831
 21
108.83628779979148
  0
CIRCLE
  8
_0-7_外形7_7_
  6
CONTINUOUS
 62
   18
 10
67.664921704043422
 20
213.24364031442056
 40
2.2999999999999998
  0
CIRCLE
  8
_0-7_外形7_7_
  6
CONTINUOUS
 62
   18
 10
8.2679520843734053
 20
213.24364031442056
 40
2.2999999999999998
  0
CIRCLE
  8
_0-7_外形7_7_
  6
CONTINUOUS
 62
   18
 10
8.2679520843734053
 20
153.84667069475054
 40
2.2999999999999998
  0
CIRCLE
  8
_0-7_外形7_7_
  6
CONTINUOUS
 62
   18
 10
67.664921704043422
 20
153.84667069475054
 40
2.2999999999999998
  0
ARC
  8
_0-7_外形7_7_
  6
CONTINUOUS
 62
   18
 10
8.2679520843734053
 20
153.84667069475054
 40
5
 50
135
 51
315
  0
ARC
  8
_0-7_外形7_7_
  6
CONTINUOUS
 62
   18
 10
67.664921704043422
 20
213.24364031442056
 40
5
 50
315
 51
134.99999999999997
  0
ARC
  8
_0-7_外形7_7_
  6
CONTINUOUS
 62
   18
 10
8.2679520843734053
 20
213.24364031442056
 40
5
 50
45.000000000000028
 51
224.99999999999997
  0
ARC
  8
_0-7_外形7_7_
  6
CONTINUOUS
 62
   18
 10
67.664921704043422
 20
153.84667069475054
 40
5
 50
225
 51
45
  0
ARC
  8
_0-7_外形7_7_
  6
CONTINUOUS
 62
   18
 10
37.966436894208414
 20
183.54515550458555
 40
29.5
 50
124.90862848316614
 51
125.24174340461815
  0
LINE
  8
_0-7_外形7_7_
  6
CONTINUOUS
 62
   18
 10
4.7324181784406676
 20
209.70810640848782
 11
8.5924626328672105
 21
205.84806195406128
  0
ARC
  8
_0-7_外形7_7_
  6
CONTINUOUS
 62
   18
 10
1.521394821001735
 20
198.7769941421958
 40
10
 50
337.31800194717198
 51
44.999999999999986
  0
LINE
  8
_0-7_外形7_7_
  6
CONTINUOUS
 62
   18
 10
11.803485990306143
 20
216.77917422035327
 11
15.663530444732714
 21
212.91912976592675
  0
ARC
  8
_0-7_外形7_7_
  6
CONTINUOUS
 62
   18
 10
22.73459825659819
 20
219.9901975777922
 40
10
 50
225
 51
292.68199805282802
  0
LINE
  8
_0-7_外形7_7_
  6
CONTINUOUS
 62
   18
 10
64.129387798110656
 20
216.77917422035327
 11
60.269343343684113
 21
212.91912976592675
  0
ARC
  8
_0-7_外形7_7_
  6
CONTINUOUS
 62
   18
 10
37.966436894208414
 20
183.54515550458555
 40
29.5
 50
67.318001947171965
 51
112.68199805282805
  0
ARC
  8
_0-7_外形7_7_
  6
CONTINUOUS
 62
   18
 10
53.198275531818638
 20
219.9901975777922
 40
10
 50
247.31800194717198
 51
315
  0
LINE
  8
_0-7_外形7_7_
  6
CONTINUOUS
 62
   18
 10
71.200455609976132
 20
209.70810640848782
 11
67.340411155549589
 21
205.84806195406128
  0
ARC
  8
_0-7_外形7_7_
  6
CONTINUOUS
 62
   18
 10
74.411478967415064
 20
198.7769941421958
 40
10
 50
135.00000000000003
 51
202.68199805282802
  0
LINE
  8
_0-7_外形7_7_
  6
CONTINUOUS
 62
   18
 10
67.340411155549589
 20
161.24224905510985
 11
71.200455609976132
 21
157.38220460068331
  0
ARC
  8
_0-7_外形7_7_
  6
CONTINUOUS
 62
   18
 10
37.966436894208414
 20
183.54515550458555
 40
29.5
 50
337.31800194717192
 51
22.681998052828021
  0
ARC
  8
_0-7_外形7_7_
  6
CONTINUOUS
 62
   18
 10
74.411478967415064
 20
168.31331686697533
 40
10
 50
157.31800194717195
 51
225
  0
LINE
  8
_0-7_外形7_7_
  6
CONTINUOUS
 62
   18
 10
60.269343343684113
 20
154.17118124324438
 11
64.129387798110656
 21
150.31113678881783
  0
ARC
  8
_0-7_外形7_7_
  6
CONTINUOUS
 62
   18
 10
53.198275531818638
 20
147.1001134313789
 40
10
 50
44.999999999999972
 51
112.68199805282799
  0
LINE
  8
_0-7_外形7_7_
  6
CONTINUOUS
 62
   18
 10
8.5924626328672105
 20
161.24224905510985
 11
4.7324181784406676
 21
157.38220460068331
  0
ARC
  8
_0-7_外形7_7_
  6
CONTINUOUS
 62
   18
 10
37.966436894208414
 20
183.54515550458555
 40
29.5
 50
157.31800194717198
 51
202.68199805282805
  0
ARC
  8
_0-7_外形7_7_
  6
CONTINUOUS
 62
   18
 10
1.521394821001735
 20
168.31331686697533
 40
10
 50
315
 51
22.681998052828021
  0
LINE
  8
_0-7_外形7_7_
  6
CONTINUOUS
 62
   18
 10
15.663530444732714
 20
154.17118124324435
 11
11.803485990306172
 21
150.31113678881783
  0
ARC
  8
_0-7_外形7_7_
  6
CONTINUOUS
 62
   18
 10
37.966436894208414
 20
183.54515550458555
 40
29.5
 50
247.31800194717198
 51
292.68199805282802
  0
ARC
  8
_0-7_外形7_7_
  6
CONTINUOUS
 62
   18
 10
22.73459825659819
 20
147.1001134313789
 40
10
 50
67.318001947171979
 51
135.00000000000003
  0
ARC
  8
_0-7_外形7_7_
  6
CONTINUOUS
 62
   18
 10
19.047356588958962
 20
194.46809161164148
 40
4.1541277858881172
 50
45.000000000000036
 51
254.9999999999998
  0
ARC
  8
_0-7_外形7_7_
  6
CONTINUOUS
 62
   18
 10
16.12056468009655
 20
183.54515550458555
 40
4.1541277858881234
 50
75.000000000000071
 51
285.00000000000011
  0
ARC
  8
_0-7_外形7_7_
  6
CONTINUOUS
 62
   18
 10
19.047356588958962
 20
172.62221939752962
 40
4.1541277858881323
 50
104.9999999999999
 51
315.00000000000006
  0
ARC
  8
_0-7_外形7_7_
  6
CONTINUOUS
 62
   18
 10
27.043500787152482
 20
164.6260751993361
 40
4.1541277858881269
 50
135.00000000000017
 51
345.00000000000006
  0
ARC
  8
_0-7_外形7_7_
  6
CONTINUOUS
 62
   18
 10
48.889373001264346
 20
164.62607519933607
 40
4.1541277858881305
 50
195
 51
44.999999999999972
  0
ARC
  8
_0-7_外形7_7_
  6
CONTINUOUS
 62
   18
 10
56.885517199457922
 20
172.62221939752962
 40
4.1541277858881296
 50
224.99999999999963
 51
75.000000000000099
  0
ARC
  8
_0-7_外形7_7_
  6
CONTINUOUS
 62
   18
 10
59.812309108320306
 20
183.54515550458555
 40
4.1541277858881278
 50
255.00000000000006
 51
104.99999999999993
  0
ARC
  8
_0-7_外形7_7_
  6
CONTINUOUS
 62
   18
 10
56.885517199457922
 20
194.46809161164151
 40
4.1541277858881287
 50
284.99999999999989
 51
134.99999999999989
  0
ARC
  8
_0-7_外形7_7_
  6
CONTINUOUS
 62
   18
 10
48.889373001264346
 20
202.46423580983503
 40
4.1541277858881358
 50
315.00000000000023
 51
164.99999999999991
  0
ARC
  8
_0-7_外形7_7_
  6
CONTINUOUS
 62
   18
 10
37.966436894208414
 20
205.39102771869744
 40
4.154127785888126
 50
345.00000000000006
 51
195
  0
ARC
  8
_0-7_外形7_7_
  6
CONTINUOUS
 62
   18
 10
27.043500787152482
 20
202.46423580983503
 40
4.1541277858881278
 50
14.999999999999932
 51
115.41149265547766
  0
ARC
  8
_0-7_外形7_7_
  6
CONTINUOUS
 62
   18
 10
27.043500787152482
 20
202.46423580983503
 40
4.1541277858881278
 50
115.41149265547766
 51
224.99999999999989
  0
LINE
  8
_0-7_外形7_7_
  6
CONTINUOUS
 62
   18
 10
24.106088859835523
 20
199.52682388251807
 11
35.068659415341187
 21
188.56425332701241
  0
LINE
  8
_0-7_外形7_7_
  6
CONTINUOUS
 62
   18
 10
35.068659415341216
 20
188.56425332701238
 11
31.056080101246835
 21
203.53940319661245
  0
LINE
  8
_0-7_外形7_7_
  6
CONTINUOUS
 62
   18
 10
37.966436894208414
 20
189.34071046231998
 11
33.953857580114033
 21
204.31586033192002
  0
LINE
  8
_0-7_外形7_7_
  6
CONTINUOUS
 62
   18
 10
41.979016208302767
 20
204.31586033192002
 11
37.966436894208414
 21
189.34071046232
  0
LINE
  8
_0-7_外形7_7_
  6
CONTINUOUS
 62
   18
 10
44.876793687169993
 20
203.53940319661245
 11
40.864214373075612
 21
188.56425332701241
  0
LINE
  8
_0-7_外形7_7_
  6
CONTINUOUS
 62
   18
 10
51.826784928581304
 20
199.52682388251807
 11
40.864214373075612
 21
188.56425332701238
  0
LINE
  8
_0-7_外形7_7_
  6
CONTINUOUS
 62
   18
 10
53.948105272140936
 20
197.40550353895847
 11
42.985534716635243
 21
186.44293298345278
  0
LINE
  8
_0-7_外形7_7_
  6
CONTINUOUS
 62
   18
 10
57.960684586235317
 20
190.45551229754713
 11
42.985534716635243
 21
186.44293298345278
  0
LINE
  8
_0-7_外形7_7_
  6
CONTINUOUS
 62
   18
 10
58.737141721542883
 20
187.55773481867993
 11
43.76199185194281
 21
183.54515550458555
  0
LINE
  8
_0-7_外形7_7_
  6
CONTINUOUS
 62
   18
 10
58.737141721542883
 20
179.5325761904912
 11
43.76199185194281
 21
183.54515550458555
  0
LINE
  8
_0-7_外形7_7_
  6
CONTINUOUS
 62
   18
 10
57.960684586235317
 20
176.634798711624
 11
42.985534716635243
 21
180.64737802571835
  0
LINE
  8
_0-7_外形7_7_
  6
CONTINUOUS
 62
   18
 10
42.985534716635243
 20
180.64737802571835
 11
53.948105272140936
 21
169.68480747021266
  0
LINE
  8
_0-7_外形7_7_
  6
CONTINUOUS
 62
   18
 10
40.86421437307564
 20
178.52605768215872
 11
51.826784928581333
 21
167.56348712665303
  0
LINE
  8
_0-7_外形7_7_
  6
CONTINUOUS
 62
   18
 10
44.876793687169993
 20
163.55090781255865
 11
40.86421437307564
 21
178.52605768215869
  0
ARC
  8
_0-7_外形7_7_
  6
CONTINUOUS
 62
   18
 10
37.966436894208414
 20
161.69928329047369
 40
4.1541277858881296
 50
164.9999999999998
 51
281.59799090233645
  0
ARC
  8
_0-7_外形7_7_
  6
CONTINUOUS
 62
   18
 10
37.966436894208414
 20
161.69928329047369
 40
4.1541277858881296
 50
281.59799090233645
 51
289.34054846431911
  0
ARC
  8
_0-7_外形7_7_
  6
CONTINUOUS
 62
   18
 10
37.966436894208414
 20
161.69928329047369
 40
4.1541277858881296
 50
289.34054846431911
 51
15.000000000000021
  0
LINE
  8
_0-7_外形7_7_
  6
CONTINUOUS
 62
   18
 10
41.979016208302767
 20
162.77445067725111
 11
37.966436894208414
 21
177.74960054685118
  0
LINE
  8
_0-7_外形7_7_
  6
CONTINUOUS
 62
   18
 10
37.966436894208414
 20
177.74960054685121
 11
33.953857580114061
 21
162.77445067725111
  0
LINE
  8
_0-7_外形7_7_
  6
CONTINUOUS
 62
   18
 10
35.068659415341187
 20
178.52605768215875
 11
31.056080101246835
 21
163.55090781255868
  0
LINE
  8
_0-7_外形7_7_
  6
CONTINUOUS
 62
   18
 10
35.068659415341187
 20
178.52605768215872
 11
24.106088859835495
 21
167.56348712665303
  0
LINE
  8
_0-7_外形7_7_
  6
CONTINUOUS
 62
   18
 10
32.947339071781585
 20
180.64737802571838
 11
21.984768516275892
 21
169.68480747021266
  0
LINE
  8
_0-7_外形7_7_
  6
CONTINUOUS
 62
   18
 10
32.947339071781585
 20
180.64737802571835
 11
17.972189202181539
 21
176.634798711624
  0
LINE
  8
_0-7_外形7_7_
  6
CONTINUOUS
 62
   18
 10
32.170881936474018
 20
183.54515550458555
 11
17.195732066873973
 21
179.5325761904912
  0
LINE
  8
_0-7_外形7_7_
  6
CONTINUOUS
 62
   18
 10
32.170881936474018
 20
183.54515550458555
 11
17.195732066873973
 21
187.55773481867993
  0
LINE
  8
_0-7_外形7_7_
  6
CONTINUOUS
 62
   18
 10
32.947339071781528
 20
186.44293298345278
 11
17.972189202181539
 21
190.45551229754713
  0
LINE
  8
_0-7_外形7_7_
  6
CONTINUOUS
 62
   18
 10
21.984768516275892
 20
197.40550353895844
 11
32.947339071781528
 21
186.44293298345278
  0
CIRCLE
  8
_0-7_外形7_7_
  6
CONTINUOUS
 62
   18
 10
37.966436894208414
 20
183.54515550458555
 40
3
  0
CIRCLE
  8
_0-7_外形7_7_
  6
CONTINUOUS
 62
   18
 10
144.46992691780773
 20
212.62424511108378
 40
2.2999999999999998
  0
CIRCLE
  8
_0-7_外形7_7_
  6
CONTINUOUS
 62
   18
 10
85.072957298137709
 20
212.62424511108378
 40
2.2999999999999998
  0
CIRCLE
  8
_0-7_外形7_7_
  6
CONTINUOUS
 62
   18
 10
85.072957298137709
 20
153.22727549141376
 40
2.2999999999999998
  0
CIRCLE
  8
_0-7_外形7_7_
  6
CONTINUOUS
 62
   18
 10
144.46992691780773
 20
153.22727549141376
 40
2.2999999999999998
  0
ARC
  8
_0-7_外形7_7_
  6
CONTINUOUS
 62
   18
 10
85.072957298137709
 20
153.22727549141376
 40
5
 50
135
 51
315
  0
ARC
  8
_0-7_外形7_7_
  6
CONTINUOUS
 62
   18
 10
144.46992691780773
 20
212.62424511108378
 40
5
 50
315
 51
134.99999999999997
  0
ARC
  8
_0-7_外形7_7_
  6
CONTINUOUS
 62
   18
 10
85.072957298137709
 20
212.62424511108378
 40
5
 50
45.000000000000028
 51
224.99999999999997
  0
ARC
  8
_0-7_外形7_7_
  6
CONTINUOUS
 62
   18
 10
144.46992691780773
 20
153.22727549141376
 40
5
 50
225
 51
45
  0
ARC
  8
_0-7_外形7_7_
  6
CONTINUOUS
 62
   18
 10
114.77144210797272
 20
182.92576030124877
 40
29.5
 50
124.90862848316614
 51
125.24174340461815
  0
LINE
  8
_0-7_外形7_7_
  6
CONTINUOUS
 62
   18
 10
81.537423392204971
 20
209.08871120515101
 11
85.397467846631514
 21
205.22866675072447
  0
ARC
  8
_0-7_外形7_7_
  6
CONTINUOUS
 62
   18
 10
78.326400034766039
 20
198.157598938859
 40
10
 50
337.31800194717198
 51
44.999999999999986
  0
LINE
  8
_0-7_外形7_7_
  6
CONTINUOUS
 62
   18
 10
88.608491204070447
 20
216.15977901701649
 11
92.468535658497018
 21
212.29973456258995
  0
ARC
  8
_0-7_外形7_7_
  6
CONTINUOUS
 62
   18
 10
99.539603470362493
 20
219.37080237445542
 40
10
 50
225
 51
292.68199805282802
  0
LINE
  8
_0-7_外形7_7_
  6
CONTINUOUS
 62
   18
 10
140.93439301187496
 20
216.15977901701649
 11
137.07434855744842
 21
212.29973456258995
  0
ARC
  8
_0-7_外形7_7_
  6
CONTINUOUS
 62
   18
 10
114.77144210797272
 20
182.92576030124877
 40
29.5
 50
67.318001947171965
 51
112.68199805282805
  0
ARC
  8
_0-7_外形7_7_
  6
CONTINUOUS
 62
   18
 10
130.00328074558294
 20
219.37080237445542
 40
10
 50
247.31800194717198
 51
315
  0
LINE
  8
_0-7_外形7_7_
  6
CONTINUOUS
 62
   18
 10
148.00546082374044
 20
209.08871120515101
 11
144.14541636931389
 21
205.22866675072447
  0
ARC
  8
_0-7_外形7_7_
  6
CONTINUOUS
 62
   18
 10
151.21648418117937
 20
198.157598938859
 40
10
 50
135.00000000000003
 51
202.68199805282802
  0
LINE
  8
_0-7_外形7_7_
  6
CONTINUOUS
 62
   18
 10
144.14541636931389
 20
160.62285385177304
 11
148.00546082374044
 21
156.7628093973465
  0
ARC
  8
_0-7_外形7_7_
  6
CONTINUOUS
 62
   18
 10
114.77144210797272
 20
182.92576030124877
 40
29.5
 50
337.31800194717192
 51
22.681998052828021
  0
ARC
  8
_0-7_外形7_7_
  6
CONTINUOUS
 62
   18
 10
151.21648418117937
 20
167.69392166363852
 40
10
 50
157.31800194717195
 51
225
  0
LINE
  8
_0-7_外形7_7_
  6
CONTINUOUS
 62
   18
 10
137.07434855744842
 20
153.55178603990757
 11
140.93439301187496
 21
149.69174158548103
  0
ARC
  8
_0-7_外形7_7_
  6
CONTINUOUS
 62
   18
 10
130.00328074558294
 20
146.48071822804209
 40
10
 50
44.999999999999972
 51
112.68199805282799
  0
LINE
  8
_0-7_外形7_7_
  6
CONTINUOUS
 62
   18
 10
85.397467846631514
 20
160.62285385177304
 11
81.537423392204971
 21
156.7628093973465
  0
ARC
  8
_0-7_外形7_7_
  6
CONTINUOUS
 62
   18
 10
114.77144210797272
 20
182.92576030124877
 40
29.5
 50
157.31800194717198
 51
202.68199805282805
  0
ARC
  8
_0-7_外形7_7_
  6
CONTINUOUS
 62
   18
 10
78.326400034766039
 20
167.69392166363852
 40
10
 50
315
 51
22.681998052828021
  0
LINE
  8
_0-7_外形7_7_
  6
CONTINUOUS
 62
   18
 10
92.468535658497018
 20
153.55178603990757
 11
88.608491204070475
 21
149.69174158548103
  0
ARC
  8
_0-7_外形7_7_
  6
CONTINUOUS
 62
   18
 10
114.77144210797272
 20
182.92576030124877
 40
29.5
 50
247.31800194717198
 51
292.68199805282802
  0
ARC
  8
_0-7_外形7_7_
  6
CONTINUOUS
 62
   18
 10
99.539603470362493
 20
146.48071822804209
 40
10
 50
67.318001947171979
 51
135.00000000000003
  0
ARC
  8
_0-7_外形7_7_
  6
CONTINUOUS
 62
   18
 10
95.852361802723266
 20
193.8486964083047
 40
4.1541277858881172
 50
45.000000000000036
 51
254.9999999999998
  0
ARC
  8
_0-7_外形7_7_
  6
CONTINUOUS
 62
   18
 10
92.925569893860853
 20
182.92576030124877
 40
4.1541277858881234
 50
75.000000000000071
 51
285.00000000000011
  0
ARC
  8
_0-7_外形7_7_
  6
CONTINUOUS
 62
   18
 10
95.852361802723266
 20
172.00282419419281
 40
4.1541277858881323
 50
104.9999999999999
 51
315.00000000000006
  0
ARC
  8
_0-7_外形7_7_
  6
CONTINUOUS
 62
   18
 10
103.84850600091679
 20
164.00667999599929
 40
4.1541277858881269
 50
135.00000000000017
 51
345.00000000000006
  0
ARC
  8
_0-7_外形7_7_
  6
CONTINUOUS
 62
   18
 10
125.69437821502865
 20
164.00667999599926
 40
4.1541277858881305
 50
195
 51
44.999999999999972
  0
ARC
  8
_0-7_外形7_7_
  6
CONTINUOUS
 62
   18
 10
133.69052241322223
 20
172.00282419419281
 40
4.1541277858881296
 50
224.99999999999963
 51
75.000000000000099
  0
ARC
  8
_0-7_外形7_7_
  6
CONTINUOUS
 62
   18
 10
136.61731432208461
 20
182.92576030124877
 40
4.1541277858881278
 50
255.00000000000006
 51
104.99999999999993
  0
ARC
  8
_0-7_外形7_7_
  6
CONTINUOUS
 62
   18
 10
133.69052241322223
 20
193.8486964083047
 40
4.1541277858881287
 50
284.99999999999989
 51
134.99999999999989
  0
ARC
  8
_0-7_外形7_7_
  6
CONTINUOUS
 62
   18
 10
125.69437821502865
 20
201.84484060649822
 40
4.1541277858881358
 50
315.00000000000023
 51
164.99999999999991
  0
ARC
  8
_0-7_外形7_7_
  6
CONTINUOUS
 62
   18
 10
114.77144210797272
 20
204.77163251536064
 40
4.154127785888126
 50
345.00000000000006
 51
195
  0
ARC
  8
_0-7_外形7_7_
  6
CONTINUOUS
 62
   18
 10
103.84850600091679
 20
201.84484060649822
 40
4.1541277858881278
 50
14.999999999999932
 51
115.41149265547766
  0
ARC
  8
_0-7_外形7_7_
  6
CONTINUOUS
 62
   18
 10
103.84850600091679
 20
201.84484060649822
 40
4.1541277858881278
 50
115.41149265547766
 51
224.99999999999989
  0
LINE
  8
_0-7_外形7_7_
  6
CONTINUOUS
 62
   18
 10
100.91109407359983
 20
198.90742867918129
 11
111.87366462910549
 21
187.9448581236756
  0
LINE
  8
_0-7_外形7_7_
  6
CONTINUOUS
 62
   18
 10
111.87366462910552
 20
187.9448581236756
 11
107.86108531501114
 21
202.92000799327565
  0
LINE
  8
_0-7_外形7_7_
  6
CONTINUOUS
 62
   18
 10
114.77144210797272
 20
188.7213152589832
 11
110.75886279387834
 21
203.69646512858321
  0
LINE
  8
_0-7_外形7_7_
  6
CONTINUOUS
 62
   18
 10
118.78402142206707
 20
203.69646512858321
 11
114.77144210797272
 21
188.7213152589832
  0
LINE
  8
_0-7_外形7_7_
  6
CONTINUOUS
 62
   18
 10
121.6817989009343
 20
202.92000799327565
 11
117.66921958683992
 21
187.9448581236756
  0
LINE
  8
_0-7_外形7_7_
  6
CONTINUOUS
 62
   18
 10
128.63179014234561
 20
198.90742867918129
 11
117.66921958683992
 21
187.94485812367557
  0
LINE
  8
_0-7_外形7_7_
  6
CONTINUOUS
 62
   18
 10
130.75311048590524
 20
196.78610833562166
 11
119.79053993039955
 21
185.82353778011597
  0
LINE
  8
_0-7_外形7_7_
  6
CONTINUOUS
 62
   18
 10
134.76568979999962
 20
189.83611709421035
 11
119.79053993039955
 21
185.82353778011597
  0
LINE
  8
_0-7_外形7_7_
  6
CONTINUOUS
 62
   18
 10
135.54214693530719
 20
186.93833961534312
 11
120.56699706570711
 21
182.92576030124877
  0
LINE
  8
_0-7_外形7_7_
  6
CONTINUOUS
 62
   18
 10
135.54214693530719
 20
178.91318098715439
 11
120.56699706570711
 21
182.92576030124877
  0
LINE
  8
_0-7_外形7_7_
  6
CONTINUOUS
 62
   18
 10
134.76568979999962
 20
176.01540350828719
 11
119.79053993039955
 21
180.02798282238157
  0
LINE
  8
_0-7_外形7_7_
  6
CONTINUOUS
 62
   18
 10
119.79053993039955
 20
180.02798282238155
 11
130.75311048590524
 21
169.06541226687585
  0
LINE
  8
_0-7_外形7_7_
  6
CONTINUOUS
 62
   18
 10
117.66921958683994
 20
177.90666247882191
 11
128.63179014234564
 21
166.94409192331622
  0
LINE
  8
_0-7_外形7_7_
  6
CONTINUOUS
 62
   18
 10
121.6817989009343
 20
162.93151260922187
 11
117.66921958683994
 21
177.90666247882189
  0
ARC
  8
_0-7_外形7_7_
  6
CONTINUOUS
 62
   18
 10
114.77144210797272
 20
161.07988808713688
 40
4.1541277858881296
 50
164.9999999999998
 51
281.59799090233645
  0
ARC
  8
_0-7_外形7_7_
  6
CONTINUOUS
 62
   18
 10
114.77144210797272
 20
161.07988808713688
 40
4.1541277858881296
 50
281.59799090233645
 51
289.34054846431911
  0
ARC
  8
_0-7_外形7_7_
  6
CONTINUOUS
 62
   18
 10
114.77144210797272
 20
161.07988808713688
 40
4.1541277858881296
 50
289.34054846431911
 51
15.000000000000021
  0
LINE
  8
_0-7_外形7_7_
  6
CONTINUOUS
 62
   18
 10
118.78402142206707
 20
162.1550554739143
 11
114.77144210797272
 21
177.1302053435144
  0
LINE
  8
_0-7_外形7_7_
  6
CONTINUOUS
 62
   18
 10
114.77144210797272
 20
177.1302053435144
 11
110.75886279387836
 21
162.1550554739143
  0
LINE
  8
_0-7_外形7_7_
  6
CONTINUOUS
 62
   18
 10
111.87366462910549
 20
177.90666247882194
 11
107.86108531501114
 21
162.93151260922187
  0
LINE
  8
_0-7_外形7_7_
  6
CONTINUOUS
 62
   18
 10
111.87366462910549
 20
177.90666247882191
 11
100.9110940735998
 21
166.94409192331625
  0
LINE
  8
_0-7_外形7_7_
  6
CONTINUOUS
 62
   18
 10
109.75234428554589
 20
180.02798282238157
 11
98.789773730040196
 21
169.06541226687588
  0
LINE
  8
_0-7_外形7_7_
  6
CONTINUOUS
 62
   18
 10
109.75234428554589
 20
180.02798282238157
 11
94.777194415945843
 21
176.01540350828719
  0
LINE
  8
_0-7_外形7_7_
  6
CONTINUOUS
 62
   18
 10
108.97588715023832
 20
182.92576030124877
 11
94.000737280638276
 21
178.91318098715439
  0
LINE
  8
_0-7_外形7_7_
  6
CONTINUOUS
 62
   18
 10
108.97588715023832
 20
182.92576030124877
 11
94.000737280638276
 21
186.93833961534312
  0
LINE
  8
_0-7_外形7_7_
  6
CONTINUOUS
 62
   18
 10
109.75234428554583
 20
185.82353778011597
 11
94.777194415945843
 21
189.83611709421032
  0
LINE
  8
_0-7_外形7_7_
  6
CONTINUOUS
 62
   18
 10
98.789773730040196
 20
196.78610833562163
 11
109.75234428554583
 21
185.823537780116
  0
CIRCLE
  8
_0-7_外形7_7_
  6
CONTINUOUS
 62
   18
 10
114.77144210797272
 20
182.92576030124874
 40
3
  0
ARC
  8
_0-7_外形7_7_
  6
CONTINUOUS
 62
   18
 10
188.32116788321167
 20
183.18613138686129
 40
6
 50
29.999999999999932
 51
150.00000000000003
  0
ARC
  8
_0-7_外形7_7_
  6
CONTINUOUS
 62
   18
 10
182.25899005672062
 20
186.68613138686129
 40
1
 50
270
 51
329.99999999999989
  0
ARC
  8
_0-7_外形7_7_
  6
CONTINUOUS
 62
   18
 10
194.38334570970278
 20
186.68613138686129
 40
1
 50
210.00000000000011
 51
270
  0
ARC
  8
_0-7_外形7_7_
  6
CONTINUOUS
 62
   18
 10
194.38334570970275
 20
179.68613138686129
 40
1
 50
90
 51
149.99999999999989
  0
ARC
  8
_0-7_外形7_7_
  6
CONTINUOUS
 62
   18
 10
188.32116788321167
 20
183.18613138686129
 40
6
 50
210.00000000000003
 51
329.99999999999994
  0
ARC
  8
_0-7_外形7_7_
  6
CONTINUOUS
 62
   18
 10
182.25899005672062
 20
179.68613138686129
 40
1
 50
30.000000000000146
 51
90
  0
CIRCLE
  8
_0-7_外形7_7_
  6
CONTINUOUS
 62
   18
 10
218.01965269304668
 20
212.8846161966963
 40
2.2999999999999998
  0
CIRCLE
  8
_0-7_外形7_7_
  6
CONTINUOUS
 62
   18
 10
158.62268307337666
 20
212.8846161966963
 40
2.2999999999999998
  0
CIRCLE
  8
_0-7_外形7_7_
  6
CONTINUOUS
 62
   18
 10
158.62268307337666
 20
153.48764657702628
 40
2.2999999999999998
  0
CIRCLE
  8
_0-7_外形7_7_
  6
CONTINUOUS
 62
   18
 10
218.01965269304668
 20
153.48764657702628
 40
2.2999999999999998
  0
ARC
  8
_0-7_外形7_7_
  6
CONTINUOUS
 62
   18
 10
158.62268307337666
 20
153.48764657702628
 40
5
 50
135
 51
315
  0
ARC
  8
_0-7_外形7_7_
  6
CONTINUOUS
 62
   18
 10
218.01965269304668
 20
212.8846161966963
 40
5
 50
315
 51
134.99999999999997
  0
ARC
  8
_0-7_外形7_7_
  6
CONTINUOUS
 62
   18
 10
158.62268307337666
 20
212.8846161966963
 40
5
 50
45.000000000000028
 51
224.99999999999997
  0
ARC
  8
_0-7_外形7_7_
  6
CONTINUOUS
 62
   18
 10
218.01965269304668
 20
153.48764657702628
 40
5
 50
225
 51
45
  0
LINE
  8
_0-7_外形7_7_
  6
CONTINUOUS
 62
   18
 10
155.08714916744395
 20
209.34908229076353
 11
158.9471936218705
 21
205.48903783633699
  0
ARC
  8
_0-7_外形7_7_
  6
CONTINUOUS
 62
   18
 10
151.87612581000502
 20
198.41797002447151
 40
10
 50
337.31800194717198
 51
44.999999999999986
  0
LINE
  8
_0-7_外形7_7_
  6
CONTINUOUS
 62
   18
 10
162.15821697930943
 20
216.42015010262901
 11
166.01826143373597
 21
212.56010564820247
  0
ARC
  8
_0-7_外形7_7_
  6
CONTINUOUS
 62
   18
 10
173.08932924560145
 20
219.63117346006794
 40
10
 50
225
 51
292.68199805282802
  0
LINE
  8
_0-7_外形7_7_
  6
CONTINUOUS
 62
   18
 10
214.48411878711394
 20
216.42015010262901
 11
210.6240743326874
 21
212.56010564820247
  0
ARC
  8
_0-7_外形7_7_
  6
CONTINUOUS
 62
   18
 10
188.32116788321167
 20
183.18613138686129
 40
29.5
 50
67.318001947171965
 51
112.68199805282805
  0
ARC
  8
_0-7_外形7_7_
  6
CONTINUOUS
 62
   18
 10
203.55300652082192
 20
219.63117346006794
 40
10
 50
247.31800194717198
 51
315
  0
LINE
  8
_0-7_外形7_7_
  6
CONTINUOUS
 62
   18
 10
221.55518659897942
 20
209.34908229076353
 11
217.69514214455288
 21
205.48903783633699
  0
ARC
  8
_0-7_外形7_7_
  6
CONTINUOUS
 62
   18
 10
224.76620995641835
 20
198.41797002447151
 40
10
 50
135.00000000000003
 51
202.68199805282802
  0
LINE
  8
_0-7_外形7_7_
  6
CONTINUOUS
 62
   18
 10
217.69514214455285
 20
160.88322493738556
 11
221.55518659897939
 21
157.02318048295902
  0
ARC
  8
_0-7_外形7_7_
  6
CONTINUOUS
 62
   18
 10
188.32116788321167
 20
183.18613138686129
 40
29.5
 50
337.31800194717192
 51
22.681998052828021
  0
ARC
  8
_0-7_外形7_7_
  6
CONTINUOUS
 62
   18
 10
224.76620995641832
 20
167.95429274925104
 40
10
 50
157.31800194717195
 51
225
  0
LINE
  8
_0-7_外形7_7_
  6
CONTINUOUS
 62
   18
 10
210.62407433268737
 20
153.81215712552009
 11
214.48411878711391
 21
149.95211267109354
  0
ARC
  8
_0-7_外形7_7_
  6
CONTINUOUS
 62
   18
 10
203.5530065208219
 20
146.74108931365464
 40
10
 50
44.999999999999972
 51
112.68199805282799
  0
LINE
  8
_0-7_外形7_7_
  6
CONTINUOUS
 62
   18
 10
158.9471936218705
 20
160.88322493738559
 11
155.08714916744395
 21
157.02318048295902
  0
ARC
  8
_0-7_外形7_7_
  6
CONTINUOUS
 62
   18
 10
188.32116788321167
 20
183.18613138686129
 40
29.5
 50
157.31800194717198
 51
202.68199805282805
  0
ARC
  8
_0-7_外形7_7_
  6
CONTINUOUS
 62
   18
 10
151.87612581000502
 20
167.95429274925107
 40
10
 50
315
 51
22.681998052828021
  0
LINE
  8
_0-7_外形7_7_
  6
CONTINUOUS
 62
   18
 10
166.01826143373597
 20
153.81215712552009
 11
162.15821697930943
 21
149.95211267109354
  0
ARC
  8
_0-7_外形7_7_
  6
CONTINUOUS
 62
   18
 10
188.32116788321167
 20
183.18613138686129
 40
29.5
 50
247.31800194717198
 51
292.68199805282802
  0
ARC
  8
_0-7_外形7_7_
  6
CONTINUOUS
 62
   18
 10
173.08932924560145
 20
146.74108931365461
 40
10
 50
67.318001947171979
 51
135.00000000000003
  0
ARC
  8
_0-7_外形7_7_
  6
CONTINUOUS
 62
   18
 10
165.76568074593172
 20
178.68613138686129
 40
2
 50
90
 51
191.28282428796908
  0
ARC
  8
_0-7_外形7_7_
  6
CONTINUOUS
 62
   18
 10
165.76568074593172
 20
187.68613138686129
 40
2
 50
168.71717571203092
 51
270
  0
ARC
  8
_0-7_外形7_7_
  6
CONTINUOUS
 62
   18
 10
188.32116788321167
 20
183.18613138686129
 40
25
 50
11.282824287969106
 51
168.71717571203089
  0
ARC
  8
_0-7_外形7_7_
  6
CONTINUOUS
 62
   18
 10
210.8766550204916
 20
187.68613138686129
 40
2
 50
270
 51
11.282824287969081
  0
ARC
  8
_0-7_外形7_7_
  6
CONTINUOUS
 62
   18
 10
188.32116788321167
 20
183.18613138686129
 40
25
 50
191.28282428796911
 51
348.71717571203089
  0
ARC
  8
_0-7_外形7_7_
  6
CONTINUOUS
 62
   18
 10
210.8766550204916
 20
178.68613138686129
 40
2
 50
348.71717571203089
 51
90
  0
LINE
  8
_0-7_外形7_7_
  6
CONTINUOUS
 62
   18
 10
165.76568074593172
 20
185.68613138686129
 11
169.23583319921937
 21
185.68613138686129
  0
ARC
  8
_0-7_外形7_7_
  6
CONTINUOUS
 62
   18
 10
169.23583319921937
 20
187.18613138686129
 40
1.5
 50
270
 51
348.16299584410643
  0
LINE
  8
_0-7_外形7_7_
  6
CONTINUOUS
 62
   18
 10
165.76568074593172
 20
180.68613138686129
 11
169.23583319921937
 21
180.68613138686129
  0
ARC
  8
_0-7_外形7_7_
  6
CONTINUOUS
 62
   18
 10
169.23583319921937
 20
179.18613138686129
 40
1.5
 50
11.837004155893577
 51
90
  0
ARC
  8
_0-7_外形7_7_
  6
CONTINUOUS
 62
   18
 10
175.95185100635871
 20
179.18613138686129
 40
1.5
 50
90
 51
197.92021313939225
  0
ARC
  8
_0-7_外形7_7_
  6
CONTINUOUS
 62
   18
 10
175.95185100635871
 20
187.18613138686129
 40
1.5
 50
162.07978686060764
 51
270
  0
ARC
  8
_0-7_外形7_7_
  6
CONTINUOUS
 62
   18
 10
188.32116788321167
 20
183.18613138686129
 40
14.5
 50
17.920213139392338
 51
162.07978686060767
  0
ARC
  8
_0-7_外形7_7_
  6
CONTINUOUS
 62
   18
 10
200.69048476006466
 20
187.18613138686129
 40
1.5
 50
270
 51
17.92021313939237
  0
LINE
  8
_0-7_外形7_7_
  6
CONTINUOUS
 62
   18
 10
207.40650256720397
 20
185.68613138686129
 11
210.8766550204916
 21
185.68613138686129
  0
ARC
  8
_0-7_外形7_7_
  6
CONTINUOUS
 62
   18
 10
188.32116788321167
 20
183.18613138686129
 40
18
 50
11.837004155893574
 51
168.16299584410643
  0
ARC
  8
_0-7_外形7_7_
  6
CONTINUOUS
 62
   18
 10
207.40650256720397
 20
187.18613138686129
 40
1.5
 50
191.83700415589357
 51
270
  0
LINE
  8
_0-7_外形7_7_
  6
CONTINUOUS
 62
   18
 10
207.40650256720397
 20
180.68613138686129
 11
210.8766550204916
 21
180.68613138686129
  0
ARC
  8
_0-7_外形7_7_
  6
CONTINUOUS
 62
   18
 10
188.32116788321167
 20
183.18613138686129
 40
18
 50
191.83700415589357
 51
348.16299584410643
  0
ARC
  8
_0-7_外形7_7_
  6
CONTINUOUS
 62
   18
 10
207.40650256720397
 20
179.18613138686129
 40
1.5
 50
90
 51
168.16299584410643
  0
ARC
  8
_0-7_外形7_7_
  6
CONTINUOUS
 62
   18
 10
188.32116788321167
 20
183.18613138686129
 40
14.5
 50
197.92021313939222
 51
342.07978686060778
  0
ARC
  8
_0-7_外形7_7_
  6
CONTINUOUS
 62
   18
 10
200.69048476006469
 20
179.18613138686129
 40
1.5
 50
342.07978686060773
 51
90
  0
LINE
  8
_0-7_外形7_7_
  6
CONTINUOUS
 62
   18
 10
175.95185100635871
 20
185.68613138686129
 11
182.25899005672062
 21
185.68613138686129
  0
LINE
  8
_0-7_外形7_7_
  6
CONTINUOUS
 62
   18
 10
175.95185100635871
 20
180.68613138686129
 11
182.25899005672062
 21
180.68613138686129
  0
LINE
  8
_0-7_外形7_7_
  6
CONTINUOUS
 62
   18
 10
194.38334570970278
 20
185.68613138686129
 11
200.69048476006466
 21
185.68613138686129
  0
LINE
  8
_0-7_外形7_7_
  6
CONTINUOUS
 62
   18
 10
194.38334570970275
 20
180.68613138686129
 11
200.69048476006469
 21
180.68613138686129
  0
ENDSEC
  0
EOF
